<?xml version="1.0" encoding="iso-8859-1"?>
<!-- Uploaded to: SVG Repo, www.svgrepo.com, Generator: SVG Repo Mixer Tools -->
<svg height="800px" width="800px" version="1.1" id="Layer_1" xmlns="http://www.w3.org/2000/svg" xmlns:xlink="http://www.w3.org/1999/xlink" 
	 viewBox="0 0 512 512" xml:space="preserve">
<path style="fill:#59C384;" d="M409.877,57.654C368.727,21.749,314.904,0,256,0C126.679,0,21.843,104.835,21.843,234.157
	c0,91.941,53,171.49,130.103,209.805C169.502,484.01,209.474,512,256,512c46.528,0,86.5-27.989,104.055-68.038
	c77.105-38.314,130.103-117.864,130.103-209.805c0-60.314-22.803-115.303-60.258-156.813"/>
<path style="opacity:0.1;fill:#231F20;enable-background:new    ;" d="M273.886,506.469c-46.526,0-86.498-27.989-104.055-68.038
	C92.729,400.117,39.729,320.567,39.729,228.626c0-101.924,65.128-188.622,156.031-220.788
	C95.634,34.419,21.843,125.664,21.843,234.157c0,91.941,53,171.49,130.103,209.805C169.502,484.01,209.474,512,256,512
	c14.988,0,29.289-2.919,42.386-8.195C290.495,505.541,282.3,506.469,273.886,506.469z"/>
<g>
	
		<ellipse transform="matrix(-0.7886 -0.6149 0.6149 -0.7886 488.655 668.9193)" style="fill:#3A5D74;" cx="359.311" cy="250.462" rx="54.768" ry="72.753"/>
	
		<ellipse transform="matrix(-0.7886 0.6149 -0.6149 -0.7886 427.121 354.1036)" style="fill:#3A5D74;" cx="152.692" cy="250.472" rx="54.768" ry="72.764"/>
</g>
<g>
	<path style="opacity:0.1;fill:#231F20;enable-background:new    ;" d="M332.46,307.846c-23.852-18.6-23.16-59.366,1.551-91.054
		c14.044-18.015,32.826-29.205,50.803-32.102c-22.507-3.944-49.855,7.944-68.69,32.102c-24.71,31.689-25.402,72.456-1.551,91.054
		c10.294,8.028,23.479,10.602,37.127,8.403C344.682,315.019,338.129,312.266,332.46,307.846z"/>
	<path style="opacity:0.1;fill:#231F20;enable-background:new    ;" d="M127.384,284.148c-24.711-31.688-25.404-72.456-1.553-91.057
		c5.671-4.421,12.224-7.172,19.241-8.402c-13.647-2.2-26.833,0.376-37.128,8.402c-23.852,18.601-23.16,59.369,1.553,91.057
		c18.836,24.156,46.183,36.046,68.688,32.102C160.21,313.351,141.428,302.16,127.384,284.148z"/>
</g>
<path style="fill:#3A5D74;" d="M305.457,389.812c-1.675-2.381-4.403-3.799-7.316-3.799h-84.282c-2.911,0-5.641,1.418-7.316,3.799
	c-1.675,2.381-2.085,5.43-1.101,8.169c7.63,21.236,27.948,35.505,50.557,35.505c22.61,0,42.928-14.269,50.558-35.505
	C307.542,395.242,307.132,392.193,305.457,389.812z"/>
<path style="opacity:0.1;fill:#231F20;enable-background:new    ;" d="M223.33,397.981c-0.985-2.74-0.575-5.787,1.1-8.169
	c1.675-2.381,4.403-3.799,7.316-3.799h-17.886c-2.911,0-5.641,1.418-7.316,3.799c-1.675,2.381-2.085,5.43-1.101,8.169
	c7.63,21.236,27.948,35.505,50.557,35.505c3.032,0,6.02-0.265,8.944-0.76C246.06,429.527,229.937,416.37,223.33,397.981z"/>
</svg>