<?xml version="1.0" encoding="iso-8859-1"?>
<!-- Uploaded to: SVG Repo, www.svgrepo.com, Generator: SVG Repo Mixer Tools -->
<svg height="800px" width="800px" version="1.1" id="Layer_1" xmlns="http://www.w3.org/2000/svg" xmlns:xlink="http://www.w3.org/1999/xlink" 
	 viewBox="0 0 508.4 508.4" xml:space="preserve">
<path style="fill:#BCAAA4;" d="M227.4,6.4h-44.8C144.2,6.4,113,37.6,113,76c0,6,0.8,12.4,2.4,18.4c0,0.4,0,1.2,0,1.6
	c-0.4,0.4-0.8,0.8-1.2,0.8c-40.4,11.2-68.8,48-68.8,90c0,15.2,4,30.4,11.2,44c15.6-13.6,15.2-9.2,0,5.6l0,0
	C40.2,252,30.2,273.6,30.2,298c0,39.6,26.8,72.8,63.6,82.4l0,0c6.8,2,13.6,2.8,21.6,2.8c0,0,2,0.8,2,2s-0.8,2-2,2
	c-6.8,0-13.2-0.8-19.6-2.4c-1.6,5.2-2.4,10.8-2.4,16.4c0,31.6,25.6,57.6,57.6,57.6c5.2,0,10-0.8,15.2-2c0.8,0,1.2,0,1.6,0.4
	c0.4,0.4,0.8,1.2,0.8,1.6s0,0.8-0.4,1.2c0,0.4,0,0.4,0,0.8c0,22.8,18.4,41.6,41.2,41.6s40.8-18.4,40.8-41.6v-12V333.6V30
	C250.2,16.8,240.2,6.4,227.4,6.4z"/>
<g>
	<path style="fill:#FFCDD2;" d="M96.2,383.2L96.2,383.2c0,0.8-0.4,1.2-0.4,2c6.4,1.6,12.8,2.4,19.6,2.4c1.2,0,2-0.8,2-2s-2-2-2-2v2
		C107.4,385.2,102.6,384.4,96.2,383.2z"/>
	<path style="fill:#FFCDD2;" d="M115.4,210.8v2c0,0,2-0.8,2-2s-0.8-2-2-2c-22.4,0-42.8,8.4-58.8,22c0.4,0.4,0.4,1.2,0.8,1.6
		C73,219.2,91.4,210.8,115.4,210.8z"/>
	<path style="fill:#FFCDD2;" d="M93.8,380.8c0.4,0,0.8,0,1.2,0c0.8,0.4,1.6,1.2,1.2,2.4c6,1.2,11.2,2,19.2,2v-2
		c-8,0-14.8-1.2-21.6-2.8L93.8,380.8z"/>
	<path style="fill:#FFCDD2;" d="M57.8,232.8L57.8,232.8c0.8,1.2,0.4,2.4-0.4,3.2H57v0.4c15.2-14.4,34.8-23.6,58.8-23.6v-2
		C91.4,210.8,73,219.2,57.8,232.8z"/>
	<path style="fill:#FFCDD2;" d="M451.4,236l-0.4-0.4v0.4C451,236,451,236,451.4,236z"/>
</g>
<path style="fill:#E0E0E0;" d="M412.2,380.8c0.4,0,0.8,0,1.2,0c37.2-9.2,64.8-42.8,64.8-82.8c0-23.6-9.6-46-26.8-62
	c-0.4,0-0.4,0-0.8,0h-0.4c-0.4-0.4-0.8-0.4-0.8-0.8c-0.4-0.4-0.4-1.2,0-2c8.4-14.4,12.8-30.4,12.8-46c0-42-28-79.2-68.4-90
	c-0.4,0-0.8-0.4-1.2-0.8s-0.4-1.2,0-1.6c2-6.4,2.8-12.8,2.8-18.4c0-38.4-31.2-69.6-69.2-69.6h-46.4c-13.6,0-24.8,10.8-24.8,24v430.8
	c0.4,0.4,0.8,0.8,0.8,1.6c0,22.4,19.2,40.8,42.8,40.8c22.4,0,41.6-19.6,41.6-42.8c0-0.4,0-0.8,0-1.2c0-0.4,0-0.8,0-1.2
	c0-0.8,0.4-1.2,0.8-1.6c0.4-0.4,1.2-0.4,1.6-0.4c5.2,1.6,10.4,2,15.2,2c31.6,0,57.2-26,57.2-57.6c0-4.8-0.8-10-2.8-16
	C411.8,385.2,412.2,380.8,412.2,380.8z"/>
<g>
	<path style="fill:#FFCDD2;" d="M250.2,462.8v2h1.2c0,0,0,0,0-0.4C250.6,464,250.2,463.6,250.2,462.8z"/>
	<path style="fill:#FFCDD2;" d="M409,381.6l-13.2-4l-2,5.6C399,383.2,404.2,382.8,409,381.6z"/>
	<path style="fill:#FFCDD2;" d="M393.8,383.2c-0.4,0-0.4,0-0.8,0c-1.2,0-2,0.8-2,2s0.8,2,2,2c6.4,0,12.8-0.8,18.8-2
		c0-0.8-0.4-1.2-0.4-2c-6,1.2-12,2-18.4,2L393.8,383.2z"/>
	<path style="fill:#FFCDD2;" d="M393.8,383.2l-0.8,2c6.4,0,12.4-0.8,18.4-2l0,0c0-0.4,0-0.8,0-0.8l-2-0.4
		C404.2,382.8,399,383.2,393.8,383.2z"/>
</g>
<path d="M115.4,389.2c-50.4,0-91.2-40.8-91.2-91.2c0-50.4,40.8-91.2,91.2-91.2c2.4,0,4,1.6,4,4s-1.6,4-4,4
	c-46,0-83.2,37.2-83.2,83.2s37.2,83.2,83.2,83.2c2.4,0,4,1.6,4,4S117.8,389.2,115.4,389.2z"/>
<path d="M209.4,508.4c-25.2,0-45.6-19.6-47.2-44.8c-4,0.8-7.6,1.2-11.6,1.2c-34.8,0-63.6-28.4-63.6-63.6c0-6.8,1.2-13.2,3.2-20
	c0.8-2,2.8-3.2,5.2-2.4c2,0.8,3.2,2.8,2.4,5.2c-2,5.6-2.8,11.6-2.8,17.2c0,30.8,24.8,55.6,55.6,55.6c4.8,0,9.6-0.8,14.8-2
	c1.2-0.4,2.4,0,3.6,0.8c1.2,0.8,1.6,2,1.6,3.2c0,0.4,0,1.2-0.4,1.6c0,22,17.6,40,39.2,40c21.6,0,38.8-17.6,38.8-39.6V30
	c0-12.4-8.8-21.6-20.8-21.6h-44.8C145.4,8.4,115,38.8,115,76c0,6,0.8,12,2.4,18c0.4,1.2,0,2-0.4,3.2c-0.4,0.8-1.2,1.6-2.4,2
	c-39.6,10.8-67.2,47.2-67.2,88c0,16,4,31.6,12,45.2c1.2,2,0.4,4.4-1.6,5.6s-4.4,0.4-5.6-1.6c-8.4-14.8-12.8-32-12.8-49.2
	c0-43.6,28.4-82,69.6-94.8c-1.2-5.6-2-10.8-2-16.4c0-41.6,34-75.6,75.6-75.6h44.8c16,0,28.8,13.2,28.8,29.6v430.8l0,0
	C255.8,487.6,235.4,508.4,209.4,508.4z"/>
<path d="M393,389.2c-2.4,0-4-1.6-4-4s1.6-4,4-4c46,0,83.2-37.2,83.2-83.2S439,214.8,393,214.8c-2.4,0-4-1.6-4-4s1.6-4,4-4
	c50.4,0,91.2,40.8,91.2,91.2S443.4,389.2,393,389.2z"/>
<path d="M297.8,508.4c-26.8,0-49.6-22-49.6-47.6c0-2.4,1.6-4,4-4s4,1.6,4,4c0,21.6,19.2,39.6,41.6,39.6c22,0,39.6-17.6,39.6-39.6
	c0-0.4,0-0.8,0-1.2v-0.8c0-1.2,0.4-2.4,1.6-3.2c1.2-0.8,2.4-1.2,3.6-0.8c4.8,1.2,10,2,14.8,2c30.8,0,55.6-24.8,55.6-55.6
	c0-6-0.8-12-2.8-17.6c-0.8-2,0.4-4.4,2.4-5.2c2-0.8,4.4,0.4,5.2,2.4c2,6.4,3.2,13.2,3.2,20c0,35.2-28.4,63.6-63.6,63.6
	c-4,0-8-0.4-12-1.2C343.8,488.4,323,508.4,297.8,508.4z"/>
<path d="M452.2,238c-0.8,0-1.2,0-2-0.4c-2-1.2-2.4-3.6-1.6-5.6c8-13.6,12-29.2,12-45.2c0-41.2-27.6-77.2-67.2-88
	c-1.2-0.4-2-0.8-2.4-2s-0.8-2-0.4-3.2c1.6-6,2.4-12,2.4-18C393,38.4,362.6,8,325.4,8h-45.6c-12.8,0-23.6,10-23.6,21.6
	c0,2.4-1.6,4-4,4s-4-1.6-4-4c0-16,14.8-29.6,31.6-29.6h45.6C367,0,401,34,401,75.6c0,5.2-0.8,10.8-2,16.4
	c41.2,12.8,69.6,51.2,69.6,94.8c0,17.2-4.4,34.4-12.8,49.2C455,237.2,453.4,238,452.2,238z"/>
<path d="M377.4,163.6c-1.2,0-2-0.4-2.8-1.2c-1.6-1.6-1.6-4,0-5.6c14-14,14-36.4,0-50.4s-36.4-14-50.4,0c-1.6,1.6-4,1.6-5.6,0
	s-1.6-4,0-5.6c17.2-17.2,44.8-17.2,61.6,0c17.2,17.2,17.2,44.8,0,61.6C379.4,163.2,378.6,163.6,377.4,163.6z"/>
<path d="M151,350.4c-1.2,0-2-0.4-2.8-1.2c-17.2-17.2-17.2-44.8,0-61.6c17.2-17.2,44.8-17.2,61.6,0c1.6,1.6,1.6,4,0,5.6s-4,1.6-5.6,0
	c-14-14-36.4-14-50.4,0s-14,36.4,0,50.4c1.6,1.6,1.6,4,0,5.6C153,350,151.8,350.4,151,350.4z"/>
<path d="M293.8,421.2c-25.2,0-45.6-18.8-45.6-42c0-2.4,1.6-4,4-4s4,1.6,4,4c0,18.8,16.8,34,37.6,34c19.6,0,35.6-16,35.6-35.6
	c0-2.4,1.6-4,4-4s4,1.6,4,4C337.4,401.6,317.8,421.2,293.8,421.2z"/>
<path d="M210.6,151.6c-24,0-43.6-19.6-43.6-43.6c0-2.4,1.6-4,4-4s4,1.6,4,4c0,19.6,16,35.6,35.6,35.6c20,0,37.6-16.8,37.6-36
	c0-2.4,1.6-4,4-4s4,1.6,4,4C256.2,131.6,235.4,151.6,210.6,151.6z"/>
</svg>