<svg width="1964" height="1515" viewBox="0 0 1964 1515" fill="none" xmlns="http://www.w3.org/2000/svg">
<path d="M35.2138 0C54.6264 0 70.387 15.7281 70.387 35.1732C70.387 54.6021 54.6346 70.3464 35.2138 70.3464C15.7606 70.3464 0 54.6183 0 35.1732C0.00811565 15.7038 15.7606 0 35.2138 0Z" fill="#FF5B62"/>
<path d="M795.187 830.823H991.813L516.058 1514.63H319.44L795.187 830.823Z" fill="#FF5B62"/>
<path d="M992.046 832H795L1111.95 1285H1309L992.07 832H992.046Z" fill="#ED4C54"/>
<path d="M1795.74 584.293L1308.49 1285H1112L1623.13 547.263L1423.8 494.839L1964 282L1932.54 629.207L1795.74 584.293Z" fill="#FF5B62"/>
</svg>
