<svg width="899" height="899" viewBox="0 0 899 899" fill="none" xmlns="http://www.w3.org/2000/svg">
<path d="M708.194 663.942C767.92 663.942 816.338 657.634 816.338 649.853C816.338 642.072 767.92 635.764 708.194 635.764C648.468 635.764 600.051 642.072 600.051 649.853C600.051 657.634 648.468 663.942 708.194 663.942Z" fill="#15BDB2"/>
<path d="M263.743 889.96C342.913 889.96 407.093 878.33 407.093 863.984C407.093 849.638 342.913 838.008 263.743 838.008C184.573 838.008 120.393 849.638 120.393 863.984C120.393 878.33 184.573 889.96 263.743 889.96Z" fill="#15BDB2"/>
<path d="M716.189 585.438C722.54 585.438 727.718 583.777 727.718 581.734C727.718 579.692 722.541 578.026 716.189 578.026C709.838 578.026 704.656 579.691 704.656 581.734C704.656 583.778 709.838 585.438 716.189 585.438Z" fill="white"/>
<path d="M698.783 451.225C701.426 456.257 711.028 453.59 708.632 448.171C701.937 435.022 697.707 429.524 688.796 417.223C687.516 415.488 685.014 414.635 682.659 415.175C679.388 415.881 677.883 419.021 679.618 421.37C688.541 433.677 691.832 438.133 698.785 451.22V451.223L698.783 451.225ZM238.111 523.682C236.465 527.199 240.516 530.606 244.979 529.398C246.259 529.027 247.475 528.142 247.978 527.068C254.422 514.165 261.985 501.332 270.095 489.078C272.906 484.953 266.052 480.255 261.342 484.137C254.129 491.311 242.836 514.22 238.107 523.682H238.111ZM276.683 462.652C273.236 467.128 281.248 471.826 285.412 467.684C295.745 455.867 304.231 444.605 315.626 433.08C319.888 428.483 311.527 423.4 307.255 427.64C296.31 438.76 285.991 450.584 276.685 462.65H276.681L276.683 462.652ZM327.932 408.106C323.749 411.881 329.851 417.483 335.129 414.492C344.322 406.187 359.551 394.472 373.313 385.152C378.53 381.584 371.967 375.007 366.416 378.511C352.779 387.686 339.975 397.58 327.933 408.103L327.932 408.106ZM391.969 362.954C389.989 364.078 389.165 366.082 390.04 367.925C391.199 370.545 395.318 371.641 398.071 370.087C412.371 362.256 427.246 355.474 443.109 349.833C448.903 347.949 446.034 340.328 439.244 341.798C422.908 346.653 406.329 355.1 391.969 362.96V362.954ZM469.229 333.171C463.273 334.376 464.594 341.912 471.311 341.573C477.424 340.848 494.06 335.516 523.062 335.904C530.017 335.904 530.18 327.7 523.094 327.342C503.997 327.342 487.55 329.14 469.226 333.168L469.229 333.171ZM553.73 338.678C570.474 341.645 586.238 346.741 601.091 353.789C608.198 357.23 612.806 349.724 607.036 346.779C591.913 339.378 574.646 333.842 557.514 330.624C547.367 328.826 547.665 337.475 553.73 338.678ZM633.815 362.482C628.7 358.786 621.492 364.946 626.93 368.88C640.028 377.96 652.014 388.885 662.261 400.07C666.133 404.424 674.619 400.261 671.037 395.41C661.229 383.71 647.115 371.697 633.811 362.479L633.815 362.482Z" fill="#8C8C8C"/>
<path d="M116.556 560.666H390.405H431.171C436.112 560.666 440.151 564.71 440.151 569.649V623.097V818.302H66.8057V818.298V623.097V569.649C66.8057 564.708 70.8459 560.666 75.7851 560.666H116.556Z" fill="white"/>
<path d="M75.7886 560.666H431.169C436.11 560.666 440.149 564.71 440.149 569.649V587.606H66.8057V569.649C66.8057 564.708 70.8459 560.666 75.7851 560.666H75.7886Z" fill="#666666"/>
<path d="M233.018 569.972H413.364C414.695 569.972 415.777 571.055 415.777 572.384V576.86C415.777 578.191 414.694 579.269 413.364 579.269H233.018C231.687 579.269 230.609 578.186 230.609 576.86V572.384C230.608 571.055 231.693 569.972 233.018 569.972Z" fill="white"/>
<path d="M105.132 568.369C107.991 568.369 110.305 570.68 110.305 573.538C110.305 576.397 107.991 578.707 105.132 578.707C102.277 578.707 99.9629 576.391 99.9629 573.538C99.9629 570.681 102.279 568.369 105.132 568.369Z" fill="#FCB42A"/>
<path d="M125.549 568.369C128.404 568.369 130.719 570.68 130.719 573.538C130.719 576.397 128.404 578.707 125.549 578.707C122.687 578.707 120.373 576.391 120.373 573.538C120.373 570.681 122.689 568.369 125.549 568.369Z" fill="#FF5B62"/>
<path d="M87.0117 597.49H419.947V707.317H87.0117V597.49Z" fill="#ECF0F1"/>
<path d="M136.407 723.355C148.63 723.355 158.54 733.262 158.54 745.488C158.54 757.71 148.633 767.62 136.407 767.62C124.185 767.62 114.278 757.71 114.278 745.488C114.278 733.265 124.187 723.355 136.407 723.355Z" fill="#FF5B62"/>
<path d="M253.48 723.355C265.702 723.355 275.609 733.262 275.609 745.488C275.609 757.71 265.702 767.62 253.48 767.62C241.257 767.62 231.351 757.71 231.351 745.488C231.351 733.265 241.257 723.355 253.48 723.355Z" fill="#21D0C3"/>
<path d="M370.55 723.355C382.772 723.355 392.682 733.262 392.682 745.488C392.682 757.71 382.776 767.62 370.55 767.62C358.327 767.62 348.417 757.71 348.417 745.488C348.415 733.265 358.325 723.355 370.55 723.355Z" fill="#FAD24D"/>
<path d="M104.654 774.995H168.164V779.483H104.654V774.995ZM104.654 803.22H147.315V807.708H104.654V803.22ZM104.654 789.107H168.164V793.595H104.654V789.107Z" fill="#DCE3DB"/>
<path d="M221.723 774.995H285.232V779.483H221.723V774.995ZM221.723 803.22H264.383V807.708H221.723V803.22ZM221.723 789.107H285.232V793.595H221.723V789.107Z" fill="#DCE3DB"/>
<path d="M338.798 774.995H402.304V779.483H338.798V774.995ZM338.798 803.22H381.458V807.708H338.798V803.22ZM338.798 789.107H402.304V793.595H338.798V789.107Z" fill="#DCE3DB"/>
<path d="M85.3545 714.326H419.946V715.706H85.3545V714.326Z" fill="#ECF0F1"/>
<path d="M289.116 818.296H217.828V852.962H289.116V818.296Z" fill="#919191"/>
<path d="M184.671 852.967H322.279C326.119 852.967 329.262 856.105 329.262 859.95V866.937H177.689V859.95C177.688 856.105 180.827 852.967 184.671 852.967Z" fill="white"/>
<path d="M626.761 463.655H789.607H813.848C816.788 463.655 819.19 466.06 819.19 468.996V500.779V616.859H597.182L597.179 616.855V500.779V468.996C597.179 466.057 599.579 463.655 602.52 463.655H626.761Z" fill="white"/>
<path d="M602.524 463.655H813.85C816.789 463.655 819.191 466.055 819.191 468.996V479.675H597.179V468.996C597.179 466.057 599.579 463.655 602.52 463.655H602.524Z" fill="#666666"/>
<path d="M696.018 469.188H803.26C804.052 469.188 804.695 469.834 804.695 470.622V473.284C804.695 474.076 804.052 474.718 803.26 474.718H696.018C695.231 474.718 694.583 474.076 694.583 473.284V470.622C694.583 469.834 695.231 469.188 696.018 469.188Z" fill="white"/>
<path d="M607.836 468.236C609.532 468.236 610.909 469.607 610.909 471.312C610.909 473.008 609.534 474.385 607.836 474.385C606.136 474.385 604.76 473.01 604.76 471.312C604.76 469.611 606.136 468.236 607.836 468.236Z" fill="#21D0C3"/>
<path d="M619.973 468.236C621.673 468.236 623.049 469.607 623.049 471.312C623.049 473.008 621.675 474.385 619.973 474.385C618.277 474.385 616.9 473.01 616.9 471.312C616.902 469.611 618.277 468.236 619.973 468.236Z" fill="#FAD24D"/>
<path d="M632.114 468.236C633.81 468.236 635.187 469.607 635.187 471.312C635.187 473.008 633.812 474.385 632.114 474.385C630.415 474.385 629.038 473.01 629.038 471.312C629.036 469.611 630.415 468.236 632.114 468.236Z" fill="#FF5B62"/>
<path d="M609.197 485.554H807.174V550.861H609.197V485.554Z" fill="#ECF0F1"/>
<path d="M638.571 560.396C645.838 560.396 651.733 566.286 651.733 573.557C651.733 580.825 645.842 586.714 638.571 586.714C631.303 586.714 625.414 580.823 625.414 573.557C625.411 566.292 631.303 560.396 638.571 560.396Z" fill="#FF5B62"/>
<path d="M708.186 560.396C715.453 560.396 721.343 566.286 721.343 573.557C721.343 580.825 715.452 586.714 708.186 586.714C700.92 586.714 695.029 580.823 695.029 573.557C695.028 566.292 700.918 560.396 708.186 560.396Z" fill="#21D0C3"/>
<path d="M778.157 562C785.424 562 791.319 567.891 791.319 575.162C791.319 582.429 785.428 588.319 778.157 588.319C770.889 588.319 765 582.428 765 575.162C764.996 567.896 770.889 562 778.157 562Z" fill="#FAD24D"/>
<path d="M619.685 591.102H657.451V593.773H619.685V591.102ZM619.685 607.888H645.05V610.559H619.685V607.888ZM619.685 599.497H657.451V602.164H619.685V599.497Z" fill="#DCE3DB"/>
<path d="M689.303 591.102H727.066V593.773H689.303V591.102ZM689.303 607.888H714.668V610.559H689.303V607.888ZM689.303 599.497H727.066V602.164H689.303V599.497Z" fill="#DCE3DB"/>
<path d="M758.919 591.102H796.682V593.773H758.919V591.102ZM758.919 607.888H784.284V610.559H758.919V607.888ZM758.919 599.497H796.682V602.164H758.919V599.497Z" fill="#DCE3DB"/>
<path d="M608.21 555.028H807.173V555.846H608.21V555.028Z" fill="#ECF0F1"/>
<path d="M729.382 616.855H686.99V637.467H729.382V616.855Z" fill="#919191"/>
<path d="M667.269 637.471H749.099C751.383 637.471 753.25 639.339 753.25 641.622V645.772H663.114V641.622C663.116 639.339 664.982 637.471 667.269 637.471Z" fill="white"/>
<path d="M530.259 260.73L549.309 283.398L525.183 299.289L520.644 292.381L532.531 284.55C432.082 266.784 322.032 320.512 259.82 398.41L279.419 395.861L280.472 404.064L246.746 408.45L243.736 378.543L251.956 377.721L253.502 393.081C317.379 313.213 429.399 258.755 532.44 276.139L523.94 266.026L530.268 260.723L530.259 260.73Z" fill="#D1CDCD"/>
</svg>
