<svg width="688" height="376" viewBox="0 0 688 376" fill="none" xmlns="http://www.w3.org/2000/svg">
<rect width="688" height="376" fill="white"/>
<g clip-path="url(#clip0_76_10)">
<path d="M543.435 8.11501C554.661 8.11501 550.816 12.0948 556.51 13.902C561.048 15.3497 557.973 12.9984 563.276 12.7561C564.896 12.637 566.51 13.1175 568.122 12.9389C572.74 12.5117 570.354 12.2735 571.965 11.4911C575.353 9.86466 587.35 10.1665 590.275 11.1851C593.193 12.2119 592.735 12.8177 597.348 13.8424C603.269 15.1033 609.806 12.5754 615.037 15.3497C618.347 17.1589 616.888 17.7052 622.118 17.7647C626.42 17.7647 630.5 16.738 634.42 17.7072C639.035 18.7874 636.032 17.5245 641.493 16.6784C643.262 16.4402 644.263 16.6784 645.879 17.2205C649.725 18.4876 648.88 19.3316 654.036 19.0934C663.107 18.5513 668.643 22.831 676.798 23.9726C682.414 24.7571 688.104 23.5497 687.717 30.3675C681.872 31.0925 677.185 25.901 671.719 29.1621C671.956 34.2856 674.873 31.0289 677.713 35.1913C677.486 35.2549 677.181 35.3125 677.026 35.3741C672.719 36.3989 670.792 37.6659 667.717 41.7031C663.488 41.7031 660.335 40.7401 655.871 43.0299C655.102 50.0263 664.176 48.2171 663.101 58.6533C663.026 60.5817 663.026 63.7792 662.715 66.4919C658.872 66.1305 649.717 56.3595 647.951 53.464C644.721 48.1556 654.104 36.3989 648.567 36.6986C646.566 36.8219 647.876 37.9678 645.797 40.0809C640.335 39.8365 642.874 35.7356 636.18 38.21C634.643 44.1202 638.41 43.3954 635.49 44.9663C632.491 46.5332 630.183 44.2414 627.951 43.88C627.487 43.7588 612.953 44.5392 612.261 44.8411C610.647 46.7693 607.723 54.1909 607.032 56.0617C611.797 58.8956 615.107 58.2283 616.797 58.2899C619.107 58.3535 619.876 59.7437 621.723 60.1608C627.182 61.4893 621.879 58.409 626.261 60.1608C629.567 63.7833 632.873 67.3378 636.18 70.8989C635.564 72.2871 635.028 73.6094 634.49 74.936C630.95 72.2869 630.414 66.6745 626.03 65.0461C625.336 70.8331 631.181 68.1778 627.951 81.7478C625.183 93.5703 623.106 89.1058 618.102 90.4302C616.95 91.1552 613.877 99.1169 613.568 100.444C617.255 103.881 621.797 105.695 621.564 112.806C619.41 113.89 618.025 114.917 615.105 114.133C612.028 101.951 613.026 108.04 609.336 104.362C605.493 100.501 610.334 96.8827 599.646 101.166C598.028 98.8129 599.028 99.0553 598.18 96.4616C595.489 96.823 591.798 100.316 590.951 103.035C593.261 104.243 595.103 105.812 596.258 105.992C598.49 106.23 599.565 104.604 602.566 106.53C600.874 109.909 599.646 109.179 598.261 112.623C600.72 116.659 604.949 119.558 606.41 124.924C606.488 125.107 606.565 125.343 606.641 125.583C607.49 128.36 608.106 126.249 608.254 130.107C608.333 132.941 606.946 134.514 605.946 137.344C600.952 150.43 593.64 148.624 583.719 153.446C583.877 157.067 587.025 162.911 579.797 161.587C579.263 155.742 582.338 158.753 581.722 153.148C577.025 151.518 574.335 153.748 572.26 158.695C574.106 167.382 584.564 168.043 581.798 181.311C578.564 184.022 575.337 186.677 572.179 189.332C569.261 187.459 572.414 188.841 569.645 185.408C566.72 181.909 563.254 179.434 560.032 176.543C559.797 177.025 559.566 177.506 559.336 177.993C558.264 180.824 556.879 184.02 557.571 186.858C557.877 188.303 560.339 193.61 561.646 194.756C563.956 196.989 566.339 197.469 567.108 200.97C567.413 202.174 568.567 211.159 568.567 211.704C559.029 208.204 561.873 201.873 558.416 195.722C556.953 192.949 556.572 193.61 554.649 190.897C554.497 185.954 555.956 181.913 554.806 176.789C554.035 173.77 552.574 169.366 551.805 166.293C548.343 167.016 545.266 171.844 544.495 167.137C544.346 166.293 544.188 165.507 544.114 164.786C542.118 156.099 539.27 158.451 536.344 150.13C531.651 151.637 531.502 151.76 525.961 152.66L525.886 152.762L525.901 153.07C523.694 156.143 526.012 154.838 522.142 158.044C517.527 161.841 514.526 167.031 509.376 170.107C508.758 175.479 509.838 176.682 508.453 183.075C507.917 185.424 505.223 191.756 502.066 191.279C501.07 191.094 496.839 180.843 495.838 178.007C494.144 173.185 492.221 169.626 490.997 164.075C490.304 161.122 489.838 155.453 489.144 153.463C485.838 153.943 485.993 156.001 482.841 153.824C480.609 152.257 481.611 151.294 480.378 148.941C477.763 146.53 475.07 144.117 472.384 141.706C470.303 141.047 462.306 142.189 458.922 141.825C452.848 141.283 452.306 141.642 448.691 136.884C442.307 137.184 442.846 139.531 436.62 134.284C432.54 130.912 433.31 125.483 427.389 128.559C427.159 133.504 429.621 134.59 431.849 136.884C433.461 138.632 435.466 139.837 436.309 142.188C436.387 142.252 436.773 144.484 436.845 144.782C442.616 145.146 444.001 142.431 447.152 140.139C450.229 142.973 447.228 143.458 451.69 145.688C455.229 147.438 454.536 146.411 456.842 149.245C457.997 153.05 448.92 163.361 445.921 165.23C443.613 166.675 442.379 165.833 440.305 167.519C437.232 170.057 440.693 169.694 435.307 171.622C429.539 173.672 423.844 178.013 417.771 178.379C416.464 174.879 415.156 171.323 413.849 167.764C410.007 155.644 410.162 160.344 406.234 154.072C404.385 151.36 405.154 149.606 403.925 147.199C403.08 145.392 401.772 144.606 400.616 142.375C398.847 138.938 396.774 133.57 392.697 134.114L390.717 124.261C391.236 124.251 391.875 124.203 392.697 124.101C393.542 122.415 399.772 107.091 391.694 109.023C389.309 109.623 390.929 110.469 387.543 109.623C384.004 108.724 387.394 108.054 383.472 108.598C379.62 109.14 375.008 112.459 372.009 101.062C370.859 96.9567 368.776 93.4019 364.015 99.6077C365.243 101.721 366.086 101.904 367.473 103.953C367.088 104.551 365.783 106.066 365.32 106.547C362.704 109.079 366.4 107.871 362.168 108.413C359.862 106.73 360.322 104.553 358.094 101.542C354.172 95.9298 356.707 98.5297 354.704 93.1595C353.131 91.8062 350.528 90.7938 348.403 89.4652V89.4261L348.282 89.346C347.748 88.9867 347.208 88.6253 346.748 88.1982C343.362 85.2491 342.666 82.594 338.902 83.2573C338.82 86.0295 339.207 86.1485 340.594 87.962C345.821 94.3527 344.211 92.1861 348.28 94.5355L348.438 94.6195V94.6483C349.388 95.1823 350.501 95.9461 352.016 97.0243C346.804 101.517 351.598 102.01 348.438 103.51V103.514L348.401 103.526L348.28 103.583C347.972 103.701 347.668 103.826 347.441 103.945C346.361 101.294 348.747 102.557 345.973 98.7001C344.436 96.7102 342.975 96.1064 340.594 95.0181C334.589 92.2457 335.362 90.0751 331.67 86.4504C327.515 86.5757 328.441 87.8428 325.516 89.2865C321.978 90.9726 322.518 88.9887 318.363 89.3481C314.977 95.1988 319.826 90.3133 313.67 95.1412C306.282 100.745 312.361 106.596 300.523 108.348C299.674 108.469 299.363 108.348 298.524 108.647C296.364 109.399 297.51 108.812 296.412 109.913L294.456 109.991C294.136 107.52 291.381 107.116 288.444 107.019C286.834 101.653 286.834 102.982 288.061 98.0368C288.753 95.2624 288.137 93.9317 288.753 91.1573C290.291 84.2244 302.364 91.1038 305.83 88.2659C307.442 85.3108 307.673 82.4214 305.83 79.5793C303.903 76.7452 301.37 77.1068 300.062 74.3939C302.982 72.4678 300.826 74.1518 303.371 73.6075C306.366 72.9483 305.983 72.1002 309.517 71.441C312.675 70.8352 314.678 67.9992 317.751 66.075C322.132 63.3047 320.051 60.8241 325.362 59.9842C333.902 58.5302 328.361 58.7766 329.29 50.9956C330.588 50.513 331.821 49.9689 333.051 49.4266C335.743 52.8686 332.361 51.4822 335.588 53.768C336.437 53.2874 337.433 52.8069 338.36 52.3262C337.896 48.5826 336.13 49.3056 334.974 44.6666C330.743 45.3258 329.205 48.8271 325.821 47.5579C322.514 46.3525 322.363 41.7072 322.514 37.8486C323.74 34.9573 329.894 33.3862 332.28 32.6614C336.128 31.3943 335.588 28.8643 339.127 25.4244C343.745 20.8965 340.353 25.4861 342.587 19.6397C347.663 19.4528 345.281 19.27 348.276 17.7668L348.397 17.7216L348.434 17.7093L348.704 17.6025C350.472 16.816 352.777 16.6353 355.085 15.8529C363.545 13.0826 367.007 14.4646 373.157 16.9371C377.926 18.8634 392.31 18.9291 393.39 24.8372C389.923 28.392 386.62 25.8003 381.618 26.1064C382.543 30.6879 382.93 30.6879 387.159 31.9528C387.85 29.776 386.852 30.6262 388.002 29.2401C389.391 29.5398 390.772 29.776 392.153 30.0183C393.542 25.3774 395.156 26.0385 399.849 25.4964C399.08 22.3011 398.233 23.2068 399.999 20.6747C404.847 21.1552 400.927 20.7362 403.307 24.5334C406.695 24.1103 410.003 20.4324 414.694 19.9476C417.614 19.6479 417.456 20.7343 421.614 20.3131C424.999 19.9476 424.846 18.7402 428.232 20.1305C429.459 17.8982 428.232 17.9557 431.227 17.4197C435.843 16.6312 439.846 19.4035 444.304 20.0134C440.996 16.0295 437.845 16.814 441.921 10.1809C447.073 9.15617 447.537 9.87697 449.765 13.6761C451.301 12.8341 451.764 11.9901 452.609 11.7478C454.919 11.2036 455.684 13.136 460.684 10.2404C463.839 8.49081 458.687 9.63467 464.377 8.06574C466.605 7.52154 466.605 8.42919 468.606 6.80072C473.145 5.17223 477.607 3.48215 482.141 1.79207C486.984 1.73456 484.527 3.18028 490.065 1.12876C497.6 -1.5265 499.753 1.31154 505.444 1.49225C518.76 2.0036 514.044 9.43752 534.876 9.43752C538.186 9.43752 537.955 8.1684 542.644 8.11088C542.875 8.11088 543.106 8.11088 543.413 8.11088L543.435 8.11501ZM624.73 117.815C625.111 120.706 626.576 122.881 629.117 124.027C631.733 119.926 628.503 119.685 638.033 116.728C638.649 116.546 639.264 116.303 639.804 116.069C647.957 111.484 642.341 114.8 648.495 112.391C648.575 108.654 647.647 106.179 647.343 102.14C647.192 97.6159 645.65 95.8662 641.574 95.1434C641.188 103.528 647.035 100.815 637.574 109.553C632.65 114.194 629.42 108.769 624.73 117.815ZM571.201 231.858C571.738 229.327 572.126 226.189 573.278 224.316C576.895 224.316 573.589 227.273 579.047 226.608C579.972 224.499 579.972 223.472 579.583 221.243C577.122 220.7 576.431 221.181 574.659 222.69C574.125 222.089 573.589 221.488 573.047 220.883C570.508 219.078 570.815 223.237 568.431 218.529C565.892 213.647 568.74 213.585 563.204 210.212C559.816 208.158 558.662 207.014 555.894 204.178C551.129 199.173 555.354 201.404 547.434 198.99C547.277 204.481 548.514 201.223 552.739 207.613C554.511 210.634 556.201 213.647 557.971 216.66C560.508 220.817 563.128 232.155 571.201 231.858ZM583.428 223.954C590.273 224.981 595.192 227.456 597.117 226.129C599.197 223.775 598.504 222.212 600.582 218.771C603.347 214.31 601.425 215.695 604.965 211.774C602.966 204.602 602.041 207.798 605.886 200.496C605.272 198.21 603.58 195.559 601.657 194.171C599.427 195.559 601.35 193.986 599.813 195.975C597.119 198.928 594.351 201.887 591.736 204.841C589.428 207.074 590.351 205.378 586.814 208.16C585.815 208.702 584.815 209.245 583.741 209.788C582.049 210.385 580.97 208.461 580.588 213.466C580.349 215.754 582.734 220.881 583.428 223.954ZM419.481 83.5714C420.019 90.9356 424.481 93.7674 427.637 97.1414C427.249 100.641 426.398 99.7351 426.476 104.618C430.25 107.276 433.014 108.9 437.941 107.576C438.63 101.665 436.701 101.963 434.862 97.9259C435.169 97.4412 436.014 96.8396 436.171 96.7184C437.554 94.9113 436.861 97.4412 437.554 94.3649C433.939 93.219 428.094 89.5987 427.637 84.8404C429.401 83.4524 428.863 84.2942 430.17 83.4524C433.014 81.6391 430.862 84.4133 432.556 81.3413C431.097 78.5669 429.479 78.0821 425.942 79.4704C424.403 80.0761 420.326 82.9102 419.481 83.5714ZM388.021 85.5039C385.641 82.251 385.791 80.6204 381.177 80.5014C379.334 82.4296 377.18 85.3252 376.179 88.2781C374.639 92.7427 375.713 89.6664 375.87 94.4902C375.791 94.673 375.87 94.9173 375.87 95.0961C375.791 97.9874 375.099 94.5497 375.56 97.2091C379.179 96.4842 376.408 96.5439 379.101 95.6937C381.638 94.8537 389.408 92.5619 391.634 93.1021C396.941 94.3054 401.405 98.4105 407.402 94.3054C407.095 89.0626 400.632 87.0708 396.172 84.7768C396.409 79.9571 397.716 83.7562 397.404 79.1111C395.865 79.0473 394.942 78.8071 393.482 79.4088C390.024 80.9161 391.939 81.3432 391.939 81.8834C392.096 84.4771 395.405 81.3454 391.867 84.5387C390.871 85.3847 389.255 85.3847 388.021 85.5039ZM298.227 48.9421C298.081 57.3883 301.073 54.5482 303.92 58.713C302.617 62.2738 302.384 59.4994 300.929 63.1733C299.621 66.2536 301.234 63.4814 300.387 68.8473C302.619 68.9663 305.923 68.1881 308.851 67.9397C313.004 67.5802 312.926 67.2147 314.387 63.0562C312.079 60.282 309.769 57.5095 307.392 54.7373C304.387 50.2749 307.392 53.3449 306.467 49.6073C305.777 48.2807 305.16 46.9603 304.544 45.6277C300.538 46.9562 300.925 46.5927 298.227 48.9421Z" fill="#21D0C3"/>
<path d="M392.659 134.052C391.816 136.759 396.422 145.918 397.572 148.141C398.727 150.374 400.569 151.336 401.109 154.533C401.876 158.926 400.954 158.382 403.411 161.333C408.561 167.416 403.18 166.335 411.171 172.297C417.158 176.757 415.626 178.078 418.163 184.043C422.077 185.124 433.754 180.008 435.749 181.509C438.132 185.666 432.988 192.292 431.681 195.903C427.378 208.01 419.853 207.831 414.091 217.103C410.944 222.103 409.481 222.768 406.566 228.786C403.258 235.596 413.244 254.445 407.255 262.334C405.95 264.138 401.723 265.225 396.424 270.706C390.815 276.668 396.575 275.641 394.427 285.581C392.735 287.87 390.664 287.989 388.587 289.615C387.82 291.963 388.436 293.83 387.13 296.721C385.745 300.216 385.52 298.345 383.519 301.179C382.057 303.405 382.212 304.309 380.524 306.357C379.067 308.225 378.296 308.769 376.913 309.975C370.232 315.997 355.867 316.178 354.636 315.334C351.255 312.504 353.561 311.776 352.716 307.803C351.9 304.309 350.008 301.382 348.421 298.689V298.6L348.299 298.39C347.535 297.069 346.842 295.799 346.457 294.599C343.691 286.042 344.697 279.547 339.857 270.876C333.784 259.666 343.231 253.828 342.844 247.502C342.693 245.82 342.081 244.795 341.923 243.466C340.773 236.481 340.086 230.218 335.319 224.732C330.097 218.778 330.787 220.883 332.481 211.07C334.625 199.807 329.713 202.698 322.803 202.4C319.419 192.16 312.814 197.152 306.214 200.167C302.064 202.03 300.528 199.632 295.842 200.289C285.393 201.676 293.614 206.072 279.632 195.23C273.798 190.709 277.713 192.999 274.259 187.341C273.109 185.294 269.571 182.588 267.959 180.533C262.664 174.03 268.957 167.469 268.039 160C266.426 146.145 264.121 158.19 272.033 141.451C276.178 132.537 282.478 132.479 284.094 128.499C285.477 124.949 284.548 122.414 287.163 119.165C289.467 116.52 292.769 117.055 294.077 112.902C294.514 111.69 294.644 110.731 294.547 109.968H294.549L296.503 109.89L296.378 110.013C297.379 112.302 295.996 111.937 299.992 112.484C307.284 113.442 308.211 109.051 313.508 107.962C316.121 107.421 332.483 106.76 333.631 107.058C337.162 110.915 334.245 113.628 334.245 116.875C338.085 118.864 343.536 119.346 345.77 121.397C348.301 123.745 347.075 123.382 348.301 123.8L348.456 123.845V123.868C348.913 124.003 349.587 124.239 350.725 124.664C353.796 125.689 353.643 126.288 356.945 126.528C359.943 116.711 356.868 117.738 371.306 122.25C386.363 127.073 379.601 122.677 385.977 123.335C388.537 123.581 388.461 124.266 390.681 124.219L392.659 134.052ZM430.449 251.617C427.071 253.297 426.609 257.154 424.076 259.323C421.312 261.792 417.621 260.648 416.546 265.223C415.163 270.948 418.854 269.197 414.779 276.666C413.32 279.432 413.242 286.363 415.468 288.411C422.155 294.731 425.766 278.775 427.3 273.78C428.452 270.222 429.53 266.192 430.756 262.875C431.982 259.321 433.752 256.188 430.449 251.617Z" fill="#FAD24D"/>
<path d="M163.701 268.627C161.626 265.258 156.555 263.692 152.479 260.973C152.249 260.911 152.094 260.852 152.02 260.734C146.408 256.872 141.103 241.741 136.644 236.073C134.569 233.359 133.266 234.565 132.345 230.288C131.345 226.372 132.879 227.032 134.188 223.772C127.349 211.474 143.03 211.661 139.8 196.887C139.11 194.177 137.109 190.377 135.417 189.172C132.191 190.56 133.727 191.34 132.033 193.994C129.418 192.541 126.806 191.096 124.271 189.65C116.354 182.176 120.586 187.606 118.353 182.724C113.591 172.474 109.05 178.202 103.366 173.133C100.827 171.023 100.368 167.707 96.1402 168.313C89.7621 169.157 93.2994 170.118 86.6878 167.102C81.0756 164.509 75.232 161.498 71.3139 158.002C71.1581 152.574 73.1612 152.332 69.7017 147.269C68.0121 144.674 65.7038 142.566 64.3191 140.511C61.8634 136.596 65.4744 140.15 59.3276 132.439C55.2558 127.311 60.0178 126.829 55.4052 123.276C49.3384 126.106 58.8647 134.125 61.8674 147.089C59.2518 146.727 57.4843 144.672 56.4827 141.78C54.9465 137.015 56.5604 138.226 51.7963 136.233C52.0257 128.032 53.6396 135.27 50.2601 127.133C49.1049 124.117 49.7972 122.789 48.6461 119.716C47.7224 117.066 49.109 119.472 47.5666 117.967C46.9563 116.16 48.0338 117.848 46.647 116.46C45.2645 114.949 46.5693 116.277 45.3402 115.374C42.2638 113.266 41.5756 110.609 41.0369 106.393C39.4926 92.6489 44.1093 91.5013 49.4122 81.6784C53.4881 74.6208 52.718 75.6532 49.488 69.8621C50.2601 66.9636 51.2576 66.906 51.0302 62.9297C50.7988 58.282 50.4936 60.3944 51.571 56.8388C51.4132 56.6562 51.1838 56.535 51.0302 56.4776C50.8786 56.4776 50.6452 56.2989 50.4936 56.2353C50.338 56.1779 50.0307 56.0526 49.8792 55.9355C49.0373 55.6914 48.2692 55.3916 47.3415 55.0919C47.7265 47.7365 48.8796 43.3927 40.3508 42.553C36.5862 42.1896 34.2021 40.6234 32.9751 40.6829C32.2787 40.6829 28.7456 42.4339 26.0583 43.097C21.29 44.3637 23.8278 44.2385 19.4446 43.4604C17.0871 43.015 10.4611 43.7539 4.73633 42.1877L5.53718 34.2471C8.79181 33.818 12.0976 33.619 14.3691 31.5846C12.1427 29.7186 9.83639 31.0405 6.53057 29.9013C7.14299 24.0506 16.2903 26.0378 20.2864 26.0378C20.8231 21.6386 18.4451 21.7617 20.5957 20.0702C21.8308 19.1074 45.7274 13.0186 51.5731 14.1641C60.4869 15.792 69.3987 17.424 78.3146 18.9883C83.7732 19.5261 92.4556 15.8515 98.0676 16.0897C102.295 16.336 98.4528 17.1756 103.68 17.5431C107.293 17.7833 107.444 16.7568 111.443 17.9044C115.131 18.9904 113.364 19.2921 117.745 19.2921C118.437 16.9395 119.129 14.5274 119.902 12.1153C116.057 12.7209 113.747 14.1087 109.982 13.2608C110.138 9.70529 114.744 8.26007 117.206 6.99552C125.583 2.77485 131.351 9.70527 140.423 10.3683C143.8 10.6106 146.258 8.25803 150.181 8.13691C148.874 10.6106 148.026 10.0707 146.182 13.3224C147.874 17.7853 145.492 11.8752 147.489 15.8577C147.799 16.3422 148.026 16.3421 148.339 17.6067C142.035 19.1135 145.955 19.8382 137.193 19.171C138.27 20.682 136.273 19.8382 139.655 21.4065C142.498 22.7306 146.572 22.0039 149.572 21.887C150.57 20.0784 151.184 18.5079 152.952 17.8489C153.642 17.6088 154.488 17.5493 155.639 17.6088C155.795 18.5079 156.026 19.4133 156.256 20.3206C156.256 20.3822 156.411 20.9796 156.336 20.8584C156.411 20.7353 156.485 21.2239 156.565 21.4046C161.405 18.6311 157.333 18.5675 159.945 13.5667C155.869 12.7804 156.409 13.2588 153.869 10.7317C156.336 8.07737 161.098 7.17207 164.633 7.4143C164.401 9.82436 163.248 9.77096 164.168 11.8197C166.937 10.1343 168.86 5.60985 173.315 6.45562C174.159 7.05505 175.159 7.59699 176.08 8.13895C173.772 10.2513 170.317 10.3704 167.32 11.5775C166.013 24.6583 171.546 13.6878 169.702 22.6691C173.006 22.4289 176.238 20.0743 177.465 17.6663C176.238 16.0938 174.471 16.0938 173.469 14.2298C174.245 11.8197 175.9 9.99065 178.233 8.90672C179.81 8.16976 181.705 7.78176 183.845 7.78176C208.284 7.96036 196.677 9.0422 204.213 12.4233C205.901 13.1438 208.898 13.5092 209.902 14.9586C211.439 17.2495 209.98 19.4174 212.434 21.228C214.588 22.7923 214.899 21.1663 217.741 24.6645C217.129 26.6517 215.662 28.7025 212.673 28.762C208.519 28.8256 210.981 26.0522 206.517 26.471C206.596 30.5725 210.749 32.1431 206.903 34.3683C203.525 36.3596 205.674 33.6478 203.138 35.0314C203.063 35.095 202.83 35.2141 202.752 35.2736C202.6 35.3926 202.447 35.5734 202.367 35.6924C201.905 36.183 201.518 36.5998 201.14 37.0268C194.992 35.3948 196.145 36.1194 192.456 32.145C191.073 30.6383 190.844 30.2728 188.38 30.4576C186.842 30.513 184.849 31.174 183.382 29.854C186.385 26.1753 187.841 29.7349 192.224 27.5632C192.995 27.1998 197.836 23.5272 198.607 22.6814C197.3 19.7909 198.449 22.1908 196.532 20.3309C192.224 16.0486 190.993 17.1325 185.158 17.1325C182.424 20.2118 180.373 24.0261 177.395 25.697V25.7011C175.597 26.7071 173.461 26.939 170.626 25.7565C171.935 30.94 175.316 26.9615 175.624 33.231C173.393 32.8081 172.238 31.7202 169.934 32.5084C165.014 34.3148 169.397 34.1343 169.776 35.1032C169.776 35.1649 172.084 35.4008 169.776 36.2446C167.238 37.148 169.393 35.7601 164.473 32.9293C165.165 31.7221 165.858 30.4597 166.548 29.193C162.552 30.3981 157.558 32.3298 152.87 34.5551C147.563 37.1478 142.567 40.104 139.573 42.8179C139.495 47.3402 140.341 44.3246 140.802 49.6847C147.95 50.1136 145.646 52.2199 152.792 54.2111C154.179 54.5725 155.944 54.9359 158.097 55.2971C158.097 58.6741 155.025 61.2053 157.173 64.7033C162.169 68.1377 162.325 61.4434 163.558 57.1631C180.474 53.7042 172.318 48.8347 176.689 39.7222V39.7201C177.344 38.3571 178.278 36.9097 179.62 35.3393C180.922 35.4008 186.223 35.9449 187.38 36.1892C191.223 36.8441 189.152 37.7535 193.302 39.56C193.22 42.8158 191.53 47.0344 196.45 46.2564C200.213 45.5974 199.372 42.6967 203.982 41.97C206.058 46.7347 205.524 48.7876 206.439 54.5089C217.508 58.7336 212.587 62.1661 210.435 70.0675C211.824 70.7265 213.281 71.3362 214.745 71.9335C214.669 74.2245 214.588 76.456 214.514 78.6873C214.283 78.6873 202.674 76.2117 201.905 75.9777C203.675 71.0282 206.901 70.9747 208.982 65.9105C204.829 66.6289 205.137 67.8934 202.138 68.8008C199.455 69.5871 197.376 69.043 194.529 69.4064C193.529 72.6561 194.453 66.5715 194.76 70.7285C194.916 72.3009 195.682 70.7942 194.603 72.4776C190.762 70.7285 192.067 66.6269 184.922 70.4287C186.532 71.1514 188.146 71.8145 189.838 72.4776C189.611 77.117 189.226 73.6188 188.226 76.696C185.764 84.5934 194.916 79.7118 197.296 79.2909C196.679 83.4522 194.066 83.4522 190.375 84.5955C186.305 85.7984 185.072 87.4304 181.844 88.1593C181.844 83.212 181.076 87.3752 183.306 83.9365C180.078 84.2341 177.692 85.6815 174.622 86.9521L174.319 87.0692V87.0733C170.364 88.6499 169.768 88.8798 169.319 93.8232C165.942 94.8495 162.017 95.9971 159.637 98.4072C157.253 100.637 154.869 102.868 152.561 105.04C152.331 105.223 152.178 105.401 152.028 105.52C152.872 111.73 152.028 111.851 148.186 114.266C144.954 116.312 143.88 116.253 140.882 118.845C131.275 127.289 135.886 123.368 136.423 137.9C134.426 137.296 132.505 136.631 130.659 135.972C129.201 126.324 131.196 129.52 123.283 127.289C114.748 124.879 115.902 128.974 112.37 129.703C108.448 130.543 106.523 126.205 100.837 129.822C97.6908 131.934 94.6901 133.322 93.9261 137.052C92.9983 141.575 90.9254 144.894 91.2328 149.899C91.7695 163.464 104.378 164.242 107.604 157.909C109.755 153.695 109.218 151.402 116.215 152.488C116.907 156.107 115.828 158.757 114.91 161.53C114.294 163.156 112.6 166.112 113.444 168.346C118.441 170.329 118.595 166.599 125.207 170.448C125.665 176.902 122.206 184.138 127.277 187.873C131.198 190.71 131.427 188.179 134.889 187.573C138.731 186.914 138.041 189.26 141.578 189.804C143.575 187.394 142.729 188.899 144.036 185.947C146.344 180.823 146.959 183.235 152.415 180.099C152.95 179.799 153.413 179.497 153.953 179.132C154.564 180.4 155.26 181.605 155.871 182.808C159.871 178.169 160.334 182.689 164.94 183.96C166.919 184.49 168.336 184.68 169.426 184.695H169.428C172.777 184.744 173.119 183.145 177.694 184.734C178.237 184.98 178.925 185.163 179.544 185.339C179.622 185.339 179.851 185.458 179.851 185.582C179.931 185.643 180.16 185.822 180.238 185.888C181 186.727 181.08 187.571 181.697 188.48C184.853 191.432 188.003 194.39 191.075 197.284C197.14 199.636 197.14 195.23 204.061 201.801C206.979 204.513 205.674 204.46 207.292 207.952C207.523 208.496 207.979 209.037 208.288 209.704C208.904 211.326 209.597 212.894 210.289 214.462C213.438 218.502 217.743 215.97 222.127 220.128C224.658 222.538 222.743 221.815 228.351 222.78C237.038 224.166 233.658 223.383 240.268 228.271C242.803 230.076 243.417 229.051 245.801 230.619C249.105 235.139 248.258 240.025 245.494 244.001C236.962 256.18 239.882 254.188 239.497 263.836C239.188 269.382 237.576 280.835 232.269 282.22C212.979 287.528 224.202 291.205 219.131 300.551C217.669 303.208 216.593 303.87 215.668 305.982C211.829 314.778 214.52 317.735 203.144 315.749C204.222 317.616 203.531 316.348 204.611 318.034C207.985 323.162 208.527 327.019 201.61 328.281C195.846 329.371 198.304 328.281 197.767 334.551C195.537 335.457 194.539 334.551 193.076 335.998C195.074 339.618 193.228 336.605 196.614 338.655C195.997 340.643 195.534 342.574 195 344.5C193.695 349.203 193.312 344.862 192.851 350.347C194.848 351.248 196.229 351.067 197.996 353.423C197.767 355.23 195.922 360.174 195.385 363.008C198.226 367.169 200.534 371.627 206.602 372.053C206.522 375.547 207.371 375.185 204.298 375.905C201.682 376.51 196.151 374.1 193.843 372.894C189.846 370.781 186.156 368.009 183.468 364.031C181.932 361.8 182.547 362.886 180.929 360.777C178.01 357.103 179.167 355.412 178.319 352.938C177.856 351.491 175.474 349.923 176.469 345.218C176.707 343.893 178.856 337.562 176.244 338.647C173.629 339.674 178.241 339.246 174.628 340.938C173.78 338.647 173.09 335.268 172.629 332.436C171.707 327.672 170.558 327.494 170.014 324.601C168.865 317.904 171.783 317.18 168.551 306.027C166.433 298.647 167.285 281.183 165.045 272.214C164.711 270.955 164.344 269.724 163.711 268.646L163.701 268.627Z" fill="#FF5B62"/>
<path d="M529.301 130.789C533.209 130.789 536.377 127.618 536.377 123.705C536.377 119.793 533.209 116.622 529.301 116.622C525.393 116.622 522.225 119.793 522.225 123.705C522.225 127.618 525.393 130.789 529.301 130.789Z" stroke="#0F0F0F" stroke-width="3" stroke-miterlimit="10" stroke-linecap="round"/>
<path d="M529.301 133.959V146.531" stroke="#0F0F0F" stroke-width="3" stroke-miterlimit="10" stroke-linecap="round"/>
</g>
<defs>
<clipPath id="clip0_76_10">
<rect width="683" height="376" fill="white"/>
</clipPath>
</defs>
</svg>
