<svg id="SVGRepo_iconCarrier" xmlns="http://www.w3.org/2000/svg" width="44" height="44" viewBox="0 0 44 44">
  <g id="Group_5" data-name="Group 5">
    <path id="Path_4" data-name="Path 4" d="M-143,145v44h44V145Zm41.422,41.422h-38.844V147.578h38.844Z" transform="translate(143 -145)"/>
    <path id="Path_5" data-name="Path 5" d="M-12.911,311.833a48.306,48.306,0,0,0,5.119.534c1.8-.154,3.476-.164,5.1-.462a7.586,7.586,0,0,0,6.058-5.412,16.164,16.164,0,0,0,.706-3.471,9.608,9.608,0,0,0-1.644-7.055.562.562,0,0,1-.107-.359,17.738,17.738,0,0,0-.768-6.018c-.08-.246-.179-.339-.4-.267-.5.175-1.019.308-1.51.513a18.294,18.294,0,0,0-3.806,2.28.635.635,0,0,1-.465.123,15.837,15.837,0,0,0-5.941-.031.9.9,0,0,1-.608-.134,14.944,14.944,0,0,0-4.467-2.567c-1.349-.411-1.072-.493-1.456.914a16.363,16.363,0,0,0-.536,5.2.743.743,0,0,1-.143.39A8.341,8.341,0,0,0-19.1,298.72a13.348,13.348,0,0,0-.089,5.884C-18.522,308.475-16.252,311.166-12.911,311.833Zm-2.913-9.191a3.717,3.717,0,0,1,3.627-2.321,21.607,21.607,0,0,1,2.564.164,32.22,32.22,0,0,0,5.361-.123,9.062,9.062,0,0,1,2.359.082c1.653.329,2.9,2.218,2.931,4.344a10.3,10.3,0,0,1-.161,1.89,4.06,4.06,0,0,1-2.466,3.266,12.663,12.663,0,0,1-4.056.883c-.67.051-1.34.01-2.01.01a15.255,15.255,0,0,1-5.352-.637c-2.189-.75-3.172-2.249-3.234-4.878A6.048,6.048,0,0,1-15.823,302.642Z" transform="translate(29.659 -278.807)"/>
    <path id="Path_6" data-name="Path 6" d="M50.957,423.66a2.733,2.733,0,0,0,0-3.46,1.248,1.248,0,0,0-1.907-.017,2.462,2.462,0,0,0-.65,1.629,2.632,2.632,0,0,0,.65,1.882A1.254,1.254,0,0,0,50.957,423.66Z" transform="translate(-31.65 -396.436)"/>
    <path id="Path_7" data-name="Path 7" d="M140.5,423.726a1.25,1.25,0,0,0,1.806-.059,2.528,2.528,0,0,0,.658-1.772,2.478,2.478,0,0,0-.667-1.764,1.249,1.249,0,0,0-1.806-.051A2.707,2.707,0,0,0,140.5,423.726Z" transform="translate(-115.688 -396.409)"/>
  </g>
</svg>
