<svg width="2437" height="1928" viewBox="0 0 2437 1928" fill="none" xmlns="http://www.w3.org/2000/svg">
<path d="M2 1026.56C101.091 443.753 608.439 0 1219.49 0C1830.56 0 2337.9 443.749 2437 1026.53C2278.21 1548.29 1793.25 1928 1219.49 1928C645.764 1928 160.79 1548.32 2 1026.56Z" fill="#15BDB2"/>
<path d="M2345.65 1248.85C2337.6 1264.11 2329.26 1279.19 2320.63 1294.07C2317.64 1291.75 2315.11 1290.18 2314 1290.37C2310.56 1291.02 2310.38 1286.63 2313.5 1280.63C2316.6 1274.53 2333.24 1271.6 2332.87 1264.33C2332.49 1257.81 2340.39 1248.94 2345.65 1248.85ZM2270.46 1373.42C2247.27 1407.29 2222.5 1439.96 2196.22 1471.37C2187.57 1469.06 2179.98 1466.53 2178.01 1463.37C2173.35 1455.71 2179.75 1422.84 2197.76 1413.18C2215.6 1403.6 2240.58 1349.48 2248.32 1352.19C2255.36 1354.64 2268.77 1367.11 2270.44 1373.42H2270.46V1373.42ZM2166.15 1506.05C2161.5 1511.21 2156.81 1516.32 2152.07 1521.41C2140.71 1518.68 2132.43 1516.02 2132.98 1513.86C2134.23 1508.5 2150.64 1500.21 2164.71 1505.48L2166.15 1506.05ZM654.55 1796.01C535.55 1736.95 427.115 1659.87 332.808 1568.28C326.932 1553.7 326.41 1527.64 330.268 1527.17C335.125 1526.5 337.75 1516.89 331.58 1514.16C325.296 1511.4 310.914 1493.08 308.497 1484.16C306.156 1475.31 317.034 1430.35 322.274 1424.14C327.573 1417.98 331.943 1386.99 334.36 1384.4C336.811 1381.7 336 1364.89 332.883 1358.01C329.691 1351.22 323.646 1331.37 321.294 1334.85C318.987 1338.3 306.623 1340.58 299.176 1332.33C291.723 1324.09 260.969 1312.47 260.969 1309.98C260.969 1307.45 257.021 1298.09 252.105 1294.76C247.093 1291.52 235.206 1275.73 230.115 1273.37C225.104 1271.12 201.812 1268.28 198.466 1262.62C194.976 1256.94 172.857 1237.34 155.357 1233.63C137.753 1229.97 83.2941 1208.95 77.6811 1198.83C72.0284 1188.75 65.9382 1141.49 59.9972 1134.23C54.1456 1126.87 36.1833 1106.69 36.3175 1102.29C36.4965 1097.91 29.4766 1101.49 31.8928 1107.44C32.723 1109.4 33.1406 1113.21 33.2053 1117.34C20.8757 1085.7 9.81393 1053.41 0 1020.6C38.326 804.915 132.642 608.331 267.571 446.653C273.701 447.448 278.941 449.237 279.215 451.608C279.821 456.95 290.167 455.087 294.105 442.731C296.456 435.47 294.015 425.938 291.942 418.567C297.276 412.449 302.671 406.341 308.214 400.357C317.66 404.099 331.585 409.626 335.488 415.864C340.952 424.452 356.762 445.659 352.61 450.196C348.305 454.808 359.585 465.459 364.209 460.305C368.877 455.087 374.068 436.832 369.862 436.236C365.671 435.649 355.534 416.152 355.215 395.844C355.036 375.696 381.754 346.925 387.019 349.718C392.194 352.586 403.952 366.755 415.411 360.234C426.826 353.714 439.27 375.11 446.066 373.146C452.763 371.163 480.211 374.175 484.328 376.501C488.419 378.941 495.782 395.442 502.852 395.442C509.991 395.442 531.444 400.253 534.6 406.202C537.902 412.116 543.425 430.053 540.174 432.533C536.902 434.973 538.419 449.043 545.12 452.229C551.718 455.44 572.211 464.246 572.529 469.013C572.837 473.625 583.372 477.422 581.393 481.274C579.221 485.016 577.331 503.673 573.478 505.433C569.561 507.162 563.654 516.928 558.608 512.117C553.562 507.306 535.605 505.761 538.717 510.09C541.774 514.413 542.997 536.257 539.179 543.607C535.426 551.157 531.354 573.656 518.527 564.476C505.656 555.252 460.166 535.059 450.173 535.561C440.23 535.993 448.418 515.621 476.92 503.807C476.92 503.807 476.92 503.808 481.3 469.848C483.607 449.809 483.607 449.809 483.607 449.809C472.853 442.99 457.899 434.158 450.635 430.286C443.228 426.37 424.594 434.864 418.514 431.926C412.528 428.88 394.272 429.566 398.901 431.494C403.39 433.447 410.877 448.253 409.565 456.125C408.252 463.948 399.721 491.263 389.982 494.593C380.193 497.983 344.059 509.324 345.461 512.008C346.828 514.891 340.504 530.084 332.346 535.869C324.242 541.574 303.764 568.144 298.156 574.993C292.504 581.702 273.875 598.774 273.999 603.187C274.253 607.665 269.565 611.135 275.148 613.784C280.567 616.308 285.936 645.641 295.482 650.676C304.997 655.929 328.667 672.106 332.341 669.636C336.129 667.231 344.705 675.774 347.112 671.923C349.473 667.976 361.967 683.453 364.09 694.899C366.163 706.34 378.945 719.441 380.745 706.872C382.529 694.302 396.112 675.059 392.487 676.147C388.933 677.24 385.92 665.064 390.976 665.397C396.166 665.829 410.226 651.252 413.139 634.608C416.068 618.023 414.551 556.489 417.718 554.665C420.632 552.921 435.909 557.324 438.748 562.091C441.532 566.847 458.794 563.621 463.144 570.49C467.524 577.443 493.978 578.899 493.978 587.462C493.978 596.051 498.79 618.729 504.676 619.27C510.593 619.822 524.831 619.206 525.343 614.638C525.831 610.106 532.751 608.108 537.653 618.038C542.61 627.978 563.177 649.468 562.909 653.474C562.71 657.435 563.983 669.298 570.063 674.651C576.014 680.004 583.6 704.68 587.284 702.329C591.018 699.834 602.507 713.755 602.94 722.323C603.283 730.966 604.496 772.908 607.245 780.094C610.015 787.301 627.758 799.716 627.281 805.764C626.64 811.704 622.434 824.78 615.17 821.599C608.006 818.453 597.009 824.77 595.975 821.678C594.881 818.552 589.462 810.541 584.366 812.722C579.221 814.795 565.509 804.333 573.379 793.29C581.403 782.222 588.99 754.777 578.281 762.844C567.393 770.955 538.752 764.916 540.497 768.306C542.242 771.596 536.549 786.849 530.032 788.409C523.578 790.039 520.362 807.708 525.696 812.061C531.14 816.609 539.373 831.822 530.986 837.364C523.812 842.055 506.973 850.783 504.567 852.149C507.58 850.474 497.005 839.705 484.795 843.417C472.585 847.279 449.094 867.313 452.032 870.961C454.861 874.529 448.86 895.04 440.891 898.415C432.911 901.77 407.765 916.68 402.386 923.697C397.166 930.76 400.855 963.288 397.583 964.884C394.426 966.603 382.539 969.705 383.762 973.626C384.791 977.597 370.612 999.947 357.299 1006.84C343.821 1013.66 327.35 1053.88 329.567 1058.29C331.695 1062.71 337.482 1078.47 336.02 1084.71C334.608 1090.88 331.397 1116.44 322.443 1112.27C313.553 1108.21 301.249 1075.07 292.772 1071.61C284.137 1068.13 255.406 1065.75 254.158 1067.78C252.835 1069.76 245.791 1074.35 237.985 1069.83C230.19 1065.42 195.011 1067.44 188.528 1071.39C182.085 1075.4 156.098 1109.37 149.769 1142.18C143.271 1175.06 198.019 1192.53 200.604 1185.13C203.154 1177.75 218.178 1162.21 224.328 1163.07C230.369 1163.8 254.506 1170.67 252.124 1181.65C249.708 1192.59 253.512 1222.43 265.458 1223.09C277.589 1223.83 293.155 1252.16 290.361 1266.41C287.433 1280.68 299.688 1311.58 304.977 1307.89C310.312 1304.11 329.691 1298.07 334.782 1300.24C339.883 1302.52 349.075 1314.31 356.926 1308.22C364.542 1301.99 381.441 1276.33 386.298 1274.78C391.2 1273.13 401.685 1267.24 404.777 1271.41C407.989 1275.66 421.387 1278.29 422.342 1273.3C423.272 1268.35 443.516 1272.99 450.312 1278.42C456.944 1284.02 469.97 1303.64 472.048 1301.7C473.977 1299.57 489.831 1300.96 500.197 1306.73C510.772 1312.46 544.544 1331.6 547.939 1340.65C551.385 1349.81 582.238 1374.58 599.833 1385.28C617.452 1395.85 622.836 1428.36 626.809 1430.93C630.846 1433.47 652.686 1437.69 661.227 1440.31C669.818 1443.07 688.968 1458.73 694.467 1458.73C700.04 1458.73 721.875 1461.5 730.71 1464.68C739.435 1468.02 756.652 1483.58 760.47 1479.89C764.238 1476.18 779.148 1493.01 784.05 1506.45C784.05 1506.45 784.05 1506.45 783.906 1523.84C783.986 1534.73 783.986 1534.73 783.986 1534.73C781.415 1544.05 779.093 1555.17 778.75 1559.52C778.388 1563.93 763.01 1583.36 758.77 1588.04C754.509 1592.73 747.862 1613.16 746.162 1614.83C744.561 1616.52 735.642 1620.99 735.12 1626.3C734.513 1631.51 726.171 1652.97 724.232 1668.96C722.303 1684.98 714.751 1729.61 709.794 1731.67C704.793 1733.66 677.012 1746.41 673.343 1751.71C669.619 1757.03 658.284 1774.73 658.284 1780.63C658.284 1783.53 656.852 1789.77 654.54 1796.07L654.55 1796.01ZM504.428 852.174L504.537 852.12C504.12 852.308 504.065 852.338 504.428 852.174ZM626.088 159.924C623.86 159.616 572.186 186.647 524.816 213.48C470.755 250.174 420.01 291.156 372.512 335.742C387.292 334.639 410.206 331.93 419.856 330.29C434.691 327.84 459.301 323.74 461.056 319.565C462.239 316.155 462.413 305.967 459.644 302.438C462.005 302.592 464.735 302.672 466.818 302.672C472.426 302.672 481.787 271.883 487.693 264.676C493.644 257.45 527.511 246.854 535.58 241.998C543.684 237.053 561.333 220.105 568.064 218.117C574.905 216.075 584.754 200.285 583.262 197.05C581.796 193.948 606.167 179.073 615.518 175.182C624.711 171.245 626.406 160.704 626.083 159.944V159.924H626.088ZM1314.96 1870.24C1330.8 1860.92 1357.74 1821.11 1366.55 1812.78C1375.42 1804.37 1381.85 1774.27 1383.71 1767.71C1385.47 1761.1 1398.96 1750.46 1403.99 1749.03C1408.96 1747.6 1425.09 1680.88 1439.13 1666.32C1453.19 1651.73 1469.74 1581.23 1468 1555.8C1466.2 1530.52 1477.06 1482.16 1480.36 1470.55C1483.74 1458.95 1501.39 1438.3 1506.92 1434.04C1512.34 1429.72 1546.35 1379.42 1557.38 1361.41C1568.23 1343.34 1578.7 1303.71 1576.62 1294.42C1574.55 1285.13 1550.82 1278.7 1546.4 1283.26C1541.99 1287.86 1519.71 1291.62 1512.57 1291.62C1505.45 1291.62 1489.08 1253.44 1478.94 1245.56C1468.84 1237.75 1459.69 1194 1453.84 1185.73C1447.98 1177.45 1431.67 1156.47 1426.53 1151.71C1421.43 1146.93 1420.54 1123.69 1419.37 1117.33C1418.29 1111.04 1429.27 1121.53 1431.16 1130.72C1433.09 1140 1459.26 1177.28 1467.38 1189.78C1475.5 1202.38 1496.88 1242.27 1502.33 1254.82C1507.79 1267.23 1555.39 1260.96 1570.8 1253.72C1586.27 1246.36 1605.48 1234.07 1606.25 1229.75C1606.89 1225.43 1631.57 1214.12 1638.36 1208.69C1645.19 1203.23 1651.27 1174.6 1655.71 1170.05C1660.19 1165.36 1652.13 1138.11 1647 1129.99C1641.9 1121.87 1617.18 1115.37 1612.26 1118.54C1607.23 1121.73 1596.62 1100.26 1592.8 1092.4C1589.03 1084.44 1570.14 1074.77 1568.04 1069.4C1566.09 1063.89 1573.25 1055.41 1576.2 1053.58C1579.17 1051.67 1613.99 1076.09 1624.03 1088.23C1633.94 1100.39 1645.39 1122.68 1647.37 1126.62C1649.14 1130.46 1676.67 1132.47 1682.8 1127.96C1688.89 1123.43 1695.96 1124.64 1698.37 1130.46C1698.37 1130.46 1698.37 1130.46 1707 1128.93C1737.14 1124.27 1737.14 1124.27 1737.14 1124.27C1751.43 1139.71 1755.52 1153.1 1755.22 1156.22C1754.93 1159.16 1763.94 1171.72 1769.79 1173.06C1775.64 1174.4 1779.91 1194.14 1781.71 1199.02C1783.41 1203.91 1800.63 1233.4 1804.13 1245.85C1807.67 1258.22 1822.33 1282.46 1825.85 1288.98C1829.25 1295.47 1832.23 1314.27 1832.23 1319.39C1832.23 1324.53 1843.23 1334.64 1850.1 1334.15C1856.9 1333.73 1870.76 1290.52 1874.02 1274.44C1877.13 1258.38 1888.27 1245.16 1891.38 1245.16C1894.58 1245.16 1897.08 1236.12 1897.08 1232.67C1897.08 1229.33 1914.55 1229.66 1916.14 1225.28C1917.61 1220.89 1922.79 1192.37 1929.02 1188.03C1935.29 1183.68 1957.38 1169.19 1965.21 1166.48C1972.88 1163.83 1992.69 1180.91 1997.17 1188.88C2001.56 1196.82 2005.58 1217.15 2003.85 1220.45C2002.21 1223.79 2014.28 1241.31 2024.94 1240.98C2035.41 1240.68 2038.77 1254.39 2039.04 1259.29C2039.54 1264.25 2053.38 1278.38 2056.18 1284.72C2058.87 1291.04 2058.11 1308.28 2056.26 1312.19C2054.34 1316.07 2055.61 1338.69 2057.63 1345.05C2059.65 1351.32 2092.15 1384.26 2104.28 1394.25C2116.49 1404.2 2122.2 1373.93 2115.93 1364.49C2109.74 1355.06 2088.56 1333.08 2083.57 1326.58C2078.57 1319.98 2077.73 1293.65 2079.61 1286.37C2081.41 1278.95 2098.14 1290.4 2105.09 1295.71C2112.02 1301.05 2121.11 1312.9 2121.36 1316.88C2121.6 1320.79 2165.13 1296.44 2166.6 1269.97C2168.2 1243.55 2182.62 1213.74 2184.04 1206.82C2185.48 1199.83 2179.73 1190.25 2176.09 1189.99C2172.36 1189.62 2182.54 1169.81 2194.73 1170.12C2206.95 1170.52 2236.32 1137.77 2243.26 1124.83C2250.19 1111.85 2264.2 1101.17 2265.77 1099.53C2267.45 1098.01 2277.22 1067.3 2278.93 1054.59C2280.57 1041.91 2271.74 1022.07 2270.72 1015.5C2269.68 1008.97 2259.16 993.849 2256.37 989.098C2253.73 984.376 2251.12 966.573 2252.83 963.239C2254.37 959.993 2265.41 956.43 2266.57 953.507C2267.8 950.481 2280.35 937.072 2279.43 931.182C2278.49 925.223 2287.26 938.831 2293.03 943.697C2298.79 948.607 2305.01 980.147 2312.22 983.611C2319.25 987.09 2348.17 950.193 2344.57 926.386C2341.04 902.515 2352.98 872.069 2359.91 869.321C2365.17 867.293 2378.77 848.019 2388.02 834.173C2324.47 650.8 2219.1 486.944 2083.17 353.947C2081.57 354.047 2079.97 354.111 2078.46 353.813C2067.88 351.517 2067.88 351.517 2067.88 351.517C2050.11 347.72 2039.78 328.764 2042.79 324.371C2043.86 322.984 2043.59 319.803 2042.68 316.026C2032.86 307.11 2022.7 298.328 2012.37 289.76C2004.02 289.496 1995.15 289.76 1990.01 289.496C1979.35 289.119 1956.28 281.549 1952.19 277.424C1947.98 273.319 1934.07 281.057 1933.31 288.751C1932.38 296.444 1908.13 300.008 1905.92 305.853C1903.46 311.658 1891.03 312.11 1888.59 308.79C1886.21 305.535 1863.69 316.702 1852.52 318.392C1841.35 319.933 1820.54 329.018 1815.57 331.249C1810.55 333.446 1798.72 345.036 1796.77 349.792C1794.88 354.638 1780.5 362.65 1775.93 364.523C1771.26 366.333 1772.19 387.202 1778.19 390.169C1784.09 393.061 1767.1 387.644 1759.66 383.757C1752.06 380.045 1743.81 392.703 1741.49 397.077C1739.09 401.426 1732.26 394.453 1732.54 388.28C1732.77 381.948 1714.01 376.943 1711.54 381.933C1709 386.908 1696.03 380.303 1690.65 377.465C1685.21 374.573 1661.97 398.896 1653.35 407.658C1644.71 416.321 1603.41 423.085 1595.68 419.82C1587.93 416.584 1580.34 438.074 1586.93 439.58C1593.43 440.848 1570.14 438.462 1557.37 439.66C1544.51 440.937 1507.18 455.872 1498.32 462.492C1489.29 469.147 1482.19 461.036 1482.19 455.927C1482.19 450.827 1467.99 446.116 1463.73 444.67C1459.6 443.248 1451.24 472.601 1443.89 478.217C1436.48 483.967 1427.54 455.32 1410.16 450.629C1392.74 445.937 1365.54 429.108 1357.76 427.135C1350.11 425.083 1334.54 408.806 1330.17 404.105C1325.78 399.403 1303.52 395.526 1296.39 395.526C1289.22 395.526 1266.15 408.771 1260.04 413.935C1253.65 419.169 1244.46 418.115 1241.39 420.008C1238.33 421.852 1212.2 447.408 1202.14 455.39C1192.01 463.367 1174.33 497.764 1168.66 505.999C1162.77 514.18 1154.55 515.711 1151.16 515.954C1147.78 516.098 1144.98 525.278 1144.98 528.623C1144.98 532.032 1115.03 547.618 1111.92 561.196C1108.77 574.769 1114.86 605.797 1114.86 616.86C1114.86 627.898 1125.99 649.766 1134.27 650.154C1142.54 650.552 1138.23 668.906 1136.01 674.06C1133.85 679.233 1141.26 684.844 1141.02 689.233C1140.83 693.622 1120.03 699.75 1113.62 702.264C1107.12 704.625 1096.77 719.137 1095.36 724.51C1094.23 729.266 1074.27 732.621 1067.67 738.933C1069.28 734.366 1071.53 728.049 1073.32 724.51C1077.16 717.284 1071.87 704.625 1068.76 702.031C1065.59 699.382 1064.15 663.394 1059.09 655.735C1054.04 647.942 1041.45 634.876 1038.34 632.327C1035.23 629.842 1040.5 620.344 1042.28 616.313C1044.13 612.342 1025.5 610.011 1020.4 613.023C1015.33 615.916 1012.58 651.57 1010.46 661.302C1008.39 671.033 1019.66 686.032 1022.78 686.693C1025.75 687.434 1024.97 704.978 1018.45 705.51C1011.9 706.186 1005.95 731.776 1009.3 737.621C1012.67 743.461 1004.63 754.966 1000.78 757.595C996.954 760.2 1025.77 758.723 1039.01 758.361C1052.17 758.028 1062.51 763.902 1061.13 764.956C1059.73 766.074 1035.91 769.633 1031.61 775.274C1027.37 780.915 1011.17 791.809 1008.03 796.177C1004.91 800.466 1013.36 810.138 1020.24 809.676C1027.07 809.278 1034.87 833.383 1040.23 837.806C1045.56 842.339 1043.58 854.778 1041.32 858.253C1038.81 861.622 1006.66 855.946 994.438 858.958C982.128 861.97 966.652 887.874 965.613 897.615C964.474 907.456 967.587 935.501 969.247 943.279C970.748 951.003 996.422 955.893 1001.56 959.7C1006.89 963.422 1031.35 959.789 1036.55 962.15C1041.49 964.59 1058.1 937.29 1061.4 924.642C1064.57 911.919 1090.78 888.743 1096.2 880.091C1101.62 871.527 1129.84 872.511 1136.77 867.954C1143.7 863.551 1139.83 889.365 1143.17 903.554C1146.47 917.808 1173.46 916.034 1169.5 902.625C1165.54 889.37 1172.19 883.535 1173.27 888.401C1174.46 893.147 1200.32 903.753 1205.25 911.243C1210.11 918.767 1208.75 934.706 1203 934.527C1197.24 934.284 1197.01 951.972 1203.14 953.87C1209.18 955.789 1217.34 933.965 1223.9 930.785C1230.39 927.494 1235.68 913.946 1232.61 912.873C1229.68 911.824 1238.19 899.672 1241.9 903.673C1245.59 907.664 1228.04 877.233 1217 866.09C1205.97 854.997 1213.75 859.942 1234.35 877.049C1234.35 877.049 1234.35 877.049 1248.6 897.023C1251.37 900.612 1255.01 911.521 1257.47 915.522C1260.84 921.406 1260.84 921.406 1260.84 921.406C1263.62 928.379 1266.06 947.484 1266.06 952.692C1266.06 957.757 1277.24 967.945 1284 967.478C1290.79 966.991 1295.93 970.714 1294.5 970.957C1293.09 971.201 1298.98 984.411 1305.73 984.744C1312.43 985.042 1315.36 967.672 1308.56 967.244C1301.81 966.882 1302.85 941.729 1301.97 930.879C1301.2 919.92 1306.88 910.949 1309.22 910.949C1311.53 910.949 1308.91 933.429 1309.13 938.612C1309.22 943.731 1312.06 953.95 1315.27 961.256C1315.27 961.256 1315.27 961.256 1322.25 966.554C1337.87 978.561 1337.87 978.561 1337.87 978.561C1360.27 971.951 1390.37 977.006 1389.19 981.618C1387.95 986.195 1405.73 987.279 1406.83 979.853C1407.87 972.538 1408.7 980.072 1408.7 985.226C1408.7 990.236 1393.99 1010.23 1391.57 1019.54C1389.07 1028.71 1337.37 1022.45 1315.13 1020.76C1292.85 1019.1 1260.03 1026.66 1257.47 1033.31C1255.03 1039.97 1220.26 1018.03 1204.37 1011.38C1188.39 1004.61 1175.88 980.335 1172.62 977.189C1169.33 973.999 1175.35 966.151 1173.84 961.395C1172.3 956.504 1135.92 955.52 1125.41 959.476C1114.8 963.338 1060.28 969.108 1047.35 974.784C1034.54 980.559 1015.05 974.431 1009 973.363C1002.97 972.299 988.547 990.091 981.258 993.312C973.821 996.523 964.579 1021.73 960.547 1049.46C960.547 1049.46 960.547 1049.46 950.658 1068.74C944.245 1081.05 944.245 1081.05 944.245 1081.05C926.218 1094.76 906.317 1140.46 900.42 1149.6C894.613 1158.77 889.945 1224.55 889.945 1246.68C889.945 1268.82 909.24 1315.66 914.714 1328.55C920.187 1341.51 953.581 1370.08 964.718 1376.97C975.889 1383.65 1012.16 1384.56 1024.03 1384.54C1035.88 1384.49 1049.46 1373.19 1054.04 1359.44C1054.04 1359.44 1054.04 1359.44 1071.5 1361.19C1079.46 1362.03 1079.46 1362.03 1079.46 1362.03C1079.9 1371.75 1105.6 1379.53 1111.92 1382.97C1118.19 1386.41 1135.18 1383.85 1140.17 1382.33C1145.26 1380.92 1150.88 1426.3 1147.21 1439.48C1143.62 1452.6 1156.14 1498.65 1159.84 1512.54C1163.56 1526.44 1179.33 1564.31 1180.96 1577.95C1182.43 1591.58 1171.67 1636.83 1169.87 1652.66C1168.12 1668.6 1189.62 1712.89 1195.4 1728.15C1200.96 1743.36 1205.58 1776.21 1205.58 1783.76C1205.58 1791.38 1229.18 1837.27 1234.5 1856.1C1239.97 1875.03 1299.07 1879.66 1314.92 1870.36L1314.96 1870.24ZM2277.05 1145.51C2272.63 1151.75 2267.43 1152.1 2265.74 1146.33C2264.08 1140.37 2260.19 1123.52 2265.52 1116.99C2270.88 1110.41 2281.54 1139.41 2277.05 1145.51ZM2310.44 1207.67C2307.15 1215.23 2294.73 1232.06 2289.54 1227.57C2284.27 1222.97 2282.47 1186.96 2294.5 1189.42C2306.47 1191.96 2313.64 1200.22 2310.43 1207.65L2310.44 1207.67ZM2365.02 989.286C2372.8 983.944 2399.46 966.688 2405.77 960.923C2408.89 958.164 2415.64 953.453 2421.57 949.039C2424.9 962.647 2428.22 976.24 2431 990.012C2428.5 994.425 2426.11 997.507 2424.02 998.476C2412.33 1003.86 2401.24 1007.23 2399.28 1005.86C2397.37 1004.47 2384.7 1007.07 2378.41 1011.37C2372.11 1015.64 2359.93 1033.57 2355.06 1030.39C2349.97 1027.13 2350.55 1008.28 2355.3 1008.28C2356.14 1008.28 2356.91 1008.3 2357.78 1008.36C2355.92 1004.05 2359.05 993.471 2365.02 989.276V989.296H2365.02V989.286ZM2037.87 1369.11C2035.23 1367.16 2035.56 1367.34 2038.07 1369.17C2038 1369.11 2037.87 1369.11 2037.87 1369.11ZM2127.06 1452.11C2132.21 1463.86 2120.37 1486.49 2113.15 1480.84C2105.89 1475.2 2073.81 1394.64 2057.17 1382.7C2047.83 1376.08 2041.22 1371.39 2038.07 1369.17C2044.1 1373.17 2049.76 1359.39 2051.28 1362.87C2052.83 1366.41 2070.58 1375.54 2076.47 1387.44C2076.47 1387.44 2076.47 1387.44 2082.98 1398.26C2088.97 1408.09 2088.97 1408.09 2088.97 1408.09C2104.73 1420.62 2121.88 1440.38 2127.06 1452.11ZM1871.54 1321.95C1876.04 1312.88 1883.83 1309.4 1888.78 1314.25C1893.83 1319.24 1899.72 1341.53 1897.42 1345.96C1895.26 1350.41 1867.1 1331.08 1871.55 1321.95H1871.54ZM1497.57 1752.41C1496.59 1742.77 1488.52 1709.93 1490.94 1704.95C1493.53 1700.05 1497.81 1682.36 1495.74 1677.9C1493.53 1673.38 1499.77 1647.43 1505.31 1639.78C1510.97 1632.11 1536.22 1613.68 1538.96 1604.69C1541.51 1595.66 1551.57 1582.08 1551.93 1591.05C1552.36 1599.94 1566.18 1650.73 1563.99 1661.76C1561.83 1672.57 1558.2 1682.49 1556.12 1683.54C1553.95 1684.76 1551.38 1694.43 1551.38 1698.6C1551.38 1702.89 1549.57 1720.78 1547.34 1729.17C1545.19 1737.48 1529.53 1766.44 1523.72 1768.01C1518.16 1769.57 1498.72 1762.01 1497.58 1752.42L1497.57 1752.41ZM1038.65 189.764C1031.52 190.628 1013.08 186.896 1009.87 183.516C1006.76 180.162 979.021 177.16 971.091 180.49C963.087 183.824 968.566 161.047 979.692 158.597C990.764 156.072 981.333 140.367 969.525 140.367C957.648 140.257 928.505 135.998 921.649 137.529C914.773 139.005 901.37 132.738 896.513 132.032C891.621 131.326 856.566 142.504 840.025 141.674C823.38 140.968 782.658 142.613 773.903 145.108C764.944 147.414 758.571 164.685 759.843 170.733C761.156 176.951 720.464 176.792 707.672 176.981C694.845 177.18 626.605 191.677 608.816 201.488C590.988 211.244 577.068 236.283 582.964 236.809C588.87 237.297 573.061 251.476 563.48 254.821C553.92 258.066 531.095 259.542 525.652 264.93C520.317 270.272 531.414 273.975 533.532 277.618C535.605 281.127 541.968 274.462 548.103 277.916C554.034 281.316 573.936 282.926 579.181 284.954C584.535 287.051 562.347 291.256 551.936 292.026C541.516 292.722 543.853 313.193 552.344 315.996C560.846 318.889 582.735 321.891 584.928 318.357C587.2 314.804 610.914 322.189 621.678 323.466C632.287 324.595 640.555 351.428 643.752 357.257C647.078 363.032 647.759 383.444 646.934 389.358C646.203 395.233 665.846 405.998 669.42 402.246C672.865 398.493 671.861 411.48 664.031 410.809C656.206 410.113 661.292 432.791 671.071 436.081C680.676 439.317 674.084 453.263 668.52 457.557C662.843 461.707 665.925 475.056 660.153 479.867C654.5 484.613 680.532 529.711 680.343 552.966C680.199 576.131 694.671 595.076 700.189 595.076C705.753 595.076 724.814 599.723 727.354 604.718C729.86 609.663 739.042 601.264 742.741 597.457C746.276 593.69 754.101 582.502 759.963 572.697C765.814 562.841 778.865 516.327 780.66 511.337C782.415 506.317 804.24 509.483 809.241 506.904C814.198 504.354 828.526 493.062 832.588 489.713C836.625 486.358 867.822 473.167 876.412 467.015C884.834 460.956 899.043 434.506 905.645 428.9C912.302 423.184 902.245 424.894 893.903 419.442C885.689 414.025 889.324 407.38 891.75 404.855C894.101 402.261 919.238 409.025 927.923 412.37C936.589 415.814 953.104 403.871 946.835 399.204C940.382 394.637 943.777 394.771 946.835 396.709C949.848 398.593 953.109 381.471 949.818 378.226C946.462 374.916 975.243 353.952 970.152 334.117C965.15 314.297 978.012 293.969 985.718 293.726C993.498 293.517 991.172 271.346 981.939 269.273C972.747 267.221 981.432 265.183 984.868 262.012C988.303 258.901 992.693 239.091 990.709 235.304C988.626 231.442 1004.86 227.183 1007.65 222.68C1010.56 218.212 1029.05 209.335 1035.68 207.884C1042.18 206.373 1045.72 189.023 1038.64 189.808V189.764H1038.65ZM1199.86 205.921C1208.58 208.933 1213.25 231.014 1218.22 231.72C1223.22 232.505 1230.8 236.467 1235.2 240.766C1239.68 245.035 1253.13 242.277 1263.77 247.828C1274.53 253.479 1270.87 290.843 1260.99 287.941C1251.05 284.939 1229.44 277.598 1226.88 286.857C1224.34 296.28 1213.25 321.275 1206.8 321.409C1200.29 321.608 1191.67 306.688 1185.33 305.803C1179 304.829 1171.24 293.224 1176.97 287.429C1182.64 281.679 1183.39 260.238 1177.71 265.049C1171.9 269.78 1149.17 272.131 1148.97 268.886C1148.88 265.74 1144.91 249.334 1139.5 246.685C1134.12 243.956 1137.32 223.356 1149.11 217.198C1160.9 211.139 1177.81 223.818 1175.42 218.202C1173.18 212.705 1191.09 202.919 1199.86 205.921ZM1286.33 223.823C1303.77 226.263 1323.4 211.95 1327.64 207.844C1331.99 203.839 1279.29 193.079 1259.25 192.427C1239.21 191.831 1222.98 194.525 1223.31 198.521C1223.64 202.392 1268.84 221.298 1286.34 223.823H1286.33ZM967.721 695.987C972.379 697.796 979.742 678.915 983.605 678.915C987.463 678.915 997.182 704.65 997.56 710.291C997.814 716.006 992.514 721.558 985.673 722.716C978.788 723.879 962.714 724.435 961.63 717.885C960.572 711.33 963.122 694.084 967.721 695.987ZM1019.44 495.18C1023.08 501.506 1016.72 530.616 1010.86 531.202C1005.07 531.764 988.552 540.272 980.304 541.689C971.991 542.966 963.341 538.563 960.999 531.714C958.613 524.92 937.573 521.729 940.367 517.217C943.196 512.704 945.866 499.518 943.38 501.79C940.795 504.031 931.403 500.005 937.692 497.277C943.887 494.509 946.964 473.307 950.728 477.645C954.645 482.014 975.168 488.813 981.761 489.196C988.457 489.613 1015.86 488.808 1019.44 495.18ZM1594.68 338.337C1585.32 347.879 1550.59 367.242 1554.89 377.863C1558.99 388.613 1566.2 419.347 1563.13 420.346C1560.02 421.286 1549.04 423.855 1541.02 418.98C1533 413.97 1514.97 396.013 1518.22 391.103C1521.57 386.128 1530.96 342.069 1536.72 336.304C1542.43 330.489 1558.2 320.31 1571.96 313.77C1585.55 307.214 1629.97 296.797 1630.95 295.127C1631.82 293.572 1636.67 288.696 1640.58 288.696C1644.49 288.696 1651.58 296.673 1647.23 306.365C1642.81 316.151 1604.13 328.899 1594.68 338.337ZM1547.15 223.599C1561.78 238.097 1569.85 217.133 1585.88 219.196C1585.58 189.754 1545.7 199.863 1547.15 223.599ZM1831.42 229.096C1830.96 234.513 1871.85 238.907 1883.83 236.79C1895.76 234.737 1881.33 216.065 1863.84 217.193C1846.46 218.356 1831.85 223.699 1831.42 229.096ZM350.632 532.226C346.341 536.242 350.11 556.306 358.328 556.887C366.486 557.439 379.556 526.63 389.604 532.807C399.592 538.98 406.393 541.44 404.737 538.14C403.052 534.905 374.5 522.425 370.97 520.054C367.426 517.937 355.086 528.374 350.647 532.226H350.632ZM455.249 1211.12C455.249 1214.49 473.077 1214.02 476.005 1208.53C478.834 1203.08 477.308 1198.61 472.505 1198.61C467.802 1198.61 455.264 1207.65 455.264 1211.11L455.249 1211.12ZM375.867 1181.79C384.433 1180.15 380.436 1193.97 382.41 1198.91C384.538 1203.88 404.951 1207.83 409.073 1211.21C413.11 1214.55 423.674 1204.93 431.892 1205.98C440.051 1207.01 429.198 1177.68 415.441 1178.51C401.74 1179.42 390.902 1166.1 387.67 1164.44C384.289 1162.98 368.554 1153.31 363.911 1149.68C359.431 1145.99 324.466 1142.9 312.599 1142.9C300.722 1142.9 287.651 1155.02 285.852 1158.96C283.933 1162.98 304.684 1165.66 310.536 1162.51C316.477 1159.41 344.164 1166.01 349.816 1172.68C355.524 1179.28 367.281 1183.41 375.867 1181.79ZM338.546 1211.12C338.546 1214.49 356.553 1212.37 360.863 1212.49C365.288 1212.57 365.089 1209.63 360.52 1205.98C356.001 1202.35 338.546 1207.66 338.546 1211.12ZM351.273 1118.45C346.615 1116.64 342.851 1123.99 342.851 1127.48C342.851 1130.92 345.436 1133.78 348.549 1133.78C351.76 1133.78 355.966 1120.37 351.273 1118.45ZM389.017 1121.38C387.416 1117.89 379.735 1115.09 377.463 1115.09C375.112 1115.09 373.416 1121.09 373.839 1128.29C374.247 1135.55 390.573 1124.78 389.017 1121.38ZM416.187 1163.22C423.461 1159.68 424.355 1150.96 420.035 1151.48C415.71 1151.91 407.725 1138.92 403.027 1137.07C398.349 1135.2 394.536 1144.87 394.536 1149.1C394.536 1153.32 397.161 1156.23 400.387 1155.35C403.579 1154.58 408.829 1166.58 416.187 1163.22Z" fill="#21D0C3"/>
</svg>
