<svg width="2437" height="1743" viewBox="0 0 2437 1743" fill="none" xmlns="http://www.w3.org/2000/svg">
<g clip-path="url(#clip0_93_29)">
<g clip-path="url(#clip1_93_29)">
<path d="M2380.65 1116.85C2372.6 1132.11 2364.26 1147.19 2355.63 1162.07C2352.64 1159.75 2350.11 1158.18 2349 1158.37C2345.56 1159.02 2345.38 1154.63 2348.5 1148.63C2351.6 1142.53 2368.24 1139.6 2367.87 1132.33C2367.49 1125.81 2375.39 1116.94 2380.65 1116.85ZM2305.46 1241.42C2282.27 1275.29 2257.5 1307.96 2231.22 1339.37C2222.57 1337.06 2214.98 1334.53 2213.01 1331.37C2208.35 1323.71 2214.75 1290.84 2232.76 1281.18C2250.6 1271.6 2275.58 1217.48 2283.32 1220.19C2290.36 1222.64 2303.77 1235.11 2305.44 1241.42H2305.46ZM2201.15 1374.05C2196.5 1379.21 2191.81 1384.32 2187.07 1389.41C2175.71 1386.68 2167.43 1384.02 2167.98 1381.86C2169.23 1376.5 2185.64 1368.21 2199.71 1373.48L2201.15 1374.05ZM689.55 1664.01C570.55 1604.95 462.115 1527.87 367.808 1436.28C361.932 1421.7 361.41 1395.64 365.268 1395.17C370.125 1394.5 372.75 1384.89 366.58 1382.16C360.296 1379.4 345.914 1361.08 343.497 1352.16C341.156 1343.31 352.034 1298.35 357.274 1292.14C362.573 1285.98 366.943 1254.99 369.36 1252.4C371.811 1249.7 371 1232.89 367.883 1226.01C364.691 1219.22 358.646 1199.37 356.294 1202.85C353.987 1206.3 341.623 1208.58 334.176 1200.33C326.723 1192.09 295.969 1180.47 295.969 1177.98C295.969 1175.45 292.021 1166.09 287.105 1162.76C282.093 1159.52 270.206 1143.73 265.115 1141.37C260.104 1139.12 236.812 1136.28 233.466 1130.62C229.976 1124.94 207.857 1105.34 190.357 1101.63C172.753 1097.97 118.294 1076.95 112.681 1066.83C107.028 1056.75 100.938 1009.49 94.9972 1002.23C89.1456 994.87 71.1833 974.69 71.3175 970.29C71.4965 965.91 64.4766 969.49 66.8928 975.44C67.723 977.4 68.1406 981.21 68.2053 985.34C55.8757 953.7 44.8139 921.41 35 888.6C73.326 672.915 167.642 476.331 302.571 314.653C308.701 315.448 313.941 317.237 314.215 319.608C314.821 324.95 325.167 323.087 329.105 310.731C331.456 303.47 329.015 293.938 326.942 286.567C332.276 280.449 337.671 274.341 343.214 268.357C352.66 272.099 366.585 277.626 370.488 283.864C375.952 292.452 391.762 313.659 387.61 318.196C383.305 322.808 394.585 333.459 399.209 328.305C403.877 323.087 409.068 304.832 404.862 304.236C400.671 303.649 390.534 284.152 390.215 263.844C390.036 243.696 416.754 214.925 422.019 217.718C427.194 220.586 438.952 234.755 450.411 228.234C461.826 221.714 474.27 243.11 481.066 241.146C487.763 239.163 515.211 242.175 519.328 244.501C523.419 246.941 530.782 263.442 537.852 263.442C544.991 263.442 566.444 268.253 569.6 274.202C572.902 280.116 578.425 298.053 575.174 300.533C571.902 302.973 573.419 317.043 580.12 320.229C586.718 323.44 607.211 332.246 607.529 337.013C607.837 341.625 618.372 345.422 616.393 349.274C614.221 353.016 612.331 371.673 608.478 373.433C604.561 375.162 598.654 384.928 593.608 380.117C588.562 375.306 570.605 373.761 573.717 378.09C576.774 382.413 577.997 404.257 574.179 411.607C570.426 419.157 566.354 441.656 553.527 432.476C540.656 423.252 495.166 403.059 485.173 403.561C475.23 403.993 483.418 383.621 511.92 371.807C511.92 371.807 511.92 371.808 516.3 337.848C518.607 317.809 518.607 317.809 518.607 317.809C507.853 310.99 492.899 302.158 485.635 298.286C478.228 294.37 459.594 302.864 453.514 299.926C447.528 296.88 429.272 297.566 433.901 299.494C438.39 301.447 445.877 316.253 444.565 324.125C443.252 331.948 434.721 359.263 424.982 362.593C415.193 365.983 379.059 377.324 380.461 380.008C381.828 382.891 375.504 398.084 367.346 403.869C359.242 409.574 338.764 436.144 333.156 442.993C327.504 449.702 308.875 466.774 308.999 471.187C309.253 475.665 304.565 479.135 310.148 481.784C315.567 484.308 320.936 513.641 330.482 518.676C339.997 523.929 363.667 540.106 367.341 537.636C371.129 535.231 379.705 543.774 382.112 539.923C384.473 535.976 396.967 551.453 399.09 562.899C401.163 574.34 413.945 587.441 415.745 574.872C417.529 562.302 431.112 543.059 427.487 544.147C423.933 545.24 420.92 533.064 425.976 533.397C431.166 533.829 445.226 519.252 448.139 502.608C451.068 486.023 449.551 424.489 452.718 422.665C455.632 420.921 470.909 425.324 473.748 430.091C476.532 434.847 493.794 431.621 498.144 438.49C502.524 445.443 528.978 446.899 528.978 455.462C528.978 464.051 533.79 486.729 539.676 487.27C545.593 487.822 559.831 487.206 560.343 482.638C560.831 478.106 567.751 476.108 572.653 486.038C577.61 495.978 598.177 517.468 597.909 521.474C597.71 525.435 598.983 537.298 605.063 542.651C611.014 548.004 618.6 572.68 622.284 570.329C626.018 567.834 637.507 581.755 637.94 590.323C638.283 598.966 639.496 640.908 642.245 648.094C645.015 655.301 662.758 667.716 662.281 673.764C661.64 679.704 657.434 692.78 650.17 689.599C643.006 686.453 632.009 692.77 630.975 689.678C629.881 686.552 624.462 678.541 619.366 680.722C614.221 682.795 600.509 672.333 608.379 661.29C616.403 650.222 623.99 622.777 613.281 630.844C602.393 638.955 573.752 632.916 575.497 636.306C577.242 639.596 571.549 654.849 565.032 656.409C558.578 658.039 555.362 675.708 560.696 680.061C566.14 684.609 574.373 699.822 565.986 705.364C558.812 710.055 541.973 718.783 539.567 720.149C542.58 718.474 532.005 707.705 519.795 711.417C507.585 715.279 484.094 735.313 487.032 738.961C489.861 742.529 483.86 763.04 475.891 766.415C467.911 769.77 442.765 784.68 437.386 791.697C432.166 798.76 435.855 831.288 432.583 832.884C429.426 834.603 417.539 837.705 418.762 841.626C419.791 845.597 405.612 867.947 392.299 874.84C378.821 881.66 362.35 921.88 364.567 926.29C366.695 930.71 372.482 946.47 371.02 952.71C369.608 958.88 366.397 984.44 357.443 980.27C348.553 976.21 336.249 943.07 327.772 939.61C319.137 936.13 290.406 933.75 289.158 935.78C287.835 937.76 280.791 942.35 272.985 937.83C265.19 933.42 230.011 935.44 223.528 939.39C217.085 943.4 191.098 977.37 184.769 1010.18C178.271 1043.06 233.019 1060.53 235.604 1053.13C238.154 1045.75 253.178 1030.21 259.328 1031.07C265.369 1031.8 289.506 1038.67 287.124 1049.65C284.708 1060.59 288.512 1090.43 300.458 1091.09C312.589 1091.83 328.155 1120.16 325.361 1134.41C322.433 1148.68 334.688 1179.58 339.977 1175.89C345.312 1172.11 364.691 1166.07 369.782 1168.24C374.883 1170.52 384.075 1182.31 391.926 1176.22C399.542 1169.99 416.441 1144.33 421.298 1142.78C426.2 1141.13 436.685 1135.24 439.777 1139.41C442.989 1143.66 456.387 1146.29 457.342 1141.3C458.272 1136.35 478.516 1140.99 485.312 1146.42C491.944 1152.02 504.97 1171.64 507.048 1169.7C508.977 1167.57 524.831 1168.96 535.197 1174.73C545.772 1180.46 579.544 1199.6 582.939 1208.65C586.385 1217.81 617.238 1242.58 634.833 1253.28C652.452 1263.85 657.836 1296.36 661.809 1298.93C665.846 1301.47 687.686 1305.69 696.227 1308.31C704.818 1311.07 723.968 1326.73 729.467 1326.73C735.04 1326.73 756.875 1329.5 765.71 1332.68C774.435 1336.02 791.652 1351.58 795.47 1347.89C799.238 1344.18 814.148 1361.01 819.05 1374.45C819.05 1374.45 819.05 1374.45 818.906 1391.84C818.986 1402.73 818.986 1402.73 818.986 1402.73C816.415 1412.05 814.093 1423.17 813.75 1427.52C813.388 1431.93 798.01 1451.36 793.77 1456.04C789.509 1460.73 782.862 1481.16 781.162 1482.83C779.561 1484.52 770.642 1488.99 770.12 1494.3C769.513 1499.51 761.171 1520.97 759.232 1536.96C757.303 1552.98 749.751 1597.61 744.794 1599.67C739.793 1601.66 712.012 1614.41 708.343 1619.71C704.619 1625.03 693.284 1642.73 693.284 1648.63C693.284 1651.53 691.852 1657.77 689.54 1664.07L689.55 1664.01ZM539.428 720.174L539.537 720.12C539.12 720.308 539.065 720.338 539.428 720.174ZM661.088 27.9241C658.86 27.6161 607.186 54.6471 559.816 81.4801C505.755 118.174 455.01 159.156 407.512 203.742C422.292 202.639 445.206 199.93 454.856 198.29C469.691 195.84 494.301 191.74 496.056 187.565C497.239 184.155 497.413 173.967 494.644 170.438C497.005 170.592 499.735 170.672 501.818 170.672C507.426 170.672 516.787 139.883 522.693 132.676C528.644 125.45 562.511 114.854 570.58 109.998C578.684 105.053 596.333 88.1051 603.064 86.1171C609.905 84.0751 619.754 68.2851 618.262 65.0501C616.796 61.9481 641.167 47.0731 650.518 43.1821C659.711 39.2451 661.406 28.7041 661.083 27.9441V27.9241H661.088ZM1349.96 1738.24C1365.8 1728.92 1392.74 1689.11 1401.55 1680.78C1410.42 1672.37 1416.85 1642.27 1418.71 1635.71C1420.47 1629.1 1433.96 1618.46 1438.99 1617.03C1443.96 1615.6 1460.09 1548.88 1474.13 1534.32C1488.19 1519.73 1504.74 1449.23 1503 1423.8C1501.2 1398.52 1512.06 1350.16 1515.36 1338.55C1518.74 1326.95 1536.39 1306.3 1541.92 1302.04C1547.34 1297.72 1581.35 1247.42 1592.38 1229.41C1603.23 1211.34 1613.7 1171.71 1611.62 1162.42C1609.55 1153.13 1585.82 1146.7 1581.4 1151.26C1576.99 1155.86 1554.71 1159.62 1547.57 1159.62C1540.45 1159.62 1524.08 1121.44 1513.94 1113.56C1503.84 1105.75 1494.69 1062 1488.84 1053.73C1482.98 1045.45 1466.67 1024.47 1461.53 1019.71C1456.43 1014.93 1455.54 991.69 1454.37 985.33C1453.29 979.04 1464.27 989.53 1466.16 998.72C1468.09 1008 1494.26 1045.28 1502.38 1057.78C1510.5 1070.38 1531.88 1110.27 1537.33 1122.82C1542.79 1135.23 1590.39 1128.96 1605.8 1121.72C1621.27 1114.36 1640.48 1102.07 1641.25 1097.75C1641.89 1093.43 1666.57 1082.12 1673.36 1076.69C1680.19 1071.23 1686.27 1042.6 1690.71 1038.05C1695.19 1033.36 1687.13 1006.11 1682 997.99C1676.9 989.87 1652.18 983.37 1647.26 986.54C1642.23 989.73 1631.62 968.26 1627.8 960.4C1624.03 952.44 1605.14 942.77 1603.04 937.4C1601.09 931.89 1608.25 923.41 1611.2 921.58C1614.17 919.67 1648.99 944.09 1659.03 956.23C1668.94 968.39 1680.39 990.68 1682.37 994.62C1684.14 998.46 1711.67 1000.47 1717.8 995.96C1723.89 991.43 1730.96 992.64 1733.37 998.46C1733.37 998.46 1733.37 998.46 1742 996.93C1772.14 992.27 1772.14 992.27 1772.14 992.27C1786.43 1007.71 1790.52 1021.1 1790.22 1024.22C1789.93 1027.16 1798.94 1039.72 1804.79 1041.06C1810.64 1042.4 1814.91 1062.14 1816.71 1067.02C1818.41 1071.91 1835.63 1101.4 1839.13 1113.85C1842.67 1126.22 1857.33 1150.46 1860.85 1156.98C1864.25 1163.47 1867.23 1182.27 1867.23 1187.39C1867.23 1192.53 1878.23 1202.64 1885.1 1202.15C1891.9 1201.73 1905.76 1158.52 1909.02 1142.44C1912.13 1126.38 1923.27 1113.16 1926.38 1113.16C1929.58 1113.16 1932.08 1104.12 1932.08 1100.67C1932.08 1097.33 1949.55 1097.66 1951.14 1093.28C1952.61 1088.89 1957.79 1060.37 1964.02 1056.03C1970.29 1051.68 1992.38 1037.19 2000.21 1034.48C2007.88 1031.83 2027.69 1048.91 2032.17 1056.88C2036.56 1064.82 2040.58 1085.15 2038.85 1088.45C2037.21 1091.79 2049.28 1109.31 2059.94 1108.98C2070.41 1108.68 2073.77 1122.39 2074.04 1127.29C2074.54 1132.25 2088.38 1146.38 2091.18 1152.72C2093.87 1159.04 2093.11 1176.28 2091.26 1180.19C2089.34 1184.07 2090.61 1206.69 2092.63 1213.05C2094.65 1219.32 2127.15 1252.26 2139.28 1262.25C2151.49 1272.2 2157.2 1241.93 2150.93 1232.49C2144.74 1223.06 2123.56 1201.08 2118.57 1194.58C2113.57 1187.98 2112.73 1161.65 2114.61 1154.37C2116.41 1146.95 2133.14 1158.4 2140.09 1163.71C2147.02 1169.05 2156.11 1180.9 2156.36 1184.88C2156.6 1188.79 2200.13 1164.44 2201.6 1137.97C2203.2 1111.55 2217.62 1081.74 2219.04 1074.82C2220.48 1067.83 2214.73 1058.25 2211.09 1057.99C2207.36 1057.62 2217.54 1037.81 2229.73 1038.12C2241.95 1038.52 2271.32 1005.77 2278.26 992.83C2285.19 979.85 2299.2 969.17 2300.77 967.53C2302.45 966.01 2312.22 935.3 2313.93 922.59C2315.57 909.91 2306.74 890.07 2305.72 883.5C2304.68 876.97 2294.16 861.849 2291.37 857.098C2288.73 852.376 2286.12 834.573 2287.83 831.239C2289.37 827.993 2300.41 824.43 2301.57 821.507C2302.8 818.481 2315.35 805.072 2314.43 799.182C2313.49 793.223 2322.26 806.831 2328.03 811.697C2333.79 816.607 2340.01 848.147 2347.22 851.611C2354.25 855.09 2383.17 818.193 2379.57 794.386C2376.04 770.515 2387.98 740.069 2394.91 737.321C2400.17 735.293 2413.77 716.019 2423.02 702.173C2359.47 518.8 2254.1 354.944 2118.17 221.947C2116.57 222.047 2114.97 222.111 2113.46 221.813C2102.88 219.517 2102.88 219.517 2102.88 219.517C2085.11 215.72 2074.78 196.764 2077.79 192.371C2078.86 190.984 2078.59 187.803 2077.68 184.026C2067.86 175.11 2057.7 166.328 2047.37 157.76C2039.02 157.496 2030.15 157.76 2025.01 157.496C2014.35 157.119 1991.28 149.549 1987.19 145.424C1982.98 141.319 1969.07 149.057 1968.31 156.751C1967.38 164.444 1943.13 168.008 1940.92 173.853C1938.46 179.658 1926.03 180.11 1923.59 176.79C1921.21 173.535 1898.69 184.702 1887.52 186.392C1876.35 187.933 1855.54 197.018 1850.57 199.249C1845.55 201.446 1833.72 213.036 1831.77 217.792C1829.88 222.638 1815.5 230.65 1810.93 232.523C1806.26 234.333 1807.19 255.202 1813.19 258.169C1819.09 261.061 1802.1 255.644 1794.66 251.757C1787.06 248.045 1778.81 260.703 1776.49 265.077C1774.09 269.426 1767.26 262.453 1767.54 256.28C1767.77 249.948 1749.01 244.943 1746.54 249.933C1744 254.908 1731.03 248.303 1725.65 245.465C1720.21 242.573 1696.97 266.896 1688.35 275.658C1679.71 284.321 1638.41 291.085 1630.68 287.82C1622.93 284.584 1615.34 306.074 1621.93 307.58C1628.43 308.848 1605.14 306.462 1592.37 307.66C1579.51 308.937 1542.18 323.872 1533.32 330.492C1524.29 337.147 1517.19 329.036 1517.19 323.927C1517.19 318.827 1502.99 314.116 1498.73 312.67C1494.6 311.248 1486.24 340.601 1478.89 346.217C1471.48 351.967 1462.54 323.32 1445.16 318.629C1427.74 313.937 1400.54 297.108 1392.76 295.135C1385.11 293.083 1369.54 276.806 1365.17 272.105C1360.78 267.403 1338.52 263.526 1331.39 263.526C1324.22 263.526 1301.15 276.771 1295.04 281.935C1288.65 287.169 1279.46 286.115 1276.39 288.008C1273.33 289.852 1247.2 315.408 1237.14 323.39C1227.01 331.367 1209.33 365.764 1203.66 373.999C1197.77 382.18 1189.55 383.711 1186.16 383.954C1182.78 384.098 1179.98 393.278 1179.98 396.623C1179.98 400.032 1150.03 415.618 1146.92 429.196C1143.77 442.769 1149.86 473.797 1149.86 484.86C1149.86 495.898 1160.99 517.766 1169.27 518.154C1177.54 518.552 1173.23 536.906 1171.01 542.06C1168.85 547.233 1176.26 552.844 1176.02 557.233C1175.83 561.622 1155.03 567.75 1148.62 570.264C1142.12 572.625 1131.77 587.137 1130.36 592.51C1129.23 597.266 1109.27 600.621 1102.67 606.933C1104.28 602.366 1106.53 596.049 1108.32 592.51C1112.16 585.284 1106.87 572.625 1103.76 570.031C1100.59 567.382 1099.15 531.394 1094.09 523.735C1089.04 515.942 1076.45 502.876 1073.34 500.327C1070.23 497.842 1075.5 488.344 1077.28 484.313C1079.13 480.342 1060.5 478.011 1055.4 481.023C1050.33 483.916 1047.58 519.57 1045.46 529.302C1043.39 539.033 1054.66 554.032 1057.78 554.693C1060.75 555.434 1059.97 572.978 1053.45 573.51C1046.9 574.186 1040.95 599.776 1044.3 605.621C1047.67 611.461 1039.63 622.966 1035.78 625.595C1031.95 628.2 1060.77 626.723 1074.01 626.361C1087.17 626.028 1097.51 631.902 1096.13 632.956C1094.73 634.074 1070.91 637.633 1066.61 643.274C1062.37 648.915 1046.17 659.809 1043.03 664.177C1039.91 668.466 1048.36 678.138 1055.24 677.676C1062.07 677.278 1069.87 701.383 1075.23 705.806C1080.56 710.339 1078.58 722.778 1076.32 726.253C1073.81 729.622 1041.66 723.946 1029.44 726.958C1017.13 729.97 1001.65 755.874 1000.61 765.615C999.474 775.456 1002.59 803.501 1004.25 811.279C1005.75 819.003 1031.42 823.893 1036.56 827.7C1041.89 831.422 1066.35 827.789 1071.55 830.15C1076.49 832.59 1093.1 805.29 1096.4 792.642C1099.57 779.919 1125.78 756.743 1131.2 748.091C1136.62 739.527 1164.84 740.511 1171.77 735.954C1178.7 731.551 1174.83 757.365 1178.17 771.554C1181.47 785.808 1208.46 784.034 1204.5 770.625C1200.54 757.37 1207.19 751.535 1208.27 756.401C1209.46 761.147 1235.32 771.753 1240.25 779.243C1245.11 786.767 1243.75 802.706 1238 802.527C1232.24 802.284 1232.01 819.972 1238.14 821.87C1244.18 823.789 1252.34 801.965 1258.9 798.785C1265.39 795.494 1270.68 781.946 1267.61 780.873C1264.68 779.824 1273.19 767.672 1276.9 771.673C1280.59 775.664 1263.04 745.233 1252 734.09C1240.97 722.997 1248.75 727.942 1269.35 745.049C1269.35 745.049 1269.35 745.049 1283.6 765.023C1286.37 768.612 1290.01 779.521 1292.47 783.522C1295.84 789.406 1295.84 789.406 1295.84 789.406C1298.62 796.379 1301.06 815.484 1301.06 820.692C1301.06 825.757 1312.24 835.945 1319 835.478C1325.79 834.991 1330.93 838.714 1329.5 838.957C1328.09 839.201 1333.98 852.411 1340.73 852.744C1347.43 853.042 1350.36 835.672 1343.56 835.244C1336.81 834.882 1337.85 809.729 1336.97 798.879C1336.2 787.92 1341.88 778.949 1344.22 778.949C1346.53 778.949 1343.91 801.429 1344.13 806.612C1344.22 811.731 1347.06 821.95 1350.27 829.256C1350.27 829.256 1350.27 829.256 1357.25 834.554C1372.87 846.561 1372.87 846.561 1372.87 846.561C1395.27 839.951 1425.37 845.006 1424.19 849.618C1422.95 854.195 1440.73 855.279 1441.83 847.853C1442.87 840.538 1443.7 848.072 1443.7 853.226C1443.7 858.236 1428.99 878.23 1426.57 887.54C1424.07 896.71 1372.37 890.45 1350.13 888.76C1327.85 887.1 1295.03 894.66 1292.47 901.31C1290.03 907.97 1255.26 886.03 1239.37 879.38C1223.39 872.61 1210.88 848.335 1207.62 845.189C1204.33 841.999 1210.35 834.151 1208.84 829.395C1207.3 824.504 1170.92 823.52 1160.41 827.476C1149.8 831.338 1095.28 837.108 1082.35 842.784C1069.54 848.559 1050.05 842.431 1044 841.363C1037.97 840.299 1023.55 858.091 1016.26 861.312C1008.82 864.523 999.579 889.73 995.547 917.46C995.547 917.46 995.547 917.46 985.658 936.74C979.245 949.05 979.245 949.05 979.245 949.05C961.218 962.76 941.317 1008.46 935.42 1017.6C929.613 1026.77 924.945 1092.55 924.945 1114.68C924.945 1136.82 944.24 1183.66 949.714 1196.55C955.187 1209.51 988.581 1238.08 999.718 1244.97C1010.89 1251.65 1047.16 1252.56 1059.03 1252.54C1070.88 1252.49 1084.46 1241.19 1089.04 1227.44C1089.04 1227.44 1089.04 1227.44 1106.5 1229.19C1114.46 1230.03 1114.46 1230.03 1114.46 1230.03C1114.9 1239.75 1140.6 1247.53 1146.92 1250.97C1153.19 1254.41 1170.18 1251.85 1175.17 1250.33C1180.26 1248.92 1185.88 1294.3 1182.21 1307.48C1178.62 1320.6 1191.14 1366.65 1194.84 1380.54C1198.56 1394.44 1214.33 1432.31 1215.96 1445.95C1217.43 1459.58 1206.67 1504.83 1204.87 1520.66C1203.12 1536.6 1224.62 1580.89 1230.4 1596.15C1235.96 1611.36 1240.58 1644.21 1240.58 1651.76C1240.58 1659.38 1264.18 1705.27 1269.5 1724.1C1274.97 1743.03 1334.07 1747.66 1349.92 1738.36L1349.96 1738.24ZM2312.05 1013.51C2307.63 1019.75 2302.43 1020.1 2300.74 1014.33C2299.08 1008.37 2295.19 991.52 2300.52 984.99C2305.88 978.41 2316.54 1007.41 2312.05 1013.51ZM2345.44 1075.67C2342.15 1083.23 2329.73 1100.06 2324.54 1095.57C2319.27 1090.97 2317.47 1054.96 2329.5 1057.42C2341.47 1059.96 2348.64 1068.22 2345.43 1075.65L2345.44 1075.67ZM2400.02 857.286C2407.8 851.944 2434.46 834.688 2440.77 828.923C2443.89 826.164 2450.64 821.453 2456.57 817.039C2459.9 830.647 2463.22 844.24 2466 858.012C2463.5 862.425 2461.11 865.507 2459.02 866.476C2447.33 871.86 2436.24 875.23 2434.28 873.86C2432.37 872.47 2419.7 875.07 2413.41 879.37C2407.11 883.64 2394.93 901.57 2390.06 898.39C2384.97 895.13 2385.55 876.28 2390.3 876.28C2391.14 876.28 2391.91 876.3 2392.78 876.36C2390.92 872.05 2394.05 861.471 2400.02 857.276V857.296V857.286ZM2072.87 1237.11C2070.23 1235.16 2070.56 1235.34 2073.07 1237.17C2073 1237.11 2072.87 1237.11 2072.87 1237.11ZM2162.06 1320.11C2167.21 1331.86 2155.37 1354.49 2148.15 1348.84C2140.89 1343.2 2108.81 1262.64 2092.17 1250.7C2082.83 1244.08 2076.22 1239.39 2073.07 1237.17C2079.1 1241.17 2084.76 1227.39 2086.28 1230.87C2087.83 1234.41 2105.58 1243.54 2111.47 1255.44C2111.47 1255.44 2111.47 1255.44 2117.98 1266.26C2123.97 1276.09 2123.97 1276.09 2123.97 1276.09C2139.73 1288.62 2156.88 1308.38 2162.06 1320.11ZM1906.54 1189.95C1911.04 1180.88 1918.83 1177.4 1923.78 1182.25C1928.83 1187.24 1934.72 1209.53 1932.42 1213.96C1930.26 1218.41 1902.1 1199.08 1906.55 1189.95H1906.54ZM1532.57 1620.41C1531.59 1610.77 1523.52 1577.93 1525.94 1572.95C1528.53 1568.05 1532.81 1550.36 1530.74 1545.9C1528.53 1541.38 1534.77 1515.43 1540.31 1507.78C1545.97 1500.11 1571.22 1481.68 1573.96 1472.69C1576.51 1463.66 1586.57 1450.08 1586.93 1459.05C1587.36 1467.94 1601.18 1518.73 1598.99 1529.76C1596.83 1540.57 1593.2 1550.49 1591.12 1551.54C1588.95 1552.76 1586.38 1562.43 1586.38 1566.6C1586.38 1570.89 1584.57 1588.78 1582.34 1597.17C1580.19 1605.48 1564.53 1634.44 1558.72 1636.01C1553.16 1637.57 1533.72 1630.01 1532.58 1620.42L1532.57 1620.41ZM1073.65 57.7641C1066.52 58.6281 1048.08 54.8961 1044.87 51.5161C1041.76 48.1621 1014.02 45.1601 1006.09 48.4901C998.087 51.8241 1003.57 29.0471 1014.69 26.5971C1025.76 24.0721 1016.33 8.36712 1004.53 8.36712C992.648 8.25712 963.505 3.99812 956.649 5.52912C949.773 7.00512 936.37 0.738112 931.513 0.0321123C926.621 -0.673888 891.566 10.5041 875.025 9.67411C858.38 8.96811 817.658 10.6131 808.903 13.1081C799.944 15.4141 793.571 32.6851 794.843 38.7331C796.156 44.9511 755.464 44.7921 742.672 44.9811C729.845 45.1801 661.605 59.6771 643.816 69.4881C625.988 79.2441 612.068 104.283 617.964 104.809C623.87 105.297 608.061 119.476 598.48 122.821C588.92 126.066 566.095 127.542 560.652 132.93C555.317 138.272 566.414 141.975 568.532 145.618C570.605 149.127 576.968 142.462 583.103 145.916C589.034 149.316 608.936 150.926 614.181 152.954C619.535 155.051 597.347 159.256 586.936 160.026C576.516 160.722 578.853 181.193 587.344 183.996C595.846 186.889 617.735 189.891 619.928 186.357C622.2 182.804 645.914 190.189 656.678 191.466C667.287 192.595 675.555 219.428 678.752 225.257C682.078 231.032 682.759 251.444 681.934 257.358C681.203 263.233 700.846 273.998 704.42 270.246C707.865 266.493 706.861 279.48 699.031 278.809C691.206 278.113 696.292 300.791 706.071 304.081C715.676 307.317 709.084 321.263 703.52 325.557C697.843 329.707 700.925 343.056 695.153 347.867C689.5 352.613 715.532 397.711 715.343 420.966C715.199 444.131 729.671 463.076 735.189 463.076C740.753 463.076 759.814 467.723 762.354 472.718C764.86 477.663 774.042 469.264 777.741 465.457C781.276 461.69 789.101 450.502 794.963 440.697C800.814 430.841 813.865 384.327 815.66 379.337C817.415 374.317 839.24 377.483 844.241 374.904C849.198 372.354 863.526 361.062 867.588 357.713C871.625 354.358 902.822 341.167 911.412 335.015C919.834 328.956 934.043 302.506 940.645 296.9C947.302 291.184 937.245 292.894 928.903 287.442C920.689 282.025 924.324 275.38 926.75 272.855C929.101 270.261 954.238 277.025 962.923 280.37C971.589 283.814 988.104 271.871 981.835 267.204C975.382 262.637 978.777 262.771 981.835 264.709C984.848 266.593 988.109 249.471 984.818 246.226C981.462 242.916 1010.24 221.952 1005.15 202.117C1000.15 182.297 1013.01 161.969 1020.72 161.726C1028.5 161.517 1026.17 139.346 1016.94 137.273C1007.75 135.221 1016.43 133.183 1019.87 130.012C1023.3 126.901 1027.69 107.091 1025.71 103.304C1023.63 99.4421 1039.86 95.1831 1042.65 90.6801C1045.56 86.2121 1064.05 77.3351 1070.68 75.8841C1077.18 74.3731 1080.72 57.0231 1073.64 57.8081V57.7641H1073.65ZM1234.86 73.9211C1243.58 76.9331 1248.25 99.0141 1253.22 99.7201C1258.22 100.505 1265.8 104.467 1270.2 108.766C1274.68 113.035 1288.13 110.277 1298.77 115.828C1309.53 121.479 1305.87 158.843 1295.99 155.941C1286.05 152.939 1264.44 145.598 1261.88 154.857C1259.34 164.28 1248.25 189.275 1241.8 189.409C1235.29 189.608 1226.67 174.688 1220.33 173.803C1214 172.829 1206.24 161.224 1211.97 155.429C1217.64 149.679 1218.39 128.238 1212.71 133.049C1206.9 137.78 1184.17 140.131 1183.97 136.886C1183.88 133.74 1179.91 117.334 1174.5 114.685C1169.12 111.956 1172.32 91.3561 1184.11 85.1981C1195.9 79.1391 1212.81 91.8181 1210.42 86.2021C1208.18 80.7051 1226.09 70.9191 1234.86 73.9211ZM1321.33 91.8231C1338.77 94.2631 1358.4 79.9501 1362.64 75.8441C1366.99 71.8391 1314.29 61.0791 1294.25 60.4271C1274.21 59.8311 1257.98 62.5251 1258.31 66.5211C1258.64 70.3921 1303.84 89.2981 1321.34 91.8231H1321.33ZM1002.72 563.987C1007.38 565.796 1014.74 546.915 1018.6 546.915C1022.46 546.915 1032.18 572.65 1032.56 578.291C1032.81 584.006 1027.51 589.558 1020.67 590.716C1013.79 591.879 997.714 592.435 996.63 585.885C995.572 579.33 998.122 562.084 1002.72 563.987ZM1054.44 363.18C1058.08 369.506 1051.72 398.616 1045.86 399.202C1040.07 399.764 1023.55 408.272 1015.3 409.689C1006.99 410.966 998.341 406.563 995.999 399.714C993.613 392.92 972.573 389.729 975.367 385.217C978.196 380.704 980.866 367.518 978.38 369.79C975.795 372.031 966.403 368.005 972.692 365.277C978.887 362.509 981.964 341.307 985.728 345.645C989.645 350.014 1010.17 356.813 1016.76 357.196C1023.46 357.613 1050.86 356.808 1054.44 363.18ZM1629.68 206.337C1620.32 215.879 1585.59 235.242 1589.89 245.863C1593.99 256.613 1601.2 287.347 1598.13 288.346C1595.02 289.286 1584.04 291.855 1576.02 286.98C1568 281.97 1549.97 264.013 1553.22 259.103C1556.57 254.128 1565.96 210.069 1571.72 204.304C1577.43 198.489 1593.2 188.31 1606.96 181.77C1620.55 175.214 1664.97 164.797 1665.95 163.127C1666.82 161.572 1671.67 156.696 1675.58 156.696C1679.49 156.696 1686.58 164.673 1682.23 174.365C1677.81 184.151 1639.13 196.899 1629.68 206.337ZM1582.15 91.5991C1596.78 106.097 1604.85 85.1331 1620.88 87.1961C1620.58 57.7541 1580.7 67.8631 1582.15 91.5991ZM1866.42 97.0961C1865.96 102.513 1906.85 106.907 1918.83 104.79C1930.76 102.737 1916.33 84.0651 1898.84 85.1931C1881.46 86.3561 1866.85 91.6991 1866.42 97.0961ZM385.632 400.226C381.341 404.242 385.11 424.306 393.328 424.887C401.486 425.439 414.556 394.63 424.604 400.807C434.592 406.98 441.393 409.44 439.737 406.14C438.052 402.905 409.5 390.425 405.97 388.054C402.426 385.937 390.086 396.374 385.647 400.226H385.632ZM490.249 1079.12C490.249 1082.49 508.077 1082.02 511.005 1076.53C513.834 1071.08 512.308 1066.61 507.505 1066.61C502.802 1066.61 490.264 1075.65 490.264 1079.11L490.249 1079.12ZM410.867 1049.79C419.433 1048.15 415.436 1061.97 417.41 1066.91C419.538 1071.88 439.951 1075.83 444.073 1079.21C448.11 1082.55 458.674 1072.93 466.892 1073.98C475.051 1075.01 464.198 1045.68 450.441 1046.51C436.74 1047.42 425.902 1034.1 422.67 1032.44C419.289 1030.98 403.554 1021.31 398.911 1017.68C394.431 1013.99 359.466 1010.9 347.599 1010.9C335.722 1010.9 322.651 1023.02 320.852 1026.96C318.933 1030.98 339.684 1033.66 345.536 1030.51C351.477 1027.41 379.164 1034.01 384.816 1040.68C390.524 1047.28 402.281 1051.41 410.867 1049.79ZM373.546 1079.12C373.546 1082.49 391.553 1080.37 395.863 1080.49C400.288 1080.57 400.089 1077.63 395.52 1073.98C391.001 1070.35 373.546 1075.66 373.546 1079.12ZM386.273 986.45C381.615 984.64 377.851 991.99 377.851 995.48C377.851 998.92 380.436 1001.78 383.549 1001.78C386.76 1001.78 390.966 988.37 386.273 986.45ZM424.017 989.38C422.416 985.89 414.735 983.09 412.463 983.09C410.112 983.09 408.416 989.09 408.839 996.29C409.247 1003.55 425.573 992.78 424.017 989.38ZM451.187 1031.22C458.461 1027.68 459.355 1018.96 455.035 1019.48C450.71 1019.91 442.725 1006.92 438.027 1005.07C433.349 1003.2 429.536 1012.87 429.536 1017.1C429.536 1021.32 432.161 1024.23 435.387 1023.35C438.579 1022.58 443.829 1034.58 451.187 1031.22Z" fill="#21D0C3"/>
</g>
</g>
<defs>
<clipPath id="clip0_93_29">
<rect width="2437" height="1743" fill="white"/>
</clipPath>
<clipPath id="clip1_93_29">
<rect width="2437" height="1928" fill="white"/>
</clipPath>
</defs>
</svg>
