<svg width="1032" height="572" viewBox="0 0 1032 572" fill="none" xmlns="http://www.w3.org/2000/svg">
<rect width="1032" height="572" fill="white"/>
<g clip-path="url(#clip0_76_10)">
<path d="M815.549 12.1725C832.397 12.1725 826.627 18.1422 835.172 20.853C841.982 23.0246 837.367 19.4976 845.326 19.1341C847.757 18.9555 850.18 19.6763 852.599 19.4083C859.529 18.7676 855.949 18.4103 858.366 17.2366C863.45 14.797 881.454 15.2498 885.845 16.7777C890.224 18.3178 889.535 19.2265 896.459 20.7636C905.345 22.6549 915.155 18.8631 923.005 23.0246C927.973 25.7384 925.784 26.5578 933.631 26.6471C940.089 26.6471 946.211 25.1069 952.094 26.5608C959.02 28.1811 954.513 26.2867 962.708 25.0176C965.364 24.6603 966.865 25.0176 969.291 25.8308C975.063 27.7314 973.795 28.9974 981.532 28.6401C995.146 27.8269 1003.45 34.2464 1015.69 35.9589C1024.12 37.1356 1032.66 35.3245 1032.08 45.5512C1023.31 46.6387 1016.27 38.8515 1008.07 43.7431C1008.43 51.4285 1012.8 46.5433 1017.07 52.787C1016.72 52.8824 1016.27 52.9687 1016.03 53.0612C1009.57 54.5983 1006.68 56.4989 1002.06 62.5547C995.717 62.5547 990.986 61.1101 984.287 64.5449C983.132 75.0394 996.749 72.3256 995.137 87.9799C995.024 90.8726 995.024 95.6688 994.557 99.7378C988.791 99.1957 975.051 84.5393 972.401 80.196C967.553 72.2334 981.634 54.5983 973.325 55.0479C970.323 55.2329 972.288 56.9517 969.168 60.1213C960.971 59.7548 964.781 53.6033 954.735 57.315C952.429 66.1803 958.082 65.0931 953.7 67.4495C949.199 69.7997 945.736 66.3621 942.386 65.8199C941.689 65.6382 919.877 66.8088 918.84 67.2616C916.417 70.154 912.03 81.2863 910.992 84.0926C918.143 88.3435 923.11 87.3424 925.647 87.4349C929.113 87.5303 930.267 89.6156 933.04 90.2412C941.232 92.234 933.273 87.6134 939.85 90.2412C944.811 95.6749 949.773 101.007 954.735 106.348C953.811 108.431 953.006 110.414 952.199 112.404C946.887 108.43 946.083 100.012 939.503 97.5691C938.462 106.25 947.234 102.267 942.386 122.622C938.232 140.355 935.115 133.659 927.606 135.645C925.877 136.733 921.265 148.675 920.801 150.665C926.335 155.822 933.15 158.542 932.801 169.209C929.568 170.835 927.489 172.376 923.107 171.199C918.49 152.926 919.988 162.059 914.449 156.543C908.683 150.752 915.948 145.324 899.908 151.75C897.48 148.219 898.981 148.583 897.707 144.692C893.669 145.235 888.13 150.474 886.859 154.553C890.326 156.364 893.089 158.717 894.824 158.988C898.173 159.346 899.786 156.906 904.29 159.796C901.75 164.863 899.908 163.769 897.829 168.935C901.52 174.988 907.867 179.337 910.059 187.386C910.175 187.66 910.292 188.015 910.406 188.375C911.68 192.54 912.604 189.373 912.825 195.161C912.945 199.412 910.863 201.771 909.362 206.016C901.867 225.644 890.894 222.937 876.006 230.169C876.242 235.6 880.968 244.367 870.12 242.38C869.318 233.613 873.933 238.129 873.009 229.722C865.96 227.277 861.922 230.622 858.809 238.043C861.578 251.072 877.274 252.065 873.123 271.967C868.269 276.033 863.427 280.016 858.686 283.998C854.308 281.189 859.039 283.262 854.885 278.112C850.495 272.863 845.294 269.151 840.457 264.814C840.105 265.538 839.758 266.259 839.414 266.989C837.804 271.236 835.726 276.03 836.764 280.287C837.224 282.455 840.918 290.415 842.88 292.133C846.346 295.483 849.923 296.204 851.078 301.456C851.535 303.262 853.267 316.739 853.267 317.556C838.953 312.307 843.221 302.809 838.032 293.583C835.837 289.423 835.265 290.415 832.379 286.346C832.152 278.931 834.341 272.869 832.615 265.184C831.458 260.656 829.266 254.048 828.111 249.44C822.916 250.524 818.299 257.766 817.141 250.706C816.917 249.44 816.681 248.26 816.57 247.179C813.573 234.149 809.299 237.676 804.909 225.194C797.866 227.455 797.641 227.64 789.327 228.99L789.213 229.144L789.236 229.605C785.925 234.214 789.403 232.258 783.596 237.066C776.669 242.762 772.165 250.546 764.437 255.16C763.509 263.218 765.13 265.023 763.052 274.613C762.247 278.137 758.204 287.633 753.466 286.919C751.971 286.642 745.621 271.264 744.12 267.01C741.578 259.778 738.692 254.439 736.855 246.113C735.815 241.683 735.115 233.179 734.074 230.194C729.112 230.915 729.346 234.001 724.614 230.736C721.265 228.386 722.769 226.941 720.918 223.411C716.994 219.795 712.953 216.175 708.921 212.559C705.799 211.57 693.797 213.283 688.719 212.737C679.603 211.924 678.79 212.463 673.364 205.326C663.785 205.776 664.592 209.297 655.249 201.426C649.127 196.369 650.281 188.224 641.396 192.838C641.052 200.256 644.745 201.885 648.089 205.326C650.509 207.948 653.517 209.756 654.782 213.283C654.899 213.378 655.479 216.727 655.587 217.173C664.248 217.719 666.327 213.646 671.055 210.209C675.673 214.459 671.169 215.186 677.865 218.532C683.177 221.156 682.136 219.616 685.597 223.867C687.331 229.575 673.708 245.041 669.207 247.844C665.744 250.013 663.893 248.75 660.779 251.279C656.167 255.086 661.362 254.541 653.278 257.433C644.623 260.508 636.075 267.02 626.962 267.568C625 262.319 623.038 256.984 621.076 251.646C615.31 233.465 615.543 240.516 609.649 231.109C606.873 227.04 608.028 224.409 606.182 220.799C604.914 218.088 602.952 216.908 601.218 213.563C598.562 208.407 595.451 200.355 589.332 201.171L586.362 186.391C587.14 186.376 588.099 186.305 589.332 186.151C590.6 183.622 599.95 160.636 587.828 163.535C584.248 164.434 586.679 165.704 581.598 164.434C576.287 163.085 581.374 162.081 575.488 162.897C569.707 163.711 562.786 168.689 558.285 151.593C556.559 145.435 553.434 140.103 546.289 149.412C548.131 152.581 549.396 152.855 551.478 155.93C550.901 156.826 548.942 159.099 548.248 159.82C544.321 163.618 549.869 161.807 543.516 162.62C540.056 160.094 540.747 156.829 537.403 152.313C531.517 143.895 535.322 147.795 532.316 139.739C529.955 137.709 526.048 136.191 522.859 134.198V134.139L522.678 134.019C521.876 133.48 521.066 132.938 520.375 132.297C515.294 127.874 514.25 123.891 508.6 124.886C508.478 129.044 509.058 129.223 511.14 131.943C518.985 141.529 516.568 138.279 522.675 141.803L522.911 141.929V141.972C524.337 142.773 526.007 143.919 528.281 145.537C520.46 152.276 527.654 153.016 522.911 155.264V155.27L522.856 155.289L522.675 155.375C522.212 155.551 521.757 155.739 521.416 155.917C519.795 151.941 523.375 153.835 519.212 148.05C516.906 145.065 514.714 144.16 511.14 142.527C502.129 138.368 503.289 135.113 497.747 129.676C491.511 129.864 492.902 131.764 488.511 133.93C483.203 136.459 484.013 133.483 477.778 134.022C472.696 142.798 479.973 135.47 470.734 142.712C459.648 151.118 468.769 159.894 451.004 162.522C449.73 162.703 449.264 162.522 448.004 162.971C444.762 164.099 446.482 163.218 444.835 164.869L441.9 164.986C441.419 161.28 437.285 160.673 432.877 160.528C430.46 152.48 430.46 154.473 432.303 147.055C433.341 142.894 432.416 140.898 433.34 136.736C435.649 126.337 453.768 136.656 458.968 132.399C461.388 127.966 461.735 123.632 458.968 119.369C456.076 115.118 452.275 115.66 450.313 111.591C454.695 108.702 451.459 111.228 455.278 110.411C459.773 109.422 459.199 108.15 464.502 107.161C469.242 106.253 472.247 101.999 476.859 99.1126C483.433 94.9571 480.311 91.2361 488.281 89.9762C501.097 87.7952 492.782 88.1649 494.176 76.4933C496.123 75.7694 497.974 74.9534 499.82 74.1399C503.86 79.3028 498.785 77.2234 503.627 80.652C504.901 79.931 506.397 79.2103 507.787 78.4894C507.09 72.8739 504.44 73.9584 502.706 66.9999C496.356 67.9887 494.048 73.2406 488.969 71.3368C484.007 69.5287 483.78 62.5608 484.007 56.7729C485.847 52.436 495.082 50.0793 498.662 48.9921C504.437 47.0915 503.627 43.2964 508.939 38.1367C515.868 31.3447 510.778 38.2292 514.131 29.4596C521.748 29.1792 518.174 28.905 522.669 26.6502L522.85 26.5824L522.906 26.564L523.311 26.4038C525.964 25.224 529.424 24.9529 532.887 23.7793C545.583 19.6239 550.778 21.697 560.008 25.4057C567.165 28.2951 588.752 28.3937 590.373 37.2558C585.169 42.588 580.213 38.7004 572.707 39.1596C574.094 46.0318 574.674 46.0318 581.021 47.9292C582.059 44.664 580.56 45.9393 582.286 43.8601C584.371 44.3097 586.443 44.664 588.516 45.0275C590.6 38.0661 593.023 39.0578 600.066 38.2446C598.912 33.4517 597.641 34.8102 600.291 31.0121C607.567 31.7328 601.684 31.1043 605.255 36.8001C610.34 36.1654 615.304 30.6486 622.345 29.9215C626.726 29.4718 626.49 31.1014 632.729 30.4697C637.81 29.9215 637.58 28.1103 642.661 30.1957C644.503 26.8474 642.661 26.9336 647.156 26.1296C654.083 24.9467 660.091 29.1052 666.782 30.0201C661.817 24.0442 657.088 25.2209 663.205 15.2714C670.936 13.7343 671.633 14.8155 674.976 20.5141C677.282 19.2512 677.976 17.9852 679.244 17.6217C682.711 16.8054 683.859 19.704 691.363 15.3607C696.097 12.7362 688.366 14.452 696.905 12.0986C700.249 11.2823 700.249 12.6438 703.251 10.2011C710.064 7.75834 716.761 5.22323 723.565 2.6881C730.833 2.60185 727.145 4.77043 735.456 1.69315C746.764 -2.28975 749.994 1.9673 758.536 2.23838C778.52 3.00539 771.442 14.1563 802.705 14.1563C807.673 14.1563 807.326 12.2526 814.363 12.1663C814.71 12.1663 815.057 12.1663 815.517 12.1663L815.549 12.1725ZM937.552 176.722C938.124 181.059 940.322 184.321 944.135 186.04C948.062 179.889 943.214 179.528 957.516 175.092C958.44 174.818 959.364 174.455 960.175 174.104C972.41 167.225 963.982 172.2 973.218 168.587C973.337 162.981 971.944 159.269 971.489 153.21C971.261 146.424 968.947 143.799 962.831 142.715C962.25 155.292 971.025 151.223 956.828 164.33C949.438 171.291 944.59 163.153 937.552 176.722ZM857.22 347.786C858.025 343.99 858.608 339.284 860.336 336.474C865.765 336.474 860.803 340.909 868.995 339.911C870.382 336.749 870.382 335.208 869.799 331.864C866.106 331.05 865.068 331.771 862.409 334.035C861.607 333.133 860.803 332.232 859.99 331.324C856.179 328.617 856.64 334.855 853.063 327.794C849.253 320.47 853.526 320.377 845.218 315.318C840.134 312.237 838.402 310.521 834.248 306.267C827.097 298.76 833.437 302.106 821.552 298.485C821.316 306.722 823.173 301.835 829.514 311.42C832.172 315.951 834.708 320.47 837.364 324.99C841.172 331.225 845.104 348.233 857.22 347.786ZM875.569 335.932C885.842 337.472 893.223 341.184 896.112 339.194C899.235 335.663 898.194 333.317 901.313 328.156C905.462 321.465 902.578 323.543 907.89 317.661C904.89 306.903 903.502 311.697 909.272 300.744C908.35 297.315 905.811 293.338 902.925 291.256C899.579 293.338 902.465 290.978 900.159 293.963C896.115 298.392 891.961 302.83 888.037 307.262C884.574 310.611 885.958 308.067 880.65 312.24C879.151 313.054 877.65 313.868 876.038 314.682C873.499 315.577 871.881 312.692 871.306 320.199C870.948 323.63 874.528 331.322 875.569 335.932ZM629.528 125.357C630.335 136.403 637.032 140.651 641.769 145.712C641.186 150.961 639.909 149.603 640.026 156.928C645.69 160.914 649.838 163.35 657.231 161.364C658.266 152.498 655.371 152.945 652.611 146.889C653.071 146.162 654.339 145.259 654.575 145.078C656.651 142.367 655.61 146.162 656.651 141.547C651.226 139.829 642.454 134.398 641.769 127.261C644.416 125.179 643.608 126.441 645.57 125.179C649.838 122.459 646.608 126.62 649.15 122.012C646.961 117.85 644.532 117.123 639.224 119.206C636.915 120.114 630.796 124.365 629.528 125.357ZM582.315 128.256C578.744 123.377 578.969 120.931 572.045 120.752C569.278 123.644 566.045 127.988 564.544 132.417C562.232 139.114 563.844 134.5 564.08 141.735C563.961 142.01 564.08 142.376 564.08 142.644C563.961 146.981 562.923 141.825 563.614 145.814C569.045 144.726 564.888 144.816 568.929 143.54C572.736 142.281 584.397 138.843 587.738 139.653C595.702 141.458 602.401 147.616 611.401 141.458C610.94 133.594 601.241 130.606 594.548 127.165C594.903 119.936 596.865 125.634 596.396 118.667C594.087 118.571 592.702 118.211 590.51 119.113C585.321 121.374 588.195 122.015 588.195 122.825C588.432 126.716 593.396 122.018 588.088 126.808C586.592 128.077 584.167 128.077 582.315 128.256ZM447.558 73.4131C447.339 86.0825 451.829 81.8223 456.103 88.0695C454.147 93.4107 453.797 89.2491 451.613 94.7599C449.651 99.3804 452.071 95.2221 450.8 103.271C454.15 103.45 459.108 102.282 463.502 101.91C469.734 101.37 469.618 100.822 471.81 94.5842C468.347 90.4229 464.881 86.2643 461.312 82.1059C456.802 75.4123 461.312 80.0174 459.925 74.4109C458.89 72.421 457.963 70.4405 457.039 68.4415C451.027 70.4344 451.607 69.889 447.558 73.4131Z" fill="#21D0C3"/>
<path d="M589.277 201.078C588.011 205.139 594.923 218.877 596.649 222.211C598.384 225.561 601.147 227.004 601.958 231.8C603.109 238.389 601.725 237.574 605.413 242C613.141 251.124 605.066 249.503 617.059 258.445C626.044 265.136 623.744 267.117 627.551 276.065C633.425 277.686 650.949 270.012 653.943 272.263C657.52 278.499 649.8 288.438 647.838 293.855C641.381 312.015 630.087 311.746 621.441 325.655C616.718 333.154 614.523 334.152 610.147 343.179C605.182 353.394 620.169 381.667 611.182 393.502C609.223 396.206 602.879 397.837 594.926 406.06C586.51 415.002 595.154 413.462 591.929 428.372C589.39 431.806 586.283 431.984 583.166 434.423C582.015 437.945 582.939 440.746 580.98 445.082C578.901 450.325 578.563 447.518 575.56 451.769C573.365 455.107 573.598 456.464 571.065 459.536C568.879 462.337 567.721 463.154 565.646 464.963C555.62 473.996 534.062 474.268 532.214 473.001C527.141 468.756 530.601 467.665 529.333 461.704C528.109 456.464 525.269 452.072 522.888 448.034V447.9L522.704 447.585C521.558 445.604 520.518 443.699 519.94 441.898C515.789 429.063 517.299 419.321 510.034 406.313C500.921 389.499 515.098 380.742 514.518 371.254C514.291 368.73 513.372 367.192 513.136 365.2C511.41 354.722 510.378 345.327 503.224 337.099C495.388 328.167 496.423 331.324 498.965 316.604C502.184 299.711 494.811 304.047 484.441 303.6C479.363 288.241 469.451 295.728 459.545 300.251C453.318 303.046 451.012 299.448 443.981 300.434C428.3 302.515 440.637 309.109 419.653 292.845C410.899 286.063 416.773 289.499 411.59 281.012C409.864 277.942 404.555 273.881 402.135 270.799C394.188 261.045 403.634 251.204 402.255 240.001C399.835 219.218 396.375 237.284 408.249 212.177C414.47 198.805 423.924 198.719 426.349 192.748C428.425 187.423 427.032 183.621 430.955 178.748C434.413 174.78 439.369 175.583 441.331 169.354C441.987 167.536 442.182 166.096 442.036 164.952H442.039L444.972 164.835L444.785 165.02C446.287 168.453 444.211 167.905 450.208 168.726C461.152 170.163 462.542 163.577 470.492 161.944C474.413 161.131 498.968 160.141 500.691 160.587C505.991 166.373 501.612 170.443 501.612 175.312C507.376 178.296 515.556 179.019 518.908 182.095C522.707 185.618 520.867 185.073 522.707 185.7L522.94 185.768V185.802C523.625 186.005 524.637 186.359 526.345 186.996C530.954 188.534 530.724 189.432 535.68 189.792C540.178 175.066 535.563 176.607 557.232 183.375C579.828 190.61 569.68 184.015 579.248 185.002C583.09 185.371 582.977 186.399 586.309 186.328L589.277 201.078ZM645.99 377.425C640.92 379.946 640.226 385.732 636.425 388.985C632.276 392.688 626.737 390.972 625.125 397.834C623.05 406.421 628.589 403.795 622.473 415C620.283 419.149 620.167 429.545 623.507 432.617C633.542 442.097 638.961 418.162 641.264 410.67C642.993 405.333 644.611 399.288 646.45 394.313C648.29 388.982 650.946 384.282 645.99 377.425Z" fill="#FAD24D"/>
<path d="M245.672 402.941C242.558 397.887 234.947 395.538 228.83 391.459C228.486 391.366 228.252 391.278 228.142 391.1C219.719 385.309 211.758 362.612 205.066 354.109C201.953 350.039 199.998 351.848 198.614 345.432C197.114 339.558 199.417 340.548 201.381 335.657C191.117 317.211 214.65 317.492 209.803 295.331C208.767 291.266 205.764 285.566 203.225 283.758C198.384 285.84 200.689 287.01 198.147 290.991C194.222 288.811 190.303 286.644 186.497 284.476C174.617 273.264 180.967 281.409 177.617 274.086C170.47 258.711 163.656 267.303 155.126 259.7C151.314 256.534 150.626 251.561 144.281 252.47C134.709 253.735 140.018 255.176 130.096 250.653C121.673 246.764 112.903 242.246 107.023 237.002C106.79 228.861 109.796 228.497 104.604 220.904C102.068 217.012 98.6042 213.849 96.5262 210.767C92.8408 204.895 98.2599 210.225 89.0352 198.659C82.9246 190.967 90.071 190.243 83.1488 184.913C74.0442 189.16 88.3405 201.187 92.8469 220.633C88.9215 220.091 86.2689 217.008 84.7658 212.67C82.4605 205.523 84.8824 207.34 77.7328 204.35C78.0771 192.048 80.4991 202.906 75.4274 190.699C73.6937 186.176 74.7327 184.184 73.0052 179.574C71.619 175.598 73.6999 179.207 71.3852 176.95C70.4692 174.24 72.0863 176.772 70.0051 174.69C67.9303 172.424 69.8885 174.416 68.044 173.061C63.4271 169.899 62.3943 165.914 61.5859 159.589C59.2682 138.973 66.1966 137.252 74.1549 122.518C80.2717 111.931 79.1161 113.48 74.2686 104.793C75.4274 100.445 76.9244 100.359 76.583 94.3947C76.2358 87.423 75.7778 90.5917 77.3946 85.2583C77.1579 84.9844 76.8136 84.8026 76.583 84.7165C76.3556 84.7165 76.0052 84.4484 75.7778 84.353C75.5443 84.2669 75.0831 84.079 74.8558 83.9033C73.5923 83.5372 72.4396 83.0875 71.0473 82.6379C71.6251 71.6048 73.3556 65.0891 60.5562 63.8295C54.9065 63.2845 51.3286 60.9351 49.4873 61.0244C48.4422 61.0244 43.1399 63.651 39.107 64.6456C31.9511 66.5457 35.7596 66.3578 29.1816 65.1907C25.6436 64.5225 15.6998 65.631 7.1084 63.2816L8.31026 51.3708C13.1946 50.7271 18.1557 50.4286 21.5646 47.377C18.2234 44.578 14.7622 46.5609 9.80108 44.8519C10.7202 36.076 24.4479 39.0567 30.4449 39.0567C31.2503 32.458 27.6815 32.6426 30.9091 30.1054C32.7626 28.6611 68.625 19.5279 77.3978 21.2462C90.775 23.6881 104.149 26.1361 117.53 28.4825C125.722 29.2893 138.751 23.7773 147.174 24.1346C153.518 24.5041 147.752 25.7635 155.596 26.3147C161.018 26.675 161.246 25.1353 167.246 26.8566C172.782 28.4856 170.129 28.9382 176.704 28.9382C177.743 25.4094 178.782 21.7912 179.941 18.1731C174.171 19.0814 170.704 21.1631 165.054 19.8913C165.288 14.558 172.201 12.3902 175.895 10.4933C188.467 4.16234 197.123 14.558 210.738 15.5526C215.806 15.9159 219.495 12.3871 225.381 12.2054C223.42 15.916 222.148 15.1061 219.381 19.9837C221.92 26.6781 218.345 17.8128 221.342 23.7866C221.807 24.5133 222.148 24.5133 222.618 26.4101C213.157 28.6703 219.04 29.7573 205.89 28.7566C207.507 31.023 204.51 29.7573 209.585 32.1099C213.851 34.096 219.965 33.0059 224.468 32.8305C225.965 30.1176 226.887 27.7619 229.54 26.7735C230.576 26.4132 231.845 26.3239 233.573 26.4132C233.807 27.762 234.154 29.1199 234.498 30.4809C234.498 30.5734 234.732 31.4694 234.618 31.2876C234.732 31.103 234.843 31.8359 234.962 32.1069C242.226 27.9467 236.115 27.8512 240.034 20.3501C233.917 19.1707 234.729 19.8882 230.917 16.0976C234.618 12.1161 241.765 10.7582 247.07 11.1215C246.723 14.7366 244.992 14.6565 246.372 17.7296C250.528 15.2015 253.415 8.41483 260.1 9.6835C261.367 10.5826 262.867 11.3955 264.25 12.2085C260.786 15.3771 255.6 15.5557 251.103 17.3663C249.142 36.9875 257.444 20.5318 254.678 34.0038C259.636 33.6434 264.487 30.1115 266.328 26.4995C264.487 24.1407 261.834 24.1407 260.331 21.3448C261.496 17.7297 263.979 14.986 267.481 13.3601C269.847 12.2547 272.691 11.6727 275.903 11.6727C312.579 11.9406 295.16 13.5634 306.469 18.635C309.002 19.7158 313.501 20.2639 315.008 22.4379C317.314 25.8744 315.124 29.1261 318.806 31.842C322.039 34.1885 322.506 31.7495 326.771 36.9968C325.852 39.9776 323.651 43.0537 319.165 43.143C312.932 43.2384 316.626 39.0783 309.926 39.7065C310.046 45.8589 316.279 48.2147 310.507 51.5526C305.437 54.5394 308.661 50.4718 304.857 52.5472C304.743 52.6426 304.393 52.8212 304.277 52.9105C304.049 53.089 303.819 53.3601 303.7 53.5387C303.006 54.2745 302.426 54.8998 301.857 55.5402C292.631 53.0922 294.361 54.1791 288.825 48.2176C286.75 45.9575 286.406 45.4092 282.708 45.6864C280.4 45.7696 277.409 46.761 275.208 44.781C279.714 39.263 281.9 44.6025 288.478 41.3448C289.633 40.7998 296.9 35.2908 298.056 34.0222C296.095 29.6864 297.819 33.2863 294.942 30.4964C288.478 24.073 286.63 25.6988 277.873 25.6988C273.77 30.3178 270.693 36.0392 266.223 38.5455V38.5517C263.525 40.0607 260.318 40.4085 256.064 38.6348C258.028 46.41 263.103 40.4424 263.564 49.8465C260.217 49.2122 258.483 47.5803 255.025 48.7626C247.642 51.4723 254.22 51.2015 254.789 52.6549C254.789 52.7474 258.253 53.1013 254.789 54.367C250.98 55.722 254.214 53.6402 246.83 49.394C247.869 47.5832 248.908 45.6896 249.944 43.7896C243.947 45.5971 236.453 48.4948 229.417 51.8327C221.453 55.7217 213.956 60.1561 209.462 64.2269C209.345 71.0104 210.615 66.487 211.306 74.5272C222.034 75.1705 218.576 78.3299 229.3 81.3168C231.381 81.8589 234.031 82.4039 237.262 82.9457C237.262 88.0112 232.651 91.8081 235.875 97.0551C243.372 102.207 243.606 92.1652 245.456 85.7447C270.843 80.5564 258.603 73.2521 265.163 59.5834V59.5801C266.146 57.5357 267.548 55.3646 269.561 53.0091C271.516 53.1013 279.471 53.9174 281.208 54.2838C286.975 55.2663 283.867 56.6303 290.095 59.34C289.972 64.2237 287.436 70.5517 294.819 69.3846C300.467 68.3961 299.204 64.0452 306.122 62.9551C309.238 70.1021 308.437 73.1815 309.81 81.7635C326.421 88.1005 319.037 93.2492 315.807 105.101C317.891 106.09 320.077 107.004 322.275 107.9C322.162 111.337 322.039 114.684 321.929 118.031C321.582 118.031 304.16 114.318 303.006 113.967C305.661 106.542 310.504 106.462 313.626 98.8658C307.393 99.9433 307.857 101.84 303.356 103.201C299.33 104.381 296.208 103.565 291.936 104.11C290.436 108.984 291.822 99.8573 292.283 106.093C292.517 108.451 293.666 106.191 292.047 108.716C286.283 106.093 288.241 99.9404 277.519 105.643C279.936 106.727 282.358 107.722 284.897 108.716C284.556 115.676 283.978 110.428 282.478 115.044C278.783 126.89 292.517 119.568 296.089 118.936C295.163 125.178 291.241 125.178 285.702 126.893C279.595 128.698 277.744 131.146 272.9 132.239C272.9 124.818 271.747 131.063 275.094 125.905C270.25 126.351 266.669 128.522 262.061 130.428L261.606 130.604V130.61C255.671 132.975 254.776 133.32 254.103 140.735C249.034 142.274 243.145 143.996 239.573 147.611C235.995 150.955 232.417 154.302 228.953 157.56C228.609 157.834 228.378 158.102 228.154 158.28C229.42 167.595 228.154 167.777 222.387 171.398C217.537 174.468 215.926 174.379 211.426 178.268C197.01 190.933 203.929 185.052 204.734 206.85C201.737 205.945 198.854 204.947 196.084 203.959C193.896 189.486 196.89 194.28 185.016 190.933C172.207 187.318 173.938 193.461 168.638 194.554C162.752 195.814 159.863 189.307 151.33 194.733C146.608 197.902 142.105 199.983 140.958 205.578C139.566 212.362 136.455 217.341 136.916 224.848C137.722 245.196 156.644 246.363 161.485 236.864C164.713 230.542 163.908 227.102 174.408 228.731C175.447 234.16 173.827 238.136 172.45 242.296C171.525 244.734 168.983 249.169 170.249 252.519C177.749 255.494 177.98 249.898 187.902 255.672C188.591 265.353 183.399 276.208 191.01 281.809C196.893 286.065 197.237 282.268 202.432 281.359C208.198 280.371 207.163 283.891 212.471 284.707C215.468 281.092 214.199 283.349 216.16 278.921C219.624 271.235 220.546 274.853 228.735 270.148C229.537 269.698 230.232 269.245 231.043 268.698C231.959 270.6 233.004 272.408 233.921 274.212C239.924 267.253 240.618 274.034 247.531 275.94C250.501 276.734 252.628 277.021 254.263 277.042H254.266C259.292 277.116 259.805 274.717 266.672 277.101C267.487 277.47 268.52 277.744 269.448 278.009C269.565 278.009 269.909 278.188 269.909 278.372C270.029 278.465 270.373 278.733 270.49 278.831C271.633 280.091 271.753 281.356 272.678 282.72C277.415 287.148 282.143 291.586 286.753 295.926C295.855 299.454 295.855 292.845 306.242 302.701C310.62 306.769 308.661 306.69 311.09 311.927C311.437 312.744 312.122 313.555 312.585 314.556C313.509 316.99 314.55 319.341 315.588 321.693C320.313 327.753 326.774 323.954 333.353 330.192C337.152 333.808 334.278 332.722 342.694 334.169C355.731 336.25 350.658 335.074 360.579 342.406C364.383 345.114 365.304 343.576 368.881 345.928C373.84 352.709 372.569 360.038 368.421 366.002C355.617 384.27 359.999 381.282 359.421 395.754C358.958 404.073 356.538 421.252 348.574 423.33C319.625 431.292 336.467 436.807 328.858 450.827C326.663 454.812 325.048 455.804 323.66 458.973C317.9 472.167 321.937 476.602 304.866 473.623C306.484 476.424 305.446 474.522 307.067 477.051C312.13 484.742 312.944 490.528 302.563 492.422C293.912 494.056 297.601 492.422 296.796 501.826C293.448 503.186 291.951 501.826 289.756 503.997C292.754 509.427 289.984 504.907 295.065 507.982C294.14 510.964 293.445 513.862 292.643 516.75C290.685 523.805 290.11 517.293 289.418 525.521C292.415 526.872 294.487 526.6 297.14 530.134C296.796 532.844 294.026 540.261 293.221 544.512C297.484 550.754 300.948 557.441 310.055 558.08C309.935 563.32 311.209 562.778 306.597 563.857C302.67 564.765 294.37 561.149 290.906 559.34C284.909 556.172 279.37 552.014 275.337 546.047C273.032 542.701 273.954 544.329 271.526 541.166C267.146 535.654 268.882 533.119 267.61 529.407C266.915 527.237 263.34 524.885 264.834 517.827C265.191 515.84 268.415 506.343 264.496 507.971C260.571 509.511 267.493 508.869 262.07 511.408C260.798 507.971 259.762 502.903 259.07 498.654C257.687 491.509 255.963 491.24 255.145 486.902C253.421 476.856 257.801 475.77 252.95 459.04C249.772 447.97 251.051 421.775 247.688 408.321C247.187 406.433 246.637 404.586 245.687 402.97L245.672 402.941Z" fill="#FF5B62"/>
<path d="M794.339 196.184C800.204 196.184 804.959 191.426 804.959 185.558C804.959 179.69 800.204 174.932 794.339 174.932C788.474 174.932 783.72 179.69 783.72 185.558C783.72 191.426 788.474 196.184 794.339 196.184Z" stroke="#0F0F0F" stroke-width="3" stroke-miterlimit="10" stroke-linecap="round"/>
<path d="M794.339 200.939V219.796" stroke="#0F0F0F" stroke-width="3" stroke-miterlimit="10" stroke-linecap="round"/>
</g>
<defs>
<clipPath id="clip0_76_10">
<rect width="1025" height="564" fill="white"/>
</clipPath>
</defs>
</svg>
