<svg width="3516" height="1933" viewBox="0 0 3516 1933" fill="none" xmlns="http://www.w3.org/2000/svg">
<path d="M2773.15 41.7189C2830.94 41.7189 2811.15 62.179 2840.46 71.4695C2863.82 78.9124 2847.99 66.8243 2875.29 65.5785C2883.63 64.9662 2891.94 67.4366 2900.24 66.5181C2924.01 64.3222 2911.73 63.0976 2920.02 59.0752C2937.46 50.7138 2999.22 52.2657 3014.28 57.5022C3029.3 62.7808 3026.94 65.8951 3050.69 71.1632C3081.17 77.6454 3114.82 64.6495 3141.75 78.9124C3158.79 88.2134 3151.28 91.0216 3178.2 91.3277C3200.35 91.3277 3221.35 86.0491 3241.53 91.0321C3265.29 96.5853 3249.83 90.0926 3277.94 85.743C3287.05 84.5184 3292.2 85.7429 3300.52 88.5301C3320.32 95.0439 3315.97 99.383 3342.51 98.1584C3389.21 95.3712 3417.71 117.373 3459.69 123.242C3488.6 127.275 3517.89 121.068 3515.9 156.118C3485.81 159.845 3461.68 133.156 3433.54 149.921C3434.76 176.261 3449.78 159.518 3464.4 180.917C3463.23 181.244 3461.66 181.54 3460.86 181.857C3438.69 187.125 3428.77 193.639 3412.94 214.394C3391.17 214.394 3374.94 209.443 3351.96 221.215C3348 257.183 3394.71 247.882 3389.18 301.534C3388.79 311.448 3388.79 327.886 3387.19 341.832C3367.41 339.974 3320.28 289.742 3311.19 274.856C3294.56 247.566 3342.86 187.125 3314.36 188.666C3304.06 189.3 3310.8 195.191 3300.1 206.054C3271.98 204.798 3285.05 183.715 3250.59 196.436C3242.68 226.82 3262.07 223.094 3247.04 231.17C3231.6 239.225 3219.72 227.443 3208.23 225.585C3205.84 224.962 3131.02 228.974 3127.46 230.526C3119.15 240.439 3104.1 278.593 3100.54 288.211C3125.07 302.78 3142.11 299.349 3150.81 299.666C3162.7 299.993 3166.66 307.14 3176.17 309.284C3204.27 316.114 3176.97 300.278 3199.53 309.284C3216.55 327.907 3233.57 346.181 3250.59 364.488C3247.42 371.625 3244.66 378.423 3241.89 385.243C3223.67 371.624 3220.91 342.771 3198.34 334.399C3194.77 364.15 3224.86 350.499 3208.23 420.262C3193.98 481.041 3183.29 458.089 3157.53 464.898C3151.6 468.625 3135.78 509.556 3134.19 516.376C3153.17 534.049 3176.55 543.371 3175.35 579.931C3164.26 585.505 3157.13 590.784 3142.1 586.751C3126.26 524.125 3131.4 555.427 3112.4 536.519C3092.62 516.672 3117.54 498.07 3062.52 520.092C3054.19 507.993 3059.34 509.239 3054.97 495.905C3041.12 497.763 3022.12 515.721 3017.76 529.699C3029.65 535.907 3039.13 543.973 3045.08 544.902C3056.57 546.126 3062.1 537.765 3077.55 547.668C3068.84 565.035 3062.52 561.287 3055.39 578.991C3068.05 599.737 3089.82 614.643 3097.34 642.23C3097.74 643.169 3098.14 644.383 3098.53 645.619C3102.9 659.892 3106.07 649.039 3106.83 668.876C3107.24 683.446 3100.1 691.532 3094.95 706.08C3069.24 773.352 3031.6 764.072 2980.53 788.86C2981.34 807.473 2997.55 837.519 2960.34 830.71C2957.59 800.663 2973.42 816.14 2970.25 787.329C2946.07 778.947 2932.22 790.412 2921.54 815.845C2931.04 860.502 2984.88 863.902 2970.64 932.113C2953.99 946.048 2937.38 959.699 2921.12 973.349C2906.1 963.721 2922.33 970.826 2908.08 953.174C2893.02 935.185 2875.18 922.463 2858.59 907.599C2857.38 910.079 2856.19 912.55 2855.01 915.052C2849.49 929.61 2842.36 946.038 2845.92 960.628C2847.5 968.06 2860.17 995.34 2866.9 1001.23C2878.79 1012.71 2891.06 1015.18 2895.02 1033.18C2896.59 1039.37 2902.53 1085.56 2902.53 1088.36C2853.43 1070.37 2868.07 1037.82 2850.27 1006.2C2842.74 991.941 2840.78 995.34 2830.88 981.394C2830.1 955.983 2837.61 935.206 2831.69 908.865C2827.72 893.346 2820.2 870.701 2816.24 854.907C2798.42 858.623 2782.58 883.443 2778.61 859.246C2777.84 854.907 2777.03 850.863 2776.65 847.158C2766.37 802.5 2751.71 814.589 2736.65 771.81C2712.49 779.559 2711.72 780.193 2683.2 784.817L2682.81 785.345L2682.89 786.928C2671.53 802.722 2683.46 796.018 2663.54 812.498C2639.78 832.019 2624.33 858.697 2597.82 874.512C2594.64 902.13 2600.2 908.316 2593.07 941.181C2590.31 953.259 2576.44 985.807 2560.19 983.358C2555.06 982.408 2533.28 929.706 2528.13 915.126C2519.41 890.337 2509.51 872.041 2503.21 843.505C2499.64 828.323 2497.24 799.175 2493.67 788.945C2476.65 791.415 2477.45 801.994 2461.22 790.803C2449.73 782.748 2454.89 777.796 2448.54 765.698C2435.08 753.303 2421.22 740.898 2407.39 728.504C2396.68 725.115 2355.51 730.985 2338.09 729.116C2306.82 726.329 2304.03 728.177 2285.42 703.715C2252.56 705.257 2255.33 717.324 2223.28 690.35C2202.28 673.015 2206.24 645.101 2175.76 660.916C2174.58 686.338 2187.25 691.923 2198.72 703.715C2207.02 712.7 2217.34 718.897 2221.68 730.985C2222.08 731.312 2224.07 742.788 2224.44 744.319C2254.15 746.188 2261.28 732.231 2277.5 720.449C2293.34 735.018 2277.89 737.509 2300.86 748.975C2319.08 757.97 2315.51 752.691 2327.38 767.26C2333.33 786.823 2286.6 839.831 2271.16 849.438C2259.28 856.871 2252.93 852.542 2242.25 861.21C2226.43 874.258 2244.25 872.39 2216.52 882.303C2186.83 892.839 2157.51 915.158 2126.25 917.037C2119.52 899.047 2112.79 880.762 2106.06 862.466C2086.28 800.157 2087.08 824.322 2066.86 792.08C2057.34 778.134 2061.3 769.118 2054.97 756.745C2050.62 747.455 2043.89 743.411 2037.94 731.946C2028.83 714.273 2018.16 686.676 1997.17 689.474L1986.98 638.82C1989.65 638.767 1992.94 638.524 1997.17 637.996C2001.52 629.329 2033.59 550.55 1992.01 560.484C1979.73 563.567 1988.07 567.917 1970.64 563.567C1952.42 558.943 1969.87 555.501 1949.68 558.299C1929.85 561.086 1906.11 578.147 1890.67 519.554C1884.75 498.45 1874.03 480.175 1849.52 512.079C1855.84 522.943 1860.18 523.882 1867.32 534.418C1865.34 537.491 1858.62 545.282 1856.24 547.752C1842.77 560.769 1861.8 554.562 1840.01 557.349C1828.14 548.692 1830.51 537.501 1819.04 522.024C1798.85 493.171 1811.9 506.537 1801.59 478.929C1793.49 471.972 1780.09 466.767 1769.15 459.937V459.736L1768.53 459.324C1765.78 457.477 1763 455.619 1760.63 453.423C1743.2 438.262 1739.62 424.612 1720.24 428.022C1719.82 442.274 1721.81 442.886 1728.95 452.209C1755.86 485.063 1747.57 473.925 1768.52 486.003L1769.33 486.435V486.583C1774.22 489.328 1779.95 493.255 1787.75 498.798C1760.92 521.897 1785.6 524.431 1769.33 532.138V532.159L1769.14 532.223L1768.52 532.518C1766.93 533.12 1765.37 533.764 1764.2 534.376C1758.64 520.747 1770.92 527.239 1756.64 507.413C1748.73 497.183 1741.21 494.079 1728.95 488.484C1698.04 474.231 1702.02 463.072 1683.01 444.438C1661.62 445.082 1666.39 451.596 1651.33 459.018C1633.12 467.686 1635.9 457.487 1614.51 459.335C1597.08 489.413 1622.04 464.297 1590.35 489.117C1552.32 517.928 1583.61 548.006 1522.67 557.011C1518.3 557.634 1516.7 557.011 1512.38 558.552C1501.26 562.416 1507.16 559.397 1501.51 565.056L1491.44 565.457C1489.79 552.756 1475.61 550.677 1460.49 550.18C1452.2 522.594 1452.2 529.425 1458.52 504.003C1462.08 489.74 1458.91 482.899 1462.08 468.636C1470 432.994 1532.15 468.361 1549.99 453.771C1558.29 438.579 1559.48 423.725 1549.99 409.114C1540.07 394.544 1527.03 396.403 1520.3 382.456C1535.33 372.554 1524.23 381.211 1537.33 378.413C1552.75 375.024 1550.78 370.664 1568.97 367.275C1585.23 364.161 1595.54 349.581 1611.36 339.689C1633.91 325.447 1623.2 312.694 1650.54 308.376C1694.5 300.901 1665.98 302.168 1670.76 262.166C1677.44 259.685 1683.79 256.888 1690.12 254.1C1703.98 271.795 1686.57 264.668 1703.18 276.419C1707.55 273.948 1712.68 271.478 1717.45 269.007C1715.06 249.761 1705.97 253.478 1700.02 229.629C1678.24 233.018 1670.32 251.018 1652.9 244.493C1635.88 238.296 1635.1 214.415 1635.88 194.578C1642.19 179.714 1673.87 171.637 1686.15 167.911C1705.96 161.397 1703.18 148.39 1721.4 130.706C1745.17 107.428 1727.71 131.023 1739.21 100.967C1765.34 100.006 1753.08 99.0663 1768.5 91.3384L1769.12 91.1061L1769.31 91.0428L1770.7 90.4938C1779.8 86.4503 1791.67 85.5212 1803.55 81.4989C1847.1 67.2571 1864.92 74.3621 1896.58 87.0731C1921.13 96.9759 1995.18 97.3137 2000.74 127.687C1982.89 145.962 1965.89 132.638 1940.14 134.212C1944.9 157.765 1946.89 157.765 1968.66 164.268C1972.22 153.077 1967.08 157.448 1973 150.322C1980.15 151.863 1987.26 153.077 1994.37 154.323C2001.52 130.464 2009.83 133.863 2033.99 131.076C2030.03 114.649 2025.67 119.305 2034.76 106.288C2059.72 108.758 2039.54 106.604 2051.79 126.125C2069.23 123.95 2086.26 105.042 2110.41 102.55C2125.44 101.009 2124.63 106.594 2146.03 104.429C2163.46 102.55 2162.67 96.3426 2180.1 103.49C2186.42 92.0141 2180.1 92.3096 2195.52 89.5541C2219.28 85.5001 2239.89 99.7525 2262.84 102.888C2245.81 82.4068 2229.59 86.4398 2250.57 52.3396C2277.09 47.0715 2279.48 50.7771 2290.95 70.3082C2298.86 65.9796 2301.24 61.6406 2305.59 60.3949C2317.48 57.5972 2321.42 67.5315 2347.16 52.6457C2363.4 43.6509 2336.88 49.5314 2366.17 41.4656C2377.64 38.6679 2377.64 43.3341 2387.94 34.9622C2411.31 26.5902 2434.28 17.9016 2457.62 9.21293C2482.55 8.91732 2469.9 16.3497 2498.41 5.80293C2537.2 -7.84768 2548.28 6.74255 2577.58 7.6716C2646.13 10.3004 2621.85 48.5179 2729.09 48.5179C2746.13 48.5179 2744.94 41.9934 2769.08 41.6977C2770.27 41.6977 2771.46 41.6977 2773.04 41.6977L2773.15 41.7189ZM3191.65 605.68C3193.61 620.545 3201.15 631.725 3214.23 637.616C3227.7 616.533 3211.07 615.298 3260.13 600.095C3263.3 599.156 3266.47 597.91 3269.25 596.706C3311.22 573.132 3282.31 590.182 3313.99 577.798C3314.4 558.584 3309.62 545.863 3308.06 525.096C3307.28 501.839 3299.34 492.844 3278.36 489.128C3276.37 532.233 3306.47 518.287 3257.77 563.208C3232.42 587.068 3215.79 559.175 3191.65 605.68ZM2916.09 1191.97C2918.85 1178.96 2920.85 1162.83 2926.78 1153.2C2945.4 1153.2 2928.38 1168.4 2956.48 1164.98C2961.24 1154.14 2961.24 1148.86 2959.24 1137.4C2946.57 1134.61 2943.01 1137.08 2933.89 1144.84C2931.14 1141.75 2928.38 1138.66 2925.59 1135.55C2912.52 1126.27 2914.1 1147.65 2901.83 1123.45C2888.76 1098.35 2903.42 1098.03 2874.92 1080.69C2857.48 1070.13 2851.54 1064.25 2837.29 1049.67C2812.76 1023.94 2834.51 1035.41 2793.74 1023C2792.93 1051.23 2799.3 1034.48 2821.05 1067.33C2830.17 1082.86 2838.87 1098.35 2847.98 1113.84C2861.04 1135.21 2874.53 1193.5 2916.09 1191.97ZM2979.03 1151.34C3014.27 1156.62 3039.59 1169.34 3049.5 1162.52C3060.21 1150.42 3056.64 1142.38 3067.34 1124.69C3081.57 1101.76 3071.68 1108.88 3089.9 1088.72C3079.61 1051.85 3074.85 1068.28 3094.64 1030.74C3091.48 1018.99 3082.77 1005.36 3072.87 998.223C3061.39 1005.36 3071.29 997.272 3063.38 1007.5C3049.51 1022.68 3035.26 1037.89 3021.8 1053.08C3009.92 1064.56 3014.67 1055.84 2996.46 1070.14C2991.32 1072.93 2986.17 1075.72 2980.64 1078.51C2971.93 1081.58 2966.38 1071.69 2964.41 1097.42C2963.18 1109.18 2975.46 1135.54 2979.03 1151.34ZM2135.05 429.637C2137.82 467.496 2160.79 482.054 2177.04 499.4C2175.04 517.389 2170.66 512.734 2171.06 537.839C2190.49 551.5 2204.72 559.851 2230.08 553.042C2233.63 522.658 2223.7 524.188 2214.23 503.433C2215.81 500.941 2220.16 497.848 2220.97 497.225C2228.09 487.935 2224.52 500.941 2228.09 485.126C2209.48 479.235 2179.39 460.623 2177.04 436.161C2186.12 429.025 2183.35 433.353 2190.08 429.025C2204.72 419.703 2193.64 433.965 2202.36 418.172C2194.85 403.909 2186.52 401.417 2168.31 408.554C2160.39 411.668 2139.4 426.238 2135.05 429.637ZM1973.1 439.572C1960.85 422.849 1961.62 414.466 1937.87 413.854C1928.38 423.767 1917.29 438.653 1912.14 453.834C1904.21 476.786 1909.74 460.971 1910.55 485.77C1910.14 486.71 1910.55 487.966 1910.55 488.885C1910.14 503.749 1906.58 486.076 1908.95 499.748C1927.58 496.021 1913.32 496.328 1927.18 491.957C1940.24 487.639 1980.24 475.857 1991.7 478.634C2019.02 484.82 2042 505.924 2072.87 484.82C2071.29 457.867 2038.02 447.627 2015.06 435.834C2016.28 411.056 2023.01 430.587 2021.4 406.707C2013.48 406.379 2008.73 405.144 2001.21 408.237C1983.41 415.986 1993.27 418.182 1993.27 420.959C1994.08 434.293 2011.11 418.193 1992.9 434.61C1987.77 438.959 1979.45 438.959 1973.1 439.572ZM1510.85 251.609C1510.1 295.031 1525.5 280.43 1540.16 301.841C1533.45 320.147 1532.25 305.884 1524.76 324.771C1518.03 340.607 1526.33 326.355 1521.97 353.941C1533.46 354.553 1550.47 350.552 1565.54 349.275C1586.92 347.427 1586.52 345.548 1594.04 324.169C1582.16 309.907 1570.27 295.654 1558.03 281.402C1542.56 258.461 1558.03 274.244 1553.27 255.029C1549.72 248.209 1546.54 241.421 1543.37 234.57C1522.75 241.4 1524.74 239.531 1510.85 251.609Z" fill="#21D0C3"/>
<path d="M1996.98 689.156C1992.64 703.073 2016.35 750.157 2022.27 761.586C2028.22 773.067 2037.7 778.012 2040.48 794.448C2044.43 817.031 2039.68 814.237 2052.33 829.408C2078.84 860.678 2051.14 855.122 2092.28 885.771C2123.1 908.701 2115.21 915.491 2128.27 946.16C2148.42 951.716 2208.53 925.412 2218.8 933.129C2231.07 954.5 2204.59 988.564 2197.86 1007.13C2175.71 1069.37 2136.97 1068.45 2107.31 1116.12C2091.11 1141.82 2083.58 1145.24 2068.57 1176.18C2051.54 1211.19 2102.95 1308.09 2072.12 1348.65C2065.4 1357.92 2043.64 1363.51 2016.36 1391.69C1987.49 1422.34 2017.14 1417.06 2006.08 1468.16C1997.37 1479.93 1986.71 1480.54 1976.02 1488.9C1972.07 1500.97 1975.24 1510.57 1968.52 1525.43C1961.39 1543.4 1960.23 1533.78 1949.93 1548.35C1942.4 1559.79 1943.2 1564.44 1934.51 1574.97C1927.01 1584.57 1923.04 1587.37 1915.92 1593.57C1881.53 1624.53 1807.58 1625.46 1801.24 1621.12C1783.84 1606.57 1795.71 1602.83 1791.36 1582.4C1787.16 1564.44 1777.42 1549.39 1769.25 1535.55V1535.09L1768.62 1534.01C1764.69 1527.22 1761.12 1520.69 1759.14 1514.52C1744.9 1470.53 1750.08 1437.14 1725.16 1392.56C1693.9 1334.93 1742.53 1304.92 1740.54 1272.4C1739.76 1263.75 1736.61 1258.48 1735.8 1251.65C1729.88 1215.74 1726.34 1183.54 1701.8 1155.34C1674.92 1124.73 1678.47 1135.55 1687.19 1085.1C1698.23 1027.2 1672.94 1042.06 1637.37 1040.53C1619.95 987.889 1585.95 1013.55 1551.97 1029.05C1530.61 1038.63 1522.7 1026.3 1498.58 1029.68C1444.79 1036.81 1487.11 1059.41 1415.13 1003.67C1385.1 980.425 1405.25 992.201 1387.47 963.113C1381.55 952.591 1363.34 938.675 1355.04 928.111C1327.78 894.679 1360.18 860.953 1355.45 822.555C1347.15 751.328 1335.28 813.246 1376.01 727.195C1397.35 681.365 1429.78 681.07 1438.1 660.606C1445.22 642.356 1440.44 629.325 1453.9 612.625C1465.76 599.025 1482.76 601.777 1489.49 580.427C1491.74 574.196 1492.41 569.262 1491.91 565.34H1491.92L1501.98 564.94L1501.34 565.572C1506.49 577.338 1499.37 575.462 1519.94 578.277C1557.48 583.2 1562.25 560.628 1589.52 555.03C1602.97 552.246 1687.2 548.851 1693.11 550.38C1711.29 570.211 1696.27 584.159 1696.27 600.849C1716.04 611.075 1744.1 613.553 1755.6 624.096C1768.63 636.168 1762.32 634.301 1768.63 636.452L1769.43 636.684V636.8C1771.78 637.496 1775.25 638.708 1781.11 640.891C1796.92 646.162 1796.13 649.241 1813.13 650.474C1828.56 600.005 1812.73 605.287 1887.06 628.482C1964.57 653.279 1929.76 630.675 1962.58 634.059C1975.76 635.324 1975.37 638.846 1986.8 638.603L1996.98 689.156ZM2191.52 1293.55C2174.13 1302.19 2171.75 1322.02 2158.71 1333.17C2144.48 1345.86 2125.48 1339.98 2119.95 1363.5C2112.83 1392.93 2131.83 1383.93 2110.85 1422.33C2103.34 1436.55 2102.94 1472.18 2114.4 1482.71C2148.82 1515.2 2167.41 1433.17 2175.31 1407.49C2181.24 1389.2 2186.79 1368.48 2193.1 1351.43C2199.41 1333.16 2208.52 1317.05 2191.52 1293.55Z" fill="#FAD24D"/>
<path d="M818.33 1381C807.649 1363.68 781.542 1355.63 760.56 1341.65C759.379 1341.33 758.577 1341.03 758.198 1340.42C729.307 1320.57 701.998 1242.78 679.044 1213.64C668.363 1199.69 661.657 1205.89 656.912 1183.9C651.767 1163.77 659.664 1167.16 666.402 1150.4C631.195 1087.18 711.92 1088.14 695.292 1012.19C691.739 998.256 681.437 978.721 672.728 972.526C656.121 979.66 664.029 983.67 655.309 997.316C641.845 989.844 628.401 982.415 615.348 974.985C574.595 936.559 596.379 964.473 584.886 939.377C560.371 886.682 536.995 916.127 507.736 890.07C494.661 879.221 492.299 862.177 470.536 865.29C437.702 869.628 455.912 874.567 421.876 859.063C392.985 845.734 362.903 830.252 342.733 812.279C341.931 784.375 352.243 783.13 334.434 757.105C325.736 743.765 313.853 732.926 306.725 722.362C294.083 702.236 312.672 720.505 281.029 680.865C260.068 654.502 284.582 652.022 260.837 633.754C229.606 648.307 278.646 689.53 294.104 756.176C280.639 754.319 271.54 743.754 266.384 728.884C258.476 704.389 266.784 710.616 242.259 700.368C243.44 658.207 251.748 695.419 234.351 653.584C228.404 638.081 231.968 631.253 226.042 615.454C221.287 601.829 228.425 614.198 220.485 606.462C217.343 597.175 222.89 605.85 215.751 598.716C208.634 590.948 215.351 597.776 209.024 593.133C193.187 582.294 189.644 568.638 186.871 546.96C178.921 476.304 202.687 470.404 229.986 419.905C250.968 383.622 247.004 388.93 230.376 359.158C234.351 344.257 239.486 343.961 238.315 323.519C237.124 299.625 235.553 310.485 241.099 292.206C240.287 291.267 239.106 290.644 238.315 290.349C237.535 290.349 236.333 289.43 235.553 289.103C234.752 288.808 233.17 288.164 232.39 287.562C228.056 286.307 224.102 284.766 219.326 283.225C221.308 245.411 227.244 223.08 183.339 218.763C163.959 216.895 151.686 208.843 145.37 209.149C141.785 209.149 123.597 218.151 109.763 221.56C85.2165 228.072 98.2806 227.428 75.7164 223.428C63.5803 221.138 29.4705 224.937 0 216.885L4.12269 176.063C20.8771 173.857 37.8951 172.834 49.5884 162.375C38.127 152.782 26.2545 159.578 9.23654 153.721C12.3892 123.643 59.4786 133.859 80.05 133.859C82.8125 111.243 70.5709 111.876 81.6421 103.18C88.0002 98.23 211.017 66.9279 241.11 72.8168C286.997 81.1859 332.874 89.5761 378.772 97.6179C406.872 100.383 451.568 81.4919 480.458 82.7162C502.221 83.9826 482.441 88.2991 509.349 90.1882C527.949 91.423 528.729 86.1461 549.311 92.0456C568.3 97.6285 559.201 99.1798 581.755 99.1798C585.318 87.0854 588.882 74.6848 592.857 62.2843C573.066 65.3976 561.173 72.532 541.793 68.1733C542.594 49.8944 566.308 42.4646 578.981 35.9636C622.106 14.2653 651.798 49.8943 698.498 53.3031C715.885 54.5485 728.538 42.4541 748.729 41.8314C742.002 54.5486 737.637 51.773 728.147 68.4899C736.857 91.4336 724.594 61.0496 734.874 81.5237C736.467 84.0144 737.637 84.0142 739.25 90.5153C706.796 98.2617 726.977 101.987 681.87 98.5573C687.416 106.325 677.135 101.987 694.544 110.05C709.179 116.857 730.151 113.121 745.598 112.52C750.733 103.222 753.896 95.1483 762.995 91.7606C766.549 90.5258 770.903 90.2199 776.829 90.5259C777.63 95.1484 778.822 99.8026 780.003 104.467C780.003 104.784 780.804 107.855 780.414 107.232C780.804 106.599 781.184 109.111 781.595 110.04C806.51 95.7816 785.549 95.4544 798.993 69.7457C778.01 65.7036 780.794 68.1627 767.719 55.1711C780.414 41.5253 804.929 36.8712 823.128 38.1165C821.936 50.5065 816 50.232 820.734 60.7646C834.99 52.1 844.891 28.8399 867.824 33.188C872.168 36.2696 877.313 39.0557 882.058 41.8419C870.175 52.7016 852.387 53.3137 836.961 59.5193C830.234 126.767 858.714 70.3684 849.224 116.541C866.232 115.306 882.87 103.201 889.186 90.8214C882.87 82.7373 873.771 82.7374 868.615 73.1547C872.611 60.7647 881.13 51.3614 893.14 45.789C901.259 42.0003 911.012 40.0056 922.03 40.0056C1047.84 40.9238 988.088 46.4855 1026.88 63.8674C1035.57 67.5717 1051 69.4503 1056.17 76.9012C1064.08 88.679 1056.57 99.8237 1069.2 109.132C1080.29 117.174 1081.89 108.815 1096.52 126.799C1093.37 137.015 1085.82 147.558 1070.43 147.864C1049.05 148.191 1061.72 133.933 1038.74 136.086C1039.15 157.172 1060.53 165.246 1040.73 176.686C1023.34 186.923 1034.4 172.982 1021.35 180.095C1020.96 180.422 1019.76 181.034 1019.36 181.34C1018.58 181.952 1017.79 182.881 1017.38 183.493C1015 186.015 1013.01 188.158 1011.06 190.353C979.411 181.963 985.347 185.688 966.357 165.256C959.24 157.51 958.059 155.631 945.375 156.581C937.456 156.866 927.197 160.264 919.647 153.478C935.105 134.566 942.602 152.866 965.166 141.701C969.13 139.833 994.056 120.952 998.021 116.604C991.294 101.744 997.209 114.082 987.34 104.52C965.166 82.5052 958.829 88.0774 928.789 88.0774C914.713 103.908 904.158 123.517 888.827 132.107V132.128C879.57 137.3 868.572 138.492 853.979 132.413C860.717 159.061 878.125 138.608 879.707 170.839C868.224 168.665 862.278 163.072 850.416 167.124C825.089 176.411 847.653 175.483 849.604 180.464C849.604 180.781 861.487 181.994 849.604 186.332C836.54 190.976 847.632 183.841 822.305 169.288C825.869 163.082 829.433 156.592 832.986 150.08C812.415 156.275 786.709 166.206 762.574 177.646C735.254 190.975 709.537 206.173 694.122 220.125C693.721 243.374 698.076 227.871 700.448 255.427C737.247 257.632 725.385 268.46 762.173 278.697C769.311 280.555 778.4 282.423 789.482 284.28C789.482 301.641 773.666 314.654 784.727 332.637C810.443 350.293 811.245 315.878 817.592 293.873C904.675 276.091 862.689 251.057 885.19 204.21V204.199C888.564 197.192 893.372 189.751 900.278 181.678C906.984 181.994 934.272 184.791 940.229 186.047C960.01 189.414 949.35 194.089 970.712 203.376C970.29 220.114 961.591 241.802 986.918 237.802C1006.29 234.414 1001.96 219.502 1025.69 215.766C1036.38 240.261 1033.63 250.815 1038.34 280.228C1095.32 301.947 1069.99 319.593 1058.91 360.214C1066.06 363.602 1073.56 366.736 1081.1 369.807C1080.71 381.585 1080.29 393.057 1079.91 404.528C1078.72 404.528 1018.96 391.801 1015 390.598C1024.11 365.153 1040.72 364.878 1051.43 338.843C1030.05 342.536 1031.64 349.037 1016.2 353.702C1002.39 357.744 991.684 354.947 977.028 356.815C971.882 373.522 976.638 342.241 978.219 363.612C979.021 371.696 982.964 363.95 977.408 372.604C957.638 363.612 964.354 342.526 927.576 362.071C935.864 365.786 944.173 369.195 952.882 372.604C951.712 396.455 949.73 378.471 944.584 394.291C931.91 434.891 979.021 409.795 991.273 407.631C988.099 429.024 974.645 429.024 955.645 434.902C934.694 441.086 928.346 449.476 911.729 453.223C911.729 427.789 907.775 449.192 919.257 431.514C902.64 433.044 890.356 440.485 874.551 447.017L872.99 447.619V447.64C852.63 455.745 849.561 456.927 847.252 482.341C829.865 487.617 809.663 493.517 797.411 505.907C785.138 517.368 772.865 528.84 760.981 540.006C759.801 540.945 759.01 541.863 758.24 542.475C762.584 574.4 758.24 575.023 738.459 587.434C721.821 597.956 716.296 597.65 700.859 610.979C651.408 654.386 675.143 634.229 677.905 708.938C667.625 705.835 657.735 702.416 648.234 699.028C640.727 649.426 650.997 665.858 610.265 654.386C566.329 641.996 572.265 663.051 554.087 666.797C533.895 671.114 523.984 648.814 494.714 667.409C478.518 678.269 463.071 685.403 459.138 704.579C454.362 727.829 443.691 744.894 445.273 770.624C448.036 840.362 512.944 844.362 529.551 811.804C540.622 790.138 537.86 778.349 573.878 783.932C577.442 802.538 571.885 816.163 567.162 830.421C563.988 838.779 555.268 853.977 559.612 865.459C585.339 875.654 586.13 856.478 620.166 876.266C622.528 909.447 604.719 946.648 630.826 965.845C651.007 980.43 652.188 967.418 670.008 964.304C689.788 960.917 686.235 972.98 704.445 975.776C714.725 963.386 710.37 971.122 717.097 955.946C728.98 929.604 732.144 942.005 760.233 925.879C762.985 924.338 765.368 922.786 768.151 920.908C771.293 927.43 774.878 933.625 778.021 939.809C798.613 915.958 800.996 939.197 824.709 945.73C834.895 948.453 842.191 949.434 847.801 949.508H847.811C865.051 949.762 866.812 941.54 890.367 949.709C893.161 950.975 896.704 951.914 899.888 952.822C900.289 952.822 901.47 953.434 901.47 954.067C901.881 954.384 903.062 955.302 903.463 955.64C907.385 959.956 907.796 964.294 910.97 968.969C927.218 984.145 943.435 999.353 959.251 1014.23C990.472 1026.32 990.472 1003.67 1026.1 1037.45C1041.12 1051.39 1034.4 1051.12 1042.73 1069.07C1043.92 1071.87 1046.27 1074.65 1047.86 1078.08C1051.03 1086.42 1054.6 1094.48 1058.16 1102.54C1074.37 1123.31 1096.53 1110.29 1119.1 1131.67C1132.13 1144.06 1122.27 1140.34 1151.14 1145.3C1195.86 1152.43 1178.46 1148.4 1212.49 1173.53C1225.54 1182.81 1228.7 1177.54 1240.97 1185.6C1257.98 1208.84 1253.62 1233.96 1239.39 1254.4C1195.47 1317.01 1210.5 1306.77 1208.52 1356.37C1206.93 1384.88 1198.63 1443.76 1171.31 1450.88C1072.01 1478.17 1129.78 1497.07 1103.68 1545.12C1096.15 1558.78 1090.61 1562.18 1085.85 1573.04C1066.09 1618.26 1079.94 1633.46 1021.38 1623.25C1026.93 1632.85 1023.37 1626.33 1028.93 1635C1046.3 1661.36 1049.09 1681.19 1013.48 1687.68C983.808 1693.28 996.461 1687.68 993.698 1719.91C982.216 1724.57 977.081 1719.91 969.552 1727.35C979.833 1745.96 970.332 1730.47 987.762 1741.01C984.588 1751.23 982.205 1761.16 979.453 1771.06C972.736 1795.24 970.765 1772.92 968.392 1801.12C978.673 1805.75 985.779 1804.82 994.879 1816.93C993.698 1826.22 984.198 1851.64 981.435 1866.21C996.06 1887.6 1007.94 1910.52 1039.18 1912.71C1038.77 1930.67 1043.14 1928.81 1027.32 1932.51C1013.85 1935.62 985.379 1923.23 973.496 1917.03C952.924 1906.17 933.924 1891.92 920.09 1871.47C912.182 1860 915.345 1865.58 907.016 1854.74C891.991 1835.85 897.948 1827.16 893.583 1814.44C891.2 1807 878.937 1798.94 884.061 1774.75C885.285 1767.94 896.345 1735.39 882.902 1740.97C869.437 1746.25 893.182 1744.05 874.582 1752.75C870.217 1740.97 866.664 1723.6 864.291 1709.04C859.547 1684.55 853.632 1683.63 850.827 1668.76C844.912 1634.33 859.937 1630.61 843.298 1573.27C832.396 1535.33 836.782 1445.55 825.247 1399.44C823.528 1392.97 821.641 1386.64 818.383 1381.1L818.33 1381Z" fill="#FF5B62"/>
</svg>
