<svg id="SVGRepo_iconCarrier" xmlns="http://www.w3.org/2000/svg" width="45" height="45" viewBox="0 0 45 45">
  <g id="Group_4" data-name="Group 4">
    <path id="Path_1" data-name="Path 1" d="M-143,145v45h45V145Zm42.363,42.363h-39.727V147.637h39.727Z" transform="translate(143 -145)"/>
    <rect id="Rectangle_9" data-name="Rectangle 9" width="3.879" height="12.415" transform="translate(12.996 17.755)"/>
    <path id="Path_2" data-name="Path 2" d="M76.161,359.432v-6.709a2.934,2.934,0,0,1,.093-1.018,2.218,2.218,0,0,1,2.1-1.524c1.516,0,2.2,1.151,2.2,2.83v6.421h4.4v-6.9c0-3.84-2.161-5.628-4.921-5.628-2.223,0-3.615,1.213-3.871,2.068v-1.951H71.8c.054,1.034,0,12.415,0,12.415Z" transform="translate(-52.534 -329.262)"/>
    <path id="Path_3" data-name="Path 3" d="M-12.783,277.307h.031a2.164,2.164,0,0,0,2.363-2.153A2.165,2.165,0,0,0-12.729,273a2.175,2.175,0,0,0-2.371,2.153A2.154,2.154,0,0,0-12.783,277.307Z" transform="translate(27.68 -262.898)"/>
  </g>
</svg>
