<svg width="351" height="215" viewBox="0 0 351 215" fill="none" xmlns="http://www.w3.org/2000/svg">
<path d="M323.26 125.074C318.182 126.562 310.683 127.71 305.556 128.187C303.838 128.362 304.522 127.378 303.309 127.466C300.826 127.664 299.094 128.441 296.73 128.55C295.96 128.579 296.618 127.111 295.815 127.171C291.28 127.538 287.654 128.639 283.16 129.299C261.927 132.355 241.035 136.187 219.566 139.94C212.491 141.178 203.675 141.748 196.52 143.7C195.686 143.929 196.413 144.948 196.271 145.073C194.019 146.991 194.403 144.563 192.682 144.592C185.883 144.709 178.492 146.053 172.319 147.697C169.623 148.413 172.789 150.112 169.805 149.392C169.599 149.344 170.058 148.02 169.289 148.036C167.542 148.077 164.417 148.898 163.122 149.047C160.641 149.325 160.137 149.433 157.765 149.868C154.495 150.457 150.628 150.568 147.112 151.496C146.378 151.695 147.589 152.736 146.441 153.163C145.27 153.594 142.236 154.041 141.072 153.953C139.928 153.863 140.22 152.816 139.987 152.631C138.055 151.06 134.902 154.282 134.466 154.424C125.96 157.043 118.699 156.77 110.391 157.985C107.185 158.445 104.39 158.949 100.909 159.411C99.5352 159.605 97.4434 159.832 95.8557 159.887C95.5492 159.902 94.8056 159.913 94.1552 159.88C93.4852 159.844 92.8223 159.791 91.9445 159.587C91.8893 159.574 91.833 159.56 91.7757 159.545C91.7065 159.526 91.7069 159.529 91.5 159.468C91.1739 159.372 90.8103 159.246 90.3872 159.053C89.5708 158.659 88.3436 158.02 87.2281 156.327C86.0647 154.665 85.8578 151.925 86.4308 150.368C86.7717 149.321 87.0886 148.839 87.4269 148.331C88.7772 146.531 89.6237 146.179 90.4788 145.614C90.6086 145.538 90.7394 145.462 90.8718 145.388C98.1614 141.598 103.457 140.356 109.87 137.515C110.528 137.232 109.198 136.199 109.992 135.854C118.603 132.129 127.206 128.891 136.172 126.386C137.068 126.138 136.435 127.771 137.359 127.594C143.013 126.483 152.285 125.515 153.315 119.072C156.941 117.851 161.327 116.314 164.917 116.053C167.227 115.884 165.778 117.997 168.053 116.409C168.572 116.049 167.362 115.226 168.173 114.773C171.543 112.884 175.543 111.62 178.721 109.507C179.359 109.077 178.732 108.155 178.848 107.887C179.856 105.685 183.527 106.874 184.255 106.722C185.846 106.481 187.409 105.948 188.359 105.501C191.161 104.053 193.444 102.512 196.261 100.976C197.244 100.444 195.37 99.7934 196.3 99.2303C201.117 96.3441 206.252 93.7507 211.312 91.771C212.44 91.3332 212.061 92.9627 212.632 92.8096C215.154 92.1132 214.508 89.7675 216.889 89.0621C217.388 88.9115 217.647 89.9935 217.785 90.0529C219.952 90.9868 219.818 88.0698 220.117 87.8412C223.9 84.8748 227.874 85.8147 231.671 83.2244C232.123 82.912 230.377 82.338 231.691 81.5294C240.185 76.163 250.435 70.9427 257.071 65.8536C257.836 65.2 258.191 66.3691 258.322 66.4113C259.778 66.5921 259.595 65.6315 258.945 65.5393C258.683 65.0851 258.372 64.7172 258.387 64.5189C258.696 60.7673 261.414 57.1812 258.147 55.3502C258.178 54.6106 258.12 54.1007 258.071 53.8486C258.05 53.7299 258.051 53.7127 258.103 53.7484C258.155 53.7877 258.271 53.8744 258.368 53.9142C258.586 54.0062 258.528 53.8787 258.066 53.861C257.62 53.8375 256.923 53.9202 256.168 54.1035C253.058 54.8683 249.362 56.8462 245.88 58.9152C238.879 63.1192 231.964 68.0492 224.445 72.2468C224.255 72.3571 223.748 71.0998 223.372 71.3248C218.852 74.0334 220.895 74.9879 219.826 79.0689C219.577 80.0784 215.611 79.5108 215.299 79.4895C214.131 79.4197 213.562 77.3742 213.243 77.438C210.674 78.0029 215.029 82.6852 212.643 84.7186C212.562 84.7742 212.112 83.6122 211.836 83.6938C210.992 83.9305 210.622 84.8619 209.747 85.0786C207.746 85.5606 205.168 83.6823 204.218 86.8866C204.105 87.2942 206.891 89.6776 204.588 91.4372C203.756 92.0634 199.825 95.5229 198.572 96.2436C197.261 97.0219 197.317 95.4608 197.199 95.4931C196.691 95.661 196.307 95.742 195.934 95.8236C195.521 95.9376 195.193 95.9903 194.918 96.0063C194.363 96.0399 194.035 95.9132 193.686 95.7736C192.986 95.4917 192.215 95.1538 191.238 94.3738C191.256 94.3064 191.339 94.2219 191.535 94.2141C189.706 92.0805 189.903 97.3759 189.232 97.909C188.591 98.4675 185.905 97.2948 185.188 96.9094C184.492 96.5106 185.282 95.7148 184.661 95.5048C180.504 94.1821 183.129 98.3309 181.91 99.3005C179.083 101.62 176.251 97.9028 173.341 97.8778C172.566 97.8709 173.308 98.6996 172.638 98.874C169.973 99.5581 168.189 98.5392 165.271 100.135C164.94 100.319 163.774 101.768 162.451 102.054C161.922 102.169 161.359 102.092 160.81 101.657C160.543 101.439 161.033 100.346 159.853 100.304C158.08 100.239 154.945 100.523 153.15 101.16C151.825 101.63 153.657 103.004 151.859 102.781C151.059 102.681 152.315 101.492 150.822 101.384C149.339 101.275 145.696 101.933 144.314 102.203C142.933 102.473 143.903 103.581 143.805 103.684C143.209 104.276 140.655 105.328 140.42 105.368C129.63 107.36 119.277 107.442 108.818 109.364C107.801 109.549 106.821 109.743 105.806 109.96C104.906 110.151 105.709 111.367 105.574 111.41C102.503 112.428 104.465 108.582 102.118 107.731C102.812 110.343 101.451 110.057 99.2632 110.629C98.202 110.905 98.9166 111.865 98.8297 111.983C97.3856 113.749 96.0032 111.827 95.6842 111.436C94.4814 110.005 93.4013 111.887 92.5832 110.876C91.8267 109.863 93.4369 108.363 91.3577 108.362C90.6514 109.289 92.4294 111.901 90.4083 112.19C89.836 112.248 89.1421 112.252 88.3281 112.096C87.4824 111.836 85.8834 111.79 84.4338 109.224C83.811 107.948 83.8922 106.57 84.0926 105.753C84.2971 104.898 84.5788 104.341 84.8352 103.866C86.9749 98.9281 91.6341 92.1232 93.4635 88.959C95.9094 84.6769 96.5298 83.1935 98.2302 80.843C101.344 76.625 98.7797 77.3647 99.7325 74.1009C100.743 70.8286 103.792 74.6356 104.872 74.7605C105.947 74.9028 105.344 73.9603 106.112 73.7721C106.869 73.6011 106.778 74.9682 107.656 73.9953C108.51 73.0234 109.112 69.1746 108.635 68.1473C107.561 66.0127 104.583 65.9299 107.75 63.4695C107.934 63.3368 108.35 64.6734 109.005 64.1337C110.157 63.1953 111.302 62.2714 112.838 61.4671C114.186 60.7435 116.194 60.2521 117.93 60.8205C119.652 61.3618 120.753 62.422 121.664 63.3862C123.458 65.3719 124.696 67.3917 126.089 69.2936C126.576 69.9612 125.101 70.3691 125.388 70.7782C128.635 74.9371 129.036 72.0769 132.076 70.981C130.095 73.5762 130.382 76.7696 135.141 77.2288C137.851 77.2599 137.313 75.7208 138.562 74.4912C138.935 74.1229 140.736 74.6614 140.837 73.886C140.955 71.4278 138.813 69.6984 142.264 69.2266C142.429 69.1978 142.511 70.5295 143.049 70.3448C143.088 70.3311 143.127 70.3172 143.165 70.303C146.737 68.9641 146.156 66.6822 149.792 64.5704C152.675 62.8956 158.615 61.6167 162.124 60.2186C163.664 63.6478 166.498 61.3595 166.716 58.3994C168.979 57.4603 171.318 56.2188 173.618 55.5616C174.409 55.3342 174.375 56.5467 174.517 56.611C176.707 57.6393 176.634 54.9041 177.073 54.5964C181.896 51.3599 186.929 51.2214 191.196 47.3402C191.34 47.2048 190.611 44.6738 192.698 45.8528C192.84 45.935 191.648 47.739 194.05 46.809C195.281 46.3341 197.197 45.9448 199.156 45.3491C201.015 44.7835 202.915 44.0331 204.291 42.8289C204.968 42.234 206.178 39.4472 208.371 40.3063C208.674 40.4205 208.738 41.2089 209.21 41.4585C210.739 42.2365 210.146 39.6273 212.209 41.0881C212.749 41.4313 213.327 41.7379 214.077 41.7398C214.248 41.7472 214.485 41.6993 214.735 41.5543C214.884 41.44 215.024 41.3614 215.184 41.0259C215.348 40.6977 215.353 40.0976 215.111 39.6795C214.987 39.4573 214.89 39.3436 214.792 39.2329C214.693 39.1244 214.593 39.0358 214.495 38.9591C214.34 38.8289 214.216 38.7384 214.075 38.6507C213.837 38.4921 213.606 38.3745 213.417 38.2783C211.847 37.5405 210.267 37.5618 208.442 38.3708C208.334 38.4071 207.92 39.5752 207.203 40.1854C206.975 40.3979 206.713 40.542 206.417 40.5456C204.612 40.5634 202.039 40.2701 200.159 40.4031C199.274 40.4665 199.923 41.7271 199.771 41.7605C193.793 42.8815 189.422 42.0704 182.918 42.1441C181.729 42.1546 178.496 44.2333 176.072 43.0661C173.407 41.7923 175.364 35.1758 169.697 37.2907C167.4 38.1447 165.352 46.5022 160.691 42.8304C154.547 44.3624 148.535 44.0576 142.483 45.1184C140.753 45.4244 138.87 45.8284 137.063 46.4017C136.733 46.51 135.778 48.9032 134.952 48.9697C133.698 49.0681 132.795 48.1084 131.921 48.1369C128.054 48.2508 124.651 49.5066 120.949 49.7314C119.535 49.819 119.909 48.6861 118.247 48.7861C116.572 48.8876 115.593 50.4249 113.262 49.9469C111.493 49.5815 109.521 46.8146 107.222 46.6816C107.404 49.5744 105.829 49.6593 103.133 50.6716C102.614 50.8676 103.276 51.8202 103.035 51.9647C102.056 52.5753 101.029 51.8288 100.107 52.4801C99.8818 52.6368 99.9594 53.6232 99.7807 53.807C98.2654 55.4066 95.3479 53.4341 94.8493 53.0898C92.9403 51.7837 92.2052 53.142 90.7899 52.6876C89.3758 52.2333 91.3466 51.3282 89.725 51.1213C86.3399 50.6963 82.0891 51.2436 78.7379 51.5119C77.3774 51.6274 78.4283 52.8554 78.2364 52.9025C75.4908 53.4963 72.5743 52.3676 71.2681 55.1415C68.68 48.5648 69.6488 55.9601 65.5738 55.0201C65.2483 54.9442 64.4914 51.7894 65.6739 51.1888C66.7906 50.5957 68.7782 51.402 70.3336 50.5075C70.712 50.2955 72.6928 47.0722 72.9767 46.8618C75.2827 45.2052 76.0657 49.9615 76.2192 50.2117C77.9334 52.9107 80.3898 49.4205 81.1011 49.1297C84.336 47.7984 87.22 48.2163 89.9431 47.2337C91.7134 46.5979 91.6148 43.4452 93.0534 43.4126C97.8247 43.3034 99.881 47.53 104 43.3316C104.883 42.4354 103.628 39.0948 107.295 41.4765C107.516 41.6277 110.311 43.8564 111.618 42.1611C111.786 41.9471 111.687 40.949 111.924 40.8422C113.519 40.1452 114.642 40.8418 116.403 40.2884C118.128 39.7383 120.222 38.9606 122.248 39.0983C123.508 39.1761 125.22 40.8782 125.859 41.2713C127.67 42.4078 129.156 40.0731 130.363 41.5447C131.56 43.0248 129.836 45.6707 132.627 46.3984C132.434 43.7976 132.363 41.1135 132.223 38.4916C135.306 38.1841 138.418 38.0643 141.359 37.8327C144.19 37.5887 147.004 37.3431 149.814 36.9097C150.564 36.792 149.611 35.5062 150.405 35.3452C153.771 34.673 156.852 35.2958 160.313 34.4885C162.992 33.8586 165.809 32.0521 168.617 31.3792C170.67 34.1583 174.77 32.7217 177.861 32.7044C178.948 32.696 178.949 33.4961 179.733 33.684C182.699 34.3759 181.11 31.8765 181.861 31.3917C185.101 29.327 185.909 35.2411 189.877 34.7704C190.079 34.7472 192.423 31.3752 192.769 31.1519C194.955 29.6942 193.229 32.2265 194.666 32.3565C197.298 32.598 199.141 33.2314 202.17 32.125C203.014 31.8063 205.039 29.7872 206.873 31.0871C206.912 31.1138 206.951 31.142 206.99 31.1717C207.243 31.3636 207.144 32.4185 207.34 32.4734C210.968 33.4292 210.465 30.0251 214.107 29.1988C214.734 29.1474 215.352 29.0931 216.887 29.503C217.859 29.8983 218.898 29.7867 221.825 32.4078C223.309 33.6651 225.474 37.5447 225.235 40.8436C225.197 42.4855 224.809 43.9028 224.359 44.986C224.015 45.8135 223.636 46.4658 223.275 47.0037C222.925 47.5279 222.529 48.007 222.284 48.2771C222.045 48.5424 221.819 48.768 221.608 48.9666C221.191 49.3572 220.782 49.677 220.55 49.8396C220.019 50.219 219.553 50.4806 219.24 50.6273C218.523 50.9751 218.07 51.0869 217.607 51.19C215.91 51.4967 214.781 51.1676 214.338 51.0121C212.071 50.1571 215.242 49.8182 215.32 49.5769C215.546 47.2656 213.351 48.7088 211.792 49.1719C210.283 46.2995 208.276 47.3492 210.14 49.6943C210.352 49.9477 211.42 49.1716 211.792 49.1719C211.672 52.6803 209.473 54.0235 205.848 52.3074C204.202 51.5428 204.6 49.6961 201.67 51.3571C201.552 51.4243 201.429 51.4977 201.298 51.5777C199.779 52.5065 201.287 54.2904 200.098 55.4539C197.412 58.0973 192.404 58.0028 189.204 59.7753C188.051 60.4149 189.715 61.0132 188.943 61.4899C186.895 62.7586 184.599 62.7825 182.604 64.1974C182.425 64.3268 183.433 65.2728 182.762 65.5941C177.68 68.0563 172.872 69.3745 167.531 71.8751C164.949 73.0825 160.672 75.9206 157.971 77.0904C155.057 78.3521 151.466 79.2739 148.29 80.3789C145.801 81.336 143.303 82.1209 140.949 82.8285C136.721 83.9122 137.706 84.908 135.496 85.8556C133.298 86.7095 129.874 85.8055 127.625 84.2244C125.319 82.6672 124.205 80.8067 123.967 80.3786C123.9 80.4021 127.577 82.1093 126.013 80.4967C125.677 78.7347 124.03 80.4074 123.967 80.3786C123.799 80.0962 122.174 78.7749 120.851 77.4121C119.495 76.0483 118.362 74.7412 117.904 74.4155C117.407 74.056 116.722 75.1077 116.482 74.9064C114.788 73.4519 113.184 72.0848 113.063 72.292C113.019 72.3527 113.814 73.1956 115.812 73.4855C117.829 73.7657 119.452 73.0122 119.786 72.7963C120.232 72.5099 119.704 72.8529 119.2 73.3515C118.669 73.8515 117.995 74.5476 117.31 75.2725C117.233 75.3343 116.244 74.3972 116.071 74.5587C113.621 76.8437 113.746 79.7747 113.068 82.7851C112.383 85.8314 110.947 87.7371 108.03 88.2167C107.169 90.3851 104.697 92.875 103.253 94.3284C101.815 95.7674 104.037 97.2232 104.01 97.392C103.081 102.95 100.519 104.829 97.7547 110.119C97.7406 110.145 97.7267 110.172 97.7116 110.2C97.6846 110.253 97.6567 110.307 97.6252 110.368C97.5554 110.5 97.5087 110.601 97.2989 110.97C97.3843 110.794 97.5571 110.521 97.8181 109.741C98.0355 108.99 98.5359 107.463 97.9676 104.951C97.4151 102.395 95.4248 100.279 94.3379 99.5956C93.1834 98.815 92.6094 98.6756 92.2732 98.5465C91.6581 98.3479 91.5333 98.3508 91.7123 98.3146C91.8813 98.2849 92.2658 98.2416 92.6793 98.1784C93.5249 98.0531 94.5146 97.8648 95.294 97.6946C97.2948 97.2509 98.71 97.683 100.656 97.0113C100.921 96.9203 100.48 95.7977 100.557 95.7411C102.6 94.0275 101.947 97.0191 102.483 97.4589C104.115 98.7682 105.239 99.5513 107.165 99.0349C107.565 98.9262 108.017 98.7558 108.517 98.5185C109.162 98.2108 110.489 93.8054 111.695 93.3577C113.258 92.7843 112.905 94.3454 114.543 93.7041C114.683 93.6505 114.507 92.7541 115.559 92.6157C120.479 91.9539 125.923 91.544 131.027 90.5661C131.726 90.4359 130.58 89.164 131.586 88.9522C136.299 87.9608 141.524 87.1149 146.291 87.0025C147.468 86.9789 146.916 88.1003 147.215 88.3556C149.037 89.8978 150.775 86.9267 151.125 86.8185C154.153 85.8519 157.026 85.4144 159.852 85.1428C164.832 84.6672 169.634 84.6786 175.316 83.275C175.781 83.1474 179.36 79.895 181.393 82.1735C181.54 82.3237 183.456 84.6545 184.993 82.8644C185.1 82.7538 183.823 81.5323 185.92 81.5582C186.684 81.5718 187.604 81.4602 188.796 81.4093C189.373 81.385 190.07 81.3754 190.885 81.429C191.761 81.5051 192.619 81.5376 194.618 82.0806C189.225 81.0342 187.743 82.3175 186.64 82.5872C185.644 82.9986 185.181 83.3176 185.074 83.3982C184.838 83.5854 184.77 83.6947 184.774 83.7639C184.778 83.8337 184.869 83.8552 184.987 83.8669C185.088 83.8919 185.214 83.9109 185.361 83.9283C185.974 84.0261 188.924 84.8354 189.243 81.9645C189.295 81.7436 188.964 76.1328 191.934 77.6492C192.43 77.8934 194.341 80.564 195.377 77.4562C195.548 76.8796 194.374 76.9294 195.089 75.7112C196.223 73.8064 198.912 72.6473 199.983 69.8205C200.151 69.3382 200.2 66.3813 202.506 66.6397C202.862 66.685 203.213 67.8164 203.917 67.3828C207.302 65.2964 210.036 62.0841 213.661 60.1392C214.947 59.4476 215.478 61.2829 216.936 60.7262C218.393 60.168 221.032 58.6812 221.791 57.0888C222.549 55.4958 219.472 54.2994 221.228 52.688C229.39 45.7227 237.354 40.6492 251.836 36.3849C254.377 35.898 251.854 35.1967 256.307 34.6574C257.926 34.5319 260.217 34.5122 262.744 35.0674C265.559 35.6695 268.889 37.1254 271.62 39.7093C274.469 42.4359 275.856 45.1706 276.799 47.9422C277.579 50.2958 277.882 52.5138 277.992 54.4049C278.217 61.7805 276.905 65.7934 275.475 70.1776C275.007 71.7391 274.413 72.9474 273.825 73.9559C273.3 74.8399 272.836 75.4749 272.348 76.0905C271.347 77.3324 270.684 77.9339 269.883 78.6549C268.501 79.8384 267.254 80.6291 266.183 81.174C259.771 84.1263 265.583 77.853 261.203 80.398C259.215 81.4923 259.104 85.5239 258.678 85.9377C254.918 89.7331 251.151 90.3195 247.536 92.9939C246.79 93.5432 248.245 94.2223 247.598 94.6787C245.381 96.2543 242.669 97.1314 240.501 98.483C239.54 99.0861 240.22 99.8647 239.268 100.31C236.993 101.387 234.86 102.082 232.282 102.417C232.048 102.447 232.743 100.628 231.113 101.47C228.471 102.838 224.815 103.757 222.282 106.219C221.546 106.946 222.587 109.014 219.937 108.624C219.38 108.545 218.585 105.818 217.496 109.128C217.314 109.679 215.158 114.511 212.35 113.654C211.633 113.416 209.303 112.09 208.445 112.962C208.333 113.087 209.481 113.878 208.691 114.445C205.856 116.447 202.576 118.089 199.948 120.084C199.282 120.601 200.996 121.079 200.006 121.805C199.652 122.064 199.321 122.303 199.031 122.51C194.316 125.527 190.455 126.804 186.971 128.016C185.579 128.47 186.067 127.087 185.923 127.024C183.597 125.994 183.642 128.747 183.202 129.1C180.243 131.348 177.387 131.249 174.497 132.792C173.703 133.213 174.753 134.091 174.63 134.259C173.36 135.928 173.777 133.398 172.619 133.616C169.327 134.238 166.073 135.666 163.078 137.041C161.995 137.542 163.762 138.346 162.785 138.779C156.973 141.382 150.794 143.695 144.774 145.254C143.641 145.544 143.919 144.268 143.603 144.127C141.412 143.135 140.011 146.233 139.578 146.648C137.57 148.553 136.323 148.018 134.279 149.026C124.498 153.912 111.249 158.455 102.844 162.052C102.388 162.253 101.979 162.436 101.655 162.581C101.302 162.74 100.974 162.899 100.854 162.943C101.093 162.655 101.882 162.726 104.181 159.522C104.458 159.092 104.75 158.585 105.033 157.977C105.315 157.301 105.566 156.953 105.994 155.024C106.841 151.705 105.488 146.634 103.279 144.249C101.137 141.737 99.3198 141.017 98.2255 140.546C97.9428 140.434 97.6926 140.347 97.4685 140.276C97.2648 140.211 96.9767 140.132 96.9696 140.132C96.8318 140.097 96.7067 140.068 96.5924 140.043C94.8292 139.739 95.3215 139.956 95.5837 139.952C96.126 140.027 97.7456 139.991 98.7314 139.968C101.293 139.871 103.674 139.712 106.496 139.444C111.553 138.982 117.004 138.258 122.769 137.157C123.549 137.008 122.517 135.721 123.188 135.575C132.174 133.689 140.883 132.67 149.875 130.562C150.595 130.395 149.295 129.249 150.445 128.935C152.791 128.283 155.952 127.759 158.478 127.721C159.694 127.703 158.335 129.157 159.556 129.115C162.402 129.018 165.433 128.534 168.318 127.752C169.537 127.418 167.42 126.405 168.999 126.082C179.772 123.851 190.418 121.495 201.733 121.069C202.513 121.039 203.73 123.692 205.22 122.836C205.185 122.039 204.996 121.131 204.882 120.295C220.589 116.668 236.423 114.426 252.304 111.289C252.974 111.157 251.513 109.923 252.808 109.658C260.197 108.148 267.406 106.22 275.433 106.067C276.211 106.053 276.38 108.723 278.484 107.873C278.782 107.736 282.245 106.649 282.972 105.908C283.073 105.799 282.203 104.719 283.284 104.455C289.349 102.989 296.252 101.822 302.648 101.242C303.649 101.157 302.885 102.664 303.597 102.615C309.083 102.17 314.195 100.063 319.511 100.159C322.636 100.319 322.311 102.714 324.441 104.553C324.594 104.682 325.156 104.657 325.646 104.773C326.376 104.839 327.027 105.049 327.196 105.68C328.142 108.829 327.851 112.554 328.992 115.883C329.053 116.063 329.273 116.109 329.501 116.121C329.616 116.127 329.731 116.124 329.835 116.125C329.888 116.125 329.937 116.125 329.982 116.128C330.048 116.127 330.001 116.149 330.18 116.128C330.298 116.119 330.376 116.121 330.402 116.136C330.419 116.153 330.429 116.178 330.21 116.24C330.149 116.255 330.071 116.274 329.925 116.299C329.764 116.321 329.6 116.359 329.018 116.373C328.697 116.366 328.33 116.406 327.276 116.198C326.733 116.066 325.982 115.93 324.69 115.158C323.494 114.479 321.22 112.357 320.869 109.173C320.535 106.033 321.838 104.085 322.51 103.182C323.259 102.229 323.773 101.862 324.15 101.57C324.894 101.032 325.21 100.902 325.468 100.765C325.949 100.53 326.103 100.476 326.244 100.412C326.374 100.356 326.445 100.323 326.5 100.294C326.606 100.239 326.643 100.205 326.665 100.174C326.698 100.114 326.687 100.061 326.536 100.042C326.437 100.043 326.379 100.014 325.895 100.16C325.761 100.203 325.595 100.258 325.292 100.392C324.966 100.56 324.602 100.639 323.463 101.533C322.91 102.053 321.938 102.669 320.922 105.042C320.449 106.217 320.105 108.031 320.497 109.921C320.862 111.815 321.928 113.437 322.893 114.372C324.903 116.242 326.139 116.392 326.896 116.644C327.664 116.835 328.087 116.867 328.42 116.899C329.06 116.947 329.323 116.932 329.545 116.932C329.756 116.929 329.885 116.925 329.988 116.924C330.188 116.921 330.284 116.927 330.36 116.937C330.505 116.957 330.55 116.993 330.575 117.036C330.615 117.124 330.545 117.243 330.358 117.397C330.304 117.47 330.061 117.705 329.503 118.07C329.238 118.249 328.883 118.463 328.603 118.671C328.429 118.856 328.276 119.044 328.201 119.218C327.988 119.698 328.81 120.879 328.298 121.545C327.807 122.205 326.641 121.316 325.634 122.185C324.709 123.044 325.582 124.4 323.26 125.074ZM96.8187 100.989C94.8935 102.062 98.9499 104.325 98.8003 102.085C98.7888 101.973 96.9163 100.93 96.8187 100.989ZM144.267 41.3408C146.975 43.0079 148.202 39.8049 146.275 38.4815C144.324 37.1659 143.443 40.8372 144.267 41.3408ZM119.785 45.7563C122.76 47.083 122.535 40.4985 119.674 42.117C119.506 42.2089 119.61 45.6794 119.785 45.7563ZM316.433 106.899C316.479 106.952 317.859 106.721 317.868 106.657C318.289 105.063 315.54 105.523 316.433 106.899ZM95.1902 49.6625C96.1483 50.4692 98.5867 49.2192 97.3963 48.216C96.4375 47.4091 93.9972 48.659 95.1902 49.6625ZM172.974 95.6435C173.013 95.7076 174.089 95.6328 174.016 95.2489C173.792 94.0086 172.339 94.5536 172.974 95.6435ZM53.011 54.1347C59.3859 53.3843 63.6246 58.445 56.97 58.6534C55.7713 58.7026 59.3204 56.5935 57.7193 56.3116C54.8578 55.8094 53.0576 59.4457 50.8633 58.2528C50.8486 58.1687 50.6358 57.9704 50.6691 57.5784C50.7424 57.1747 50.9512 56.6578 51.3063 56.138C51.938 55.1152 52.8762 54.1411 53.0206 54.1253C53.0174 54.1284 53.0142 54.1315 53.011 54.1347ZM91.3505 99.506C91.2698 99.5311 90.5839 100.825 90.6219 100.888C91.6027 102.246 92.9983 99.6107 91.3505 99.506ZM226.747 68.808C226.885 68.86 229.673 66.8577 229.688 66.7016C229.651 63.688 223.975 67.7515 226.747 68.808ZM162.221 60.2839C163.055 58.2508 164.748 57.2638 166.709 58.4008C165.202 58.995 163.727 59.672 162.221 60.2839ZM54.2884 42.1218C54.9697 41.8309 56.3091 42.4391 57.3646 43.1556C57.6967 43.3787 57.4194 44.174 57.6361 44.3634C58.0568 44.7323 58.5507 44.3809 59.0107 44.8125C59.1554 44.9587 58.8242 46.2323 58.974 46.3555C59.7834 47.0195 60.7672 46.7857 61.6451 47.1498C66.2151 48.9674 70.8221 49.8553 75.6069 50.8679C77.1775 51.1997 79.0187 52.5453 80.7097 52.1751C80.9081 52.1308 80.8928 50.9827 80.9378 50.8921C81.64 49.5068 81.2468 51.7874 81.5956 52.1256C82.974 53.4613 84.6317 53.7142 86.098 53.4042C86.7317 53.2699 86.319 50.9542 86.8238 52.2788C86.859 52.3684 86.5933 53.5623 86.75 53.7065C87.1059 54.031 87.8444 53.8809 88.1268 54.0035C88.6655 54.2455 88.7767 54.2435 89.3138 54.3075C90.0575 54.4066 90.8386 55.0862 91.6802 54.8913C91.8564 54.8457 91.7507 53.5862 92.0425 53.4018C92.3355 53.2178 93.0357 53.3923 93.2422 53.7074C93.4497 54.0226 93.2525 54.9853 93.2722 55.2124C93.4325 57.1283 94.5377 54.6075 94.6479 54.5538C96.6703 53.6507 98.2564 55.3214 100.056 55.533C101.524 55.7043 103.018 55.3993 104.521 55.7114C105.091 55.8361 105.837 56.0836 106.433 56.3425C106.844 56.4967 107.232 56.6583 107.661 56.8501C107.977 56.9786 108.351 57.1307 108.832 57.3787C108.954 57.4418 109.084 57.5126 109.228 57.596C109.305 57.641 109.356 57.672 109.47 57.7415C109.638 57.8433 109.823 57.9635 110.031 58.1169C110.708 58.676 112.645 60.0266 112.708 63.4609C112.647 64.1456 112.556 64.9449 112.406 65.7875C112.339 66.1376 113.864 66.0335 113.769 66.5029C113.438 68.0694 112.799 69.4284 112.157 70.4304C109.85 73.7862 108.127 74.1973 106.44 74.7186C106.197 74.7734 105.673 73.5654 105.386 73.5561C103.626 73.5418 100.562 72.55 103.01 77.6337C102.145 77.9478 101.121 78.3478 99.8588 77.8223C99.0405 77.4879 98.6845 76.053 98.4996 76.8824C98.4563 77.0685 99.2702 78.0011 99.1537 78.2031C98.6668 79.0278 97.7287 79.2129 97.2903 80.1163C97.2729 80.1542 97.2564 80.1934 97.2408 80.2341C97.1653 80.4377 97.7918 81.3398 97.8559 81.5332C98.3595 83.1086 96.3474 81.2494 96.1226 81.1636C94.3717 80.5713 93.9743 81.4849 93.0378 82.0269C92.8193 82.1527 93.8495 83.2477 93.6699 83.4119C92.731 84.245 91.5646 84.818 90.1886 84.8979C89.8782 84.9142 89.4329 83.7136 89.2508 83.6667C88.4644 83.4676 89.6022 85.5521 88.8659 85.4033C88.7122 85.3746 88.2049 84.4247 88.125 84.3352C86.8728 82.9296 88.0098 85.3127 87.9672 85.4069C87.4673 86.6431 85.4579 84.6591 84.7818 85.527C84.7026 85.633 85.6481 86.6492 85.3818 86.8765C83.6071 88.4001 81.3231 89.3494 78.8066 89.5982C78.4168 89.6381 78.1052 88.6327 78.021 88.5364C76.6933 87.0392 77.8545 89.4182 77.8066 89.5631C77.3924 90.6477 75.5243 89.1911 76.6101 92.2028C72.7366 93.2594 70.3259 96.75 65.5899 96.2775C65.5314 96.2742 64.9467 95.1114 64.8328 95.1095C63.4608 95.072 64.6715 96.7011 65.2562 99.2211C65.403 99.8539 63.3799 97.5858 63.2235 97.4242C62.6504 96.8271 61.8444 95.06 61.71 94.9581C60.633 94.1705 63.9422 99.6371 63.3237 100.002C63.2988 100.004 62.7867 98.9409 62.6752 98.8706C62.3272 98.6489 62.4025 99.1463 62.0404 98.889C61.2052 98.2921 59.5199 95.681 59.8734 97.5665C59.9219 97.8096 61.8517 100.88 61.214 101.053C60.9641 101.116 60.005 101.745 59.6193 101.696C59.2241 101.654 58.8299 100.533 58.7846 100.501C57.2694 99.5927 57.2313 98.8753 55.723 97.1059C54.2217 95.3421 57.0314 99.9933 57.183 100.606C57.3309 101.219 56.1565 100.424 55.8072 100.113C55.804 100.111 55.8009 100.108 55.7977 100.105C55.4469 99.7938 55.2489 99.0645 55.0056 98.9176C53.3963 97.9506 55.9939 101.459 56.1574 102.359C56.5383 104.491 54.1051 101.239 53.3317 101.22C53.1254 101.213 53.6998 101.943 53.6044 102.095C53.2176 102.687 52.2986 101.76 52.241 103.108C52.23 103.328 52.8844 105.733 51.7099 104.348C51.5418 104.148 51.19 103.196 50.8535 103.123C50.3575 103.009 49.6233 103.156 49.4081 103.652C49.2503 104.017 50.3447 105.309 49.7561 105.04C49.4952 104.919 49.3231 103.914 48.8725 103.757C48.4344 103.594 47.7012 104.028 47.4387 104.202C47.1756 104.378 47.9075 105.411 47.924 105.498C48.0077 106.001 47.7602 106.81 47.7004 106.839C45.305 108.241 42.1299 107.433 39.9738 109.143C39.7987 109.278 40.4586 110.433 40.4373 110.467C39.9828 111.268 39.1107 107.812 38.1976 106.922C39.3164 109.364 38.8692 109.028 38.5004 109.501C38.3281 109.729 38.8505 110.638 38.8706 110.745C39.1289 112.348 38.1238 110.554 37.9067 110.191C37.1021 108.861 37.5305 110.643 37.0002 109.748C36.4795 108.859 36.2624 107.322 35.8382 107.509C36.0628 108.453 37.3056 110.665 37.1107 111.178C36.3144 113.155 33.0346 112.172 31.8492 112.244C30.6458 112.34 30.3063 112.582 29.5363 112.369C28.1772 111.949 28.9251 113.72 28.115 114.667C27.2529 115.593 27.4015 110.977 27.2188 110.004C27.0615 109.026 27.0221 110.044 26.8703 109.508C26.7362 108.971 26.9488 108.293 26.6898 108.098C26.4651 107.907 25.7217 109.642 25.5277 110.659C25.1713 112.824 25.4028 115.143 24.5757 114.27C24.5749 114.269 24.5742 114.268 24.5736 114.266C24.5507 114.239 24.5705 114.122 24.5988 113.967C24.634 113.698 24.6874 113.314 24.6731 113.082C24.6558 112.988 24.6216 112.918 24.5613 112.887C22.5109 111.956 21.2539 110.22 21.1351 108.742C21.088 108.378 21.1026 108.013 21.1851 107.672C21.2527 107.425 22.6074 107.362 22.6694 107.248C23.4442 106.275 21.1868 106.823 18.8124 105.47C22.0959 106.151 24.1329 106.16 24.32 105.752C24.351 105.68 24.3026 105.597 24.2002 105.499C23.8601 105.186 22.9249 104.721 22.314 104.154C22.0629 103.956 23.1299 104.031 22.5398 103.67C20.5987 102.517 18.1454 101.835 19.4412 101.412C19.5021 101.394 20.5619 102.03 20.6908 101.928C21.4855 101.369 19.4252 100.231 19.5547 99.2816C19.6815 98.483 21.5328 97.915 22.1002 97.2647C25.486 98.8985 25.0615 97.7872 22.8525 96.3984C23.1751 95.9691 23.3217 95.3247 23.8603 95.0322C24.0478 94.9243 24.9776 95.5023 25.0933 95.533C26.905 96.0233 24.7373 94.7129 24.7001 94.5626C24.3956 92.9841 26.576 92.8727 25.425 90.9781C25.3836 90.9098 23.0702 89.696 24.9265 90.242C25.0538 90.281 25.9411 91.1692 26.2786 90.6912C26.6254 90.1947 28.3408 89.8837 27.6204 88.6158C27.4488 88.3067 25.7646 86.9334 27.4217 87.3233C27.6461 87.3774 28.2905 87.7633 28.6968 87.8829C29.9925 88.2611 27.6924 86.9594 29.8253 87.7088C31.9591 88.4563 33.7222 88.6876 32.6993 87.2826C32.6706 87.2398 30.8894 86.1263 31.0333 85.9158C31.2646 85.5805 31.9132 85.2671 32.09 84.8914C32.1745 84.7101 30.9597 84.2326 30.9543 84.1908C30.9234 82.6534 32.395 82.3269 33.5108 81.2754C33.7174 81.0842 32.5027 79.5854 33.9823 79.7827C35.6014 80.0005 40.9705 83.488 40.2252 81.6513C39.9268 80.9183 33.1072 76.5107 37.244 77.6724C37.1976 75.5729 39.8799 75.1491 39.4806 72.8407C39.4634 72.7375 37.6269 71.3978 37.7498 71.2438C37.9356 71.0181 38.9301 71.4052 39.0911 71.2637C39.7912 70.6805 39.4113 69.5361 39.9467 68.9041C40.1519 68.6568 41.0358 69.3059 41.2803 69.0133C41.5231 68.7222 40.419 67.7679 41.2736 67.6947C41.9207 67.6464 44.6318 68.841 45.1821 68.6002C42.7246 67.0657 42.958 66.7987 42.6327 65.8771C42.5691 65.6991 41.648 65.2699 41.574 65.1578C41.252 64.693 42.0812 64.9451 41.7221 64.4554C41.6366 64.3366 40.8031 63.8033 40.6864 63.6757C39.6653 62.5654 41.8747 63.2484 42.2533 63.3778C43.6972 63.8581 42.7375 62.9762 43.3929 63.0374C44.0471 63.101 44.3937 63.8864 44.8849 63.7844C45.8886 63.5912 46.2991 62.7169 46.7566 62.1647C46.933 61.9423 45.7516 61.3213 45.752 61.2715C45.8585 60.5553 47.3475 60.9214 45.4814 59.0387C51.0829 62.9245 45.2094 58.3074 46.8561 58.4642C46.9884 58.4792 49.4745 60.5209 49.6865 61.0008C49.9015 61.4766 48.8859 61.1284 49.2384 61.8706C49.3213 62.0432 51.4404 64.2301 51.5551 64.3819C52.424 65.5972 48.521 62.7939 48.2908 62.6603C45.797 61.2387 48.0929 63.6088 48.1905 63.8602C48.6193 65.0335 47.7399 65.1246 48.0187 66.0282C48.1976 66.6151 50.8021 68.3861 50.5635 68.574C49.7907 69.1755 45.8538 67.1815 48.5928 69.9855C49.1755 70.5872 52.2086 72.2242 49.5295 71.4132C49.3641 71.356 46.9568 70.5465 48.1393 71.6177C48.2882 71.753 49.147 72.2711 49.1929 72.358C49.4842 72.9301 48.6814 72.7147 48.8161 73.2362C48.9508 73.7577 49.209 74.4423 48.7018 74.6354C48.3966 74.754 46.6124 74.1047 46.1525 73.9858C44.832 73.6354 46.5081 75.0554 45.0154 74.4502C43.5121 73.8475 41.6191 72.2508 40.4227 72.255C42.6745 73.5667 44.9725 74.9363 47.2319 76.2647C46.521 77.3259 45.1705 78.0155 44.6427 79.2148C44.5806 79.363 45.8871 79.8944 45.8525 80.07C45.702 80.8071 44.5212 80.8879 44.5117 81.7429C44.5107 82.4045 45.5165 83.6681 45.5609 84.38C42.7535 83.3077 43.2205 84.5883 42.6729 85.0453C42.482 85.2064 41.7839 84.8227 41.4772 84.8483C40.3369 84.9544 42.8071 85.9176 43.0957 86.2606C44.3272 87.7262 39.0074 85.0282 38.7378 85.8693C38.7212 85.9138 41.2898 87.869 41.4301 88.0291C42.3528 89.0572 40.4089 87.5949 40.059 87.7617C39.4201 88.0656 38.5653 88.069 39.0974 89.0756C39.2554 89.3728 40.8114 90.6845 39.276 90.3236C39.0747 90.2767 38.1497 89.7774 38.0769 89.7849C36.8375 89.9616 39.7768 91.4668 40.5941 92.3299C41.4081 93.1987 39.0874 92.7415 38.4425 92.5622C36.7723 92.1021 37.9087 92.0063 37.768 91.9149C36.0907 90.8323 36.1875 91.4011 35.8802 91.6408C32.9615 90.2385 32.9147 90.7672 35.5735 91.8948C35.8641 92.0175 35.7161 91.6381 35.8802 91.6408C38.5828 93.3385 38.7105 93.9933 35.7813 93.2179C34.4101 92.8514 33.0734 91.8947 33.2269 92.9223C33.2962 93.3866 35.3617 94.2388 35.7564 94.8122C36.6434 96.1484 34.3522 96.0976 34.2796 96.9942C34.2576 97.311 35.48 97.588 35.5032 97.8223C35.566 98.4496 34.5547 98.4363 34.7342 99.1422C34.7526 99.2053 35.9544 99.6543 35.8962 99.812C35.4872 100.999 34.2836 101.617 33.6959 102.8C33.4227 103.35 33.5661 104.696 33.174 105.199C32.4806 106.117 30.1988 106.621 30.2386 107.629C30.2556 108.057 30.8098 108.353 31.4013 108.631C31.7152 108.744 32.0376 108.856 32.3346 108.905C33.1888 109.048 33.0174 108.517 32.5018 108.025C31.9929 107.521 31.1454 107.114 30.916 107.034C30.9053 107.061 30.5409 107.536 29.9249 107.188C28.5816 106.92 30.9079 107.059 30.916 107.034C30.6652 106.948 30.2681 105.573 30.3258 105.162C30.3943 104.948 31.5699 104.645 31.5748 104.52C31.5771 104.331 31.5677 104.139 31.5473 103.949C31.6156 103.197 31.3167 102.124 30.2251 101.045C29.1712 99.9583 27.2403 99.1923 25.8374 99.2248C26.0146 99.2862 26.1122 99.3619 26.1847 99.458C26.1924 99.4829 26.1101 100.834 26.1329 100.876C26.4536 101.492 26.5901 99.8234 26.6814 98.8265C26.7857 97.8274 26.9773 98.1296 27.6618 100.366C27.882 100.027 28.6042 100.914 29.078 101.432C29.5695 101.947 28.8984 99.3955 28.9092 99.3388C29.2456 97.5075 30.1832 98.7877 31.2324 98.6602C31.7213 98.6085 32.5206 97.8895 32.929 97.4091C33.2327 97.0341 33.7448 97.4891 33.9558 96.9696C33.9855 96.8995 33.473 95.8423 33.4705 95.7942C33.3268 94.3278 34.2665 97.0464 34.5573 97.479C35.6233 99.0474 36.2393 99.8618 36.4439 98.8091C36.4941 98.5667 35.1752 94.6287 35.285 94.3119C35.449 93.8985 35.9599 95.2938 36.1243 94.8214C36.1392 94.7821 35.7459 93.9578 35.9588 93.9022C36.922 93.6429 38.1388 93.6413 39.0635 93.0738C39.1858 93.0022 38.373 91.7892 38.538 91.6649C39.3264 91.0753 40.2957 90.6342 41.4888 90.7705C41.7751 90.813 42.1205 91.778 42.3064 92.0204C43.4386 93.4834 42.5986 90.9299 42.6397 90.8505C43.6147 88.8836 45.9673 90.3225 47.0413 88.4068C47.0959 88.2994 46.3599 85.4534 47.8722 87.3931C47.9584 87.5037 49.1011 88.9796 49.067 88.3716C49.0603 88.2705 49.0205 88.1113 48.9372 87.8778C48.9008 87.7758 48.0745 86.7715 48.4674 86.6967C48.8601 86.6216 48.975 85.5672 50.1307 86.5267C50.4944 86.8292 52.0941 88.7746 51.5261 86.8144C51.4835 86.6794 49.9065 82.4163 51.6952 84.9506C51.9895 85.3678 53.5916 88.2191 53.2652 86.469C53.2005 86.1305 52.6536 85.605 52.6852 85.0595C52.7377 84.2164 53.6942 84.6721 53.4546 83.1245C53.4134 82.8498 52.6477 80.7261 53.7915 82.0083C53.9706 82.2091 54.436 83.2017 54.652 83.2167C55.6857 83.2897 56.0806 82.2102 57.2053 82.4238C57.6034 82.497 58.3654 84.0967 58.8815 84.3412C59.3999 84.5842 60.1828 84.6498 60.0608 83.7848C59.9383 82.9197 58.1905 80.6858 58.5076 80.2364C59.8797 78.2876 62.5735 78.6036 64.5649 77.693C64.8601 77.5583 64.1137 76.8321 64.5114 76.5716C65.9773 75.6071 68.0793 73.24 70.4872 74.2825C72.4158 75.1179 71.7793 77.0271 72.9368 77.1415C73.4952 77.1923 72.2181 74.1424 72.2569 73.9985C72.6201 72.5553 73.9987 73.4127 74.5865 72.5346C74.7068 72.3534 73.8526 71.3217 73.9624 71.1801C74.3284 70.6881 75.1537 70.8777 75.5619 70.5016C75.7433 70.3304 75.1772 69.4899 75.4088 69.44C75.9644 69.3058 76.5906 69.4214 77.5332 69.9566C77.6196 70.005 77.9995 71.2492 78.3674 71.0786C78.9594 70.8004 80.1311 71.1793 80.2578 69.9661C80.2936 69.6026 79.0806 67.6325 80.3275 68.7408C80.5872 68.9727 81.9393 71.4029 81.1479 69.0706C81.0157 68.6835 80.1026 65.4417 81.5837 66.979C81.9741 67.3833 83.4277 69.157 83.4687 68.7111C83.4692 68.6436 82.6912 67.6639 82.8144 67.4448C83.2529 66.6951 84.0101 66.3797 84.4717 65.6319C84.595 65.4293 83.646 64.5061 83.8504 64.2396C84.3934 63.5165 85.4922 63.2121 86.4008 63.1129C86.4468 63.1083 86.4939 63.1236 86.5411 63.1534C86.8439 63.3363 87.1411 64.1024 87.2112 64.1763C88.5334 65.5707 87.3467 63.3092 87.3661 63.121C87.5102 61.976 88.6282 62.6798 89.022 62.0496C89.1294 61.8803 88.3631 60.9305 88.3348 60.82C88.0825 59.7244 89.0258 61.7096 89.3617 61.7784C90.2911 61.9874 90.8845 61.4836 91.346 60.9923C91.523 60.8047 90.5123 59.7864 90.6774 59.6332C91.6132 58.722 92.7572 58.1056 94.025 58.1404C94.2628 58.1506 94.8093 59.0932 94.9872 59.2697C96.2502 60.4911 95.118 58.3841 95.0215 58.1734C94.6187 57.1852 95.2828 57.8746 95.1975 57.7125C95.1221 57.6267 94.9769 57.6246 94.6641 57.8636C94.5067 57.9856 94.3051 58.1764 94.0906 58.4222C93.8788 58.6617 93.6567 58.9674 93.563 59.0965C93.3602 59.3468 93.0359 59.9292 92.7963 60.7948C92.5492 61.6476 92.4912 62.6841 92.5631 63.1417C92.5878 69.4194 96.05 72.6465 97.4607 73.8568C98.2661 74.5261 98.9412 74.9359 99.3738 75.1815C99.6162 75.3162 99.8297 75.4245 100.021 75.5156C100.78 75.8735 101.202 75.9972 101.496 76.0817C101.815 76.1697 101.85 76.1566 101.944 76.1655C102.021 76.1682 102.062 76.1594 102.078 76.1446C102.106 76.076 101.921 75.9594 101.668 75.8463C99.6829 74.9935 97.2999 73.6872 94.5686 73.6616C94.3888 73.6582 94.416 75.1107 94.2591 75.1262C92.2765 75.2654 90.3711 74.5126 88.3299 74.7377C88.1639 74.7537 88.2704 76.1363 87.9996 76.2079C87.4458 76.3644 86.7517 76.2251 86.2479 75.7405C86.0028 75.5067 86.4655 74.3719 86.2161 74.1604C85.6349 73.6654 84.9685 73.5069 84.2953 73.666C84.0085 73.7366 84.3023 75.1664 83.9394 75.1498C81.5056 75.0693 79.0668 75.097 76.747 73.0781C76.5876 72.9394 76.6848 70.0968 76.2756 70.6079C76.1799 71.3908 76.101 72.3147 76.0159 73.153C72.399 73.2935 68.9319 72.006 65.3138 71.5268C65.1587 71.5067 65.2923 73.0299 64.9914 72.9985C63.2658 72.82 61.5607 73.0814 59.92 71.4197C59.7562 71.2568 60.1008 68.6304 59.5449 68.9783C59.4419 69.0418 58.6532 69.3186 58.384 69.869C58.3467 69.9524 58.372 71.197 58.1057 71.2064C56.5803 71.241 55.0873 70.8003 53.6005 69.8632C53.3653 69.7099 53.787 68.435 53.6226 68.3147C52.5058 67.4745 50.9289 68.2886 49.6022 66.8343C48.5741 65.813 49.6023 63.7023 49.3849 61.3478C49.3737 61.1815 49.1667 61.0332 48.9901 60.7479C48.9539 60.5282 48.2869 59.8637 48.583 59.257C49.2906 57.7733 50.3887 56.4239 51.0586 54.8049C51.7922 53.2214 52.231 51.4814 53.2153 50.008C53.3362 49.8659 53.6015 49.8429 54.3604 50.2655C54.741 50.4921 55.28 50.841 55.9698 51.6054C56.1406 51.7974 56.3183 52.0169 56.4966 52.2689C56.5412 52.332 56.5858 52.397 56.6302 52.4641C56.6524 52.4976 56.6746 52.5317 56.6967 52.5662C56.7352 52.6274 56.7756 52.6935 56.8147 52.7599C56.9717 53.0263 57.1245 53.322 57.2639 53.6466C57.8414 54.9268 58.0836 56.784 57.7519 58.3254C57.0044 61.5142 55.4527 62.5243 54.882 63.1041C54.2202 63.664 53.959 63.846 53.9097 63.9883C53.8795 64.1058 54.0227 64.1969 54.7107 63.9459C55.0645 63.7975 55.58 63.5884 56.4348 62.8455C57.215 62.118 58.7458 60.6002 59.169 57.4364C59.2136 57.0373 59.3481 55.5865 58.8177 53.8559C58.6889 53.4314 58.5245 53.0024 58.3317 52.5928C58.1498 52.1963 57.8752 51.7342 57.7949 51.5993C57.5451 51.1839 57.2639 50.7901 56.9783 50.4411C55.798 49.0267 54.7976 48.4218 54.2547 48.016C53.9805 47.8182 53.74 47.6562 53.6455 47.5493C53.5796 47.4528 53.5281 47.3603 53.4892 47.2707C53.4114 47.0916 53.3824 46.9232 53.3857 46.7633C53.3919 46.3213 53.9776 45.1104 53.8764 44.5147C53.7723 43.922 53.4713 44.9973 53.6364 44.3762C53.8211 43.7506 54.0327 42.2584 54.2884 42.1218ZM31.4154 103.647C32.1492 104.739 30.7297 100.326 30.7401 101.489C30.7425 101.551 31.3794 103.594 31.4154 103.647ZM42.1172 76.3173C40.0718 75.7884 42.5272 77.5624 44.0894 78.0005C45.6478 78.4423 42.7364 76.4792 42.1172 76.3173ZM43.5388 70.8251C41.8347 70.5413 47.461 73.9428 46.6398 72.7181C46.5944 72.6474 43.6379 70.8412 43.5388 70.8251ZM51.754 61.1553C51.7547 61.0935 51.4054 60.9779 51.3894 61.0368C50.9579 62.4594 51.6797 62.6934 51.754 61.1553ZM45.0118 65.3414C44.1619 65.0165 44.7235 66.042 45.7838 66.4374C46.6348 66.7578 46.0665 65.7485 45.0118 65.3414ZM52.2095 99.2547C52.2489 99.3118 52.4908 99.2473 52.2953 98.9092C51.6644 97.8211 51.5462 98.2944 52.2095 99.2547ZM50.4376 58.3425C49.5305 58.7709 44.7119 55.9882 46.5368 55.0283C46.8522 54.8812 47.2107 56.7812 47.8569 56.8385C48.4252 56.9092 48.1871 56.2768 48.1031 55.6792C48.0374 55.0667 48.1524 54.483 49.0019 55.0284C49.2179 55.2782 50.4383 58.3569 50.4407 58.3497C50.4397 58.3473 50.4386 58.3449 50.4376 58.3425ZM33.3492 108.873C33.3751 108.93 33.7076 108.88 33.6966 108.819C33.3903 107.37 32.7411 107.463 33.3492 108.873ZM65.7102 94.7343C65.7918 94.8379 66.5143 94.5525 66.475 94.4358C65.593 92.1613 64.1311 92.7307 65.7102 94.7343ZM22.1965 97.2956C21.0175 96.3269 21.0536 95.8462 22.8501 96.399C22.6126 96.6672 22.4363 97.0032 22.1965 97.2956ZM58.3307 43.1084C62.0853 44.6974 63.0962 46.5365 63.7921 47.9996C63.9695 48.44 63.2259 48.8563 63.3061 49.1735C63.4495 49.7811 64.1023 49.8952 64.1493 50.521C64.1565 50.7253 63.0539 51.4434 63.0808 51.6346C63.2283 52.671 64.006 53.0939 64.2942 53.9069C65.6958 57.9219 67.0976 61.1043 68.338 64.5263C68.7494 65.6628 68.3595 67.4535 69.3581 68.299C69.4755 68.3965 70.4606 67.8122 70.5568 67.7941C72.0369 67.5336 69.9083 68.4324 69.7538 68.8123C69.1497 70.3267 69.5456 71.4263 70.3727 72.2076C70.7258 72.5357 72.6244 71.2157 71.6386 72.1397C71.572 72.2024 70.4152 72.5845 70.3449 72.747C70.1875 73.1134 70.5908 73.5058 70.5847 73.7403C70.5668 74.1928 70.6041 74.251 70.7381 74.6152C70.9112 75.1174 70.5807 75.921 71.0392 76.3522C71.1408 76.4438 72.245 75.849 72.5129 75.9581C72.7811 76.0681 72.8654 76.597 72.6501 76.8631C72.435 77.1291 71.4906 77.3926 71.2907 77.4983C69.5981 78.3746 72.2599 78.0459 72.3483 78.1042C73.8588 79.0858 72.8116 80.7198 73.1777 81.9891C73.4592 82.9532 74.2109 83.8995 74.3635 84.8731C74.5429 86.0478 74.0708 87.1368 74.371 88.2569C74.4011 88.3757 75.8217 88.0006 75.8618 88.1488C76.2838 89.7151 76.31 91.4149 75.3987 93.1261C75.3058 93.2947 74.0141 93.1417 73.8442 93.3089C72.8382 94.3684 70.2873 95.6543 75.8318 96.5395C75.579 97.254 75.2748 98.1276 74.0778 98.6146C73.3068 98.9274 71.9716 98.3585 72.4983 98.9119C72.6145 99.0382 73.8476 99.0689 73.9289 99.252C74.2672 100.037 73.7332 100.73 74.179 101.598C74.2723 101.775 75.3488 101.991 75.5305 102.081C76.994 102.848 74.2626 102.808 74.0453 102.861C73.9304 102.901 73.8251 102.942 73.7284 102.983C72.4877 103.34 72.8058 103.984 72.5945 104.595C72.5413 104.747 74.01 104.975 74.01 105.136C73.9885 105.97 73.6584 106.667 72.8128 107.262C72.621 107.394 71.456 106.897 71.3024 106.944C70.6397 107.154 72.9029 107.867 72.3146 108.073C72.1935 108.117 71.1683 107.792 71.0508 107.773C69.2068 107.49 71.6903 108.363 71.7321 108.43C72.3165 109.298 69.5578 109.001 69.7683 109.723C69.7964 109.809 71.1552 109.991 71.1541 110.211C71.1155 111.834 70.418 113.076 69.0026 114.348C68.7875 114.533 67.8296 114.142 67.7037 114.127C65.7328 113.914 68.2676 114.657 68.3482 114.75C68.915 115.476 66.6455 115.497 69.6299 116.556C68.0369 118.785 69.3599 121.321 66.3269 123.25C66.2913 123.278 65.0055 123.087 64.9398 123.144C64.1388 123.833 66.1632 123.893 68.5912 124.502C69.2019 124.644 66.2081 124.768 65.9883 124.792C65.1785 124.855 63.2556 124.636 63.0979 124.665C61.8566 124.966 68.2401 125.222 68.2311 125.584C68.2201 125.596 67.0459 125.513 66.9281 125.543C66.5583 125.638 67.0236 125.748 66.6177 125.84C65.6793 126.048 62.5723 126.151 64.3875 126.529C64.6236 126.569 68.243 126.428 68.0843 126.725C68.0173 126.865 68.113 127.287 67.8993 127.445C67.6828 127.6 66.5142 127.671 66.4649 127.684C64.9955 128.31 64.3402 128.254 62.1417 128.943C59.9716 129.705 65.2705 128.492 65.8753 128.42C66.4762 128.344 65.3104 128.912 64.9181 129.133C64.5208 129.343 63.7845 129.48 63.5714 129.634C62.2272 130.733 66.1664 128.876 66.9895 128.618C67.9475 128.259 67.4569 128.387 66.7812 128.823C66.0938 129.237 65.2449 129.961 65.1759 130.182C65.1326 130.293 65.7857 129.647 65.8613 129.602C65.9973 129.507 65.8401 129.677 65.79 129.802C65.7282 129.918 65.7901 129.981 66.0292 129.455C66.0698 129.371 66.3118 128.763 66.3885 128.36C66.4768 127.96 66.4017 127.777 66.2348 128.651C66.1984 128.905 65.9847 129.888 66.0181 130.12C66.0488 130.472 66.3934 130.702 66.5454 130.346C66.6431 130.087 66.3429 128.455 66.5117 128.953C66.6025 129.172 66.6006 130.149 66.7947 130.476C66.9997 130.804 67.451 130.659 67.6005 130.577C67.7598 130.495 67.3072 129.32 67.2981 129.234C67.2325 128.75 67.2965 128.091 67.32 128.083C68.3433 127.561 70.7363 128.648 71.7486 127.173C71.8283 127.059 71.0424 125.991 71.0472 125.962C71.109 125.262 72.7258 128.407 73.6435 129.215C72.1317 126.995 72.5734 127.288 72.6554 126.879C72.6973 126.678 72.0523 125.858 72.0043 125.762C71.2989 124.334 72.5629 125.941 72.8327 126.262C73.82 127.447 72.9294 125.858 73.5956 126.645C74.2614 127.423 74.9181 128.805 75.1705 128.606C74.6934 127.767 73.0718 125.835 73.029 125.368C72.8301 123.635 75.2841 124.275 75.9656 124.012C76.6464 123.752 76.7437 123.451 77.2669 123.485C78.2331 123.529 76.8744 122.225 76.706 121.272C76.5392 120.317 79.2076 124.053 79.8717 124.785C80.5362 125.516 79.9647 124.675 80.3674 125.047C80.7705 125.418 81.0428 126.058 81.3262 126.092C81.6165 126.122 80.9332 124.424 80.3403 123.577C79.0854 121.784 77.468 120.144 78.362 120.458C78.4145 120.477 79.0977 121.475 79.2607 121.5C80.5382 121.663 81.2959 121.118 82.5065 121.183C82.6751 121.193 83.4442 122.297 83.5522 122.314C84.683 122.492 83.0328 120.922 81.7451 118.725C83.8124 121.355 85.2944 122.784 85.7422 122.436C86.0128 122.226 85.031 121.144 84.5393 120.213C84.3906 119.933 85.2207 120.545 84.8131 119.991C83.481 118.177 81.6896 116.4 82.7823 116.789C82.8326 116.809 83.5607 117.802 83.6771 117.802C84.4375 117.798 82.9671 115.966 83.2512 115.354C83.4712 114.876 85.0613 115.404 85.6351 115.222C88.0626 118.092 87.8998 117.1 86.3785 114.991C86.719 114.84 86.919 114.477 87.4174 114.522C87.5883 114.537 88.2353 115.416 88.3233 115.495C89.6992 116.746 88.1809 114.726 88.1762 114.6C88.178 114.498 88.1909 114.41 88.213 114.334C88.245 114.224 88.287 114.145 88.3016 114.117C88.3032 114.113 88.303 114.11 88.2724 114.14C88.2647 114.147 88.2552 114.156 88.2429 114.169C88.2312 114.182 88.2194 114.191 88.1463 114.276C88.0766 114.377 87.9752 114.416 87.7265 114.968C87.6672 115.118 87.5949 115.316 87.5555 115.632C87.5104 115.707 87.4843 117.022 88.2877 117.751C89.0711 118.498 89.7945 118.496 90.1236 118.507C90.4814 118.5 90.6503 118.449 90.7809 118.416C91.0219 118.348 91.128 118.291 91.1259 118.294C91.1503 118.283 91.1702 118.273 91.1873 118.265C91.2213 118.248 91.2442 118.236 91.2617 118.226C91.296 118.206 91.3109 118.195 91.315 118.191C91.3219 118.183 91.3163 118.181 91.3044 118.182C91.1915 118.202 90.9804 118.236 90.807 118.291C90.4532 118.404 90.1852 118.641 90.2917 119.58C90.3015 119.653 91.5977 121.921 90.4193 120.403C90.3405 120.297 89.977 119.131 89.5811 119.259C89.1819 119.389 87.8573 118.533 87.9466 119.856C87.9745 120.172 88.6308 122.222 87.6239 120.876C87.4887 120.693 87.1845 120.007 86.949 119.659C86.2028 118.549 87.2976 120.952 86.1284 119.029C84.955 117.106 83.9392 115.735 84.1297 117.345C84.1354 117.391 84.8737 119.353 84.7023 119.392C84.4305 119.451 83.9139 119.193 83.6621 119.306C83.5415 119.361 84.0928 120.541 84.0798 120.571C83.4528 121.593 82.3915 120.731 81.3349 120.486C81.2309 120.461 81.1613 120.97 81.0015 121.259C80.9968 121.262 80.9811 121.263 80.9764 121.265C80.8464 121.513 80.6517 121.593 80.3736 120.979C79.7128 119.546 78.8628 113.214 78.3315 114.865C78.1194 115.524 79.1968 123.556 77.8089 119.551C76.8133 120.794 75.3417 118.879 74.4153 120.548C74.3731 120.622 74.593 122.877 74.462 122.868C74.2663 122.852 73.9811 121.83 73.8356 121.785C73.2246 121.568 72.8608 122.546 72.2984 122.498C72.0836 122.483 71.9742 121.395 71.7211 121.375C71.4684 121.357 71.5391 122.802 71.0956 122.172C70.7572 121.692 70.0335 118.834 69.6492 118.55C70.1025 121.411 69.8675 121.389 69.5833 122.21C69.5286 122.369 69.7732 123.351 69.7555 123.478C69.6858 124.016 69.4165 123.212 69.3626 123.794C69.3492 123.934 69.5039 124.911 69.5016 125.08C69.4864 126.559 68.7384 124.424 68.6096 124.052C68.1168 122.639 68.196 123.93 67.9049 123.389C67.6149 122.847 67.8029 122.085 67.5148 121.774C66.9188 121.131 66.3247 121.384 65.8252 121.413C65.6282 121.431 65.9585 122.716 65.9349 122.749C65.5781 123.142 64.9611 121.813 65.1204 124.449C63.8436 117.761 64.9717 125.139 64.1887 123.877C64.1265 123.774 63.6065 120.599 63.7131 120.106C63.8198 119.614 64.228 120.571 64.3641 119.806C64.3971 119.627 64.2807 116.597 64.2971 116.41C64.4325 114.946 65.1955 119.693 65.2535 119.951C65.888 122.737 65.8063 119.465 65.8766 119.227C66.2017 118.138 66.7131 118.743 67.0037 117.955C67.1941 117.445 66.7293 114.33 66.9495 114.393C67.6758 114.601 68.6127 118.9 68.6502 115.036C68.6585 114.211 67.9675 110.837 68.8941 113.428C68.9528 113.591 69.7162 115.975 69.6754 114.394C69.6698 114.195 69.5055 113.206 69.5266 113.117C69.671 112.54 69.9559 113.303 70.1485 112.883C70.3385 112.463 70.55 111.849 70.8945 112.136C71.1013 112.307 71.6424 114.11 71.803 114.547C72.2606 115.806 72.1527 113.632 72.5697 115.179C72.9921 116.734 73.114 119.185 73.6859 120.138C73.2546 117.568 72.83 114.927 72.4039 112.341C73.265 112.284 74.2459 112.966 75.0718 112.698C75.1737 112.663 74.8152 111.304 74.9185 111.23C75.3498 110.925 75.9465 111.831 76.3604 111.348C76.6859 110.969 76.8156 109.435 77.1377 108.992C77.9378 111.875 78.3313 110.767 78.8023 110.952C78.8684 110.977 78.9311 111.12 78.9927 111.296L78.7732 111.343C78.8501 111.606 78.9372 111.942 79.0035 112.085C79.4356 112.97 78.7071 110.434 78.6501 110.021C78.3597 108.267 79.9886 114.008 80.3587 113.738C80.3899 113.723 79.61 110.631 79.5593 110.439C79.3046 109.16 79.9519 111.474 80.1505 111.653C80.5145 111.978 80.9746 112.616 80.9095 111.636C80.895 111.344 80.2964 109.447 81.0626 110.784C81.1642 110.958 81.5767 111.925 81.6193 111.973C82.372 112.761 81.01 109.751 80.6897 108.666C80.3604 107.586 81.6133 109.508 81.9747 110.062C82.8929 111.502 82.183 110.77 82.2514 110.922C83.0327 112.75 83.1 112.336 83.3484 112.397C84.8453 115.268 85.028 114.954 83.6003 112.448C83.4442 112.174 83.4505 112.511 83.3484 112.397C82.0553 109.49 82.054 109.032 83.7604 111.483C84.5617 112.629 85.2198 114.122 85.369 113.357C85.438 113.01 84.2515 111.12 84.1107 110.5C83.7732 109.093 85.3033 110.597 85.5541 110.051C85.6469 109.852 84.8425 108.916 84.8857 108.743C84.9088 108.634 84.9844 108.578 85.0819 108.55C85.203 108.508 85.2805 108.53 85.6307 108.397C85.6909 108.382 85.8753 108.284 86.2953 108.095C86.3514 108.07 86.414 108.043 86.4862 108.012C86.5223 107.996 86.5608 107.98 86.6024 107.963C86.6503 107.944 86.6536 107.94 86.8758 107.852C87.2839 107.718 87.6775 107.465 89.297 107.274C90.1308 107.233 91.4319 107.052 93.6911 108.011C95.9867 108.822 98.5813 112.251 98.7187 114.726C98.7615 115.031 98.7856 115.32 98.7963 115.592C98.8016 115.728 98.8035 115.86 98.8027 115.988C98.8015 116.12 98.8002 116.151 98.7977 116.231C98.788 116.511 98.7656 116.769 98.7358 117.007C98.676 117.483 98.5884 117.878 98.4964 118.216C98.31 118.89 98.1112 119.343 97.9405 119.701C97.5949 120.404 97.3438 120.748 97.1499 121.021C96.7656 121.54 96.5725 121.728 96.4171 121.894C95.9317 122.361 95.8389 122.391 95.7505 122.46C95.5546 122.603 95.5126 122.657 95.4676 122.814C95.4664 122.833 95.4663 122.853 95.4673 122.874C95.4709 122.929 96.3625 123.848 96.2869 123.934C95.7305 124.605 94.6356 124.464 93.9521 125.016C93.6177 125.287 93.4774 126.33 93.0459 126.51C92.306 126.825 90.3712 126.026 90.1505 126.8C90.0034 127.299 90.8962 128.218 91.3115 129.006C92.1176 130.531 89.6922 128.617 89.3236 128.315C89.3117 128.304 89.4133 127.828 88.8373 127.454C87.8731 126.479 89.3233 128.307 89.3236 128.315C89.0856 128.12 88.3168 128.379 88.3575 128.662C88.3797 128.817 89.1846 129.722 89.1815 129.785C89.1042 131.253 88.469 132.167 87.3093 132.371C87.2798 132.363 86.4545 131.289 86.3959 131.284C85.5666 131.177 86.2678 132.735 86.4785 133.821C86.6848 134.909 86.1581 134.901 84.5037 133.242C84.3715 133.715 83.297 133.243 82.6699 132.935C82.0425 132.628 83.5927 134.76 83.601 134.819C83.9147 136.668 82.5338 135.813 81.6475 136.159C81.2391 136.309 80.6644 137.177 80.4093 137.696C80.2004 138.118 79.6779 137.723 79.5533 138.277C79.5371 138.351 80.2243 139.303 80.2352 139.35C80.6193 140.775 79.2426 138.248 78.8883 137.867C77.6034 136.478 76.9247 135.735 76.9361 136.759C76.9476 136.988 78.7673 140.717 78.6449 141.07C78.5004 141.511 77.8647 140.168 77.7363 140.657C77.7244 140.698 78.1866 141.486 77.9699 141.563C77.0048 141.911 75.6403 142.034 74.4651 142.648C74.2926 142.733 75.1014 143.962 74.8504 144.11C73.713 144.784 72.0178 145.357 69.9406 145.08C69.4081 145.008 69.5366 143.95 69.3759 143.674C68.4829 141.994 67.9202 144.715 67.6976 144.78C63.4571 146.724 56.3441 141.851 52.9764 137.595C52.786 137.507 49.0636 136.542 51.0693 134.874C51.1866 134.732 53.2853 133.259 51.4985 133.234C51.3851 133.224 50.29 134.039 50.1894 133.249C50.0841 132.434 49.0226 131.589 50.2847 130.561C50.6792 130.225 53.0571 129.339 51.0294 128.956C50.8881 128.976 46.3377 128.311 49.4084 127.775C49.9147 127.689 53.1777 127.591 51.4799 126.989C51.1514 126.867 50.4283 127.132 49.9643 126.787C49.2509 126.268 50.1274 125.691 48.6873 125.058C48.4316 124.957 46.2282 124.408 47.9296 124.117C48.1959 124.074 49.281 124.232 49.4124 124.053C50.038 123.302 49.3727 122.456 50.2051 121.733C50.4977 121.483 52.2387 121.802 52.7382 121.581C53.2347 121.385 53.744 120.951 52.9778 120.586C52.2118 120.218 49.3831 120.156 49.2151 119.708C48.5052 117.653 50.4225 116.293 50.973 114.74C51.055 114.511 50.0284 114.512 50.08 114.156C50.2717 112.797 49.8349 110.43 52.1847 109.808C54.0629 109.319 55.0648 110.735 55.9036 110.226C56.3071 109.971 53.2028 108.9 53.1229 108.794C52.2843 107.824 53.8181 107.666 53.5584 106.89C53.5046 106.729 52.186 106.535 52.1546 106.4C52.0354 105.941 52.7259 105.639 52.718 105.245C52.711 105.069 51.7245 104.84 51.84 104.71C52.1053 104.394 52.6029 104.181 53.6151 104.072C53.7073 104.063 54.864 104.609 54.9819 104.353C55.1698 103.935 56.2215 103.639 55.4331 102.866C55.1954 102.635 52.9683 102.008 54.6002 102.105C54.9408 102.126 57.5926 102.959 55.3871 101.934C55.0191 101.769 52.0758 100.278 54.1698 100.546C54.7208 100.617 56.9641 101.04 56.6709 100.767C56.623 100.727 55.401 100.48 55.3265 100.301C55.0847 99.6732 55.371 99.1626 55.1572 98.5087C55.0978 98.333 53.8 98.1885 53.7513 97.9374C53.695 97.6503 53.755 97.3673 53.8852 97.0992C53.9723 97.0462 54.1986 97.0117 54.4497 96.9723C54.6103 96.9473 55.6394 97.2254 55.753 97.2485C57.6137 97.5705 55.1403 96.9637 54.9985 96.9163C54.1589 96.5862 55.3581 96.6653 55.0729 96.4241C54.9967 96.3617 53.7893 96.2333 53.6835 96.2088C52.6473 95.9804 54.7988 96.3348 55.0457 96.2981C55.7453 96.1895 55.673 95.9228 55.5327 95.6828C55.4793 95.5948 54.0693 95.5997 54.0371 95.5282C53.8186 95.115 53.9575 94.6713 54.7125 94.1407C54.857 94.0395 55.942 94.0527 56.1884 94.0216C57.9116 93.7882 55.5394 93.679 55.312 93.653C54.2722 93.4979 55.221 93.3449 55.0247 93.1548C54.0547 92.2597 54.4758 90.8929 54.6142 89.7069C54.7971 88.2006 55.4546 86.7211 54.7258 85.3426C54.6807 85.2551 53.3412 85.7964 53.2853 85.7285C52.6283 84.8427 52.7949 83.6554 52.0035 82.7909C51.9413 82.7201 50.7186 83.3432 50.577 83.2492C50.278 83.0608 50.2102 82.6991 50.4987 82.259C50.6368 82.0447 51.7933 81.7704 51.9091 81.5616C52.1803 81.0728 52.1206 80.6884 51.7758 80.4505C51.6262 80.3501 50.4407 81.1244 50.3469 80.9527C49.6793 79.7938 48.9198 78.7726 49.889 76.7185C49.9564 76.5793 52.4315 75.1828 51.8527 75.2538C51.149 75.6093 50.3303 76.0446 49.5829 76.4337C48.2648 74.9183 48.1298 72.7518 47.2015 71.0835C47.1636 71.0158 45.9853 71.9612 45.9073 71.8371C45.4355 71.0941 44.6486 70.7077 45.3612 69.1809C45.4279 69.0282 47.5472 67.4394 47.0754 67.4864C46.9891 67.494 46.4876 67.4318 45.9914 67.7339C45.9175 67.7805 44.9954 68.605 44.9048 68.5513C44.3741 68.1986 44.2484 67.6488 44.6097 66.9517C44.6707 66.8384 45.6045 65.9101 45.6512 65.8169C45.9955 65.1255 45.1009 65.9464 47.2144 65.6563C48.7619 65.3858 49.2029 63.0781 50.1057 60.9613C50.1676 60.8088 50.3903 60.738 50.631 60.5061C50.9093 60.2751 51.1247 59.864 50.9543 59.2344C49.8543 56.1307 49.6759 52.4921 48.6324 49.1456C48.4977 48.7805 47.3431 49.0781 46.5021 49.3873C45.6985 49.6802 44.991 49.7886 46.0051 48.2061C46.0772 48.1015 46.9886 47.4564 48.0572 46.974C49.14 46.4704 50.2184 46.1546 50.5519 45.8524C51.1051 45.4406 50.0952 44.0765 51.3254 43.5833C52.5701 43.1139 53.6894 44.4614 54.9597 44.2146C56.1741 43.9672 56.4129 42.3766 58.3307 43.1084ZM79.8673 131.55C78.8822 130.703 81.5828 134.472 81.1916 133.383C81.1695 133.326 79.9165 131.591 79.8673 131.55ZM74.8571 116.408C75.5651 118.358 75.2679 115.356 74.7438 113.846C74.2257 112.337 74.6422 115.816 74.8571 116.408ZM71.5105 118.504C72.1889 120.025 71.1528 113.532 70.9424 114.916C70.9298 114.994 71.471 118.416 71.5105 118.504ZM49.5784 60.1967C49.6083 60.1425 49.5947 60.0639 49.5668 60.1186C48.8349 61.3963 48.7438 61.4803 49.5784 60.1967ZM68.176 120.695C68.4432 121.553 68.6498 120.481 68.317 119.414C68.0511 118.556 67.8445 119.628 68.176 120.695ZM63.4925 131.694C63.5387 131.644 63.4671 131.463 63.1646 131.708C62.1897 132.507 62.704 132.557 63.4925 131.694ZM62.0474 121.686C62.9861 121.804 64.3165 127.099 63.2267 126.635C63.0299 126.551 63.3743 124.865 63.0749 124.413C62.5302 123.59 62.7241 127.005 62.0399 125.256C61.9173 124.935 61.9936 121.667 62.048 121.678C62.0478 121.681 62.0476 121.684 62.0474 121.686ZM76.4374 127.16C76.3965 127.115 76.1838 127.198 76.2154 127.25C76.9842 128.511 77.4198 128.339 76.4374 127.16ZM65.1265 122.575C65.2568 122.581 65.4355 122.128 65.3189 122.096C62.9635 121.532 62.588 122.5 65.1265 122.575ZM85.7067 115.292C84.9257 114.013 85.0264 113.698 86.3764 114.99C86.1333 115.068 85.9443 115.21 85.7067 115.292Z" fill="#FCF93E"/>
<path d="M288.022 105.405C287.893 105.478 287.774 105.515 287.663 105.515C287.479 105.515 287.341 105.442 287.249 105.294C287.156 105.128 287.11 104.926 287.11 104.686C287.11 104.428 287.175 104.152 287.304 103.857C287.433 103.562 287.672 103.313 288.022 103.111L298.249 97.0851C299.521 96.348 300.875 95.7123 302.312 95.1779C303.75 94.6435 305.205 94.2105 306.679 93.8788C308.172 93.5287 309.646 93.28 311.102 93.1325C312.558 92.9667 313.93 92.8838 315.22 92.8838C315.957 92.8838 316.648 92.9391 317.293 93.0496C317.938 93.1418 318.491 93.2892 318.952 93.4919C319.431 93.6761 319.799 93.9065 320.057 94.1829C320.334 94.4593 320.472 94.7725 320.472 95.1226C320.472 95.3806 320.38 95.5649 320.195 95.6754C320.011 95.786 319.79 95.8689 319.532 95.9242C319.293 95.961 319.035 95.9887 318.758 96.0071C318.5 96.0255 318.298 96.0716 318.15 96.1453C318.04 96.4954 317.864 97.039 317.625 97.7761C317.385 98.4947 317.146 99.241 316.906 100.015C316.667 100.77 316.446 101.452 316.243 102.06C316.059 102.65 315.957 102.991 315.939 103.083C315.699 103.857 315.368 104.843 314.944 106.04C314.538 107.22 314.087 108.804 313.589 110.795C313.608 110.795 313.811 110.693 314.198 110.49C314.603 110.269 315.119 109.984 315.745 109.634C316.39 109.284 317.118 108.878 317.929 108.417C318.74 107.957 319.578 107.487 320.444 107.008L349.5 90.1492C349.758 90.0018 349.979 89.9281 350.163 89.9281C350.366 89.9281 350.523 90.0018 350.633 90.1492C350.744 90.2782 351 90.2973 351 90.5C351 90.758 351 91.5 351 91.5C351 91.5 350.961 91.608 350.5 91.866L312.346 114.028C311.977 114.25 311.636 114.406 311.323 114.498C311.01 114.59 310.724 114.636 310.466 114.636C310.098 114.636 309.784 114.554 309.526 114.388C309.268 114.222 309.057 113.992 308.891 113.697C308.725 113.402 308.596 113.07 308.504 112.702C308.43 112.315 308.393 111.909 308.393 111.486C308.393 111.025 308.439 110.564 308.531 110.104C308.624 109.643 308.743 109.201 308.891 108.777C308.356 109.827 307.73 110.739 307.011 111.513C306.311 112.287 305.555 112.941 304.745 113.476C303.952 113.992 303.132 114.379 302.285 114.636C301.437 114.894 300.608 115.023 299.797 115.023C298.986 115.023 298.222 114.894 297.503 114.636C296.784 114.379 296.149 114.001 295.596 113.503C295.061 112.987 294.638 112.352 294.324 111.596C294.011 110.841 293.855 109.965 293.855 108.97C293.855 108.381 293.91 107.726 294.02 107.008C294.149 106.289 294.315 105.561 294.518 104.824C294.721 104.087 294.951 103.369 295.209 102.668C295.467 101.95 295.734 101.296 296.01 100.706L288.022 105.405ZM313.147 95.2332C311.673 95.2332 310.263 95.4819 308.918 95.9795C307.573 96.477 306.32 97.1311 305.159 97.9419C304.017 98.7527 302.976 99.6832 302.036 100.734C301.115 101.765 300.322 102.834 299.659 103.94C299.014 105.027 298.507 106.105 298.139 107.174C297.789 108.242 297.614 109.201 297.614 110.048C297.614 110.988 297.816 111.753 298.222 112.342C298.645 112.914 299.327 113.199 300.267 113.199C300.82 113.199 301.419 113.033 302.064 112.702C302.727 112.352 303.39 111.9 304.054 111.347C304.735 110.776 305.399 110.14 306.044 109.44C306.707 108.722 307.315 108.003 307.868 107.284C308.421 106.547 308.9 105.838 309.305 105.156C309.729 104.456 310.033 103.848 310.217 103.332L313.147 95.2332Z" fill="black"/>
<path d="M287.443 75.9128C286.392 75.9128 285.397 76.1339 284.458 76.5762C283.518 77.0184 282.624 77.6265 281.776 78.4004C280.947 79.1743 280.164 80.0957 279.427 81.1644C278.69 82.2332 277.999 83.3848 277.354 84.6194C276.709 85.854 276.11 87.1531 275.557 88.5167C275.023 89.8802 274.535 91.253 274.093 92.635C276.58 90.8476 278.764 89.1524 280.643 87.5493C282.523 85.9462 284.098 84.4812 285.37 83.1545C286.641 81.8278 287.59 80.6577 288.217 79.6442C288.862 78.6123 289.184 77.7739 289.184 77.129C289.184 76.7604 289.064 76.4656 288.825 76.2445C288.604 76.0234 288.143 75.9128 287.443 75.9128ZM290.234 92.2204C290.677 92.4416 290.898 92.7087 290.898 93.022C290.898 93.5011 290.713 93.9433 290.345 94.3487C289.995 94.7541 289.525 95.1226 288.935 95.4543C288.364 95.7676 287.71 96.044 286.973 96.2835C286.254 96.5231 285.526 96.7258 284.789 96.8916C284.071 97.0574 283.38 97.1864 282.716 97.2786C281.979 97.3707 281.426 97.4075 281.058 97.3891C279.621 97.3523 278.202 97.3246 276.801 97.3062L272.738 97.2509C272.185 99.3147 271.752 101.084 271.439 102.558C271.126 104.014 270.886 105.285 270.72 106.372C270.573 107.441 270.481 108.371 270.444 109.164C270.407 109.956 270.389 110.721 270.389 111.458C270.389 111.863 270.444 112.186 270.555 112.425C270.665 112.665 270.849 112.785 271.107 112.785C272.01 112.785 273.005 112.481 274.093 111.872C275.198 111.264 276.433 110.49 277.796 109.551L282.385 106.427C284.891 104.714 286.77 103.608 288.023 103.111C288.115 103.074 288.3 102.991 288.576 102.862C288.723 102.807 288.862 102.779 288.991 102.779C289.396 102.779 289.599 102.991 289.599 103.415C289.599 103.691 289.479 104.014 289.239 104.382C288.981 104.732 288.576 105.073 288.023 105.405C285.204 107.1 283.122 108.427 281.776 109.385L277.05 112.812C275.65 113.807 274.369 114.6 273.208 115.189C272.029 115.779 270.84 116.074 269.643 116.074C268.611 116.074 267.809 115.797 267.238 115.245C266.685 114.692 266.27 114.019 265.994 113.227C265.736 112.416 265.579 111.55 265.524 110.629C265.469 109.707 265.441 108.887 265.441 108.169C265.441 106.768 265.515 105.377 265.662 103.995C265.828 102.613 266.04 101.286 266.298 100.015L261.959 102.751L257.509 105.405C257.416 105.46 257.315 105.488 257.204 105.488C257.002 105.488 256.808 105.405 256.624 105.239C256.44 105.055 256.348 104.833 256.348 104.576C256.348 104.373 256.431 104.142 256.596 103.885C256.762 103.627 257.066 103.369 257.509 103.111L262.401 100.319C263.949 99.3976 265.441 98.4671 266.879 97.5273L266.934 97.2786L263.396 97.3615C263.212 97.3615 263.037 97.3707 262.871 97.3891C262.705 97.4075 262.548 97.4168 262.401 97.4168C262.088 97.4168 261.83 97.3246 261.627 97.1404C261.443 96.9377 261.332 96.7165 261.295 96.477C261.295 96.2743 261.452 96.0808 261.765 95.8966C262.078 95.7123 262.521 95.5465 263.092 95.399C263.663 95.2332 264.345 95.0858 265.137 94.9568C265.93 94.8094 266.805 94.6804 267.763 94.5698C268.869 91.1056 270.066 88.1021 271.356 85.5592C272.646 83.0163 274.093 80.9157 275.696 79.2573C277.317 77.5989 279.123 76.3643 281.113 75.5535C283.103 74.7427 285.351 74.3373 287.857 74.3373C289.018 74.3373 289.857 74.5216 290.373 74.8901C290.907 75.2402 291.174 75.7378 291.174 76.3827C291.174 77.2672 290.778 78.3359 289.986 79.5889C289.212 80.842 288.115 82.2332 286.696 83.7626C285.296 85.2736 283.61 86.8859 281.638 88.5996C279.685 90.2948 277.52 92.0362 275.143 93.8236C276.322 93.713 277.52 93.6116 278.736 93.5195L282.329 93.2155C283.509 93.1233 284.66 93.022 285.784 92.9114C286.927 92.8009 288.014 92.6811 289.046 92.5521C289.248 92.4968 289.396 92.4231 289.488 92.331C289.58 92.2204 289.737 92.1652 289.958 92.1652C290.032 92.1652 290.124 92.1836 290.234 92.2204Z" fill="black"/>
<path d="M223.621 103.111L238.27 93.7683C238.27 93.7683 238.344 93.667 238.491 93.4643C238.62 93.28 238.823 93.0497 239.1 92.7733C239.376 92.4969 239.708 92.1928 240.095 91.8612C240.5 91.5295 240.961 91.2254 241.477 90.949C241.992 90.6726 242.564 90.4423 243.19 90.258C243.835 90.0738 244.535 89.9816 245.291 89.9816C246.36 89.9816 247.493 90.0922 248.691 90.3133C249.907 90.516 251.022 90.903 252.035 91.4742C253.049 92.027 253.887 92.8101 254.55 93.8236C255.232 94.8186 255.573 96.1085 255.573 97.6932C255.573 98.4487 255.361 99.3147 254.937 100.291C254.532 101.25 253.951 102.245 253.196 103.276C252.459 104.308 251.565 105.349 250.515 106.4C249.465 107.45 248.313 108.445 247.06 109.385L257.48 103.111C257.609 103.055 257.747 103.028 257.895 103.028C258.097 103.028 258.254 103.101 258.365 103.249C258.494 103.396 258.558 103.581 258.558 103.802C258.558 104.06 258.466 104.336 258.282 104.631C258.116 104.926 257.849 105.184 257.48 105.405C255.195 106.768 253.141 107.938 251.316 108.915C249.511 109.873 247.871 110.675 246.396 111.32C244.922 111.965 243.577 112.481 242.361 112.868C241.163 113.236 240.021 113.522 238.934 113.724C237.865 113.909 236.824 114.028 235.81 114.084C234.797 114.139 233.747 114.167 232.659 114.167C231.904 115.825 231.102 117.474 230.255 119.114C229.407 120.773 228.587 122.376 227.795 123.924C227.002 125.49 226.265 126.982 225.584 128.401C224.902 129.839 224.349 131.174 223.925 132.409C223.87 132.575 223.769 132.805 223.621 133.1C223.455 133.395 223.262 133.69 223.041 133.985C222.82 134.279 222.589 134.528 222.35 134.731C222.092 134.952 221.843 135.063 221.603 135.063C221.29 135.063 220.968 135.026 220.636 134.952C220.304 134.878 219.991 134.768 219.696 134.62C219.401 134.491 219.162 134.325 218.978 134.123C218.793 133.938 218.701 133.717 218.701 133.459C218.701 133.349 218.71 133.284 218.729 133.266C218.932 132.216 219.337 130.953 219.945 129.479C220.535 128.024 221.262 126.42 222.129 124.67C222.976 122.919 223.907 121.067 224.92 119.114C225.952 117.161 226.993 115.18 228.043 113.172C229.094 111.163 230.107 109.164 231.084 107.174C232.079 105.184 232.973 103.276 233.765 101.452C233.876 101.176 234.023 100.89 234.207 100.595C234.41 100.301 234.613 100.006 234.815 99.7109C235.036 99.3977 235.258 99.1028 235.479 98.8264C235.7 98.55 235.893 98.3013 236.059 98.0802C235.746 98.246 235.184 98.5777 234.373 99.0752C233.562 99.5543 232.586 100.135 231.443 100.817C230.319 101.48 229.075 102.217 227.712 103.028C226.367 103.82 225.003 104.612 223.621 105.405C223.511 105.46 223.409 105.488 223.317 105.488C223.114 105.488 222.93 105.405 222.764 105.239C222.598 105.055 222.515 104.834 222.515 104.576C222.515 104.354 222.598 104.115 222.764 103.857C222.93 103.599 223.216 103.35 223.621 103.111ZM247.087 93.1879C246.092 93.1879 245.051 93.6854 243.964 94.6804C242.895 95.6755 241.808 97.0206 240.703 98.7159C239.597 100.393 238.491 102.355 237.386 104.603C236.28 106.833 235.202 109.191 234.152 111.679C235.239 111.679 236.391 111.522 237.607 111.209C238.842 110.896 240.067 110.454 241.283 109.882C242.499 109.293 243.66 108.602 244.766 107.809C245.89 106.999 246.876 106.105 247.723 105.128C248.589 104.133 249.271 103.074 249.769 101.95C250.285 100.807 250.542 99.628 250.542 98.4118C250.542 97.6195 250.478 96.9101 250.349 96.2836C250.22 95.6386 250.017 95.0858 249.741 94.6252C249.465 94.1645 249.105 93.8144 248.663 93.5748C248.239 93.3169 247.714 93.1879 247.087 93.1879Z" fill="black"/>
<path d="M223.622 105.405C220.766 107.045 218.343 108.473 216.353 109.689C214.363 110.887 212.667 111.882 211.267 112.674C209.866 113.448 208.678 114.028 207.701 114.415C206.743 114.784 205.868 114.968 205.075 114.968C204.302 114.968 203.638 114.876 203.085 114.692C202.551 114.508 202.109 114.259 201.759 113.946C201.409 113.632 201.151 113.255 200.985 112.812C200.837 112.37 200.764 111.891 200.764 111.375C200.764 110.988 200.847 110.592 201.012 110.186C201.178 109.781 201.381 109.366 201.62 108.943C201.878 108.519 202.146 108.077 202.422 107.616C202.698 107.137 202.956 106.63 203.196 106.096L207.397 96.6981L192.555 105.405C192.315 105.497 192.149 105.543 192.057 105.543C191.836 105.543 191.642 105.469 191.477 105.322C191.292 105.174 191.2 104.981 191.2 104.741C191.2 104.52 191.302 104.272 191.504 103.995C191.689 103.719 192.039 103.424 192.555 103.111L199.713 98.937C200.653 98.3842 201.602 97.8314 202.56 97.2786C203.518 96.7258 204.412 96.2098 205.241 95.7307C206.089 95.2517 206.844 94.8278 207.508 94.4593C208.19 94.0723 208.715 93.7775 209.083 93.5748H212.649C212.723 93.6301 212.787 93.7222 212.842 93.8512C212.898 93.9802 212.925 94.1737 212.925 94.4317C212.925 94.9108 212.787 95.5925 212.511 96.477C212.234 97.3431 211.884 98.3197 211.46 99.4069C211.055 100.494 210.594 101.636 210.078 102.834C209.581 104.014 209.111 105.138 208.669 106.206C208.226 107.257 207.766 108.307 207.287 109.357C206.808 110.408 206.329 111.486 205.849 112.591C206.347 112.591 207.13 112.342 208.199 111.845C209.286 111.347 210.594 110.675 212.124 109.827C213.672 108.961 215.413 107.957 217.348 106.814C219.301 105.654 221.392 104.419 223.622 103.111C223.696 103.037 223.834 103 224.037 103C224.258 103 224.46 103.074 224.645 103.221C224.847 103.369 224.949 103.571 224.949 103.829C224.949 104.05 224.847 104.299 224.645 104.576C224.46 104.834 224.119 105.11 223.622 105.405ZM215.993 83.9008C216.104 83.9008 216.307 83.91 216.601 83.9285C216.915 83.9285 217.265 83.9469 217.652 83.9837C218.039 84.0206 218.444 84.0851 218.868 84.1772C219.292 84.2509 219.679 84.3707 220.029 84.5365C220.379 84.684 220.674 84.8774 220.913 85.117C221.153 85.3565 221.282 85.6514 221.3 86.0015L217.292 89.0419L215.468 89.8987C215.136 89.8987 214.878 89.8066 214.694 89.6223C214.51 89.438 214.372 89.2446 214.28 89.0419L215.993 83.9008Z" fill="black"/>
<path d="M159.829 107.726C159.829 107.045 160.031 106.225 160.437 105.267C160.861 104.308 161.404 103.332 162.068 102.337C162.749 101.342 163.514 100.393 164.362 99.4898C165.209 98.5684 166.057 97.8222 166.905 97.2509L153.14 105.405C153.066 105.442 153.002 105.469 152.946 105.488C152.873 105.488 152.808 105.488 152.753 105.488C152.55 105.488 152.394 105.414 152.283 105.267C152.172 105.119 152.117 104.935 152.117 104.714C152.117 104.456 152.2 104.179 152.366 103.885C152.532 103.571 152.79 103.313 153.14 103.111L160.741 98.4947C161.773 97.8682 162.943 97.2049 164.251 96.5047C165.559 95.786 166.914 95.1319 168.314 94.5422C169.733 93.9526 171.161 93.4642 172.598 93.0773C174.036 92.6719 175.399 92.4692 176.689 92.4692C177.887 92.4692 178.946 92.6535 179.868 93.022L187.082 78.4557C187.266 78.0688 187.46 77.6542 187.662 77.2119C187.883 76.7512 188.16 76.3274 188.491 75.9405C188.842 75.5535 189.275 75.231 189.791 74.9731C190.325 74.6967 191.007 74.5585 191.836 74.5585C192.094 74.5585 192.25 74.6506 192.306 74.8349C192.379 75.0007 192.416 75.2218 192.416 75.4982C192.379 75.7562 192.315 76.051 192.223 76.3827C192.131 76.696 192.029 77.0092 191.919 77.3225C191.827 77.6357 191.735 77.9213 191.642 78.1793C191.55 78.4373 191.477 78.6308 191.421 78.7598L183.185 96.6705C182.779 97.8682 182.272 99.112 181.664 100.402C181.075 101.673 180.494 102.917 179.923 104.133C179.37 105.331 178.891 106.455 178.486 107.505C178.099 108.556 177.905 109.449 177.905 110.186C177.905 110.444 177.933 110.693 177.988 110.933C178.062 111.172 178.191 111.292 178.375 111.292C178.615 111.292 178.974 111.2 179.453 111.016C179.951 110.831 180.513 110.573 181.139 110.242C181.766 109.91 182.438 109.523 183.157 109.081C183.894 108.62 184.622 108.132 185.34 107.616L192.527 103.111C192.674 103.037 192.785 103 192.859 103C193.006 103 193.117 103.074 193.19 103.221C193.282 103.369 193.328 103.544 193.328 103.746C193.328 104.06 193.255 104.373 193.107 104.686C192.978 104.981 192.785 105.22 192.527 105.405C191.477 106.105 190.389 106.833 189.265 107.588C188.16 108.325 187.045 109.062 185.921 109.799C184.797 110.518 183.691 111.209 182.604 111.873C181.535 112.536 180.503 113.144 179.508 113.697C178.09 114.489 176.818 114.885 175.694 114.885C174.957 114.885 174.46 114.683 174.202 114.277C173.944 113.872 173.815 113.347 173.815 112.702C173.815 112.315 173.842 111.919 173.898 111.513C173.971 111.089 174.073 110.638 174.202 110.159C173.704 110.877 173.133 111.522 172.488 112.094C171.843 112.665 171.152 113.153 170.415 113.559C169.696 113.964 168.941 114.268 168.148 114.471C167.374 114.692 166.619 114.802 165.882 114.802C165.071 114.802 164.297 114.673 163.56 114.415C162.823 114.139 162.178 113.715 161.625 113.144C161.073 112.554 160.63 111.817 160.299 110.933C159.985 110.048 159.829 108.98 159.829 107.726ZM177.85 98.1078C177.924 97.9051 178.016 97.6563 178.126 97.3615C178.255 97.0667 178.375 96.7811 178.486 96.5047C178.615 96.2282 178.716 95.9795 178.79 95.7584C178.882 95.5188 178.928 95.353 178.928 95.2608C178.928 95.1503 178.716 95.0674 178.292 95.0121C177.868 94.9568 177.306 94.9292 176.606 94.9292C175.685 94.9292 174.745 95.1779 173.787 95.6754C172.847 96.1545 171.926 96.7903 171.023 97.5826C170.138 98.375 169.3 99.2871 168.508 100.319C167.734 101.332 167.052 102.383 166.462 103.47C165.891 104.539 165.43 105.598 165.08 106.649C164.749 107.699 164.583 108.648 164.583 109.495C164.583 110.638 164.776 111.458 165.163 111.955C165.55 112.435 166.057 112.674 166.683 112.674C167.531 112.674 168.443 112.315 169.42 111.596C170.415 110.877 171.41 109.882 172.405 108.611C173.4 107.321 174.367 105.782 175.307 103.995C176.247 102.208 177.095 100.245 177.85 98.1078Z" fill="black"/>
<path d="M114.111 105.405C113.982 105.478 113.863 105.515 113.752 105.515C113.568 105.515 113.43 105.442 113.337 105.294C113.245 105.128 113.199 104.926 113.199 104.686C113.199 104.428 113.264 104.152 113.393 103.857C113.522 103.562 113.761 103.313 114.111 103.111L124.338 97.0851C125.61 96.3481 126.964 95.7123 128.401 95.178C129.839 94.6436 131.294 94.2106 132.768 93.8789C134.261 93.5288 135.735 93.28 137.191 93.1326C138.646 92.9668 140.019 92.8839 141.309 92.8839C142.046 92.8839 142.737 92.9391 143.382 93.0497C144.027 93.1418 144.58 93.2892 145.041 93.4919C145.52 93.6762 145.888 93.9065 146.146 94.1829C146.423 94.4593 146.561 94.7726 146.561 95.1227C146.561 95.3807 146.469 95.5649 146.284 95.6755C146.1 95.7861 145.879 95.869 145.621 95.9243C145.381 95.9611 145.123 95.9887 144.847 96.0072C144.589 96.0256 144.386 96.0717 144.239 96.1454C144.128 96.4955 143.953 97.0391 143.714 97.7761C143.474 98.4948 143.235 99.2411 142.995 100.015C142.756 100.77 142.534 101.452 142.332 102.06C142.148 102.65 142.046 102.991 142.028 103.083C141.788 103.857 141.457 104.843 141.033 106.041C140.627 107.22 140.176 108.805 139.678 110.795C139.697 110.795 139.899 110.693 140.286 110.491C140.692 110.269 141.208 109.984 141.834 109.634C142.479 109.284 143.207 108.878 144.018 108.418C144.829 107.957 145.667 107.487 146.533 107.008L153.139 103.111C153.397 102.963 153.618 102.89 153.802 102.89C154.005 102.89 154.162 102.963 154.272 103.111C154.383 103.24 154.438 103.405 154.438 103.608C154.438 103.866 154.337 104.17 154.134 104.52C153.931 104.852 153.6 105.147 153.139 105.405L138.435 114.028C138.066 114.25 137.725 114.406 137.412 114.498C137.099 114.59 136.813 114.637 136.555 114.637C136.187 114.637 135.873 114.554 135.615 114.388C135.357 114.222 135.145 113.992 134.98 113.697C134.814 113.402 134.685 113.07 134.593 112.702C134.519 112.315 134.482 111.909 134.482 111.486C134.482 111.025 134.528 110.564 134.62 110.104C134.712 109.643 134.832 109.201 134.98 108.777C134.445 109.827 133.819 110.739 133.1 111.513C132.4 112.287 131.644 112.941 130.834 113.476C130.041 113.992 129.221 114.379 128.374 114.637C127.526 114.895 126.697 115.024 125.886 115.024C125.075 115.024 124.311 114.895 123.592 114.637C122.873 114.379 122.238 114.001 121.685 113.503C121.15 112.987 120.727 112.352 120.413 111.596C120.1 110.841 119.943 109.965 119.943 108.97C119.943 108.381 119.999 107.727 120.109 107.008C120.238 106.289 120.404 105.561 120.607 104.824C120.809 104.087 121.04 103.369 121.298 102.668C121.556 101.95 121.823 101.296 122.099 100.706L114.111 105.405ZM139.236 95.2333C137.762 95.2333 136.352 95.482 135.007 95.9795C133.662 96.4771 132.409 97.1312 131.248 97.942C130.106 98.7527 129.065 99.6833 128.125 100.734C127.203 101.766 126.411 102.834 125.748 103.94C125.103 105.027 124.596 106.105 124.228 107.174C123.877 108.242 123.702 109.201 123.702 110.048C123.702 110.988 123.905 111.753 124.311 112.342C124.734 112.914 125.416 113.199 126.356 113.199C126.909 113.199 127.508 113.033 128.152 112.702C128.816 112.352 129.479 111.9 130.143 111.347C130.824 110.776 131.488 110.14 132.133 109.44C132.796 108.722 133.404 108.003 133.957 107.284C134.51 106.547 134.989 105.838 135.394 105.156C135.818 104.456 136.122 103.848 136.306 103.332L139.236 95.2333Z" fill="black"/>
<path d="M109.275 94.5422C109.275 95.0029 109.192 95.5465 109.026 96.173C108.86 96.7811 108.648 97.4352 108.39 98.1354C108.132 98.8172 107.856 99.5174 107.561 100.236C107.266 100.955 106.99 101.655 106.732 102.337C106.474 103 106.262 103.627 106.096 104.216C105.93 104.806 105.847 105.303 105.847 105.709C105.847 106.059 105.921 106.335 106.068 106.538C106.234 106.741 106.492 106.842 106.842 106.842C107.1 106.842 107.46 106.75 107.92 106.566C108.399 106.363 108.952 106.096 109.579 105.764C110.224 105.414 110.924 105.018 111.679 104.576C112.453 104.115 113.264 103.627 114.112 103.111C114.296 103 114.48 102.945 114.664 102.945C114.867 102.945 115.042 103.018 115.19 103.166C115.355 103.313 115.438 103.498 115.438 103.719C115.438 103.958 115.337 104.216 115.134 104.493C114.932 104.751 114.591 105.055 114.112 105.405C111.716 107.192 109.523 108.574 107.533 109.551C105.562 110.527 103.986 111.016 102.807 111.016C101.849 111.016 101.093 110.868 100.54 110.573C99.9875 110.279 99.7111 109.818 99.7111 109.191C99.7111 108.602 99.9599 107.855 100.457 106.953C100.973 106.05 101.812 104.981 102.973 103.746C103.415 103.009 103.765 102.208 104.023 101.342C104.281 100.457 104.465 99.6003 104.576 98.7711C104.705 97.9235 104.788 97.1496 104.825 96.4494C104.861 95.7307 104.88 95.1595 104.88 94.7357C104.88 94.0355 104.76 93.5011 104.52 93.1326C104.299 92.7456 103.922 92.5521 103.387 92.5521C102.798 92.5521 102.217 92.8193 101.646 93.3537C101.093 93.8696 100.531 94.5883 99.9599 95.5096C99.4071 96.431 98.8543 97.5181 98.3015 98.7711C97.7487 100.024 97.1774 101.379 96.5878 102.834C96.0166 104.29 95.4269 105.81 94.8188 107.395C94.2107 108.98 93.575 110.573 92.9117 112.177C92.8011 112.49 92.6629 112.812 92.4971 113.144C92.3312 113.476 92.1377 113.789 91.9166 114.084C91.7139 114.36 91.4744 114.59 91.198 114.775C90.94 114.959 90.6636 115.051 90.3688 115.051C89.6686 115.051 89.1434 114.894 88.7933 114.581C88.4432 114.268 88.2681 113.752 88.2681 113.033C88.2681 112.831 88.2773 112.619 88.2958 112.398C88.3326 112.177 88.4248 111.919 88.5722 111.624L93.9067 100.927C94.6069 99.1212 95.3532 97.6287 96.1455 96.4494C96.9563 95.2701 97.6842 94.3211 98.3291 93.6025C96.8181 94.5054 95.3071 95.4083 93.7961 96.3112C92.2851 97.2141 90.8294 98.0894 89.429 98.937C88.0286 99.7662 86.7019 100.559 85.4488 101.314C84.2143 102.051 83.1087 102.705 82.132 103.276C81.1554 103.848 80.3354 104.318 79.6721 104.686C79.0087 105.055 78.5481 105.294 78.2901 105.405C78.1427 105.497 77.986 105.543 77.8202 105.543C77.6175 105.543 77.4517 105.469 77.3227 105.322C77.1753 105.174 77.1016 104.981 77.1016 104.741C77.1016 104.483 77.1937 104.207 77.378 103.912C77.5438 103.599 77.8478 103.313 78.2901 103.055L85.67 98.7435C86.6282 98.1723 87.5956 97.601 88.5722 97.0298C89.5488 96.4402 90.4609 95.8966 91.3085 95.3991C92.1746 94.9015 92.9393 94.4593 93.6027 94.0723C94.266 93.6854 94.7727 93.3905 95.1229 93.1879C96.0073 92.6719 96.8642 92.2297 97.6934 91.8611C98.541 91.4926 99.3794 91.1886 100.209 90.949C101.038 90.7095 101.876 90.5252 102.724 90.3962C103.59 90.2672 104.493 90.1751 105.433 90.1198C105.838 90.1198 106.262 90.2488 106.704 90.5068C107.165 90.7463 107.579 91.078 107.948 91.5018C108.335 91.9072 108.648 92.3771 108.888 92.9115C109.146 93.4274 109.275 93.971 109.275 94.5422Z" fill="black"/>
<path d="M78.2623 103.111C78.4834 103 78.6861 102.945 78.8704 102.945C79.0731 102.945 79.2297 103.018 79.3403 103.166C79.4508 103.295 79.5061 103.461 79.5061 103.663C79.5061 103.921 79.4048 104.216 79.2021 104.548C78.9994 104.861 78.6861 105.147 78.2623 105.405C76.9356 106.179 75.5812 106.879 74.1992 107.505C72.8357 108.132 71.4629 108.731 70.0809 109.302C68.9753 109.8 67.8052 110.288 66.5706 110.767C65.336 111.228 64.0738 111.642 62.7839 112.011C61.5125 112.361 60.2226 112.646 58.9143 112.868C57.6244 113.089 56.3714 113.199 55.1553 113.199C54.6577 113.199 54.1787 113.181 53.718 113.144C53.2573 113.089 52.8059 113.006 52.3636 112.895C52.0872 113.559 51.7463 114.305 51.3409 115.134C50.954 115.982 50.5486 116.811 50.1248 117.622C49.701 118.451 49.2956 119.216 48.9086 119.916C48.5217 120.634 48.2176 121.187 47.9965 121.574C47.6648 122.348 47.1397 122.91 46.421 123.26C45.7208 123.61 44.9745 123.785 44.1822 123.785C43.7768 123.785 43.3806 123.721 42.9937 123.592C42.6251 123.481 42.2934 123.315 41.9986 123.094C41.7038 122.873 41.4642 122.606 41.28 122.293C41.1141 121.98 41.0312 121.62 41.0312 121.215C41.0312 120.975 41.0681 120.791 41.1418 120.662C41.3629 120.165 41.6854 119.474 42.1092 118.589C42.533 117.705 42.9937 116.737 43.4912 115.687C43.9887 114.637 44.4862 113.559 44.9837 112.453C45.4813 111.329 45.9143 110.297 46.2828 109.357C46.1354 109.21 46.0433 109.072 46.0064 108.943C45.988 108.795 45.9788 108.648 45.9788 108.5C45.9788 108.224 46.0801 107.948 46.2828 107.671C46.4855 107.395 46.8172 107.1 47.2779 106.787C48.0149 105.313 48.752 103.866 49.4891 102.447C50.2261 101.01 50.9079 99.6741 51.5344 98.4395C52.1609 97.2049 52.7045 96.0993 53.1652 95.1227C53.6443 94.1461 53.9852 93.3813 54.1879 92.8285C52.9901 92.8101 51.8937 92.6166 50.8987 92.2481C49.9037 91.8611 49.0468 91.3452 48.3282 90.7003C47.628 90.0369 47.0752 89.2538 46.6698 88.3509C46.2828 87.448 46.0893 86.4529 46.0893 85.3657C46.0893 83.91 46.375 82.5833 46.9462 81.3856C47.5358 80.1878 48.3005 79.1652 49.2403 78.3175C50.1801 77.4699 51.2396 76.8158 52.4189 76.3551C53.6166 75.876 54.8144 75.6364 56.0121 75.6364C57.6152 75.6364 58.9143 75.9036 59.9094 76.438C60.9044 76.954 61.6783 77.6357 62.2311 78.4834C62.8023 79.331 63.1801 80.2892 63.3644 81.3579C63.567 82.4267 63.6684 83.4954 63.6684 84.5642C63.6684 85.2644 63.567 85.9462 63.3644 86.6095C63.1617 87.2545 62.9405 87.8626 62.701 88.4338C62.4799 88.9866 62.268 89.4933 62.0653 89.954C61.8626 90.3962 61.7612 90.7648 61.7612 91.0596V91.1978C62.6457 91.0872 63.7513 90.9767 65.078 90.8661C66.4232 90.7555 67.8973 90.6081 69.5004 90.4239C71.1036 90.2396 72.7712 90 74.5033 89.7052C76.2538 89.4104 77.9767 89.0326 79.672 88.572C81.3672 88.1113 82.9796 87.5493 84.509 86.8859C86.0384 86.2226 87.3835 85.421 88.5444 84.4813C89.7053 83.5415 90.6266 82.4451 91.3084 81.1921C91.9902 79.9391 92.3311 78.5018 92.3311 76.8802C92.3311 75.7009 91.852 74.6138 90.8938 73.6187C89.9356 72.6053 88.655 71.6931 87.0519 70.8824C85.4487 70.0716 83.5968 69.3622 81.4962 68.7541C79.414 68.146 77.2489 67.6393 75.0008 67.2339C72.7712 66.8285 70.5323 66.5245 68.2843 66.3218C66.0547 66.1006 63.9816 65.9901 62.0653 65.9901C59.9094 65.9901 57.6152 66.0361 55.1829 66.1283C52.7506 66.202 50.3367 66.377 47.9412 66.6534C45.5642 66.9298 43.2793 67.3444 41.0865 67.8972C38.9121 68.45 36.9866 69.2055 35.3097 70.1637C33.6513 71.1035 32.3246 72.2736 31.3296 73.674C30.3345 75.0744 29.837 76.7697 29.837 78.7598C29.837 79.2941 30.095 79.6903 30.6109 79.9483C31.1269 80.1878 31.7718 80.3629 32.5457 80.4735C33.3196 80.584 34.1581 80.6761 35.061 80.7499C35.9639 80.8051 36.8023 80.9249 37.5762 81.1092C38.3501 81.275 38.9951 81.5422 39.511 81.9107C40.027 82.2793 40.2849 82.8229 40.2849 83.5415C40.2849 83.8547 39.944 84.0943 39.2623 84.2601C38.5805 84.4075 37.7144 84.4813 36.6641 84.4813C35.9086 84.4813 35.0978 84.4352 34.2318 84.3431C33.3657 84.2509 32.4997 84.1127 31.6336 83.9285C30.7676 83.7258 29.9291 83.477 29.1184 83.1822C28.326 82.8873 27.6258 82.5372 27.0177 82.1319C26.4096 81.708 25.9213 81.2289 25.5528 80.6946C25.1843 80.1602 25 79.5613 25 78.898C25 77.2027 25.3501 75.7009 26.0503 74.3926C26.769 73.0659 27.7364 71.8958 28.9525 70.8824C30.1871 69.8505 31.6336 68.9752 33.292 68.2566C34.9504 67.5195 36.7194 66.9022 38.5989 66.4047C40.4968 65.8887 42.4593 65.4741 44.4862 65.1609C46.5316 64.8476 48.5493 64.6081 50.5394 64.4422C52.5479 64.258 54.4735 64.1382 56.3161 64.0829C58.1772 64.0276 59.8725 64 61.4019 64C63.1709 64 65.0504 64.0461 67.0405 64.1382C69.049 64.2119 71.0851 64.3501 73.1489 64.5528C75.2127 64.7555 77.2581 65.0227 79.285 65.3544C81.3304 65.686 83.2836 66.1006 85.1447 66.5982C87.0058 67.0773 88.7287 67.6485 90.3134 68.3118C91.9165 68.9568 93.2985 69.7031 94.4594 70.5507C95.6387 71.3983 96.56 72.3565 97.2234 73.4252C97.8867 74.494 98.2184 75.6825 98.2184 76.9908C98.2184 78.5387 97.8683 79.9483 97.1681 81.2197C96.4679 82.4727 95.5097 83.606 94.2935 84.6195C93.0958 85.6329 91.6677 86.5358 90.0093 87.3282C88.3694 88.1021 86.6004 88.7839 84.7025 89.3735C82.8045 89.9632 80.8144 90.4699 78.7322 90.8937C76.6684 91.3176 74.6046 91.6769 72.5408 91.9717C70.4955 92.2665 68.4962 92.5061 66.543 92.6903C64.5897 92.8746 62.7747 93.022 61.0979 93.1326C60.7478 93.5564 60.3147 94.2843 59.7988 95.3161C59.3013 96.348 58.7393 97.5734 58.1127 98.9923C57.4862 100.393 56.8137 101.931 56.095 103.608C55.3764 105.267 54.6393 106.934 53.8838 108.611C54.3813 109.219 54.9802 109.661 55.6804 109.938C56.3991 110.196 57.1822 110.325 58.0298 110.325C59.0064 110.325 60.0291 110.223 61.0979 110.021C62.185 109.818 63.2722 109.551 64.3594 109.219C65.465 108.869 66.5522 108.482 67.6209 108.058C68.7081 107.616 69.7492 107.174 70.7442 106.731C71.9788 106.197 73.2226 105.626 74.4756 105.018C75.7287 104.391 76.9909 103.756 78.2623 103.111ZM54.8512 91.1425C55.2382 90.3133 55.6712 89.438 56.1503 88.5167C56.6478 87.5769 57.1085 86.6372 57.5323 85.6974C57.9745 84.7577 58.3431 83.8455 58.6379 82.9611C58.9327 82.0766 59.0802 81.2566 59.0802 80.5011C59.0802 79.4692 58.8222 78.64 58.3062 78.0135C57.8087 77.3686 56.915 77.0461 55.6251 77.0461C54.538 77.0461 53.4969 77.2304 52.5018 77.5989C51.5252 77.9674 50.6592 78.5018 49.9037 79.202C49.1666 79.8838 48.5769 80.713 48.1347 81.6896C47.7109 82.6662 47.499 83.7626 47.499 84.9788C47.499 85.9738 47.6832 86.8583 48.0518 87.6322C48.4203 88.3877 48.927 89.0326 49.572 89.567C50.2169 90.083 50.9908 90.4791 51.8937 90.7555C52.7967 91.0135 53.7825 91.1425 54.8512 91.1425Z" fill="black"/>
<path d="M327.672 165.24C327.672 161.24 328.792 158.184 331.032 156.072C333.272 153.96 335.848 152.904 338.76 152.904C341.672 152.904 343.976 153.656 345.672 155.16C347.368 156.632 348.216 158.472 348.216 160.68C348.216 162.888 347.336 164.616 345.576 165.864C343.848 167.08 341.608 167.688 338.856 167.688C336.104 167.688 333.624 167.256 331.416 166.392C331.416 168.728 332.216 170.616 333.816 172.056C335.416 173.464 337.368 174.168 339.672 174.168C343.256 174.168 345.496 173.064 346.392 170.856C346.936 170.856 347.4 171.016 347.784 171.336C348.168 171.624 348.36 172.056 348.36 172.632C348.36 173.752 347.528 174.824 345.864 175.848C344.232 176.872 342.152 177.384 339.624 177.384C336.232 177.384 333.384 176.36 331.08 174.312C328.808 172.264 327.672 169.24 327.672 165.24ZM344.568 160.536C344.568 159.288 344.024 158.232 342.936 157.368C341.88 156.504 340.408 156.072 338.52 156.072C336.664 156.072 335.032 156.824 333.624 158.328C332.216 159.832 331.496 161.528 331.464 163.416C333.768 164.184 336.056 164.568 338.328 164.568C342.488 164.568 344.568 163.224 344.568 160.536Z" fill="black"/>
<path d="M304.265 153.336H304.601C305.817 153.336 306.425 153.944 306.425 155.16V157.512C307.033 156.296 307.993 155.224 309.305 154.296C310.617 153.368 312.121 152.904 313.817 152.904C316.409 152.904 318.521 153.688 320.153 155.256C321.817 156.792 322.649 159.24 322.649 162.6V175.176C322.649 175.816 322.505 176.28 322.217 176.568C321.929 176.856 321.465 177 320.825 177H320.441C319.257 177 318.665 176.392 318.665 175.176V162.744C318.665 160.408 318.169 158.744 317.177 157.752C316.185 156.76 314.745 156.264 312.857 156.264C310.969 156.264 309.433 157.032 308.249 158.568C307.065 160.104 306.473 162.136 306.473 164.664V175.176C306.473 176.392 305.849 177 304.601 177H304.265C303.625 177 303.161 176.856 302.873 176.568C302.585 176.28 302.441 175.816 302.441 175.176V155.16C302.441 153.944 303.049 153.336 304.265 153.336Z" fill="black"/>
<path d="M292.519 153.336H292.807C294.023 153.336 294.631 153.928 294.631 155.112V175.176C294.631 176.392 294.023 177 292.807 177H292.519C291.303 177 290.695 176.392 290.695 175.176V155.112C290.695 153.928 291.303 153.336 292.519 153.336ZM290.023 146.568C290.023 145.832 290.279 145.208 290.791 144.696C291.303 144.152 291.911 143.88 292.615 143.88C293.351 143.88 293.975 144.152 294.487 144.696C295.031 145.208 295.303 145.832 295.303 146.568C295.303 147.272 295.047 147.896 294.535 148.44C294.023 148.952 293.399 149.208 292.663 149.208C291.927 149.208 291.303 148.952 290.791 148.44C290.279 147.928 290.023 147.304 290.023 146.568Z" fill="black"/>
<path d="M280.413 143.352H280.749C281.965 143.352 282.573 143.944 282.573 145.128V175.176C282.573 176.392 281.965 177 280.749 177H280.413C279.741 177 279.261 176.856 278.973 176.568C278.717 176.28 278.589 175.816 278.589 175.176V145.128C278.589 144.488 278.717 144.04 278.973 143.784C279.261 143.496 279.741 143.352 280.413 143.352Z" fill="black"/>
<path d="M253.406 153.336H253.742C254.958 153.336 255.566 153.944 255.566 155.16V157.512C256.174 156.296 257.134 155.224 258.446 154.296C259.758 153.368 261.262 152.904 262.958 152.904C265.55 152.904 267.662 153.688 269.294 155.256C270.958 156.792 271.79 159.24 271.79 162.6V175.176C271.79 175.816 271.646 176.28 271.358 176.568C271.07 176.856 270.606 177 269.966 177H269.582C268.398 177 267.806 176.392 267.806 175.176V162.744C267.806 160.408 267.31 158.744 266.318 157.752C265.326 156.76 263.886 156.264 261.998 156.264C260.11 156.264 258.574 157.032 257.39 158.568C256.206 160.104 255.614 162.136 255.614 164.664V175.176C255.614 176.392 254.99 177 253.742 177H253.406C252.766 177 252.302 176.856 252.014 176.568C251.726 176.28 251.582 175.816 251.582 175.176V155.16C251.582 153.944 252.19 153.336 253.406 153.336Z" fill="black"/>
<path d="M225.939 156.12C228.211 153.976 230.995 152.904 234.291 152.904C237.587 152.904 240.371 153.976 242.643 156.12C244.915 158.264 246.051 161.288 246.051 165.192C246.051 169.096 244.915 172.104 242.643 174.216C240.371 176.328 237.587 177.384 234.291 177.384C230.995 177.384 228.211 176.328 225.939 174.216C223.667 172.104 222.531 169.096 222.531 165.192C222.531 161.288 223.667 158.264 225.939 156.12ZM239.811 158.568C238.403 157 236.563 156.216 234.291 156.216C232.019 156.216 230.163 157 228.723 158.568C227.315 160.104 226.611 162.312 226.611 165.192C226.611 168.04 227.315 170.248 228.723 171.816C230.163 173.352 232.019 174.12 234.291 174.12C236.563 174.12 238.403 173.352 239.811 171.816C241.251 170.248 241.971 168.04 241.971 165.192C241.971 162.312 241.251 160.104 239.811 158.568Z" fill="black"/>
<path d="M239.811 158.568C238.403 157 236.563 156.216 234.291 156.216C232.019 156.216 230.163 157 228.723 158.568C227.315 160.104 226.611 162.312 226.611 165.192C226.611 168.04 227.315 170.248 228.723 171.816C230.163 173.352 232.019 174.12 234.291 174.12C236.563 174.12 238.403 173.352 239.811 171.816C241.251 170.248 241.971 168.04 241.971 165.192C241.971 162.312 241.251 160.104 239.811 158.568Z" fill="#FCF93E"/>
<path d="M211.12 174.264C211.12 173.336 211.424 172.584 212.032 172.008C212.64 171.432 213.376 171.144 214.24 171.144C215.136 171.144 215.888 171.432 216.496 172.008C217.104 172.584 217.408 173.336 217.408 174.264C217.408 175.192 217.104 175.944 216.496 176.52C215.888 177.096 215.136 177.384 214.24 177.384C213.376 177.384 212.64 177.096 212.032 176.52C211.424 175.944 211.12 175.192 211.12 174.264Z" fill="black"/>
<path d="M351 91H349V2H2V177H183V179H0V0H351V91Z" fill="#111111"/>
<mask id="path-18-inside-1_82_2" fill="white">
<path d="M180.5 177L225 194L156 214L180.5 177Z"/>
</mask>
<path d="M180.679 176.533C180.56 176.844 180.441 177.156 180.322 177.467C182.813 178.6 185.305 179.727 187.8 180.849C199.81 186.253 211.864 191.542 223.963 196.714L224.191 191.21C200.931 196.978 177.785 203.141 154.754 209.7L159.733 216.472C161.547 213.76 163.354 211.045 165.155 208.325C170.013 200.988 174.224 193.223 177.787 185.029C178.893 182.486 179.936 179.902 180.917 177.276C180.639 177.092 180.361 176.908 180.083 176.724C178.049 178.652 176.077 180.622 174.167 182.633C168.014 189.112 162.509 196.02 157.651 203.356C155.85 206.076 154.055 208.8 152.267 211.528L145.555 221.722L157.246 218.3C180.215 211.526 203.069 204.356 225.809 196.79L234.134 194.203L226.037 191.286C213.571 187.074 201.061 182.978 188.507 178.998C185.9 178.171 183.29 177.35 180.679 176.533ZM180.322 177.467L180.679 176.533L180.21 176.386L180.083 176.724L180.917 177.276L180.322 177.467Z" fill="black" mask="url(#path-18-inside-1_82_2)"/>
<path d="M350 145.5V102" stroke="black" stroke-width="2"/>
<path d="M214 176.5H340" stroke="black" stroke-width="2"/>
</svg>
