<svg xmlns="http://www.w3.org/2000/svg" xmlns:xlink="http://www.w3.org/1999/xlink" width="552.277" height="673.978" viewBox="0 0 552.277 673.978">
  <defs>
    <linearGradient id="linear-gradient" x1="-0.028" y1="0.32" x2="1" y2="0.676" gradientUnits="objectBoundingBox">
      <stop offset="0" stop-color="#2298bd"/>
      <stop offset="1" stop-color="#0ed7b5"/>
    </linearGradient>
    <linearGradient id="linear-gradient-2" x1="0.682" y1="0.175" x2="0.278" y2="0.898" gradientUnits="objectBoundingBox">
      <stop offset="0" stop-color="#41873f"/>
      <stop offset="0.329" stop-color="#418b3d"/>
      <stop offset="0.635" stop-color="#419637"/>
      <stop offset="0.932" stop-color="#3fa92d"/>
      <stop offset="1" stop-color="#3fae2a"/>
    </linearGradient>
    <linearGradient id="linear-gradient-3" x1="0.433" y1="0.552" x2="1.592" y2="-0.183" gradientUnits="objectBoundingBox">
      <stop offset="0.138" stop-color="#41873f"/>
      <stop offset="0.403" stop-color="#54a044"/>
      <stop offset="0.714" stop-color="#66b848"/>
      <stop offset="0.908" stop-color="#6cc04a"/>
    </linearGradient>
    <linearGradient id="linear-gradient-4" x1="-44.138" y1="0.134" x2="53.279" y2="0.134" gradientUnits="objectBoundingBox">
      <stop offset="0.092" stop-color="#6cc04a"/>
      <stop offset="0.286" stop-color="#66b848"/>
      <stop offset="0.597" stop-color="#54a044"/>
      <stop offset="0.862" stop-color="#41873f"/>
    </linearGradient>
    <linearGradient id="linear-gradient-5" x1="-0.044" y1="0.5" x2="1.015" y2="0.5" xlink:href="#linear-gradient-4"/>
    <linearGradient id="linear-gradient-6" x1="-97.138" y1="0.362" x2="0.279" y2="0.362" xlink:href="#linear-gradient-4"/>
    <linearGradient id="linear-gradient-7" x1="-1.039" y1="0.503" x2="1.008" y2="0.503" xlink:href="#linear-gradient-4"/>
    <linearGradient id="linear-gradient-8" x1="1.306" y1="-2.111" x2="0.044" y2="2.016" xlink:href="#linear-gradient-2"/>
    <linearGradient id="linear-gradient-9" x1="0.5" x2="0.5" y2="1" gradientUnits="objectBoundingBox">
      <stop offset="0" stop-color="#2e4f82"/>
      <stop offset="1" stop-color="#182e4d"/>
    </linearGradient>
  </defs>
  <g id="Group_56" data-name="Group 56" transform="translate(-1141.484 -222.73)">
    <g id="Component_3_1" data-name="Component 3 – 1" transform="translate(1171.222 282.669)">
      <g id="SVGRepo_iconCarrier" transform="translate(40.648 0)">
        <g id="Group_20" data-name="Group 20" transform="translate(0)">
          <path id="Path_61" data-name="Path 61" d="M66.111,70.766l-5.982,67.092-26.891,7.463L6.421,137.868.445,70.766Z" transform="translate(-0.445 -52.633)" fill="#e44d26"/>
          <path id="Path_62" data-name="Path 62" d="M128,155.064l21.631-6,5.089-57.01H128v63.007Z" transform="translate(-95.018 -68.049)" fill="#f16529"/>
          <path id="Path_63" data-name="Path 63" d="M56.86,132.178H68.437v-8.184H47.917l.2,2.2,2.011,22.551H68.437v-8.183H57.608l-.748-8.38Z" transform="translate(-35.672 -92.025)" fill="#ebebeb"/>
          <path id="Path_64" data-name="Path 64" d="M66.173,236.542H57.958L59.1,249.391l16.763,4.654.038-.01V245.52l-.036.01-9.114-2.461-.583-6.527Z" transform="translate(-43.129 -175.591)" fill="#ebebeb"/>
          <path id="Path_65" data-name="Path 65" d="M24.181,0h4.159V4.109h3.8V0H36.3V12.442H32.144V8.276h-3.8v4.166H24.181V0Z" transform="translate(-18.099)"/>
          <path id="Path_66" data-name="Path 66" d="M82.2,4.126H78.543V0H90.026V4.126H86.363v8.316H82.2V4.126Z" transform="translate(-58.421)"/>
          <path id="Path_67" data-name="Path 67" d="M130.469,0h4.336l2.667,4.372L140.138,0h4.338V12.442h-4.142V6.275L137.473,10.7H137.4l-2.863-4.424v6.167h-4.069V0Z" transform="translate(-96.959)"/>
          <path id="Path_68" data-name="Path 68" d="M193.21,0h4.16V8.33h5.848v4.113H193.21V0Z" transform="translate(-143.519)"/>
          <path id="Path_69" data-name="Path 69" d="M127.89,196.819h10.077l-.95,10.613L127.89,209.9v8.514l16.776-4.65.123-1.383,1.923-21.544.2-2.2H127.89v8.183Z" transform="translate(-95.024 -139.976)" fill="#fff"/>
          <path id="Path_70" data-name="Path 70" d="M127.89,132.158v.02h19.767l.164-1.839.373-4.149.2-2.2h-20.5v8.163Z" transform="translate(-95.017 -92.064)" fill="#fff"/>
        </g>
      </g>
      <g id="SVGRepo_iconCarrier-2" data-name="SVGRepo_iconCarrier" transform="translate(214.881 0)">
        <g id="Group_21" data-name="Group 21" transform="translate(0)">
          <path id="Path_71" data-name="Path 71" d="M33.238,145.321,6.421,137.868.445,70.766H66.111l-5.982,67.092-26.891,7.463Z" transform="translate(-0.445 -52.633)" fill="#264de4"/>
          <path id="Path_72" data-name="Path 72" d="M149.631,149.067l5.089-57.01H128v63.006l21.631-6Z" transform="translate(-95.018 -68.049)" fill="#2965f1"/>
          <path id="Path_73" data-name="Path 73" d="M53.669,188.636l.733,8.183H72.715v-8.183Z" transform="translate(-39.943 -140.059)" fill="#ebebeb"/>
          <path id="Path_74" data-name="Path 74" d="M47.917,123.995l.744,8.183H68.437v-8.183Z" transform="translate(-35.672 -92.064)" fill="#ebebeb"/>
          <path id="Path_75" data-name="Path 75" d="M75.905,245.52l-.036.01-9.114-2.461-.583-6.527H57.958L59.1,249.391l16.763,4.654.038-.01V245.52Z" transform="translate(-43.129 -175.591)" fill="#ebebeb"/>
          <path id="Path_76" data-name="Path 76" d="M60.484,0H70.4V4.145H64.628V8.29H70.4v4.145H60.484V0Z" transform="translate(-45.017)"/>
          <path id="Path_77" data-name="Path 77" d="M106.9,0h9.912V3.6h-5.767v.721h5.767v8.29H106.9V8.83h5.767V8.109H106.9V0Z" transform="translate(-79.477)"/>
          <path id="Path_78" data-name="Path 78" d="M153.319,0h9.912V3.6h-5.767v.721h5.767v8.29h-9.912V8.83h5.767V8.109h-5.767V0Z" transform="translate(-113.937)"/>
          <path id="Path_79" data-name="Path 79" d="M146.912,140.558l1.477-16.563h-20.5v8.183h11.531l-.745,8.38H127.89v8.183h10.077l-.95,10.613-9.127,2.463v8.514l16.776-4.65.123-1.383,1.923-21.544.2-2.2Z" transform="translate(-95.017 -91.932)" fill="#fff"/>
        </g>
      </g>
      <g id="SVGRepo_iconCarrier-3" data-name="SVGRepo_iconCarrier" transform="translate(190.014 474.557)">
        <g id="Group_25" data-name="Group 25" transform="translate(0 0)">
          <path id="Path_85" data-name="Path 85" d="M57.57,6.531c-4.506,0-7.756,2.939-7.756,7.347s3.657,7.347,8.164,7.347a8.424,8.424,0,0,0,6.608-2.894l-3.123-1.8a4.671,4.671,0,0,1-3.486,1.429A4.359,4.359,0,0,1,53.746,15.3H65.183a7.371,7.371,0,0,0,.143-1.429C65.326,9.47,62.077,6.531,57.57,6.531ZM53.709,12.45a4.131,4.131,0,0,1,7.715,0Zm47.815-5.919c-4.506,0-7.756,2.939-7.756,7.347s3.657,7.347,8.164,7.347a8.424,8.424,0,0,0,6.609-2.894l-3.123-1.8a4.671,4.671,0,0,1-3.486,1.429A4.359,4.359,0,0,1,97.7,15.3h11.437a7.371,7.371,0,0,0,.143-1.429c0-4.4-3.249-7.343-7.756-7.343ZM97.666,12.45a4.131,4.131,0,0,1,7.715,0ZM81.735,13.878a4.13,4.13,0,0,0,7.674,2.074l3.135,1.808a7.557,7.557,0,0,1-6.727,3.465c-4.51,0-7.756-2.939-7.756-7.347s3.249-7.347,7.756-7.347A7.562,7.562,0,0,1,92.544,10L89.409,11.8a4.13,4.13,0,0,0-7.674,2.074ZM115.4,2.041V20.817h-3.674V2.041ZM15.082,0,30.165,26.124H0ZM52.79,2.041,41.48,21.634,30.169,2.041H34.41l7.07,12.246,7.07-12.246Zm24.046,4.9v3.955a4.653,4.653,0,0,0-1.306-.2,3.9,3.9,0,0,0-4.082,4.082v6.041H67.775V6.939h3.674v3.755C71.449,8.621,73.861,6.939,76.837,6.939Z" transform="translate(0 0)"/>
        </g>
      </g>
      <g id="SVGRepo_iconCarrier-4" data-name="SVGRepo_iconCarrier" transform="translate(360.222 178.552)">
        <g id="Group_26" data-name="Group 26" transform="translate(0 0)">
          <path id="Path_86" data-name="Path 86" d="M15.37,2.731h-6.4V22.548H6.359V2.731H0V.39H15.37ZM27.425,6.71l-7.3,18.374C18.842,28.361,17.009,30,14.668,30a6.273,6.273,0,0,1-1.638-.2V27.542a4.446,4.446,0,0,0,1.482.273c1.287,0,2.224-.78,2.887-2.3l1.248-3L12.484,6.71h2.809l4.291,12.171c.039.156.156.546.312,1.209h.078c.039-.234.156-.624.312-1.17L24.772,6.71ZM31.56,20.247h-.078V29.8H28.946V6.71h2.536V9.48h.078a6,6,0,0,1,5.462-3.16,5.784,5.784,0,0,1,4.759,2.107,8.852,8.852,0,0,1,1.716,5.7,9.821,9.821,0,0,1-1.951,6.359,6.383,6.383,0,0,1-5.267,2.38,5.108,5.108,0,0,1-4.72-2.614Zm-.039-6.359v2.224a4.592,4.592,0,0,0,1.287,3.316,4.269,4.269,0,0,0,3.238,1.365,4.334,4.334,0,0,0,3.628-1.756,8.183,8.183,0,0,0,1.287-4.915,6.3,6.3,0,0,0-1.209-4.135A3.992,3.992,0,0,0,36.436,8.5a4.492,4.492,0,0,0-3.55,1.521,5.446,5.446,0,0,0-1.365,3.862Zm27.5,1.365H47.867a6.034,6.034,0,0,0,1.4,4.1,4.823,4.823,0,0,0,3.745,1.443,7.748,7.748,0,0,0,4.915-1.756v2.38a9.18,9.18,0,0,1-5.5,1.521,6.685,6.685,0,0,1-5.267-2.146,8.788,8.788,0,0,1-1.912-6.047A8.551,8.551,0,0,1,47.36,8.739,6.689,6.689,0,0,1,52.548,6.4a5.87,5.87,0,0,1,4.8,2.029,8.367,8.367,0,0,1,1.716,5.579l-.039,1.248ZM56.41,13.108a5.089,5.089,0,0,0-1.053-3.433A3.606,3.606,0,0,0,52.47,8.465a4.038,4.038,0,0,0-3.043,1.287,5.989,5.989,0,0,0-1.56,3.355Zm3.862,8.66V20.013a8.924,8.924,0,0,0,4.837,1.521,6.081,6.081,0,0,0,3.94-1.092,3.643,3.643,0,0,0,1.326-3,4.109,4.109,0,0,0-.9-2.731,18.21,18.21,0,0,0-3.9-2.77A14.1,14.1,0,0,1,61.326,8.66a5.463,5.463,0,0,1-.9-3.043,5.186,5.186,0,0,1,1.834-3.979A7.023,7.023,0,0,1,67.138,0a12.466,12.466,0,0,1,3.94.663v1.6a10.025,10.025,0,0,0-4.174-.9A5.417,5.417,0,0,0,63.315,2.5a3.623,3.623,0,0,0-1.326,2.887,3.932,3.932,0,0,0,.9,2.692,17.11,17.11,0,0,0,3.9,2.731,14.432,14.432,0,0,1,4.135,3.121,4.947,4.947,0,0,1,1.014,3.16,5.421,5.421,0,0,1-1.756,4.174,7.055,7.055,0,0,1-4.993,1.6,11.829,11.829,0,0,1-2.653-.351,8.02,8.02,0,0,1-2.263-.741Zm24.85.078a8.053,8.053,0,0,1-4.213,1.092,6.7,6.7,0,0,1-5.228-2.224,8.344,8.344,0,0,1-1.99-5.813,8.731,8.731,0,0,1,2.224-6.164A7.481,7.481,0,0,1,81.65,6.32a8.474,8.474,0,0,1,3.511.741v1.6a6.926,6.926,0,0,0-3.706-1.053A5.721,5.721,0,0,0,76.93,9.6a7.577,7.577,0,0,0-1.716,5.188,7.411,7.411,0,0,0,1.6,4.954,5.21,5.21,0,0,0,4.174,1.873,7.012,7.012,0,0,0,4.135-1.248v1.482ZM94.563,8.192a2.678,2.678,0,0,0-1.677-.507,3.658,3.658,0,0,0-3.121,1.951,9.906,9.906,0,0,0-1.248,5.5v7.451h-1.4V6.71h1.4v3.511h.078a5.655,5.655,0,0,1,1.716-2.809A4.081,4.081,0,0,1,93.042,6.4a3.848,3.848,0,0,1,1.56.273V8.192Zm2.263-5.462a1.123,1.123,0,0,1-.819-.351,1.147,1.147,0,0,1-.351-.858A1.008,1.008,0,0,1,96.007.7,1.259,1.259,0,0,1,96.826.39,1.45,1.45,0,0,1,97.684.7a1.008,1.008,0,0,1,.351.819,1.21,1.21,0,0,1-.351.858A1.28,1.28,0,0,1,96.826,2.731Zm-.7,19.818V6.71h1.4V22.548ZM102.4,19.74h-.078v10.1h-1.4V6.71h1.4V9.987h.078A6.252,6.252,0,0,1,104.823,7.3a6.719,6.719,0,0,1,3.472-.936,5.79,5.79,0,0,1,4.72,2.068,8.727,8.727,0,0,1,1.677,5.657,10.125,10.125,0,0,1-1.951,6.437,6.2,6.2,0,0,1-5.11,2.458A5.646,5.646,0,0,1,102.4,19.74Zm-.078-5.891v1.99a6.076,6.076,0,0,0,1.482,4.1,5.025,5.025,0,0,0,3.94,1.716,4.733,4.733,0,0,0,3.94-2.068,9.055,9.055,0,0,0,1.521-5.462,7.318,7.318,0,0,0-1.4-4.72A4.479,4.479,0,0,0,108.1,7.646a5.233,5.233,0,0,0-4.291,1.873A6.561,6.561,0,0,0,102.326,13.849Zm20.988,8.465a4.861,4.861,0,0,1-2.068.507q-3.511,0-3.511-4.213V8.036h-2.848V6.749h2.848V2.614l.7-.234.7-.234v4.6h4.174V8.036H119.14V18.491a4.232,4.232,0,0,0,.507,2.38,1.972,1.972,0,0,0,1.756.741,3.968,3.968,0,0,0,1.912-.585v1.287Z" transform="translate(0 0)" fill="#007acc"/>
        </g>
      </g>
      <g id="SVGRepo_iconCarrier-5" data-name="SVGRepo_iconCarrier" transform="translate(165.634 183.219)">
        <g id="Group_27" data-name="Group 27" transform="translate(0 0)">
          <path id="Path_87" data-name="Path 87" d="M17.029,0Q10.217,0,8.514,6.811q2.554-3.406,5.96-2.554a7.259,7.259,0,0,1,3.246,2.3c1.67,1.695,3.6,3.656,7.822,3.656q6.811,0,8.514-6.811Q31.5,6.811,28.1,5.96a7.259,7.259,0,0,1-3.246-2.3C23.181,1.961,21.249,0,17.029,0ZM8.514,10.217Q1.7,10.217,0,17.029q2.554-3.406,5.96-2.554a7.259,7.259,0,0,1,3.246,2.3c1.67,1.695,3.6,3.656,7.822,3.656q6.811,0,8.514-6.811-2.554,3.406-5.96,2.554a7.259,7.259,0,0,1-3.246-2.3C14.667,12.179,12.735,10.217,8.514,10.217Z" transform="translate(0 0)" fill="url(#linear-gradient)"/>
          <path id="Path_88" data-name="Path 88" d="M142.25,9.884h-2.972v5.752c0,1.534,1.007,1.51,2.972,1.414v2.325c-3.978.479-5.56-.623-5.56-3.739V9.884h-2.2V7.392h2.2V4.173l2.588-.767V7.392h2.972Zm11.328-2.492h2.588V19.375h-2.588V17.649a4.924,4.924,0,0,1-4.194,2.037,6.124,6.124,0,0,1-5.968-6.3,6.109,6.109,0,0,1,5.968-6.3,4.967,4.967,0,0,1,4.194,2.013Zm-3.787,9.826a3.7,3.7,0,0,0,3.787-3.835,3.787,3.787,0,1,0-7.573,0A3.7,3.7,0,0,0,149.792,17.218ZM160.481,5.594a1.654,1.654,0,1,1,1.654-1.654A1.673,1.673,0,0,1,160.481,5.594Zm-1.294,13.781V7.392h2.588V19.375Zm5.584,0V1.88h2.588v17.5ZM184.159,7.392h2.732l-3.763,11.983h-2.54L178.1,11.3l-2.516,8.077h-2.54L169.276,7.392h2.732l2.325,8.268,2.516-8.268h2.469l2.492,8.268Zm5.944-1.8a1.654,1.654,0,1,1,1.654-1.654A1.673,1.673,0,0,1,190.1,5.594Zm-1.294,13.781V7.392H191.4V19.375ZM200.7,7.08c2.684,0,4.6,1.821,4.6,4.937v7.358h-2.588V12.281a2.5,2.5,0,0,0-2.684-2.78c-1.7,0-3.044,1.007-3.044,3.451v6.423h-2.588V7.392h2.588V8.926A4.126,4.126,0,0,1,200.7,7.08ZM217.568,2.6h2.588V19.375h-2.588V17.649a4.924,4.924,0,0,1-4.194,2.037,6.124,6.124,0,0,1-5.968-6.3,6.109,6.109,0,0,1,5.968-6.3,4.967,4.967,0,0,1,4.194,2.013Zm-3.787,14.619a3.7,3.7,0,0,0,3.787-3.835,3.787,3.787,0,1,0-7.573,0A3.7,3.7,0,0,0,213.782,17.218Zm15.051,2.469a6.2,6.2,0,0,1-6.327-6.3,6.183,6.183,0,0,1,6.327-6.3,5.92,5.92,0,0,1,5.344,3.092l-2.229,1.294a3.349,3.349,0,0,0-3.14-1.845,3.655,3.655,0,0,0-3.715,3.763,3.655,3.655,0,0,0,3.715,3.763A3.517,3.517,0,0,0,232,15.3l2.229,1.27A6.025,6.025,0,0,1,228.832,19.687Zm9.658-8.987c0,2.181,6.447.863,6.447,5.3,0,2.4-2.085,3.691-4.673,3.691a5,5,0,0,1-4.889-2.8l2.229-1.294a2.632,2.632,0,0,0,2.66,1.726c1.15,0,2.037-.383,2.037-1.342,0-2.133-6.447-.935-6.447-5.225,0-2.253,1.941-3.667,4.386-3.667a4.825,4.825,0,0,1,4.434,2.492L242.493,10.8a2.336,2.336,0,0,0-2.253-1.366C239.306,9.429,238.491,9.836,238.491,10.7Zm11.048,0c0,2.181,6.447.863,6.447,5.3,0,2.4-2.085,3.691-4.673,3.691a5,5,0,0,1-4.889-2.8l2.229-1.294a2.632,2.632,0,0,0,2.66,1.726c1.15,0,2.037-.383,2.037-1.342,0-2.133-6.447-.935-6.447-5.225,0-2.253,1.941-3.667,4.386-3.667a4.825,4.825,0,0,1,4.434,2.492L253.541,10.8a2.336,2.336,0,0,0-2.253-1.366C250.354,9.429,249.539,9.836,249.539,10.7Z" transform="translate(-91.167 -1.274)" fill="#2d3748"/>
        </g>
      </g>
      <g id="SVGRepo_iconCarrier-6" data-name="SVGRepo_iconCarrier" transform="translate(42.343 312.459)">
        <g id="Group_28" data-name="Group 28" transform="translate(0 0)">
          <path id="Path_89" data-name="Path 89" d="M51.877,18.2q-.982-.338-2.031-.64.172-.7.314-1.385c1.538-7.463.532-13.476-2.9-15.455-3.292-1.9-8.675.081-14.111,4.812q-.784.682-1.571,1.441-.524-.5-1.045-.966C24.834.944,19.123-1.188,15.693.8,12.4,2.7,11.431,8.353,12.815,15.426q.2,1.025.467,2.09c-.808.229-1.589.474-2.335.734C4.266,20.579,0,24.229,0,28.015c0,3.91,4.58,7.832,11.538,10.21q.824.282,1.706.534-.286,1.151-.5,2.252c-1.32,6.95-.289,12.469,2.991,14.361,3.388,1.954,9.073-.054,14.609-4.894Q31,49.9,31.664,49.265q.855.824,1.706,1.556C38.732,55.436,44.028,57.3,47.3,55.4c3.384-1.959,4.484-7.888,3.056-15.1q-.164-.826-.378-1.686.6-.177,1.173-.367c7.233-2.4,11.939-6.271,11.939-10.233,0-3.8-4.4-7.474-11.218-9.82Zm-1.569,17.5q-.518.171-1.06.332a63.222,63.222,0,0,0-3.2-7.993,63.21,63.21,0,0,0,3.071-7.876q.968.28,1.876.592c5.839,2.01,9.4,4.982,9.4,7.272,0,2.439-3.846,5.605-10.092,7.675Zm-2.591,5.135a22.824,22.824,0,0,1,.3,8.327c-.376,2.026-1.132,3.376-2.066,3.917-1.988,1.151-6.241-.345-10.827-4.291q-.789-.679-1.586-1.447a63.324,63.324,0,0,0,5.289-6.715A62.916,62.916,0,0,0,47.375,39.3q.193.779.342,1.526ZM21.511,52.871c-1.943.686-3.49.706-4.425.166-1.99-1.148-2.818-5.579-1.689-11.523q.194-1.021.46-2.095a63.39,63.39,0,0,0,8.5,1.231,65.617,65.617,0,0,0,5.416,6.692q-.6.583-1.2,1.107a22.829,22.829,0,0,1-7.063,4.422Zm-9.1-17.2a22.829,22.829,0,0,1-7.359-3.91C3.485,30.426,2.7,29.1,2.7,28.015c0-2.3,3.425-5.228,9.138-7.22.693-.242,1.419-.469,2.172-.683a64.608,64.608,0,0,0,3.075,7.969,65.667,65.667,0,0,0-3.114,8.082q-.805-.231-1.557-.488ZM15.46,14.908c-1.186-6.06-.4-10.631,1.583-11.779,2.111-1.222,6.779.52,11.7,4.889q.472.419.947.874a64.57,64.57,0,0,0-5.375,6.652,65.877,65.877,0,0,0-8.42,1.309q-.246-.991-.434-1.944Zm27.217,6.72q-.936-1.618-1.919-3.155c2.013.254,3.942.592,5.753,1.006a57.573,57.573,0,0,1-2.019,5.433q-.858-1.63-1.815-3.283Zm-11.1-10.81A57.619,57.619,0,0,1,35.291,15.3q-1.851-.087-3.743-.089-1.872,0-3.714.087c1.226-1.616,2.482-3.118,3.744-4.481ZM20.408,21.647q-.935,1.622-1.781,3.263c-.785-1.862-1.456-3.692-2-5.46,1.8-.4,3.72-.732,5.72-.982q-.994,1.55-1.934,3.179ZM22.4,37.755a57.373,57.373,0,0,1-5.815-.935c.557-1.8,1.244-3.669,2.045-5.57q.847,1.636,1.789,3.265h0q.959,1.656,1.981,3.24ZM31.652,45.4c-1.278-1.378-2.552-2.9-3.8-4.543q1.812.071,3.692.072,1.929,0,3.809-.085a57.332,57.332,0,0,1-3.7,4.556Zm12.865-14.25a57.182,57.182,0,0,1,2.119,5.55,57.268,57.268,0,0,1-5.886,1q.982-1.557,1.937-3.211.964-1.672,1.83-3.343Zm-4.165,2c-.986,1.71-2,3.343-3.027,4.884-1.872.134-3.807.2-5.778.2s-3.873-.061-5.713-.18c-1.069-1.561-2.1-3.2-3.084-4.891h0c-.977-1.688-1.877-3.391-2.692-5.084.815-1.7,1.712-3.4,2.684-5.086h0c.974-1.69,2-3.319,3.059-4.871,1.876-.142,3.8-.216,5.745-.216h0c1.953,0,3.88.075,5.756.218,1.043,1.54,2.062,3.164,3.04,4.854.989,1.709,1.9,3.4,2.72,5.062-.819,1.689-1.726,3.4-2.711,5.107Zm5.56-30.1c2.113,1.218,2.935,6.132,1.607,12.576q-.127.617-.284,1.254A64.568,64.568,0,0,0,38.8,15.547a63.317,63.317,0,0,0-5.334-6.657q.727-.7,1.451-1.331c4.658-4.054,9.012-5.654,11-4.51ZM31.548,22.381a5.634,5.634,0,1,1-5.634,5.634,5.634,5.634,0,0,1,5.634-5.634Z" transform="translate(0 0)" fill="#00d8ff"/>
        </g>
      </g>
      <g id="SVGRepo_iconCarrier-7" data-name="SVGRepo_iconCarrier" transform="translate(199.156 311.233)">
        <g id="Group_32" data-name="Group 32" transform="translate(0)">
          <path id="Path_95" data-name="Path 95" d="M22.916,15.281H41.233v1.456H24.595V27.694H40.241V29.15H24.595V41.18H41.424v1.456H22.916Zm19.958,0H44.82l8.624,12.03,8.815-12.03L74.249,0l-19.7,28.575L64.7,42.636H62.679l-9.235-12.8-9.273,12.8H42.187L52.414,28.575Zm22.553,1.456V15.281H86.3v1.456H76.684v25.9H75.005v-25.9ZM0,15.281H2.1L31.041,58.59,19.08,42.636,1.755,17.35,1.679,42.636H0Zm86.132,25.46a.609.609,0,1,1,.6-.609A.593.593,0,0,1,86.132,40.741Zm1.65-1.6h.9a.821.821,0,0,0,.89.814c.584,0,.915-.352.915-1.01V34.771H91.4v4.175a1.691,1.691,0,0,1-1.821,1.869A1.646,1.646,0,0,1,87.781,39.138Zm4.815-.053H93.5c.078.56.625.916,1.413.916.735,0,1.274-.38,1.274-.9,0-.45-.343-.72-1.123-.9l-.76-.184c-1.066-.249-1.552-.765-1.552-1.632,0-1.051.858-1.75,2.144-1.75a1.923,1.923,0,0,1,2.124,1.693h-.89a1.126,1.126,0,0,0-1.246-.883c-.723,0-1.2.348-1.2.879,0,.421.31.662,1.078.842l.649.159c1.209.282,1.707.773,1.707,1.66,0,1.129-.874,1.836-2.271,1.836C93.54,40.815,92.662,40.14,92.6,39.085Z" transform="translate(0)"/>
        </g>
      </g>
      <g id="SVGRepo_iconCarrier-8" data-name="SVGRepo_iconCarrier" transform="translate(385.729 5.385)">
        <g id="Group_33" data-name="Group 33">
          <path id="Path_96" data-name="Path 96" d="M22.027,50.127a32.128,32.128,0,0,0-4.781,3.568c-2.491,2.353-3.013,5.616-1.7,6.379,1.216.7,4.054-.134,6.085-2.349a8.813,8.813,0,0,0,2.1-8.623c-.107.064-.211.127-.314.187l0,0-.138.078c-.53.316-.963.577-1.259.756Zm36.587-1.056c-.737,1.6-.774,2.118-.55,2.279a3.886,3.886,0,0,0,2.855-3.794,3.933,3.933,0,0,0-.211-1.188,8.634,8.634,0,0,0-2.093,2.7ZM70.1,44.225a13.418,13.418,0,0,0-6.821.789,8.178,8.178,0,0,1,.6,2.579c.08,1.922-1.242,3.344-2.621,4.359a8.7,8.7,0,0,1-2.381,1.225A3.676,3.676,0,0,1,57,53.559c-1.2-.243-1.832-1.305-1.019-3.648a12.094,12.094,0,0,1,3.752-4.86,20.1,20.1,0,0,1-1.251-2.836,23.111,23.111,0,0,1-.68-2.842,58.681,58.681,0,0,1-3.861,6.675c-.125.185-.251.366-.376.547a8.947,8.947,0,0,1,.809,3.1,4.954,4.954,0,0,1-2.132,4.387,8.69,8.69,0,0,1-2.228,1.174,7.855,7.855,0,0,1-2.592.59,2.759,2.759,0,0,1-1.729-.277,1.13,1.13,0,0,1-.308-1.515,39.775,39.775,0,0,1,3.3-4.141c.388-.463.758-.935,1.088-1.373l-.008-.019s.255-.328.668-.9a26.488,26.488,0,0,1-1.471-3.3,23.147,23.147,0,0,1-.68-2.842s-1.709,4.382-3.49,7.879c-1.378,2.709-2.3,4.351-2.713,5.07l0,.029s-.062.1-.169.269l-.08.133,0-.012c-.462.683-1.5,2.02-2.53,2.02-2.83,0-1.791-5.748-1.791-5.748s-.827,2.129-1.76,3.956c-.76,1.49-1.452,2.752-2.965,2.752a2.3,2.3,0,0,1-1.7-.557c-1.3-1.235-2.294-4.371-2.1-6.8a17.43,17.43,0,0,1,.92-4.689c-.776.423-1.674.925-2.588,1.461l-1.405.828.045.082c1.162,2.248,1.472,7.174-1.062,10.956s-7.252,6.085-11.848,4.807c-1.483-.413-3.724-3.481-1.791-7.758,1.7-3.771,8.517-7.337,10.312-8.226l.493-.271C18.478,44.525,9.54,40.3,8.287,33.81c-.353-1.827.5-6.2,5.868-11.219,4.512-4.223,10.789-7.458,16.587-9.519,9.741-3.463,20.033-1.42,21.616,4.79C53.914,23.97,48.616,31.276,41.83,33.9c-6.059,2.345-11.068,1.973-13.126,1.3a6.638,6.638,0,0,1-4.046-3.184c-.132-.341-.358-.914,0-1.112.22-.121.308-.092.9.557.559.617,2.806,2.271,7.073,1.792C43.826,32,50.573,23.29,48.441,18.6c-1.493-3.28-10.125-4.76-20.91.619C14.366,25.787,13.651,31.2,13.539,33.253c-.308,5.653,6.972,8.627,10.912,12.832l.152.167c.737-.407,1.516-.836,2.28-1.255,1.986-1.091,3.859-2.115,4.732-2.592,1.387-2.015,4.2-4.239,6.231-4.239,3.247,0,2.132,4.667,2.132,4.667s.066-.214.154-.216a1.283,1.283,0,0,1,1.452-.249c1.031.378.8,1.1.8,1.176.012.144-1.218,4.293-1.729,6.954a4.435,4.435,0,0,0-.031,2.2c.1,0,.306-.323.5-.67l0-.01s.144-.263.384-.736l.047-.1,0,0c.284-.555.682-1.371,1.142-2.382.9-1.987,4.342-9.659,4.633-10.508s.444-1.726.587-2.1,1.358-.66,2.779-.649,1.565.617,1.575.742a24.556,24.556,0,0,0-.834,3,8.846,8.846,0,0,0,.123,2.783,8.565,8.565,0,0,0,.976,2.421c1.471-2.4,4.058-7,4.307-8.292a13.977,13.977,0,0,1,.587-2.1c.144-.376,1.358-.659,2.779-.649s1.565.617,1.575.742a24.144,24.144,0,0,0-.834,3,8.849,8.849,0,0,0,.123,2.783,13.332,13.332,0,0,0,1.428,3.31,14.356,14.356,0,0,1,6.359-1.486,11.2,11.2,0,0,1,2.818.288V22.414a3.847,3.847,0,0,0-1.912-3.358L37.692.52a3.858,3.858,0,0,0-3.867,0L1.84,19.048A3.79,3.79,0,0,0,0,22.406V59.5a3.8,3.8,0,0,0,1.842,3.358L33.878,81.4a3.82,3.82,0,0,0,3.853,0l32.05-18.543a3.844,3.844,0,0,0,1.9-3.358V44.507a10.477,10.477,0,0,0-1.582-.282Zm-34.5-1.942A15.3,15.3,0,0,0,33.183,46.7c-1.091,3.3-.618,6.658.154,6.86.9.236,2.381-4.178,3.089-5.9.444-1.081,2.169-5.879,1.791-6.52-.3-.5-1.518-.1-2.625,1.144ZM48.07,53.413s-.218.206-.123.263c.127.076.4-.023.7-.179.848-.534,2.752-1.866,2.756-3.837,0-.057,0-.113-.006-.172-.442.58-.848,1.1-1.2,1.533-.6.746-2.13,2.392-2.13,2.392Z" fill="#8cc84b"/>
        </g>
      </g>
      <g id="SVGRepo_iconCarrier-9" data-name="SVGRepo_iconCarrier" transform="translate(369.419 308.227)">
        <g id="Group_39" data-name="Group 39" transform="translate(0)">
          <path id="Path_97" data-name="Path 97" d="M208.806,213.248a2.091,2.091,0,0,1-1-.262l-3.172-1.884c-.477-.262-.238-.358-.1-.405a5.778,5.778,0,0,0,1.431-.644.219.219,0,0,1,.238.024l2.432,1.455a.3.3,0,0,0,.286,0l9.515-5.509a.274.274,0,0,0,.143-.262V194.766a.274.274,0,0,0-.143-.262l-9.515-5.485a.3.3,0,0,0-.286,0l-9.515,5.485a.3.3,0,0,0-.143.262V205.76a.3.3,0,0,0,.143.262l2.6,1.5c1.407.715,2.289-.119,2.289-.954V195.72a.29.29,0,0,1,.286-.286h1.216a.29.29,0,0,1,.286.286v10.85a2.645,2.645,0,0,1-2.814,2.981,4.091,4.091,0,0,1-2.194-.6l-2.5-1.431a2.013,2.013,0,0,1-1-1.741V194.79a2.013,2.013,0,0,1,1-1.741l9.515-5.509a2.128,2.128,0,0,1,2,0l9.515,5.509a2.013,2.013,0,0,1,1,1.741v10.994a2.013,2.013,0,0,1-1,1.741l-9.515,5.509A2.44,2.44,0,0,1,208.806,213.248Zm2.933-7.56c-4.173,0-5.032-1.908-5.032-3.529a.29.29,0,0,1,.286-.286h1.24a.245.245,0,0,1,.262.238c.191,1.264.739,1.884,3.267,1.884,2,0,2.862-.453,2.862-1.526,0-.62-.238-1.073-3.362-1.383-2.6-.262-4.221-.835-4.221-2.909,0-1.932,1.622-3.076,4.34-3.076,3.052,0,4.555,1.049,4.746,3.339a.385.385,0,0,1-.072.215.294.294,0,0,1-.191.1h-1.24a.279.279,0,0,1-.262-.215c-.286-1.312-1.025-1.741-2.981-1.741-2.194,0-2.456.763-2.456,1.335,0,.692.31.906,3.267,1.288,2.933.382,4.316.93,4.316,2.981C216.485,204.5,214.768,205.688,211.739,205.688Z" transform="translate(-156.628 -148.646)" fill="#539e43"/>
          <path id="Path_98" data-name="Path 98" d="M22.886,77.652a1.213,1.213,0,0,0-.62-1.049L12.155,70.784a1.467,1.467,0,0,0-.548-.167h-.1a1.134,1.134,0,0,0-.548.167L.851,76.6a1.213,1.213,0,0,0-.62,1.049L.255,93.3a.593.593,0,0,0,.31.525.541.541,0,0,0,.6,0l6.009-3.434a1.213,1.213,0,0,0,.62-1.049V82.016a1.213,1.213,0,0,1,.62-1.049l2.552-1.479a1.155,1.155,0,0,1,.62-.167,1.024,1.024,0,0,1,.6.167l2.552,1.479a1.213,1.213,0,0,1,.62,1.049v7.321a1.213,1.213,0,0,0,.62,1.049L21.98,93.82a.582.582,0,0,0,.62,0,.593.593,0,0,0,.31-.525l-.024-15.644Z" transform="translate(-0.231 -56.046)" fill="#333"/>
          <path id="Path_99" data-name="Path 99" d="M283.93.072a.656.656,0,0,0-.6,0,.622.622,0,0,0-.31.525V16.1a.429.429,0,0,1-.644.382l-2.528-1.455a1.229,1.229,0,0,0-1.216,0l-10.111,5.843a1.213,1.213,0,0,0-.62,1.049V33.577a1.213,1.213,0,0,0,.62,1.049l10.111,5.843a1.229,1.229,0,0,0,1.216,0l10.111-5.843a1.213,1.213,0,0,0,.62-1.049V4.507a1.223,1.223,0,0,0-.62-1.073L283.93.072ZM283,29.737a.274.274,0,0,1-.143.262L279.4,32a.354.354,0,0,1-.31,0l-3.458-2a.3.3,0,0,1-.143-.262V25.731a.274.274,0,0,1,.143-.262l3.458-2a.354.354,0,0,1,.31,0l3.458,2a.3.3,0,0,1,.143.262v4.006Z" transform="translate(-212.674)" fill="#333"/>
          <g id="Group_34" data-name="Group 34" transform="translate(82.916 14.72)">
            <path id="Path_100" data-name="Path 100" d="M23.027,11.754a1.191,1.191,0,0,0,.6-1.049V7.867a1.242,1.242,0,0,0-.6-1.049L12.988,1a1.229,1.229,0,0,0-1.216,0L1.66,6.841a1.213,1.213,0,0,0-.62,1.049V19.552A1.213,1.213,0,0,0,1.66,20.6L11.7,26.325a1.184,1.184,0,0,0,1.192,0l6.081-3.386a.6.6,0,0,0,0-1.049L8.814,16.046a.621.621,0,0,1-.31-.525V11.873a.593.593,0,0,1,.31-.525l3.172-1.812a.582.582,0,0,1,.62,0l3.172,1.812a.621.621,0,0,1,.31.525v2.862a.593.593,0,0,0,.31.525.582.582,0,0,0,.62,0l6.009-3.506Z" transform="translate(-1.04 -0.838)" fill="#333"/>
            <path id="Path_101" data-name="Path 101" d="M47.356,50.947a.217.217,0,0,1,.238,0l1.932,1.121a.25.25,0,0,1,.119.215v2.242a.25.25,0,0,1-.119.215l-1.932,1.121a.217.217,0,0,1-.238,0l-1.932-1.121a.25.25,0,0,1-.119-.215V52.282a.25.25,0,0,1,.119-.215l1.932-1.121Z" transform="translate(-36.172 -40.579)" fill="#539e43"/>
          </g>
          <g id="Group_38" data-name="Group 38" transform="translate(27.615 12.806)">
            <path id="Path_102" data-name="Path 102" d="M12.314,1.23a1.229,1.229,0,0,0-1.216,0L1.058,7.025a1.191,1.191,0,0,0-.6,1.049V19.688a1.242,1.242,0,0,0,.6,1.049L11.1,26.532a1.229,1.229,0,0,0,1.216,0l10.04-5.795a1.191,1.191,0,0,0,.6-1.049V8.074a1.242,1.242,0,0,0-.6-1.049L12.314,1.23Z" transform="translate(-0.367 0.892)" fill="url(#linear-gradient-2)"/>
            <g id="Group_35" data-name="Group 35" transform="translate(0 1.958)">
              <path id="Path_103" data-name="Path 103" d="M10.707,1.215.644,7.01A1.237,1.237,0,0,0,0,8.059V19.673a1.149,1.149,0,0,0,.31.763l11.3-19.364a1.362,1.362,0,0,0-.906.143Z" transform="translate(0 -1.051)" fill="none"/>
              <path id="Path_104" data-name="Path 104" d="M56.632,50.386a1.458,1.458,0,0,0,.286-.119l10.063-5.795a1.213,1.213,0,0,0,.62-1.049V31.809a1.214,1.214,0,0,0-.358-.835L56.632,50.386Z" transform="translate(-44.947 -24.8)" fill="none"/>
              <path id="Path_105" data-name="Path 105" d="M23.2,7.185,13.116,1.391a1.656,1.656,0,0,0-.31-.119L1.5,20.635a1.255,1.255,0,0,0,.334.286l10.087,5.795a1.163,1.163,0,0,0,.93.119L23.466,7.424a1.25,1.25,0,0,0-.262-.238Z" transform="translate(-1.192 -1.226)" fill="url(#linear-gradient-3)"/>
            </g>
            <g id="Group_37" data-name="Group 37" transform="translate(0 0)">
              <g id="Group_36" data-name="Group 36" transform="translate(0 0)">
                <path id="Path_106" data-name="Path 106" d="M67.051,29V17.389a1.237,1.237,0,0,0-.644-1.049L56.32,10.545a1.054,1.054,0,0,0-.382-.143L66.98,29.265A.481.481,0,0,0,67.051,29Z" transform="translate(-44.397 -8.422)" fill="none"/>
                <path id="Path_107" data-name="Path 107" d="M.644,39.088A1.237,1.237,0,0,0,0,40.138V51.751A1.289,1.289,0,0,0,.644,52.8L10.731,58.6a1.123,1.123,0,0,0,.787.143L.715,39.065l-.072.024Z" transform="translate(0 -31.171)" fill="none"/>
                <path id="Path_108" data-name="Path 108" d="M49.841.809,49.7.881h.191Z" transform="translate(-39.443 -0.809)" fill-rule="evenodd" fill="url(#linear-gradient-4)"/>
                <path id="Path_109" data-name="Path 109" d="M24.695,29.968a1.356,1.356,0,0,0,.6-.763L14.226,10.318a1.211,1.211,0,0,0-.858.143L3.352,16.232l10.8,19.7a1.663,1.663,0,0,0,.453-.143l10.087-5.819Z" transform="translate(-2.66 -8.339)" fill-rule="evenodd" fill="url(#linear-gradient-5)"/>
                <path id="Path_110" data-name="Path 110" d="M111.024,104.253l-.072-.119v.167Z" transform="translate(-88.059 -82.814)" fill-rule="evenodd" fill="url(#linear-gradient-6)"/>
                <path id="Path_111" data-name="Path 111" d="M66.34,102.609,56.276,108.4a1.439,1.439,0,0,1-.453.143l.191.358,11.16-6.463V102.3l-.286-.477a1.108,1.108,0,0,1-.548.787Z" transform="translate(-44.305 -80.98)" fill-rule="evenodd" fill="url(#linear-gradient-7)"/>
                <path id="Path_112" data-name="Path 112" d="M66.34,102.609,56.276,108.4a1.439,1.439,0,0,1-.453.143l.191.358,11.16-6.463V102.3l-.286-.477a1.108,1.108,0,0,1-.548.787Z" transform="translate(-44.305 -80.98)" fill-rule="evenodd" fill="url(#linear-gradient-8)"/>
              </g>
            </g>
          </g>
        </g>
      </g>
      <g id="SVGRepo_iconCarrier-10" data-name="SVGRepo_iconCarrier" transform="translate(0 466.683)">
        <g id="Group_42" data-name="Group 42" transform="translate(0 0)">
          <g id="Group_41" data-name="Group 41">
            <path id="Path_113" data-name="Path 113" d="M409.137,56.846c-.132.027-.265.318-.265.477-.027,1.061-.053,3.872-.053,5.781a.2.2,0,0,0,.159.159c.4.027,1.352.053,2.174.053A5.67,5.67,0,0,0,413.327,63a2.816,2.816,0,0,0,1.405-2.652c0-2.572-1.8-3.553-4.482-3.553a4.268,4.268,0,0,0-1.114.053ZM415.979,68.7c0-2.625-1.936-4.084-5.436-4.084a15.36,15.36,0,0,0-1.538.027c-.08.027-.186.08-.186.159,0,1.883-.027,4.879.053,6.046a2,2,0,0,0,.875,1.432,6.071,6.071,0,0,0,2.307.318,3.621,3.621,0,0,0,3.925-3.9ZM403.728,55.388c.265,0,1.061.079,3.1.079,1.936,0,3.474-.053,5.357-.053,2.307,0,5.489.822,5.489,4.269a4.158,4.158,0,0,1-2.758,3.713c-.079.027-.079.079,0,.106,2.228.557,4.19,1.936,4.19,4.535,0,2.546-1.591,4.163-3.9,5.171a12.684,12.684,0,0,1-4.932.822c-1.352,0-4.985-.159-7-.106-.212-.08.186-1.034.371-1.193A4.949,4.949,0,0,0,405,72.518c.716-.186.8-.4.9-1.485.053-.928.053-4.217.053-6.55,0-3.209.027-5.383,0-6.444-.027-.822-.318-1.087-.9-1.247-.451-.079-1.193-.186-1.8-.265-.133-.133.318-1.034.477-1.14Zm-15.3,16.495a5.344,5.344,0,0,0,3,.716,5.877,5.877,0,0,0,4.243-1.511c1.406-1.273,2.387-3.235,2.387-6.364a7.6,7.6,0,0,0-3.474-6.868,9.383,9.383,0,0,0-4.986-1.167,3.972,3.972,0,0,0-1.485.186.781.781,0,0,0-.265.424c-.053.53-.053,4.614-.053,7,0,2.466,0,5.914.053,6.311a1.645,1.645,0,0,0,.583,1.273Zm-6.02-16.495c.5,0,2.44.079,3.368.079,1.671,0,2.864-.079,6.02-.079a9.811,9.811,0,0,1,6.47,2.068,8.6,8.6,0,0,1,2.944,6.789,8.886,8.886,0,0,1-3.66,7.637,12.263,12.263,0,0,1-7.611,2.148c-1.8,0-4.906-.053-7.478-.08h-.027c-.132-.238.212-1.167.424-1.193a4.216,4.216,0,0,0,1.22-.239c.557-.212.663-.5.743-1.485.079-1.83.053-4.031.053-6.524,0-1.777.027-5.251-.027-6.365-.079-.928-.477-1.167-1.273-1.326-.4-.079-.928-.186-1.671-.265-.106-.186.371-1.008.5-1.167Z" transform="translate(-272.147 -39.529)" fill="#8e714e" fill-rule="evenodd"/>
            <path id="Path_114" data-name="Path 114" d="M137.08,88.173a5.338,5.338,0,0,1-1.724-.451.809.809,0,0,1-.212-.424c-.053-.928-.053-3.58-.053-5.357a6.251,6.251,0,0,0-.849-3.553,3.621,3.621,0,0,0-3.076-1.591,7.093,7.093,0,0,0-4.031,1.909c-.027.026-.239.212-.212-.08,0-.292.053-.875.08-1.273a.689.689,0,0,0-.186-.557,17.7,17.7,0,0,1-4.11,1.061c-.636.133-.8.743-.132.955h.027a5.892,5.892,0,0,1,1.564.689.825.825,0,0,1,.239.743c.027,1.989.027,5.038-.053,6.709-.027.663-.212.9-.689,1.008l.053-.027a10.441,10.441,0,0,1-1.114.212,1.552,1.552,0,0,0,0,1.193c.292,0,1.83-.08,3.1-.08,1.75,0,2.652.08,3.1.08a1.726,1.726,0,0,0,.132-1.193,4.922,4.922,0,0,1-1.22-.186c-.477-.106-.61-.345-.637-.9-.053-1.406-.053-4.375-.053-6.391a1.277,1.277,0,0,1,.318-.981,4.011,4.011,0,0,1,2.466-.9,2.742,2.742,0,0,1,1.83.61,2.608,2.608,0,0,1,.849,1.671c.133,1.14.08,3.394.08,5.357,0,1.061-.08,1.326-.477,1.458a5.05,5.05,0,0,1-1.22.239,1.552,1.552,0,0,0,0,1.193c.769,0,1.671-.08,3-.08,1.644,0,2.7.08,3.129.08a1.846,1.846,0,0,0,.079-1.14Zm7.346-10.13c-1.406,0-2.281,1.087-2.281,2.784,0,1.724.769,3.713,2.944,3.713a2.055,2.055,0,0,0,1.379-.53,3.513,3.513,0,0,0,.849-2.44c0-2.2-1.087-3.527-2.891-3.527Zm-.186,11.721a2.279,2.279,0,0,0-1.14.292c-1.114.716-1.618,1.405-1.618,2.228a2.345,2.345,0,0,0,.928,1.909,4.711,4.711,0,0,0,3.182.981c2.7,0,3.9-1.459,3.9-2.891a2.027,2.027,0,0,0-1.538-2.042,10.715,10.715,0,0,0-3.713-.477Zm.186,6.895a5.868,5.868,0,0,1-3.792-1.114,3.5,3.5,0,0,1-1.406-2.625,2.031,2.031,0,0,1,.53-1.326,14.06,14.06,0,0,1,2.44-1.962c.053-.027.079-.053.079-.106a.176.176,0,0,0-.106-.132,2.523,2.523,0,0,1-1.724-1.671v-.053c-.026-.159-.079-.318.159-.477.186-.132.451-.292.742-.477a10.887,10.887,0,0,0,1.22-.8.2.2,0,0,0,.053-.159.176.176,0,0,0-.106-.132,3.867,3.867,0,0,1-2.784-4.057,4.026,4.026,0,0,1,1.7-3.341,7.794,7.794,0,0,1,3.819-1.3h.08a8.128,8.128,0,0,1,2.917.636,4.909,4.909,0,0,0,1.724.265,2.3,2.3,0,0,0,1.856-.689,1.447,1.447,0,0,1,.106.53,2,2,0,0,1-.345,1.22,1.506,1.506,0,0,1-1.167.5h-.133a5.9,5.9,0,0,1-.689-.106l-.106.053c-.027.053,0,.106.027.186l.027.053a9.8,9.8,0,0,1,.159,1.14,4.3,4.3,0,0,1-1.8,3.845,6.105,6.105,0,0,1-3.1,1.193,3.319,3.319,0,0,0-.371.027c-.133,0-.318.027-.345.027h-.027c-.212.053-.742.318-.742.769,0,.4.239.875,1.379.955.239.027.477.027.743.053a23.281,23.281,0,0,1,4.27.53,2.972,2.972,0,0,1,1.989,2.838c0,1.962-1.406,3.792-3.739,4.932a8.532,8.532,0,0,1-3.527.769Zm15.116-18.483a2.463,2.463,0,0,0-1.432.4c-1.034.636-1.565,1.909-1.565,3.766,0,3.474,1.75,5.914,4.243,5.914a2.7,2.7,0,0,0,1.83-.636c.769-.637,1.167-1.909,1.167-3.686,0-3.447-1.724-5.754-4.243-5.754Zm.477,11.35c-4.508,0-6.126-3.315-6.126-6.417a5.741,5.741,0,0,1,2.625-5.039,7.982,7.982,0,0,1,4.057-1.193,5.682,5.682,0,0,1,5.861,6.02,6.157,6.157,0,0,1-2.785,5.489,7.354,7.354,0,0,1-3.633,1.14Zm-47.256-11.35a2.463,2.463,0,0,0-1.432.4c-1.034.636-1.565,1.909-1.565,3.766,0,3.474,1.75,5.914,4.243,5.914a2.7,2.7,0,0,0,1.83-.636c.769-.637,1.167-1.909,1.167-3.686,0-3.447-1.7-5.754-4.243-5.754Zm.477,11.35c-4.508,0-6.126-3.315-6.126-6.417a5.741,5.741,0,0,1,2.625-5.039,7.982,7.982,0,0,1,4.057-1.193,5.682,5.682,0,0,1,5.861,6.02,6.157,6.157,0,0,1-2.785,5.489,7.184,7.184,0,0,1-3.633,1.14ZM82.929,89.26a1.136,1.136,0,0,1-.08-.61.9.9,0,0,1,.08-.4,9.723,9.723,0,0,0,1.167-.239c.53-.133.743-.424.769-1.087.08-1.591.08-4.614.053-6.709v-.053a.8.8,0,0,0-.292-.743,5.976,5.976,0,0,0-1.591-.69c-.239-.079-.4-.212-.371-.371,0-.159.159-.345.5-.4a19.42,19.42,0,0,0,4.057-1.034.656.656,0,0,1,.133.424l-.027.292c-.027.292-.053.637-.053.981a.205.205,0,0,0,.212.186.377.377,0,0,0,.159-.053,7.479,7.479,0,0,1,4.031-1.8,3.433,3.433,0,0,1,3.076,1.883.2.2,0,0,0,.186.106.189.189,0,0,0,.159-.079,8.059,8.059,0,0,1,4.163-1.909c2.466,0,3.925,1.83,3.925,4.932,0,.875,0,2.015-.027,3.05,0,.928-.027,1.777-.027,2.387a.834.834,0,0,0,.477.636,5.658,5.658,0,0,0,1.538.371h.027a2.129,2.129,0,0,1-.159,1.008,6.489,6.489,0,0,1-.663-.027c-.5-.027-1.22-.053-2.015-.053-1.644,0-2.493.027-3.315.08a2.581,2.581,0,0,1,0-1.008,8.18,8.18,0,0,0,1.008-.239c.53-.159.663-.4.69-1.087,0-.5.106-4.8-.053-5.834a2.615,2.615,0,0,0-2.7-2.307,4.7,4.7,0,0,0-2.7,1.034.472.472,0,0,0-.106.265v.027a12.258,12.258,0,0,1,.106,2.174v1.724c0,1.193-.027,2.307,0,3.156a.777.777,0,0,0,.637.822c.159.026.265.053.4.079.239.053.477.106.849.186a1.432,1.432,0,0,1-.027.743.509.509,0,0,1-.106.265c-.9-.027-1.83-.053-3.182-.053-.4,0-1.087.027-1.671.027-.477,0-.928.027-1.193.027a1.4,1.4,0,0,1-.08-.53.826.826,0,0,1,.106-.477,1.785,1.785,0,0,1,.371-.053c.318-.053.583-.106.849-.159.451-.132.61-.371.636-.954a46.02,46.02,0,0,0-.027-6.073,2.5,2.5,0,0,0-2.6-2.307,4.867,4.867,0,0,0-2.7,1.034.859.859,0,0,0-.239.61v1.565c0,1.909,0,4.3.027,5.33a.822.822,0,0,0,.743.822,5.475,5.475,0,0,0,.61.106l.477.079a2.227,2.227,0,0,1-.08,1.008c-.265,0-.583-.027-.955-.027-.557-.027-1.273-.053-2.068-.053-.928,0-1.591.027-2.122.053a6.414,6.414,0,0,0-.981-.053Z" transform="translate(-58.907 -54.786)" fill="#442d22" fill-rule="evenodd"/>
            <g id="Group_40" data-name="Group 40">
              <path id="Path_115" data-name="Path 115" d="M26.624,53.756l-1.087-.371s.133-5.542-1.856-5.94c-1.326-1.538.212-65.235,4.985-.212A3.878,3.878,0,0,0,26.73,49.46a20.455,20.455,0,0,0-.106,4.3Z" transform="translate(-16.551 -12.917)" fill="#fff" fill-rule="evenodd"/>
              <path id="Path_116" data-name="Path 116" d="M26.624,53.756l-1.087-.371s.133-5.542-1.856-5.94c-1.326-1.538.212-65.235,4.985-.212A3.878,3.878,0,0,0,26.73,49.46a20.455,20.455,0,0,0-.106,4.3Z" transform="translate(-16.551 -12.917)" fill="#a6a385" fill-rule="evenodd"/>
              <path id="Path_117" data-name="Path 117" d="M32.941,35.948s9.52-6.258,7.293-19.279C38.085,7.2,33.02,4.1,32.463,2.906A13.379,13.379,0,0,1,31.27.572l.4,26.333c0,.027-.822,8.062,1.273,9.043" transform="translate(-22.284 -0.466)" fill="#fff" fill-rule="evenodd"/>
              <path id="Path_118" data-name="Path 118" d="M32.941,35.948s9.52-6.258,7.293-19.279C38.085,7.2,33.02,4.1,32.463,2.906A13.379,13.379,0,0,1,31.27.572l.4,26.333c0,.027-.822,8.062,1.273,9.043" transform="translate(-22.284 -0.466)" fill="#499d4a" fill-rule="evenodd"/>
              <path id="Path_119" data-name="Path 119" d="M8.429,36.029S-.507,29.93.023,19.19C.527,8.45,6.838,3.173,8.058,2.218A2.469,2.469,0,0,0,8.933.2c.557,1.193.451,17.847.53,19.809C9.7,27.57,9.039,34.6,8.429,36.029Z" transform="translate(0 -0.203)" fill="#fff" fill-rule="evenodd"/>
              <path id="Path_120" data-name="Path 120" d="M8.429,36.029S-.507,29.93.023,19.19C.527,8.45,6.838,3.173,8.058,2.218A2.469,2.469,0,0,0,8.933.2c.557,1.193.451,17.847.53,19.809C9.7,27.57,9.039,34.6,8.429,36.029Z" transform="translate(0 -0.203)" fill="#58aa50" fill-rule="evenodd"/>
            </g>
          </g>
        </g>
      </g>
      <g id="SVGRepo_iconCarrier-11" data-name="SVGRepo_iconCarrier" transform="translate(31.112 175.313)">
        <g id="Group_44" data-name="Group 44" transform="translate(0 0)">
          <g id="Group_43" data-name="Group 43">
            <path id="Path_121" data-name="Path 121" d="M74.371,29.878a7.065,7.065,0,0,1-7.126,6.959H7.347A7.065,7.065,0,0,1,.221,29.878V7.715A7.065,7.065,0,0,1,7.347.756h59.9a7.065,7.065,0,0,1,7.126,6.959V29.878" transform="translate(5.148 -0.67)" fill="url(#linear-gradient-9)"/>
            <path id="Path_122" data-name="Path 122" d="M-15.94.5H68.777V36.742H-15.94" transform="translate(15.96 -0.496)" fill="none"/>
            <path id="Path_123" data-name="Path 123" d="M213.6,13.714c0-2.713.417-4.313.417-7.235,0-4.522-1.67-5.983-5.357-5.983h-2.713V3.7h.835c1.878,0,2.3.626,2.3,2.922,0,2.156-.209,4.313-.209,6.818,0,3.2,1.044,4.452,3.131,4.939v.209c-2.087.487-3.131,1.739-3.131,4.94,0,2.5.209,4.522.209,6.818,0,2.365-.487,2.991-2.3,2.991v.07h-.835v3.34h2.713c3.687,0,5.357-1.461,5.357-5.983,0-2.992-.417-4.522-.417-7.235,0-1.461.9-2.992,3.618-3.131V16.775c-2.713-.07-3.618-1.6-3.618-3.061" transform="translate(-132.484 -0.496)" fill="#faf9f8" fill-rule="evenodd"/>
            <path id="Path_124" data-name="Path 124" d="M114.166,34.972c-2.157-.835-4.1-1.322-4.1-2.713,0-1.043.835-1.67,2.365-1.67a7.513,7.513,0,0,1,4.453,1.739l2.783-3.687a11.826,11.826,0,0,0-7.3-2.713c-4.731,0-7.931,2.713-7.931,6.54,0,3.409,2.992,5.148,5.5,6.122,2.156.835,4.244,1.531,4.244,2.922,0,1.044-.835,1.739-2.713,1.739a8.711,8.711,0,0,1-5.357-2.157l-2.713,4.035a13.394,13.394,0,0,0,7.931,2.922c5.566,0,8.557-2.922,8.557-6.748s-2.991-5.426-5.7-6.331" transform="translate(-63.867 -17.51)" fill="#faf9f8" fill-rule="evenodd"/>
            <path id="Path_125" data-name="Path 125" d="M165.029,34.972c-2.087-.835-4.035-1.322-4.035-2.713,0-1.043.835-1.67,2.365-1.67a7.513,7.513,0,0,1,4.453,1.739l2.783-3.687a11.826,11.826,0,0,0-7.3-2.713c-4.731,0-7.931,2.713-7.931,6.54,0,3.409,2.992,5.148,5.5,6.122,2.157.835,4.244,1.531,4.244,2.922,0,1.044-.835,1.739-2.713,1.739a8.711,8.711,0,0,1-5.357-2.157l-2.783,4.035a13.4,13.4,0,0,0,7.931,2.922c5.566,0,8.557-2.922,8.557-6.748s-2.992-5.426-5.7-6.331" transform="translate(-97.894 -17.51)" fill="#faf9f8" fill-rule="evenodd"/>
            <path id="Path_126" data-name="Path 126" d="M50.16,34.484c.417-2.783,2.087-4.1,4.035-4.1,2.5,0,3.479,1.739,3.479,4.1Zm12.8,1.253c.07-5.635-2.992-10.018-8.836-10.018-5.079,0-9.948,4.244-9.809,10.922,0,6.888,4.522,10.922,10.505,10.922A13.856,13.856,0,0,0,62.265,45.2l-2.087-3.687a8.674,8.674,0,0,1-4.522,1.322c-2.783,0-4.94-1.322-5.5-4.522H62.752a17.969,17.969,0,0,0,.209-2.574Z" transform="translate(-24.349 -17.369)" fill="#faf9f8" fill-rule="evenodd"/>
            <path id="Path_127" data-name="Path 127" d="M3.619,25.82c-.487,0-1.113-.417-1.113-1.739V.5H-7.373C-11.13.5-12.8,1.957-12.8,6.479c0,2.991.417,4.661.417,7.235,0,1.461-.9,2.992-3.618,3.131v3.618c2.713.07,3.618,1.6,3.618,3.061,0,2.574-.417,4.1-.417,7.1,0,4.522,1.67,5.983,5.357,5.983H-4.73V33.4h-.835c-1.739,0-2.3-.7-2.3-2.991s.209-4.244.209-6.818c0-3.2-1.044-4.453-3.131-4.94v-.209c2.087-.487,3.131-1.739,3.131-4.94,0-2.5-.209-4.522-.209-6.818s.487-2.922,2.3-2.922h1.878V23.733c0,4.244,1.461,7.027,5.7,7.027a9.214,9.214,0,0,0,3.131-.487l-.7-4.522a4.347,4.347,0,0,1-.835.07" transform="translate(16 -0.496)" fill="#faf9f8" fill-rule="evenodd"/>
          </g>
        </g>
      </g>
      <g id="SVGRepo_iconCarrier-12" data-name="SVGRepo_iconCarrier" transform="translate(356.72 442.091)">
        <path id="Path_128" data-name="Path 128" d="M-18.458,6.58h130.2V96.824h-130.2Z" transform="translate(18.458 -6.58)" fill="none"/>
        <path id="Path_129" data-name="Path 129" d="M29.773,103.724H26.248Q26.061,94.8,25.219,86.94h-.031l-5.367,16.785H17.137L11.8,86.94h-.031q-.594,7.548-.749,16.785H7.81q.311-11.232,1.559-21.06h4.369l5.085,15.475h.031L23.97,82.664h4.18q1.373,11.513,1.622,21.06M45.059,88.186q-2.153,11.682-5.679,16.979-2.746,4.079-6.021,4.08a5.919,5.919,0,0,1-2.152-.524v-1.878a10.367,10.367,0,0,0,1.466.094,3.543,3.543,0,0,0,2.466-.843,3.076,3.076,0,0,0,1.122-2.308,15.355,15.355,0,0,0-.873-3.588L31.519,88.185h3.463l2.776,8.984a12.123,12.123,0,0,1,.78,4.276,58.685,58.685,0,0,0,3.183-13.26h3.338Z" transform="translate(10.082 -30.84)" fill="#5d87a1"/>
        <path id="Path_130" data-name="Path 130" d="M110.455,103.577H100.442V82.517h3.368v18.468h6.645Zm-12.634.509-3.872-1.911a7.2,7.2,0,0,0,.967-.941q2.468-2.9,2.466-8.578,0-10.451-8.2-10.453a7.77,7.77,0,0,0-6.271,2.653q-2.466,2.9-2.465,8.549,0,5.553,2.183,8.14,2,2.341,6.023,2.342a9.7,9.7,0,0,0,2.757-.37l5.04,2.934ZM85.279,99.363Q84,97.306,84,92.751q0-7.954,4.836-7.957a4.057,4.057,0,0,1,3.712,1.9q1.277,2.061,1.28,6.552,0,8.019-4.835,8.02a4.049,4.049,0,0,1-3.713-1.9m-6.3-1.623a5.587,5.587,0,0,1-1.964,4.4,7.737,7.737,0,0,1-5.27,1.716,10.554,10.554,0,0,1-5.99-1.967l.905-1.808a10.247,10.247,0,0,0,4.521,1.247,4.749,4.749,0,0,0,2.98-.839A2.861,2.861,0,0,0,75.3,98.149c0-1.251-.873-2.321-2.473-3.216-1.476-.811-4.428-2.505-4.428-2.505A5.041,5.041,0,0,1,66,87.947a5.232,5.232,0,0,1,1.793-4.133,6.757,6.757,0,0,1,4.634-1.577,9.607,9.607,0,0,1,5.333,1.56l-.812,1.809a10.311,10.311,0,0,0-4.053-.873,3.611,3.611,0,0,0-2.493.781,2.609,2.609,0,0,0-.945,2c0,1.245.891,2.328,2.535,3.242,1.5.812,4.521,2.536,4.521,2.536a4.977,4.977,0,0,1,2.46,4.451" transform="translate(-8.393 -30.694)" fill="#f8981d"/>
        <path id="Path_131" data-name="Path 131" d="M121.458,59.011a11.759,11.759,0,0,0-4.937.713c-.382.153-.99.153-1.043.636.206.2.23.534.409.816a5.912,5.912,0,0,0,1.323,1.55c.533.409,1.069.813,1.63,1.17.99.612,2.112.969,3.076,1.579.562.355,1.12.814,1.683,1.2.277.2.454.534.813.661v-.078c-.18-.229-.231-.56-.407-.815l-.764-.737a12.11,12.11,0,0,0-2.646-2.569c-.815-.561-2.6-1.324-2.927-2.263l-.052-.052a10.137,10.137,0,0,0,1.756-.411c.866-.228,1.655-.176,2.543-.4.409-.1.814-.23,1.224-.356v-.23c-.46-.458-.789-1.067-1.273-1.5a33.88,33.88,0,0,0-4.2-3.13c-.79-.51-1.806-.838-2.648-1.272-.3-.153-.814-.229-.992-.484a10.366,10.366,0,0,1-1.044-1.96c-.736-1.4-1.45-2.95-2.085-4.429a27.522,27.522,0,0,0-1.3-2.9,25.664,25.664,0,0,0-9.847-9.516A12.2,12.2,0,0,0,96.5,33.183l-1.909-.1a10.116,10.116,0,0,1-1.171-.892c-1.452-.915-5.191-2.9-6.259-.28-.688,1.656,1.018,3.284,1.6,4.124a11.7,11.7,0,0,1,1.3,1.909c.179.433.23.892.409,1.349a30.479,30.479,0,0,0,1.323,3.41,12.142,12.142,0,0,0,.941,1.575c.2.282.56.407.638.866a7.3,7.3,0,0,0-.586,1.908,11.213,11.213,0,0,0,.74,8.55c.406.636,1.375,2.037,2.67,1.5,1.147-.458.893-1.908,1.223-3.18.076-.307.026-.509.178-.71v.05c.355.712.713,1.4,1.042,2.112a14.508,14.508,0,0,0,3.309,3.407c.61.46,1.093,1.248,1.856,1.529v-.076h-.05a2.851,2.851,0,0,0-.584-.507,12.355,12.355,0,0,1-1.323-1.526,32.776,32.776,0,0,1-2.849-4.632c-.41-.79-.764-1.654-1.094-2.443-.154-.3-.154-.764-.409-.917a9.518,9.518,0,0,0-1.22,1.729,14.393,14.393,0,0,0-.715,3.846l-.1.049c-.811-.2-1.093-1.042-1.4-1.754a11.021,11.021,0,0,1-.229-6.8c.177-.533.943-2.213.638-2.721-.153-.487-.663-.764-.942-1.148a10.343,10.343,0,0,1-.917-1.628c-.61-1.424-.917-3-1.575-4.426A13.707,13.707,0,0,0,89.759,35.4a12.607,12.607,0,0,1-1.4-1.984c-.127-.28-.3-.738-.1-1.042a.405.405,0,0,1,.356-.332c.33-.279,1.272.076,1.6.229a12.893,12.893,0,0,1,2.52,1.272c.356.255.738.739,1.2.866h.535c.813.177,1.729.049,2.494.279a16.381,16.381,0,0,1,3.665,1.755,22.578,22.578,0,0,1,7.937,8.7c.3.584.434,1.12.712,1.729.536,1.248,1.2,2.52,1.731,3.741a16.765,16.765,0,0,0,1.808,3.409c.381.534,1.911.814,2.6,1.094a17.949,17.949,0,0,1,1.755.711c.866.533,1.728,1.146,2.542,1.732.405.305,1.679.941,1.755,1.451M95.5,36.9a3.964,3.964,0,0,0-1.041.128v.051h.049a8.3,8.3,0,0,0,.815,1.044c.205.408.383.813.584,1.22l.049-.05a1.43,1.43,0,0,0,.537-1.272,5.816,5.816,0,0,1-.307-.534c-.15-.255-.48-.381-.686-.586" transform="translate(-15.168 -14.241)" fill="#5d87a1"/>
        <path id="Path_132" data-name="Path 132" d="M138.8,112.37h.527v-2.58h-.791l-.645,1.761-.7-1.761h-.761v2.58h.5v-1.963h.028l.734,1.963h.379l.732-1.963Zm-4.247,0h.558v-2.143h.73v-.438H133.8v.438h.759v2.143Z" transform="translate(-30.09 -39.489)" fill="#f8981d"/>
      </g>
    </g>
    <g id="Group_55" data-name="Group 55">
      <path id="Path_138" data-name="Path 138" d="M1.263,162.7,2.567,0V648.779l-1.3-186.685Z" transform="translate(1331.003 232.703)" fill="#cbcbcb"/>
      <path id="Path_137" data-name="Path 137" d="M0,0,1.046,160.274l.232,297.851L0,648.779Z" transform="translate(1508.771 237.956)" fill="#cbcbcb"/>
      <path id="Path_136" data-name="Path 136" d="M1.483,0,0,176.272V354.22L1.483,528.83Z" transform="translate(1154.959 398.483) rotate(-90)" fill="#cbcbcb"/>
      <path id="Path_135" data-name="Path 135" d="M0,0,1.815,174.586V357.527L0,528.83Z" transform="translate(1151.457 545.815) rotate(-90)" fill="#cbcbcb"/>
      <path id="Path_134" data-name="Path 134" d="M0,0,1.249,104.7v334.65L0,528.83Z" transform="translate(1151.457 693.25) rotate(-90)" fill="#cbcbcb"/>
    </g>
  </g>
</svg>
