<svg width="800" height="800" viewBox="0 0 800 800" fill="none" xmlns="http://www.w3.org/2000/svg">
<path d="M77.1239 184.418H656.065C675.085 184.418 690.648 199.979 690.648 219.001V575.638H42.5424V219.001C42.5424 199.981 58.1034 184.418 77.1239 184.418Z" fill="#666666"/>
<path d="M66.0254 552.153H667.168V219.001C667.168 212.945 662.126 207.903 656.07 207.903H77.1286C71.0723 207.903 66.0301 212.945 66.0301 219.001V552.153H66.0254Z" fill="white"/>
<path d="M78.4661 255.43H654.727V388.827H78.4661V255.43Z" fill="#ECF0F1"/>
<path d="M11.0657 575.638H722.126V595.61C722.126 606.593 713.137 615.582 702.154 615.582H31.033C20.0501 615.582 11.061 606.593 11.061 595.61V575.638H11.0657Z" fill="#B6B6B8"/>
<path d="M295.625 582.936H437.564L422.359 593.035H310.827L295.622 582.936H295.625Z" fill="#919191"/>
<path d="M517.391 309.996H730.039C736.783 309.996 742.248 315.461 742.248 322.205V603.371C742.248 610.115 736.783 615.58 730.039 615.58H517.391C510.647 615.58 505.181 610.115 505.181 603.371V322.205C505.181 315.461 510.648 309.996 517.391 309.996Z" fill="#666666"/>
<path d="M520.025 331.622H727.407C728.19 331.622 728.825 332.257 728.825 333.039V585.553C728.825 586.336 728.19 586.971 727.407 586.971H520.025C519.242 586.971 518.608 586.336 518.608 585.553V333.041C518.608 332.258 519.242 331.622 520.025 331.622Z" fill="white"/>
<path d="M623.719 608.727C628.117 608.727 631.682 605.162 631.682 600.764C631.682 596.367 628.117 592.802 623.719 592.802C619.322 592.802 615.757 596.367 615.757 600.764C615.757 605.162 619.322 608.727 623.719 608.727Z" fill="#B6B6B8"/>
<path d="M529.673 363.252H717.764V474.112H529.673V363.252Z" fill="#ECF0F1"/>
<path d="M684.223 419.371H782.741C786.164 419.371 788.937 422.146 788.937 425.568V609.385C788.937 612.808 786.162 615.582 782.741 615.582H684.223C680.799 615.582 678.026 612.807 678.026 609.385V425.568C678.026 422.146 680.799 419.371 684.223 419.371Z" fill="#666666"/>
<path d="M688.837 437.737H778.126C778.464 437.737 778.737 438.01 778.737 438.348V596.602C778.737 596.939 778.464 597.213 778.126 597.213H688.837C688.499 597.213 688.226 596.939 688.226 596.602V438.346C688.226 438.01 688.501 437.737 688.837 437.737Z" fill="white"/>
<path d="M733.489 611.171C736.583 611.171 739.092 608.662 739.092 605.568C739.092 602.473 736.583 599.964 733.489 599.964C730.394 599.964 727.885 602.473 727.885 605.568C727.885 608.662 730.394 611.171 733.489 611.171Z" fill="#B6B6B8"/>
<path d="M718.493 429.484H748.468C749.225 429.484 749.837 430.096 749.837 430.853V430.857C749.837 431.613 749.225 432.226 748.468 432.226H718.493C717.737 432.226 717.125 431.613 717.125 430.857V430.853C717.125 430.096 717.737 429.484 718.493 429.484Z" fill="#B6B6B8"/>
<path d="M667.169 245.048H66.0254V219.001C66.0254 212.945 71.0676 207.903 77.1239 207.903H656.065C662.121 207.903 667.163 212.945 667.163 219.001V245.047H667.169V245.048Z" fill="#21D0C3"/>
<path d="M322.566 218.534H630.504C632.774 218.534 634.622 220.387 634.622 222.653V230.295C634.622 232.565 632.769 234.414 630.504 234.414H322.566C320.296 234.414 318.447 232.561 318.447 230.295V222.653C318.447 220.387 320.299 218.534 322.566 218.534Z" fill="white"/>
<path d="M91.6005 218.251C96.7443 218.251 100.916 222.42 100.916 227.567C100.916 232.714 96.7443 236.883 91.6005 236.883C86.4521 236.883 82.277 232.714 82.277 227.567C82.277 222.42 86.4489 218.251 91.6005 218.251Z" fill="#ECF0F1"/>
<path d="M128.376 218.251C133.524 218.251 137.691 222.42 137.691 227.567C137.691 232.714 133.523 236.883 128.376 236.883C123.232 236.883 119.06 232.714 119.06 227.567C119.06 222.42 123.232 218.251 128.376 218.251Z" fill="#ECF0F1"/>
<path d="M165.16 218.251C170.304 218.251 174.476 222.42 174.476 227.567C174.476 232.714 170.304 236.883 165.16 236.883C160.007 236.883 155.837 232.714 155.837 227.567C155.837 222.42 160.007 218.251 165.16 218.251Z" fill="#ECF0F1"/>
<path d="M142.421 421.01C157.27 421.01 169.303 433.043 169.303 447.892C169.303 462.735 157.27 474.773 142.421 474.773C127.577 474.773 115.544 462.735 115.544 447.892C115.544 433.043 127.577 421.01 142.421 421.01Z" fill="#FF5B62"/>
<path d="M281.297 421.01C296.141 421.01 308.174 433.043 308.174 447.892C308.174 462.735 296.141 474.773 281.297 474.773C266.453 474.773 254.42 462.735 254.42 447.892C254.42 433.043 266.453 421.01 281.297 421.01Z" fill="#21D0C3"/>
<path d="M103.855 486.298H180.996V490.483H103.855V486.298ZM103.855 512.595H155.668V516.78H103.855V512.595ZM103.855 499.448H180.996V503.63H103.855V499.448Z" fill="#DCE3DB"/>
<path d="M242.733 486.298H319.869V490.483H242.733V486.298ZM242.733 512.595H294.55V516.78H242.733V512.595ZM242.733 499.448H319.869V503.63H242.733V499.448Z" fill="#DCE3DB"/>
<path d="M428.712 421.01C443.556 421.01 455.589 433.043 455.589 447.892C455.589 462.735 443.556 474.773 428.712 474.773C413.868 474.773 401.835 462.735 401.835 447.892C401.834 433.043 413.867 421.01 428.712 421.01Z" fill="#FAD24D"/>
<path d="M390.146 486.298H467.282V490.483H390.146V486.298ZM390.146 512.595H441.964V516.78H390.146V512.595ZM390.146 499.448H467.282V503.63H390.146V499.448Z" fill="#DCE3DB"/>
<path d="M567.133 490.083C576.346 490.083 583.817 497.554 583.817 506.767C583.817 515.98 576.35 523.451 567.133 523.451C557.92 523.451 550.448 515.98 550.448 506.767C550.448 497.553 557.917 490.083 567.133 490.083Z" fill="#FF5B62"/>
<path d="M543.194 530.608H591.072V533.994H543.194V530.608ZM543.194 551.883H575.355V555.269H543.194V551.883ZM543.194 541.242H591.072V544.628H543.194V541.242Z" fill="#DCE3DB"/>
<path d="M632.254 490.083C641.466 490.083 648.938 497.554 648.938 506.767C648.938 515.98 641.466 523.451 632.254 523.451C623.041 523.451 615.569 515.98 615.569 506.767C615.569 497.553 623.041 490.083 632.254 490.083Z" fill="#21D0C3"/>
<path d="M608.314 530.608H656.193V533.994H608.314V530.608ZM608.314 551.883H640.476V555.269H608.314V551.883ZM608.314 541.242H656.193V544.628H608.314V541.242Z" fill="#DCE3DB"/>
<path d="M728.826 355.911H518.603V333.043C518.603 332.26 519.237 331.625 520.02 331.625H727.403C728.186 331.625 728.82 332.26 728.82 333.043V355.911H728.826Z" fill="#21D0C3"/>
<path d="M534.186 338.533C537.211 338.533 539.658 340.98 539.658 344C539.658 347.021 537.211 349.468 534.186 349.468C531.166 349.468 528.719 347.021 528.719 344C528.719 340.98 531.169 338.533 534.186 338.533Z" fill="#ECF0F1"/>
<path d="M549.58 338.533C552.6 338.533 555.047 340.98 555.047 344C555.047 347.021 552.6 349.468 549.58 349.468C546.56 349.468 544.113 347.021 544.113 344C544.113 340.98 546.56 338.533 549.58 338.533Z" fill="#ECF0F1"/>
<path d="M564.974 338.533C567.994 338.533 570.441 340.98 570.441 344C570.441 347.021 567.994 349.468 564.974 349.468C561.953 349.468 559.506 347.021 559.506 344C559.506 340.98 561.956 338.533 564.974 338.533Z" fill="#ECF0F1"/>
<path d="M595.658 339.755H720.673C721.595 339.755 722.345 340.747 722.345 341.96V346.05C722.345 347.263 721.595 348.255 720.673 348.255H595.658C594.736 348.255 593.986 347.263 593.986 346.05V341.96C593.986 340.747 594.736 339.755 595.658 339.755Z" fill="white"/>
<path d="M778.737 448.348H688.226V438.348C688.226 438.007 688.501 437.737 688.837 437.737H778.126C778.464 437.737 778.737 438.007 778.737 438.348V448.348Z" fill="#21D0C3"/>
<path d="M694.62 439.532C696.349 439.532 697.746 440.929 697.746 442.659C697.746 444.384 696.349 445.785 694.62 445.785C692.895 445.785 691.493 444.384 691.493 442.659C691.493 440.929 692.895 439.532 694.62 439.532Z" fill="white"/>
<path d="M703.42 439.532C705.15 439.532 706.546 440.929 706.546 442.659C706.546 444.384 705.15 445.785 703.42 445.785C701.69 445.785 700.293 444.384 700.293 442.659C700.293 440.929 701.693 439.532 703.42 439.532Z" fill="#ECF0F1"/>
<path d="M712.218 439.532C713.948 439.532 715.345 440.929 715.345 442.659C715.345 444.384 713.948 445.785 712.218 445.785C710.493 445.785 709.092 444.384 709.092 442.659C709.092 440.929 710.493 439.532 712.218 439.532Z" fill="#ECF0F1"/>
<path d="M724.928 439.937H775.253C775.928 439.937 776.473 440.484 776.473 441.157V444.428C776.473 445.103 775.926 445.648 775.253 445.648H724.928C724.253 445.648 723.707 445.101 723.707 444.428V441.157C723.707 440.485 724.254 439.937 724.928 439.937Z" fill="white"/>
<path d="M692.617 451.775H774.348V499.948H692.617V451.775Z" fill="#ECF0F1"/>
<path d="M735.882 509.825C744.261 509.825 751.051 516.616 751.051 524.997C751.051 533.375 744.261 540.169 735.882 540.169C727.504 540.169 720.714 533.378 720.714 524.997C720.715 516.619 727.506 509.825 735.882 509.825Z" fill="#FAD24D"/>
<path d="M709.554 551.216H762.211V554.936H709.554V551.216ZM709.554 574.617H744.929V578.338H709.554V574.617ZM709.554 562.916H762.211V566.636H709.554V562.916Z" fill="#DCE3DB"/>
<path d="M63.0051 615.582H736.998C734.765 619.066 732.462 622.496 730.126 625.905H69.8817C67.5457 622.496 65.2395 619.065 63.0051 615.582Z" fill="#EDB937"/>
<path d="M597.13 318.683H650.307C651.063 318.683 651.676 319.296 651.676 320.052V320.057C651.676 320.813 651.063 321.425 650.307 321.425H597.13C596.374 321.425 595.761 320.813 595.761 320.057V320.052C595.761 319.297 596.374 318.683 597.13 318.683Z" fill="#B6B6B8"/>
</svg>
