<svg id="SVGRepo_iconCarrier" xmlns="http://www.w3.org/2000/svg" width="45" height="45" viewBox="0 0 45 45">
  <g id="Group_8" data-name="Group 8">
    <path id="Path_12" data-name="Path 12" d="M-143,145v45h45V145Zm42.363,42.363h-39.727V147.637h39.727Z" transform="translate(143 -145)"/>
    <path id="Path_13" data-name="Path 13" d="M-8.235,293.947a9.75,9.75,0,0,1,.194-2.6c.221-.918,1.457-6.153,1.457-6.153a4.335,4.335,0,0,1-.362-1.783c0-1.677.971-2.922,2.181-2.922a1.515,1.515,0,0,1,1.528,1.7,24.626,24.626,0,0,1-1,4.008,1.745,1.745,0,0,0,1.784,2.172c2.146,0,3.586-2.746,3.586-6,0-2.472-1.669-4.326-4.707-4.326a5.349,5.349,0,0,0-5.564,5.412,3.275,3.275,0,0,0,.742,2.216.533.533,0,0,1,.159.627c-.053.2-.177.706-.23.909a.392.392,0,0,1-.565.283c-1.581-.644-2.314-2.375-2.314-4.317,0-3.214,2.711-7.063,8.081-7.063,4.319,0,7.153,3.125,7.153,6.471,0,4.432-2.464,7.742-6.1,7.742a3.27,3.27,0,0,1-2.764-1.4s-.654,2.6-.795,3.108a9.259,9.259,0,0,1-1.139,2.419,11.306,11.306,0,0,0,3.206.468,11.3,11.3,0,0,0,11.3-11.3A11.29,11.29,0,0,0-3.7,272.3,11.3,11.3,0,0,0-15,283.6,11.3,11.3,0,0,0-8.235,293.947Z" transform="translate(26.2 -261.105)" stroke="#000" stroke-width="1"/>
  </g>
</svg>
